<?xml version="1.0" encoding="utf-8"?>
<!-- Generator: Adobe Illustrator 19.2.1, SVG Export Plug-In . SVG Version: 6.00 Build 0)  -->
<svg version="1.1" id="Layer_1" xmlns="http://www.w3.org/2000/svg" xmlns:xlink="http://www.w3.org/1999/xlink" x="0px" y="0px"
	 viewBox="0 0 48.6 71.5" style="enable-background:new 0 0 48.6 71.5;" xml:space="preserve">
<style type="text/css">
	.st0{fill-rule:evenodd;clip-rule:evenodd;fill:#BBBDBF;}
	.st1{fill:none;stroke:#231F20;stroke-width:0.216;stroke-miterlimit:22.9256;}
	.st2{fill:#BBBDBF;}
	.st3{font-family:'FuturaBT-Bold';}
	.st4{font-size:4.1239px;}
	.st5{font-family:'FrizQuadrataTT';}
	.st6{font-size:4.1242px;}
	.st7{font-size:4.1241px;}
	.st8{font-size:4.124px;}
	.st9{font-size:4.1238px;}
	.st10{fill-rule:evenodd;clip-rule:evenodd;fill:#FFFFFF;}
	.st11{fill-rule:evenodd;clip-rule:evenodd;fill:#231F6F;}
	.st12{fill-rule:evenodd;clip-rule:evenodd;fill:#EC1C24;}
	.st13{fill:#EC1C24;}
	.st14{font-family:'Cambria-Bold';}
	.st15{font-size:5.3708px;}
	.st16{fill:#231F6F;}
	.st17{font-size:2.9397px;}
</style>
<g>
	<path class="st0" d="M22.8,69c18.5-8.3,25.8-29.4,20.7-49.3c-4.2-1.9-8.7-3.2-13.9-4.4c-0.5-0.1,0.3-3.4-0.8-5.3
		c-1.2-1.9-4.3-2.4-4.8-2.4c-1-0.1-2,6.7-3,6.6C13.8,14,9.6,16.2,1.5,19.7C-2.3,39.2,3.2,61.2,22.8,69"/>
	<path class="st0" d="M5.3,33c-1.2,4.2,5.1,4,7.4,2.7C8.9,39.8,1.5,36.7,5.3,33"/>
	<path class="st0" d="M38.7,31.3c-0.9,0.9-2.7,1.3-4.2,0.9c0.5-0.2,0.9-0.6,1.1-1.1C36.6,31.5,37.5,31.6,38.7,31.3"/>
	<path class="st0" d="M10.1,30.3c-1.9,0.6-4,1.6-5.6,3.6c0.3-0.8,0.7-1.4,1.1-1.9c10.2-11,27.1,4.5,33.6-1.1
		c-1.7,3.9-13,1.4-18.4-0.1C17.5,29.8,13.7,29.7,10.1,30.3"/>
	<path class="st0" d="M28.4,47.3h-4.2c0-5.2,0-10.3,0-15.5c1.6,0.5,2.6,0.7,4.2,0.8L28.4,47.3z"/>
	<line class="st1" x1="28.1" y1="38" x2="28.1" y2="41"/>
	<path class="st0" d="M40.9,47.2l-10.1-8.5l6.2-5.9c-1.2,0.4-2.7,0.6-3.9,0.5l-4.9,4.6V41l0.3,0.3l7.3,5.9H40.9z"/>
	<rect x="19" y="30.3" class="st0" width="4.1" height="16.9"/>
	<path class="st0" d="M17.6,44c0.1-2,0-8.6,0.1-13.1c-1.3-0.1-2.4-0.2-4.1-0.4c0,4.6,0.1,11.5,0,13.6c-0.5,2.2-3.9,1.8-5.6,0.1
		c-0.4,0.5-0.8,1-1.2,1.5c1.7,1.5,3.7,2.2,5.8,2.2C15.3,47.6,17.5,46,17.6,44"/>
	<text transform="matrix(-0.1045 -0.9945 0.9945 -0.1045 44.9235 28.4855)" class="st2 st3 st4">İ</text>
	<text transform="matrix(-6.980000e-002 -0.9976 0.9976 -6.980000e-002 45.1521 29.7471)" class="st2 st5 st6">J</text>
	<text transform="matrix(-3.490000e-002 -0.9994 0.9994 -3.490000e-002 45.1345 31.9147)" class="st2 st5 st7">E</text>
	<text transform="matrix(0 -1 1 0 45.0116 34.075)" class="st2 st5 st8">L</text>
	<text transform="matrix(8.720000e-002 -0.9962 0.9962 8.720000e-002 44.5969 37.4494)" class="st2 st5 st7">O</text>
	<text transform="matrix(0.1736 -0.9848 0.9848 0.1736 44.1139 39.7173)" class="st2 st5 st8">K</text>
	<text transform="matrix(0.1908 -0.9816 0.9816 0.1908 43.9942 40.9603)" class="st2 st5 st4"> </text>
	<text transform="matrix(0.2419 -0.9703 0.9703 0.2419 43.2874 43.291)" class="st2 st5 st8">R</text>
	<text transform="matrix(0.2756 -0.9613 0.9613 0.2756 42.5348 45.3186)" class="st2 st5 st7">E</text>
	<text transform="matrix(0.3584 -0.9336 0.9336 0.3584 41.4349 47.623)" class="st2 st5 st7">Z</text>
	<text transform="matrix(0.3907 -0.9205 0.9205 0.3907 40.5029 49.7249)" class="st2 st5 st8">E</text>
	<text transform="matrix(0.4848 -0.8746 0.8746 0.4848 39.521 51.6429)" class="st2 st5 st8">T</text>
	<text transform="matrix(0.515 -0.8572 0.8572 0.515 39.0048 52.7564)" class="st2 st5 st7"> </text>
	<text transform="matrix(0.5592 -0.829 0.829 0.5592 37.7361 54.5851)" class="st2 st5 st4">E</text>
	<text transform="matrix(0.5878 -0.809 0.809 0.5878 36.3184 56.1769)" class="st2 st5 st8">L</text>
	<text transform="matrix(0.6691 -0.7431 0.7431 0.6691 34.1246 58.2727)" class="st2 st5 st9">A</text>
	<text transform="matrix(0.7071 -0.7071 0.7071 0.7071 33.396 59.103)" class="st2 st5 st8">J</text>
	<text transform="matrix(-5.230000e-002 0.9986 -0.9986 -5.230000e-002 2.2995 28.5492)" class="st2 st5 st4">J</text>
	<text transform="matrix(0 1 -1 0 2.2279 29.7391)" class="st2 st5 st8">A</text>
	<text transform="matrix(5.230000e-002 0.9986 -0.9986 5.230000e-002 2.7573 32.2854)" class="st2 st5 st4">L</text>
	<text transform="matrix(8.720000e-002 0.9962 -0.9962 8.720000e-002 3.0015 34.3812)" class="st2 st5 st7">E</text>
	<text transform="matrix(0.1219 0.9925 -0.9925 0.1219 3.3181 36.524)" class="st2 st5 st4"> </text>
	<text transform="matrix(0.1564 0.9877 -0.9877 0.1564 3.2103 37.7061)" class="st2 st5 st7">T</text>
	<text transform="matrix(0.1908 0.9816 -0.9816 0.1908 3.6599 40.0241)" class="st2 st5 st4">E</text>
	<text transform="matrix(0.2588 0.9659 -0.9659 0.2588 4.1173 42.1641)" class="st2 st5 st4">Z</text>
	<text transform="matrix(0.2924 0.9563 -0.9563 0.2924 5.0176 44.5239)" class="st2 st5 st7">E</text>
	<text transform="matrix(0.3746 0.9272 -0.9272 0.3746 5.7425 46.587)" class="st2 st5 st7">R</text>
	<text transform="matrix(0.4226 0.9063 -0.9063 0.4226 6.7187 48.81)" class="st2 st5 st8"> </text>
	<text transform="matrix(0.4695 0.8829 -0.8829 0.4695 6.9914 50.1121)" class="st2 st5 st4">K</text>
	<text transform="matrix(0.5446 0.8387 -0.8387 0.5446 8.2582 52.1075)" class="st2 st5 st7">O</text>
	<text transform="matrix(0.5878 0.809 -0.809 0.5878 10.1266 54.8129)" class="st2 st5 st8">L</text>
	<text transform="matrix(0.6691 0.7431 -0.7431 0.6691 11.6469 56.6909)" class="st2 st5 st9">E</text>
	<text transform="matrix(0.7071 0.7071 -0.7071 0.7071 13.1777 58.3552)" class="st2 st5 st8">J</text>
	<text transform="matrix(0.7431 0.6691 -0.6691 0.7431 13.9475 59.2566)" class="st2 st3 st9">İ</text>
	<path class="st10" d="M24.2,69.3C42.6,61,50,40,44.9,20.1c-4.2-1.9-8.7-3.2-13.9-4.4c-0.5-0.1,0.3-3.4-0.8-5.3
		C29,8.6,25.8,8.1,25.4,8c-1-0.1-2,6.7-3,6.6c-7.3-0.3-11.5,1.9-19.6,5.4C-1,39.5,4.6,61.6,24.2,69.3"/>
	<path class="st11" d="M3.3,20.3c-3.8,19.2,1.7,40.9,21,48.6c18.2-8.2,25.5-29,20.4-48.6c-4.4-2-9.1-3.4-14-4.1
		c0.4-0.9,0.7-1.7,1-2.6c5.3,0.8,10.3,2.3,15.1,4.4c5.5,21.6-2.5,44.4-22.5,53.4C3.1,63.1-2.9,39.2,1.2,18.1
		c5.1-2.2,10.2-3.7,15.1-4.4c-0.7,0.9-1.4,2-1.8,3C10.8,17.5,7.1,18.7,3.3,20.3"/>
	<path class="st11" d="M15.6,27.9c-2-10.1,7.2-18,9.8-19.9C18.4,9.2,9.3,18.2,15.6,27.9"/>
	<path class="st11" d="M30.7,16.4C34.1,9.2,32.4,4.7,27.7,0c0.3,1.1,1.2,4.9-1.9,5.7C28,6.9,30.8,13.3,30.7,16.4"/>
	<path class="st12" d="M23.4,4.4c2.2,7.2-8.4,8.6-8,19.5c1.6-6.7,12.1-8.6,10-15.8c1.5,0.1,3.7,2,4.5,4.4C30.5,9.1,27,5.4,23.4,4.4"
		/>
	<path class="st12" d="M6.8,33.4c-1.2,4.2,5.1,4,7.4,2.7C10.4,40.3,3,37.1,6.8,33.4"/>
	<path class="st12" d="M40.3,31.8c-0.9,0.9-2.7,1.3-4.2,0.9c0.5-0.2,0.9-0.6,1.1-1.1C38.1,31.9,39.1,32,40.3,31.8"/>
	<path class="st11" d="M11.7,30.8c-1.9,0.6-4,1.6-5.6,3.6c0.3-0.8,0.7-1.4,1.1-1.9c10.2-11,27.1,4.5,33.6-1.1
		c-1.7,3.9-13,1.4-18.4-0.1C19,30.2,15.2,30.1,11.7,30.8"/>
	<path class="st11" d="M30,47.7h-4.2c0-5.2,0-10.3,0-15.5c1.6,0.5,2.6,0.7,4.2,0.8L30,47.7z"/>
	<line class="st1" x1="29.7" y1="38.5" x2="29.7" y2="41.5"/>
	<path class="st11" d="M42.4,47.6l-10.1-8.5l6.2-5.9c-1.2,0.4-2.7,0.6-3.9,0.5l-4.9,4.6v3.2l0.3,0.3l7.3,5.9H42.4z"/>
	<rect x="20.5" y="30.8" class="st11" width="4.1" height="16.9"/>
	<path class="st11" d="M19.1,44.5c0.1-2,0-8.6,0.1-13.1c-1.3-0.1-2.4-0.2-4.1-0.4c0,4.6,0.1,11.5,0,13.6c-0.5,2.2-3.9,1.8-5.6,0.1
		c-0.4,0.5-0.8,1-1.2,1.5c1.7,1.5,3.7,2.2,5.8,2.2C16.8,48.1,19,46.5,19.1,44.5"/>
	<text transform="matrix(1 0 0 1 10.2523 53.9334)" class="st13 st14 st15">J</text>
	<text transform="matrix(1 0 0 1 11.9154 53.9334)" class="st13 st14 st15">ALE TEZER </text>
	<text transform="matrix(1 0 0 1 10.809 57.203)" class="st16 st14 st17">E</text>
	<text transform="matrix(1 0 0 1 12.4789 57.203)" class="st16 st14 st17">ĞİTİM K</text>
	<text transform="matrix(1 0 0 1 23.4105 57.203)" class="st16 st14 st17">UR</text>
	<text transform="matrix(1 0 0 1 27.2558 57.203)" class="st16 st14 st17">UMLARI</text>
</g>
</svg>
