<?xml version="1.0" encoding="utf-8"?>
<!-- Generator: Adobe Illustrator 24.0.1, SVG Export Plug-In . SVG Version: 6.00 Build 0)  -->
<svg version="1.1" id="Layer_1" xmlns="http://www.w3.org/2000/svg" xmlns:xlink="http://www.w3.org/1999/xlink" x="0px" y="0px"
	 width="48.6px" height="71.5px" viewBox="0 0 48.6 71.5" style="enable-background:new 0 0 48.6 71.5;" xml:space="preserve">
<style type="text/css">
	.st0{fill:#FFFFFF;}
	.st1{fill:#312A6F;}
	.st2{fill:#BD1D1D;}
	.st3{fill:#302B6F;}
</style>
<g>
	<g transform="matrix( 1, 0, 0, 1, 0.4,0.1) ">
		<g>
			<g id="Layer0_0_FILL">
				<path class="st0" d="M31.5,13.2c1.6-5.2,0.3-9.7-4.1-13.5c0.3,1.1,0.4,2.2,0.2,3.1c-0.2,0.9-0.6,1.6-1.2,2
					c-0.3,0.2-0.7,0.3-1.1,0.3c-0.7-0.6-1.5-1-2.4-1.3c0.5,1.5,0.6,2.9,0.3,4.2l-0.1,0.1c-1.3,0.5-2.6,1.1-3.8,1.9
					c-1.5,1.1-2.7,2.2-3.6,3.4c-4.9,0.7-9.9,2.1-15,4.3C-3.5,44.5,4.3,62.5,24,71.6c20.1-10.8,27.7-28.7,22.7-53.9
					C41.6,15.5,36.5,13.9,31.5,13.2z"/>
			</g>
		</g>
	</g>
	<g transform="matrix( 1, 0, 0, 1, 0.4,0.1) ">
		<g>
			<g id="Layer0_1_FILL">
				<path class="st1" d="M25.2,5.1c0.7,0.6,1.4,1.3,2,2.1c1.8,2.4,2.7,5.2,2.7,8.6c2,0.2,3.9,0.6,5.6,1c3.1,0.7,6.1,1.8,9,3.1
					c4.7,22.6-2.1,38.9-20.4,48.8C6.4,61.3-0.8,45.1,2.8,19.9c3.8-1.6,7.5-2.8,11.1-3.6c-1.4,4.8-0.9,8.6,1.5,11.2
					c-0.9-2.7-1-5-0.2-6.8c0.6-1.4,2.2-2.8,4.7-4.2c2.5-1.4,4-2.9,4.7-4.4c0.7-1.4,0.8-3,0.5-4.8C22.9,8,21,8.8,19.3,10
					c-1.5,1.1-2.7,2.2-3.6,3.4c-4.9,0.7-9.9,2.1-15,4.3C-3.5,44.5,4.3,62.5,24,71.6c20.1-10.8,27.7-28.7,22.7-53.9
					c-5.1-2.3-10.2-3.8-15.2-4.5c1.6-5.2,0.3-9.7-4.1-13.5c0.3,1.1,0.4,2.2,0.2,3.1c-0.2,0.9-0.6,1.6-1.2,2
					C26.1,4.9,25.7,5.1,25.2,5.1z"/>
			</g>
		</g>
	</g>
	<g transform="matrix( 1, 0, 0, 1, 0.4,0.1) ">
		<g>
			<g id="Layer0_2_FILL">
				<path class="st2" d="M22.9,3.8c0.5,1.5,0.6,2.9,0.3,4.2c-0.3,1.4-1.4,2.9-3.1,4.4C18,14.3,16.6,15.8,16,17
					c-1.1,2-1.5,4.5-1.3,7.3c0.3-1.3,0.8-2.5,1.5-3.7c0.9-1.4,2.4-2.9,4.6-4.4c2-1.4,3.3-2.7,3.8-4c0.6-1.4,0.7-2.9,0.5-4.8
					c1.3,0.5,2.4,1.3,3.3,2.4c0.5,0.5,0.8,0.9,0.9,1.3c-0.5-1.4-1.1-2.7-2-4c-0.7-0.9-1.4-1.6-2-2.1C24.5,4.5,23.7,4.1,22.9,3.8z"/>
			</g>
		</g>
	</g>
	<g transform="matrix( 1, 0, 0, 1, 0.4,0.1) ">
		<g>
			<g id="Layer0_3_FILL">
				<path class="st1" d="M29.9,48.6V34.1l-4.4-1l0.1,15.6H29.9z"/>
			</g>
		</g>
	</g>
	<g transform="matrix( 1, 0, 0, 1, 0.4,0.1) ">
		<g>
			<g id="Layer0_4_FILL">
				<path class="st2" d="M39,31.3c-0.6,0-1.1-0.2-1.5-0.4l-0.9,1c0.6,0.1,1.3,0.1,2.1,0c0.9-0.2,1.6-0.4,2.1-0.8
					C40.3,31.3,39.7,31.3,39,31.3z"/>
			</g>
		</g>
	</g>
	<g transform="matrix( 1, 0, 0, 1, 0.4,0.1) ">
		<g>
			<g id="Layer0_5_FILL">
				<path class="st1" d="M5.5,34.4c0.9-1,2-1.8,3-2.4c1.4-0.8,3-1.2,4.8-1.3c1.7-0.1,3.7,0,5.7,0.4c1.2,0.2,3.1,0.6,5.9,1.3
					c4.7,1.1,7.8,1.7,9.3,1.9c2.1,0.2,3.7-0.1,4.9-0.9c0.5-0.4,1-0.9,1.5-1.5c-0.5,0.3-1.1,0.5-1.7,0.6c-0.7,0.1-1.5,0.2-2.2,0.1
					c-1.1-0.1-3.5-0.6-7.4-1.6c-4-1-6.4-1.6-7.3-1.8c-2.9-0.7-5-1.1-6.2-1.2c-1.7-0.1-3.3,0.1-4.7,0.6C8.8,29.6,6.9,31.6,5.5,34.4z"
					/>
			</g>
		</g>
	</g>
	<g transform="matrix( 1, 0, 0, 1, 0.4,0.1) ">
		<g>
			<g id="Layer0_6_FILL">
				<path class="st1" d="M29.7,42.3l7.8,6.4l5.3-0.1l-10.5-8.8l6-5.6c-0.4,0.3-1,0.5-1.9,0.6c-0.8,0.1-1.6,0.1-2.2-0.1L29.7,39V42.3
					z"/>
			</g>
		</g>
	</g>
	<g transform="matrix( 1, 0, 0, 1, 0.4,0.1) ">
		<g>
			<g id="Layer0_7_FILL">
				<path class="st1" d="M20,31.1v17.5h4.2V31.1H20z"/>
			</g>
		</g>
	</g>
	<g transform="matrix( 1, 0, 0, 1, 0.4,0.1) ">
		<g>
			<g id="Layer0_8_FILL">
				<path class="st1" d="M18.7,31.7l-4.2-0.3l-0.1,14c-0.2,1.1-1,1.6-2.4,1.6c-1.3,0-2.4-0.5-3.3-1.5L7.5,47
					c1.6,1.5,3.7,2.2,6.1,2.2c1.1,0,2.2-0.4,3.3-1.2c1.1-0.8,1.7-1.7,1.7-2.7l0.1-0.1L18.7,31.7z"/>
			</g>
		</g>
	</g>
	<g transform="matrix( 1, 0, 0, 1, 0.4,0.1) ">
		<g>
			<g id="Layer0_9_FILL">
				<path class="st2" d="M6.5,36.2c-0.2-0.6-0.1-1.3,0.2-2.1C6,34.7,5.6,35.3,5.3,36c-0.3,0.7-0.3,1.3,0,1.8c0.4,0.8,1.7,1.1,3.7,1
					c1.4-0.1,2.6-0.6,3.7-1.4c-0.4,0.1-1,0.2-1.9,0.2C8.4,37.6,6.9,37.1,6.5,36.2z"/>
			</g>
		</g>
	</g>
	<g transform="matrix( 1, 0, 0, 1, 0.4,0.1) ">
		<g>
			<g id="Layer0_10_FILL">
				<path class="st2" d="M11.2,50.5h0.3v-0.2H9.9v0.2h0.3l0.1,0.1l0.1,0.1v2.9l-0.1,0.4l-0.1,0.3l-0.2,0.2l-0.2,0.1H9.6v0.3h0.2
					l0.6-0.1l0.3-0.2l0.2-0.2l0.1-0.3l0.1-0.4v-2.9l0.1-0.1L11.2,50.5z"/>
			</g>
		</g>
	</g>
	<g transform="matrix( 1, 0, 0, 1, 0.4,0.1) ">
		<g>
			<g id="Layer0_11_FILL">
				<path class="st2" d="M14.9,53.3l-0.2-0.1l-0.1-0.1l-0.1-0.2l-0.9-2.7h-0.6l-1,2.7l-0.2,0.3l-0.1,0.1h-0.2v0.2h1.2v-0.2h-0.3
					l-0.1-0.1V53l0.2-0.5h1.1l0.2,0.5V53l0.1,0.1l-0.1,0.1v0.1l-0.1,0.1h-0.3v0.2H15v-0.2H14.9 M13.1,51l0.1,0.2l0.3,0.9h-0.9
					l0.3-0.8l0.1-0.2l0.2-0.5l0.1,0.2V51z"/>
			</g>
		</g>
	</g>
	<g transform="matrix( 1, 0, 0, 1, 0.4,0.1) ">
		<g>
			<g id="Layer0_12_FILL">
				<path class="st2" d="M17.8,52.5h-0.3l-0.1,0.3l-0.1,0.3l-0.3,0.1h-0.9v-2.5l0.1-0.2l0.1-0.1l0.1-0.1h0.3v-0.2h-1.6v0.2h0.3
					l0.1,0.1l0.1,0.1v2.5l-0.1,0.1l-0.1,0.1h-0.3v0.2h2.7V52.5z"/>
			</g>
		</g>
	</g>
	<g transform="matrix( 1, 0, 0, 1, 0.4,0.1) ">
		<g>
			<g id="Layer0_13_FILL">
				<path class="st2" d="M20.3,50.6l0.1,0.5h0.3v-0.8h-2.6v0.2h0.3l0.1,0.1l0.1,0.1v2.5l-0.1,0.1l-0.1,0.1h-0.3v0.2h2.7l0.1-0.8
					h-0.3l-0.1,0.2V53l-0.1,0.1l-0.1,0.1h-1v-1.3h1.1v-0.3h-1.1v-1.1H20C20.2,50.5,20.2,50.6,20.3,50.6z"/>
			</g>
		</g>
	</g>
	<g transform="matrix( 1, 0, 0, 1, 0.4,0.1) ">
		<g>
			<g id="Layer0_14_FILL">
				<path class="st2" d="M25.1,50.6l0.1,0.1v0.1l0.1,0.3h0.3v-0.9h-2.9l-0.1,0.9h0.3l0.1-0.3v-0.1l0.2-0.2h0.5v2.6l-0.1,0.1
					l-0.1,0.1h-0.3v0.2h1.6v-0.2h-0.3l-0.1-0.1l-0.1-0.1v-2.6h0.5L25.1,50.6z"/>
			</g>
		</g>
	</g>
	<g transform="matrix( 1, 0, 0, 1, 0.4,0.1) ">
		<g>
			<g id="Layer0_15_FILL">
				<path class="st2" d="M27.6,50.5c0.1,0,0.2,0,0.2,0.1c0.1,0.1,0.1,0.2,0.1,0.3v0.2h0.4l-0.1-0.8h-2.6v0.2H26l0.1,0.1l0.1,0.1
					l0.1,0.2V53L26,53.2L26,53.3h-0.3v0.2h2.7l0.1-0.8h-0.3L28,53l-0.1,0.1l-0.1,0.1h-1v-1.3h1v-0.3h-1v-1.1H27.6z"/>
			</g>
		</g>
	</g>
	<g transform="matrix( 1, 0, 0, 1, 0.4,0.1) ">
		<g>
			<g id="Layer0_16_FILL">
				<path class="st2" d="M31,53l-0.2,0.2l-0.3,0.1h-1l1.7-2.8v-0.2h-2.5v0.9h0.3l0.1-0.3v-0.2l0.1-0.2l0.1-0.1h1.1l-1.7,2.8v0.2h2.7
					v-0.9h-0.3L31,52.8V53z"/>
			</g>
		</g>
	</g>
	<g transform="matrix( 1, 0, 0, 1, 0.4,0.1) ">
		<g>
			<g id="Layer0_17_FILL">
				<path class="st2" d="M34.3,51.1v-0.8h-2.6v0.2H32l0.1,0.1v0.1l0.1,0.2V53l-0.1,0.1v0.1L32,53.3h-0.3v0.2h2.7l0.1-0.8h-0.3
					L34.1,53l-0.1,0.2h-1v-1.3H34v-0.3h-1.1v-1.1h0.8c0.1,0,0.2,0,0.2,0.1l0.1,0.5H34.3z"/>
			</g>
		</g>
	</g>
	<g transform="matrix( 1, 0, 0, 1, 0.4,0.1) ">
		<g>
			<g id="Layer0_18_FILL">
				<path class="st2" d="M37.3,51.7l0.2-0.3l0.1-0.3c0-0.3-0.1-0.5-0.3-0.6c-0.2-0.1-0.5-0.2-0.9-0.2h-1.5v0.2H35l0.1,0.1l0.1,0.1
					v2.5l-0.1,0.1L35,53.3h-0.3v0.2h1.6v-0.2H36L36,53.2L35.9,53v-0.9h0.3l0.6,1l0.2,0.2l0.2,0.1l0.3,0.1h0.5v-0.2l-0.2-0.1
					l-0.2-0.1l-0.1-0.2L36.9,52L37.3,51.7 M36.7,51.1l-0.1,0.5l-0.2,0.1l-0.3,0.1h-0.3v-1.3h0.5l0.2,0.2l0.1,0.2L36.7,51.1z"/>
			</g>
		</g>
	</g>
	<g transform="matrix( 1, 0, 0, 1, 0.4,0.1) ">
		<g>
			<g id="Layer0_19_FILL">
				<path class="st3" d="M11.1,55.2L11.1,55.2l0.1,1.5h-0.1l-0.1,0.1h-0.2v0.1h1.5l0.1-0.4h-0.2v0.2l-0.1,0.1h-0.1l-0.1,0.1h-0.5V56
					h0.6v-0.2h-0.6v-0.6h0.4l0.2,0.1v0.2l0.1,0.1h0.2V55h-1.4v0.2H11.1z"/>
			</g>
		</g>
	</g>
	<g transform="matrix( 1, 0, 0, 1, 0.4,0.1) ">
		<g>
			<g id="Layer0_20_FILL">
				<path class="st3" d="M13.7,54.6h-0.3l-0.1-0.2h-0.2l0.1,0.2l0.1,0.1l0.1,0.1l0.2,0.1l0.2-0.1l0.2-0.2v-0.2h-0.2L13.7,54.6
					 M14.4,56.1V56h-0.8v0.2l0.2,0.1l0.1,0.1v0.4l-0.1,0.1h-0.1l-0.3-0.1l-0.2-0.2L13,56.2v-0.6l0.1-0.2l0.2-0.2l0.2-0.1h0.2
					l0.1,0.1l0.1,0.1v0.1H14l0.1-0.1l0.1-0.1l0.1-0.1l-0.1-0.1L14,55.1L13.8,55h-0.3l-0.4,0.1l-0.3,0.2l-0.2,0.3l-0.1,0.4l0.1,0.4
					l0.2,0.3l0.3,0.2l0.4,0.1l0.3-0.1l0.3-0.1v-0.5l0.1-0.1H14.4z"/>
			</g>
		</g>
	</g>
	<g transform="matrix( 1, 0, 0, 1, 0.4,0.1) ">
		<g>
			<g id="Layer0_21_FILL">
				<path class="st3" d="M15.3,55h-0.9v0.2h0.2v0.1l0.1,0.1v1.2l-0.1,0.1v0.1l-0.1,0.1h-0.2v0.1h0.9v-0.1h-0.2l-0.1-0.1v-1.4
					l0.1-0.1h0.2V55 M15,54.5h-0.2l-0.1,0.1v0.1l-0.1,0.1l0.1,0.1v0.1h0.1l0.1,0.1l0.1-0.1H15l0.1-0.1v-0.2L15,54.5z"/>
			</g>
		</g>
	</g>
	<g transform="matrix( 1, 0, 0, 1, 0.4,0.1) ">
		<g>
			<g id="Layer0_22_FILL">
				<path class="st3" d="M15.6,55.5v-0.3l0.1-0.1h0.1l0.1-0.1H16v1.4l-0.1,0.1h-0.2v0.1h0.9v-0.1h-0.2l-0.1-0.1v-0.1l-0.1-0.1v-1.4
					h0.2l0.1,0.1h0.1l0.1,0.1v0.1l0.1,0.2H17V55h-1.6l-0.1,0.5H15.6z"/>
			</g>
		</g>
	</g>
	<g transform="matrix( 1, 0, 0, 1, 0.4,0.1) ">
		<g>
			<g id="Layer0_23_FILL">
				<path class="st3" d="M18,55h-0.8v0.2h0.2l0.1,0.1v1.4l-0.1,0.1v0.1h-0.2v0.1H18v-0.1h-0.2l-0.1-0.1v-1.5H18V55 M17.4,54.5
					l-0.1,0.1v0.2l0.1,0.1h0.1l0.1,0.1l0.1-0.1h0.1v-0.1l0.1-0.1l-0.1-0.1v-0.1l-0.1-0.1H17.4z"/>
			</g>
		</g>
	</g>
	<g transform="matrix( 1, 0, 0, 1, 0.4,0.1) ">
		<g>
			<g id="Layer0_24_FILL">
				<path class="st3" d="M20.3,55h-0.7l-0.4,1.2L18.8,55h-0.7v0.2h0.2l0.1,0.1v1.4h-0.1v0.1h-0.2v0.1h0.6v-0.1h-0.1l-0.1-0.1v-1.3
					l0.5,1.5h0.2l0.5-1.5v1.3l-0.1,0.1l-0.1,0.1h-0.1v0.1h0.8v-0.1h-0.1l-0.1-0.1v-1.4l0.1-0.1h0.2V55z"/>
			</g>
		</g>
	</g>
	<g transform="matrix( 1, 0, 0, 1, 0.4,0.1) ">
		<g>
			<g id="Layer0_25_FILL">
				<path class="st3" d="M22,55h-0.8v0.2h0.2l0.1,0.1v1.4h-0.1v0.1h-0.2v0.1H22v-0.1h-0.2l-0.1-0.1v-0.5l0.1-0.1l0.3,0.6l0.1,0.1
					l0.1,0.1h0.1l0.1,0.1h0.4v-0.1h-0.1l-0.1-0.1l-0.1-0.1l-0.1-0.1l-0.5-0.7l0.5-0.5l0.1-0.1h0.1V55h-0.7v0.2h0.1l0.1,0.1v0.1
					l-0.1,0.1l-0.1,0.1l-0.4,0.5v-0.7H22V55z"/>
			</g>
		</g>
	</g>
	<g transform="matrix( 1, 0, 0, 1, 0.4,0.1) ">
		<g>
			<g id="Layer0_26_FILL">
				<path class="st3" d="M24.7,55h-0.6v0.2h0.2l0.1,0.1v1.3l-0.1,0.1l-0.1,0.1l-0.2,0.1l-0.2-0.1l-0.1-0.1l-0.1-0.1l-0.1-0.2v-1
					l0.1-0.1h0.2V55h-0.8v0.2h0.2v0.1l0.1,0.1v1.2l0.2,0.2l0.2,0.1l0.3,0.1l0.3-0.1l0.2-0.1l0.1-0.2l0.1-0.2v-1.1h0.2V55z"/>
			</g>
		</g>
	</g>
	<g transform="matrix( 1, 0, 0, 1, 0.4,0.1) ">
		<g>
			<g id="Layer0_27_FILL">
				<path class="st3" d="M25,55.2L25,55.2l0.1,1.5H25L25,56.7h-0.2v0.1h0.9v-0.1h-0.2l-0.1-0.1h-0.1v-0.6h0.2l0.3,0.5l0.2,0.2h0.4
					v-0.1h-0.1l-0.1-0.1l-0.1-0.1L26,56l0.2-0.1l0.1-0.1l0.1-0.1l0.1-0.2c0-0.1-0.1-0.2-0.2-0.3C26,55.1,25.8,55,25.6,55h-0.8v0.2
					H25 M25.6,55.2l0.2,0.1l0.1,0.1l0.1,0.1l0.1,0.2l-0.1,0.2l-0.1,0.1l-0.1,0.1l-0.2,0.1h-0.2v-0.7H25.6z"/>
			</g>
		</g>
	</g>
	<g transform="matrix( 1, 0, 0, 1, 0.4,0.1) ">
		<g>
			<g id="Layer0_28_FILL">
				<path class="st3" d="M27.4,55h-0.8v0.2h0.2v1.1l0.1,0.3l0.2,0.2l0.2,0.1l0.3,0.1l0.3-0.1l0.2-0.1l0.1-0.2l0.1-0.2v-1.1h0.2V55
					h-0.6v0.2h0.2l0.1,0.1v1.3l-0.1,0.1l-0.1,0.1l-0.2,0.1l-0.2-0.1l-0.1-0.1l-0.1-0.1l-0.1-0.2v-1l0.1-0.1h0.2V55z"/>
			</g>
		</g>
	</g>
	<g transform="matrix( 1, 0, 0, 1, 0.4,0.1) ">
		<g>
			<g id="Layer0_29_FILL">
				<path class="st3" d="M30.4,56.6v-1.5h0.2V55H30l-0.4,1.2L29.1,55h-0.7v0.2h0.2l0.1,0.1v1.4h-0.1l-0.1,0.1h-0.2v0.1H29v-0.1h-0.1
					l-0.1-0.1v-0.1l-0.1-0.1v-1.3l0.5,1.5h0.2l0.5-1.5v1.4H30v0.1h-0.1v0.1h0.8v-0.1L30.4,56.6L30.4,56.6z"/>
			</g>
		</g>
	</g>
	<g transform="matrix( 1, 0, 0, 1, 0.4,0.1) ">
		<g>
			<g id="Layer0_30_FILL">
				<path class="st3" d="M31,55.2L31,55.2l0.1,1.4L31,56.6v0.1h-0.2v0.1h1.5v-0.5h-0.2v0.2L32,56.6l-0.1,0.1h-0.5v-1.5h0.2V55h-0.8
					v0.2H31z"/>
			</g>
		</g>
	</g>
	<g transform="matrix( 1, 0, 0, 1, 0.4,0.1) ">
		<g>
			<g id="Layer0_31_FILL">
				<path class="st3" d="M32.8,56.6v-0.1l0.1-0.1l0.1-0.2h0.6l0.1,0.3l0.1,0.1v0.1h-0.1l-0.1,0.1h-0.1v0.1h0.8v-0.1h-0.1l-0.1-0.1
					L34,56.5L33.5,55h-0.3l-0.6,1.5l-0.1,0.1v0.1l-0.1,0.1h-0.1v0.1H33v-0.1L32.8,56.6L32.8,56.6L32.8,56.6 M33.1,55.6l0.1-0.2v-0.1
					l0.1,0.1v0.1l0.1,0.1v0.1l0.2,0.4H33L33.1,55.6L33.1,55.6z"/>
			</g>
		</g>
	</g>
	<g transform="matrix( 1, 0, 0, 1, 0.4,0.1) ">
		<g>
			<g id="Layer0_32_FILL">
				<path class="st3" d="M35.6,55.9l0.2-0.2v-0.2c0-0.1-0.1-0.2-0.2-0.3c-0.1-0.1-0.3-0.2-0.5-0.2h-0.8v0.2h0.2v1.5l-0.1,0.1h-0.2
					v0.1h0.8v-0.1H35v-0.1h-0.1v-0.6h0.2l0.3,0.5l0.1,0.1l0.1,0.1H36v-0.1h-0.1l-0.1-0.1l-0.1-0.1L35.5,56L35.6,55.9 M35.4,55.4v0.3
					l-0.1,0.1l-0.2,0.1h-0.2v-0.7H35l0.2,0.1l0.1,0.1L35.4,55.4z"/>
			</g>
		</g>
	</g>
	<g transform="matrix( 1, 0, 0, 1, 0.4,0.1) ">
		<g>
			<g id="Layer0_33_FILL">
				<path class="st3" d="M36.2,55.2L36.2,55.2l0.1,1.4l-0.1,0.1v0.1h-0.2v0.1h0.8v-0.1h-0.2l-0.1-0.1v-1.5h0.2V55h-0.8v0.2H36.2z"/>
			</g>
		</g>
	</g>
</g>
</svg>
