<?xml version="1.0" encoding="utf-8"?>
<!-- Generator: Adobe Illustrator 22.0.0, SVG Export Plug-In . SVG Version: 6.00 Build 0)  -->
<svg version="1.1" id="Layer_1" xmlns="http://www.w3.org/2000/svg" xmlns:xlink="http://www.w3.org/1999/xlink" x="0px" y="0px"
	 width="153.1px" height="71.5px" viewBox="0 0 153.1 71.5" style="enable-background:new 0 0 153.1 71.5;" xml:space="preserve">
<style type="text/css">
	.st0{fill:#FFFFFF;}
	.st1{fill:#312B6E;}
	.st2{fill:#A51008;}
	.st3{clip-path:url(#SVGID_2_);enable-background:new    ;}
	.st4{clip-path:url(#SVGID_4_);enable-background:new    ;}
	.st5{enable-background:new    ;}
</style>
<g>
	<g>
		<path class="st0" d="M25.2,6.4c-3.2,4.3-6.1,7.1-8.9,8.5c-5.1,0.6-9.8,1.9-14.1,4c-4.3,25.5,3.1,42.5,22.2,51
			c18.9-10.1,26.1-27,21.5-50.8c-4.6-2.5-9.5-3.9-14.7-4.2C30.7,11.1,28.7,8.3,25.2,6.4z"/>
	</g>
</g>
<g>
	<g>
		<path class="st1" d="M27.7-0.1c0.5,3.7-0.2,5.5-2.2,5.4c-0.7-0.5-1.4-0.9-2.2-1.2c0.5,1.4,0.4,2.8-0.2,4.3
			c-2.3,0.7-4.7,2.5-7.1,5.3c-4.8,0.7-9.8,2.1-14.9,4.3c-4.3,26.7,3.5,44.6,23.2,53.7C44.4,60.9,52,43,47,17.9
			c-5.1-2.3-10.2-3.8-15.2-4.5C33.4,8.3,32.1,3.8,27.7-0.1 M29.4,11.2c0.8,1.9,1.2,3.4,1.2,4.8c4.9,0.7,9.6,2.1,14.2,4.1
			c4.7,22.6-2.1,38.8-20.4,48.6C6.7,61.3-0.3,45.1,3.2,20.1c3.7-1.6,7.3-2.8,11-3.5c-1.4,4.8-0.9,8.5,1.5,11.2
			c-0.6-1.8-0.8-3.2-0.6-4.2c0.9-2.6,2.9-5,6-7.2c3.6-2.5,5-5.4,4.2-8.6C27.4,8.4,28.7,9.6,29.4,11.2z"/>
	</g>
</g>
<g>
	<g>
		<path class="st2" d="M25.4,7.7c2,0.7,3.3,1.9,4,3.5c-0.8-2.6-2.2-4.6-3.9-5.9c-0.7-0.5-1.4-0.9-2.2-1.2c0.5,1.4,0.4,2.8-0.2,4.3
			c-0.5,1.2-1.4,2.5-2.8,3.8c-3.5,3.4-5.3,7.2-5.3,11.4c0.9-2.6,2.9-5,6-7.2C24.8,13.8,26.2,10.9,25.4,7.7z"/>
	</g>
</g>
<g>
	<g>
		<g>
			<defs>
				<rect id="SVGID_1_" x="10.1" y="48.7" width="11.5" height="6.6"/>
			</defs>
			<clipPath id="SVGID_2_">
				<use xlink:href="#SVGID_1_"  style="overflow:visible;"/>
			</clipPath>
			<g class="st3">
				<path class="st2" d="M11.9,50.7h-0.2h-0.1h-0.1c0,0,0,0.1-0.1,0.1c0,0,0,0.1,0,0.2v2.7c0,0.1,0,0.3,0,0.4c0,0.1-0.1,0.2-0.1,0.3
					c-0.1,0.1-0.1,0.1-0.2,0.2c-0.1,0.1-0.2,0.1-0.3,0.1s-0.2,0.1-0.3,0.1s-0.2,0-0.3,0H10v-0.3h0.1c0.1,0,0.1,0,0.2,0
					c0.1,0,0.1-0.1,0.2-0.1c0.1-0.1,0.1-0.1,0.1-0.3s0-0.2,0-0.4V51c0-0.1,0-0.1,0-0.1s0-0.1-0.1-0.1c0,0,0,0-0.1,0h-0.1h-0.2v-0.2
					h1.6C11.9,50.5,11.9,50.7,11.9,50.7z"/>
				<path class="st2" d="M12.9,52.7l-0.1,0.4v0.1c0,0.1,0,0.1,0,0.1v0.1c0,0,0,0,0,0.1c0,0,0,0,0.1,0H13h0.2v0.2H12v-0.2l0,0h0.1
					c0,0,0.1,0,0.1-0.1l0.1-0.1c0,0,0.1-0.1,0.1-0.2l1-2.7H14l1,2.7c0,0.1,0,0.1,0.1,0.2l0.1,0.1c0,0,0.1,0,0.1,0.1h0.1h0.1v0.2H14
					v-0.2h0c0,0,0,0,0.1,0c0,0,0,0,0.1,0c0,0,0,0,0-0.1c0,0,0,0,0-0.1v-0.1v-0.1L14,52.7H12.9L12.9,52.7z M13.7,51.7
					c0-0.1,0-0.1-0.1-0.2c0-0.1,0-0.1-0.1-0.2c0-0.1,0-0.1,0-0.2c0-0.1,0-0.1,0-0.2c0,0,0,0.1,0,0.2c0,0.1,0,0.1-0.1,0.2
					c0,0.1,0,0.1-0.1,0.2c0,0.1,0,0.1-0.1,0.2L13,52.4h0.9L13.7,51.7z"/>
				<path class="st2" d="M15.5,53.8v-0.2h0.2h0.1h0.1v-0.1c0,0,0-0.1,0-0.2V51c0-0.1,0-0.1,0-0.2v-0.1c0,0,0,0-0.1,0h-0.1h-0.2v-0.2
					h1.6v0.2h-0.2h-0.1h-0.1c0,0,0,0-0.1,0.1v0.1v2.5h0.9c0.1,0,0.2,0,0.3-0.1s0.1-0.2,0.1-0.3l0.1-0.3h0.3v1L15.5,53.8L15.5,53.8z"
					/>
				<path class="st2" d="M19.7,53.5h0.9h0.1c0,0,0.1,0,0.1-0.1s0-0.1,0.1-0.1v-0.1V53h0.3v0.8h-2.7v-0.2h0.2h0.1h0.1
					c0,0,0,0,0.1-0.1v-0.1V51c0-0.1,0-0.1,0-0.2v-0.1c0,0,0,0-0.1,0h-0.1h-0.2v-0.2H21v0.8h-0.3v-0.2c0-0.1,0-0.2-0.1-0.3
					c0-0.1-0.1-0.1-0.2-0.1h-0.8v1.1h1.1v0.3h-1.1L19.7,53.5L19.7,53.5z"/>
			</g>
		</g>
	</g>
</g>
<g>
	<g>
		<g>
			<defs>
				<rect id="SVGID_3_" x="22.7" y="48.7" width="15.6" height="6.6"/>
			</defs>
			<clipPath id="SVGID_4_">
				<use xlink:href="#SVGID_3_"  style="overflow:visible;"/>
			</clipPath>
			<g class="st4">
				<path class="st2" d="M24.8,53.2c0,0.1,0,0.1,0,0.2c0,0,0,0.1,0.1,0.1s0,0,0.1,0h0.1h0.2v0.2h-1.6v-0.2h0.2H24h0.1v-0.1
					c0,0,0-0.1,0-0.2v-2.5h-0.4c-0.1,0-0.1,0-0.2,0c0,0-0.1,0-0.1,0.1l-0.1,0.1V51v0.3H23v-0.9h2.9v0.9h-0.3V51c0-0.1,0-0.1,0-0.1
					s0-0.1-0.1-0.1c0,0-0.1,0-0.1-0.1c0,0-0.1,0-0.2,0h-0.4L24.8,53.2L24.8,53.2z"/>
				<path class="st2" d="M27.2,53.5h0.9h0.1c0,0,0.1,0,0.1-0.1s0-0.1,0.1-0.1v-0.1V53h0.3v0.8H26v-0.2h0.2h0.1h0.1c0,0,0,0,0.1-0.1
					s0-0.1,0-0.1V51c0-0.1,0-0.1,0-0.2v-0.1c0,0,0,0-0.1,0h-0.1H26v-0.2h2.5v0.8h-0.3v-0.2c0-0.1,0-0.2-0.1-0.3
					c0-0.1-0.1-0.1-0.2-0.1h-0.8v1.1h1.1v0.3h-1.1L27.2,53.5L27.2,53.5z"/>
				<path class="st2" d="M31.7,50.7L30,53.5h1c0.1,0,0.2,0,0.2,0c0.1,0,0.1-0.1,0.1-0.1l0.1-0.1c0-0.1,0-0.1,0-0.2v-0.2h0.3v0.9
					h-2.6v-0.2l1.7-2.8h-0.9c-0.1,0-0.1,0-0.2,0c0,0-0.1,0-0.1,0.1c0,0,0,0.1-0.1,0.1c0,0.1,0,0.1,0,0.2v0.2h-0.3v-0.9h2.5V50.7
					L31.7,50.7z"/>
				<path class="st2" d="M33.2,53.5h0.9h0.1c0,0,0.1,0,0.1-0.1s0-0.1,0.1-0.1v-0.1V53h0.3v0.8H32v-0.2h0.2h0.1h0.1c0,0,0,0,0.1-0.1
					s0-0.1,0-0.1V51c0-0.1,0-0.1,0-0.2v-0.1c0,0,0,0-0.1,0h-0.1h-0.2v-0.2h2.5v0.8h-0.3v-0.2c0-0.1,0-0.2-0.1-0.3
					c0-0.1-0.1-0.1-0.2-0.1h-0.8v1.1h1.1v0.3h-1.1L33.2,53.5L33.2,53.5z"/>
				<path class="st2" d="M35.1,53.5h0.2h0.1h0.1c0,0,0,0,0.1-0.1v-0.1V51c0-0.1,0-0.1,0-0.1s0-0.1-0.1-0.1c0,0,0,0-0.1,0h-0.1h-0.2
					v-0.2h1.5c0.4,0,0.8,0.1,1,0.2c0.2,0.1,0.3,0.4,0.3,0.6c0,0.1,0,0.2-0.1,0.3c0,0.1-0.1,0.2-0.1,0.2c-0.1,0.1-0.1,0.1-0.2,0.2
					s-0.2,0.1-0.2,0.1l0.5,0.9c0,0.1,0.1,0.1,0.1,0.2l0.1,0.1l0.1,0.1h0.1l0,0v0.2h-0.1c-0.1,0-0.3,0-0.4,0c-0.1,0-0.2,0-0.3-0.1
					c-0.1,0-0.1-0.1-0.2-0.1c-0.1-0.1-0.1-0.1-0.2-0.2l-0.5-1h-0.3v0.9c0,0.1,0,0.1,0,0.1s0,0.1,0.1,0.1c0,0,0,0,0.1,0h0.1h0.2v0.2
					h-1.6L35.1,53.5L35.1,53.5z M36.2,52.1h0.3c0.1,0,0.2,0,0.3,0S36.9,52,37,52c0-0.1,0.1-0.1,0.1-0.2c0-0.1,0-0.2,0-0.3
					s0-0.2,0-0.3S37,51.1,37,51c0-0.1-0.1-0.1-0.2-0.1c-0.1,0-0.2,0-0.3,0h-0.2L36.2,52.1L36.2,52.1z"/>
			</g>
		</g>
	</g>
</g>
<g class="st5">
	<path class="st1" d="M17.5,56.2c0-0.1,0.1-0.1,0.1-0.1l0.1-0.1v-0.1v-0.1c0-0.1,0-0.1-0.1-0.1c0,0-0.1,0-0.2,0v-0.2h1.2v0.2
		c-0.1,0-0.1,0-0.2,0s-0.1,0-0.2,0.1c-0.1,0-0.1,0.1-0.2,0.1c-0.1,0.1-0.1,0.1-0.2,0.2l-0.6,0.7l0.9,1.4c0,0.1,0.1,0.1,0.1,0.2
		l0.1,0.1c0,0,0.1,0,0.1,0.1s0.1,0,0.1,0l0,0v0.2h-0.2c-0.1,0-0.2,0-0.3,0c-0.1,0-0.2,0-0.2,0c-0.1,0-0.1,0-0.2-0.1l-0.1-0.1
		l-0.1-0.1l-0.1-0.1L17,57.1l-0.2,0.2v0.8c0,0.1,0,0.1,0,0.2c0,0,0,0.1,0.1,0.1c0,0,0,0,0.1,0h0.1h0.2v0.2h-1.6v-0.2h0.2H16h0.1
		c0,0,0,0,0.1-0.1v-0.1V56c0-0.1,0-0.1,0-0.1s0-0.1-0.1-0.1c0,0,0,0-0.1,0h-0.1h-0.2v-0.2h1.6v0.2H17h-0.1h-0.1c0,0,0,0.1-0.1,0.1
		c0,0,0,0.1,0,0.2V57L17.5,56.2z"/>
	<path class="st1" d="M22.1,57c0,0.3,0,0.5-0.1,0.7s-0.2,0.4-0.3,0.5c-0.1,0.1-0.3,0.3-0.5,0.3c-0.2,0.1-0.4,0.1-0.7,0.1
		c-0.3,0-0.5,0-0.7-0.1s-0.4-0.2-0.5-0.3s-0.2-0.3-0.3-0.5c0.1-0.3,0-0.5,0-0.7c0-0.3,0-0.5,0.1-0.7s0.2-0.4,0.3-0.5
		c0.1-0.1,0.3-0.3,0.5-0.3c0.2-0.1,0.4-0.1,0.7-0.1c0.2,0,0.5,0,0.7,0.1s0.4,0.2,0.5,0.3s0.2,0.3,0.3,0.5
		C22.1,56.5,22.1,56.7,22.1,57z M19.8,57c0,0.2,0,0.4,0,0.6c0,0.2,0.1,0.3,0.1,0.4c0.1,0.1,0.1,0.2,0.2,0.3s0.2,0.1,0.4,0.1
		c0.1,0,0.3,0,0.4-0.1s0.2-0.2,0.2-0.3c0.1-0.1,0.1-0.3,0.1-0.4c0-0.2,0-0.4,0-0.6c0-0.2,0-0.4,0-0.6c0-0.2-0.1-0.3-0.1-0.4
		c-0.1-0.1-0.1-0.2-0.2-0.3s-0.2-0.1-0.4-0.1c-0.1,0-0.3,0-0.4,0.1s-0.2,0.2-0.2,0.3c-0.1,0.1-0.1,0.3-0.1,0.4
		C19.8,56.6,19.8,56.8,19.8,57z"/>
	<path class="st1" d="M22.5,58.6v-0.2h0.2h0.1h0.1v-0.1c0,0,0-0.1,0-0.2v-2.2c0-0.1,0-0.1,0-0.2v-0.1c0,0,0,0-0.1,0h-0.1h-0.2v-0.2
		h1.6v0.2h-0.2h-0.1h-0.1c0,0,0,0-0.1,0.1v0.1v2.5h0.9c0.1,0,0.2,0,0.3-0.1c0.1-0.1,0.1-0.2,0.1-0.3l0.1-0.3h0.3v1H22.5L22.5,58.6z"
		/>
	<path class="st1" d="M26.7,58.3h0.9h0.1c0,0,0.1,0,0.1-0.1c0,0,0-0.1,0.1-0.1V58v-0.2h0.3v0.8h-2.7v-0.2h0.2h0.1h0.1
		c0,0,0,0,0.1-0.1s0-0.1,0-0.1V56c0-0.1,0-0.1,0-0.2v-0.1c0,0,0,0-0.1,0h-0.1h-0.2v-0.2h2.5v0.8h-0.3v-0.2c0-0.1,0-0.2-0.1-0.3
		c0-0.1-0.1-0.1-0.2-0.1h-0.8v1.1h1.1V57h-1.1V58.3L26.7,58.3z"/>
	<path class="st1" d="M30,55.6h-0.2h-0.1h-0.1c0,0,0,0.1-0.1,0.1c0,0,0,0.1,0,0.2v2.7c0,0.1,0,0.3,0,0.4c0,0.1-0.1,0.2-0.1,0.3
		c-0.1,0.1-0.1,0.1-0.2,0.2c-0.1,0.1-0.2,0.1-0.3,0.1c-0.1,0-0.2,0.1-0.3,0.1c-0.1,0-0.2,0-0.3,0h-0.2v-0.3h0.1c0.1,0,0.1,0,0.2,0
		s0.1-0.1,0.2-0.1c0.1-0.1,0.1-0.1,0.1-0.3c0-0.1,0-0.2,0-0.4v-2.8c0-0.1,0-0.1,0-0.1s0-0.1-0.1-0.1c0,0,0,0-0.1,0h-0.1h-0.2v-0.2
		H30V55.6L30,55.6z"/>
	<path class="st1" d="M30.2,58.6v-0.2h0.2h0.1h0.1v-0.1c0,0,0-0.1,0-0.2v-2.2c0-0.1,0-0.1,0-0.2v-0.1c0,0,0,0-0.1,0h-0.1h-0.2v-0.2
		h1.6v0.2h-0.2h-0.1h-0.1v0.1c0,0,0,0.1,0,0.2v2.2c0,0.1,0,0.1,0,0.2v0.1c0,0,0,0,0.1,0h0.1h0.2v0.2H30.2z M30.6,54.7
		C30.6,54.6,30.6,54.6,30.6,54.7c0-0.1,0-0.2,0.1-0.2s0.1,0,0.1-0.1c0,0,0.1,0,0.2,0s0.1,0,0.1,0s0.1,0,0.1,0.1l0.1,0.1v0.1
		c0,0.1,0,0.1,0,0.1l-0.1,0.1c0,0-0.1,0-0.1,0.1H31c-0.1,0-0.1,0-0.2,0s-0.1,0-0.1-0.1L30.6,54.7L30.6,54.7z"/>
</g>
<g>
	<path class="st1" d="M30.2,48.7h-4.3c0-5.3,0-10.6,0-15.8c0.8,0.2,1.5,0.3,2.3,0.5c0.7,0.1,1.3,0.2,2,0.4
		C30.2,38.7,30.2,43.7,30.2,48.7z"/>
	<path class="st2" d="M6.3,34c-1.2,4.3,5.3,4.1,7.6,2.8C10,41.1,2.4,37.8,6.3,34"/>
	<path class="st2" d="M41,32.2c-0.9,0.9-3,1.4-4.5,1c0.5-0.2,0.9-0.6,1.1-1.1c0.5,0.2,1.4,0.4,2.4,0.3C40.4,32.4,40.7,32.3,41,32.2z
		"/>
	<path class="st1" d="M11.4,31.3c-2,0.4-4.1,1.6-5.8,3.7c0.3-0.8,0.7-1.4,1.1-2c10.5-11.3,27.9,4.6,34.7-1.1
		c-1.7,4-13.4,1.4-18.9-0.1C19,30.7,15.1,30.6,11.4,31.3z"/>
	<path class="st1" d="M43.1,48.7l-10.4-8.8l6.4-6.1c-1.2,0.4-2.8,0.6-4,0.5l-5,4.7v3.3l0.3,0.3l7.5,6.1H43.1L43.1,48.7L43.1,48.7z"
		/>
	<rect x="20.4" y="31.3" class="st1" width="4.2" height="17.4"/>
	<path class="st1" d="M14,49.3c-2.3,0-4.3-0.7-6.1-2.3c0.4-0.5,0.8-1,1.2-1.5c1.7,1.7,5.3,2.2,5.8-0.1c0.1-2.2,0-9.3,0-14
		c1.7,0.2,2.9,0.3,4.2,0.4c-0.1,4.7,0,11.5-0.1,13.6C18.9,47.4,16.6,49.1,14,49.3z"/>
</g>
<g class="st5">
	<path class="st0" d="M58.5,26.6h-0.7c-0.1,0-0.2,0-0.3,0s-0.2,0.1-0.3,0.1S57,27,57,27.1s-0.1,0.3-0.1,0.6v9.9
		c0,0.5-0.1,0.9-0.2,1.3s-0.3,0.7-0.5,1s-0.4,0.5-0.7,0.7s-0.6,0.4-0.9,0.5c-0.3,0.1-0.7,0.2-1,0.3s-0.7,0.1-1.1,0.1h-0.6v-1h0.3
		c0.3,0,0.5-0.1,0.8-0.1c0.2-0.1,0.5-0.3,0.7-0.5s0.3-0.5,0.5-0.9c0.1-0.4,0.2-0.8,0.2-1.4v-9.9c0-0.2,0-0.4-0.1-0.5
		s-0.1-0.2-0.2-0.3c-0.1-0.1-0.2-0.1-0.3-0.1s-0.2,0-0.3,0h-0.7v-0.9h5.7L58.5,26.6L58.5,26.6z"/>
	<path class="st0" d="M62.2,33.6L61.8,35c0,0.1-0.1,0.3-0.1,0.5s-0.1,0.3-0.1,0.5c0,0.1,0,0.2,0.1,0.3c0,0.1,0.1,0.1,0.2,0.2
		c0.1,0.1,0.1,0.1,0.2,0.1c0.1,0,0.2,0,0.3,0H63v0.9h-4.3v-0.9h0.2c0.1,0,0.3,0,0.4,0s0.2-0.1,0.3-0.2c0.1-0.1,0.2-0.2,0.3-0.4
		s0.2-0.4,0.3-0.6l3.6-9.7h2.3l3.4,9.7c0.1,0.2,0.2,0.4,0.3,0.6s0.2,0.3,0.3,0.4c0.1,0.1,0.2,0.2,0.3,0.2s0.2,0.1,0.4,0.1H71v0.9
		h-5.4v-0.9h0.6c0.1,0,0.2,0,0.2,0c0.1,0,0.2-0.1,0.2-0.1c0.1-0.1,0.1-0.1,0.2-0.2c0-0.1,0.1-0.2,0.1-0.3s0-0.3,0-0.4
		c0-0.1-0.1-0.2-0.1-0.3l-0.6-1.6L62.2,33.6L62.2,33.6z M65,29.9c-0.1-0.2-0.1-0.4-0.2-0.6s-0.1-0.4-0.2-0.6s-0.1-0.4-0.2-0.6
		s-0.1-0.4-0.1-0.6c0,0.2-0.1,0.3-0.2,0.5s-0.1,0.4-0.2,0.6c-0.1,0.2-0.1,0.4-0.2,0.6c-0.1,0.2-0.1,0.4-0.2,0.6l-1,2.8h3.3L65,29.9z
		"/>
	<path class="st0" d="M71.5,37.5v-0.9h0.7c0.1,0,0.2,0,0.3,0c0.1,0,0.2-0.1,0.3-0.1c0.1-0.1,0.1-0.2,0.2-0.3c0-0.1,0.1-0.3,0.1-0.6
		v-7.9c0-0.2,0-0.4-0.1-0.6c0-0.1-0.1-0.2-0.2-0.3c-0.1-0.1-0.2-0.1-0.3-0.1c-0.1,0-0.2,0-0.3,0h-0.7v-0.9h5.7v0.9h-0.7
		c-0.1,0-0.2,0-0.3,0c-0.1,0-0.2,0.1-0.3,0.1c-0.1,0.1-0.1,0.2-0.2,0.3c0,0.1-0.1,0.3-0.1,0.5v8.9h3.1c0.4,0,0.7-0.1,0.9-0.4
		c0.2-0.2,0.4-0.6,0.5-1.1l0.3-1.2h0.9l-0.1,3.7H71.5L71.5,37.5z"/>
	<path class="st0" d="M86.4,36.5h3.3c0.2,0,0.3,0,0.4-0.1s0.2-0.1,0.3-0.3c0.1-0.1,0.2-0.2,0.2-0.4s0.1-0.3,0.1-0.5l0.1-0.8h1.1
		l-0.1,3h-9.7v-0.9H83c0.1,0,0.2,0,0.3,0c0.1,0,0.2-0.1,0.3-0.1s0.1-0.2,0.2-0.3c0-0.1,0.1-0.3,0.1-0.5v-8c0-0.2,0-0.4-0.1-0.6
		c0-0.1-0.1-0.2-0.2-0.3c-0.1-0.1-0.2-0.1-0.3-0.1c-0.1,0-0.2,0-0.3,0h-0.7v-0.9h9.1l0.1,3h-1.2V28c0-0.4-0.1-0.7-0.3-0.9
		s-0.4-0.3-0.7-0.3h-2.8v4.1h3.9v1h-3.9L86.4,36.5L86.4,36.5z"/>
</g>
<g class="st5">
	<path class="st0" d="M104.8,35.5c0,0.2,0,0.4,0.1,0.6c0,0.1,0.1,0.2,0.2,0.3s0.2,0.1,0.3,0.1c0.1,0,0.2,0,0.3,0h0.7v0.9h-5.7v-0.9
		h0.7c0.1,0,0.2,0,0.3,0c0.1,0,0.2-0.1,0.3-0.1c0.1-0.1,0.1-0.2,0.2-0.3c0-0.1,0.1-0.3,0.1-0.6v-8.8H101c-0.2,0-0.5,0-0.6,0.1
		c-0.2,0.1-0.3,0.1-0.4,0.2s-0.2,0.2-0.2,0.4c-0.1,0.1-0.1,0.3-0.1,0.5l-0.1,1h-1.1l0.1-3.2h10.3l0.1,3.2h-1.1l-0.1-1
		c0-0.2-0.1-0.3-0.1-0.5c-0.1-0.1-0.1-0.3-0.2-0.4s-0.2-0.2-0.4-0.2c-0.2-0.1-0.4-0.1-0.6-0.1h-1.3L104.8,35.5L104.8,35.5z"/>
	<path class="st0" d="M113.4,36.5h3.3c0.2,0,0.3,0,0.4-0.1s0.2-0.1,0.3-0.3c0.1-0.1,0.2-0.2,0.2-0.4c0.1-0.2,0.1-0.3,0.1-0.5
		l0.1-0.8h1.1l-0.1,3h-9.7v-0.9h0.7c0.1,0,0.2,0,0.3,0s0.2-0.1,0.3-0.1c0.1-0.1,0.1-0.2,0.2-0.3c0-0.1,0.1-0.3,0.1-0.5v-8
		c0-0.2,0-0.4-0.1-0.6c0-0.1-0.1-0.2-0.2-0.3c-0.1-0.1-0.2-0.1-0.3-0.1c-0.1,0-0.2,0-0.3,0h-0.7v-0.9h9.1l0.1,3h-1.2l-0.1-0.8
		c0-0.4-0.1-0.7-0.3-0.9c-0.2-0.2-0.4-0.3-0.7-0.3h-2.8v4.1h3.9v1h-3.9L113.4,36.5L113.4,36.5z"/>
	<path class="st0" d="M129.5,26.6l-6.2,9.9h3.6c0.3,0,0.6,0,0.8-0.1c0.2-0.1,0.4-0.2,0.5-0.4s0.2-0.3,0.3-0.5s0.1-0.4,0.1-0.6
		l0.1-0.7h1.2l-0.1,3.4h-9.5v-0.8l6.2-9.9h-3.2c-0.3,0-0.5,0-0.6,0.1c-0.2,0.1-0.3,0.2-0.4,0.3c-0.1,0.1-0.2,0.3-0.2,0.5
		s-0.1,0.4-0.1,0.6l-0.1,0.9h-1.2l0.1-3.4h8.8L129.5,26.6L129.5,26.6z"/>
	<path class="st0" d="M135.2,36.5h3.3c0.2,0,0.3,0,0.4-0.1s0.2-0.1,0.3-0.3c0.1-0.1,0.2-0.2,0.2-0.4s0.1-0.3,0.1-0.5l0.1-0.8h1.1
		l-0.1,3H131v-0.9h0.7c0.1,0,0.2,0,0.3,0s0.2-0.1,0.3-0.1c0.1-0.1,0.1-0.2,0.2-0.3c0-0.1,0.1-0.3,0.1-0.5v-8c0-0.2,0-0.4-0.1-0.6
		c0-0.1-0.1-0.2-0.2-0.3s-0.2-0.1-0.3-0.1s-0.2,0-0.3,0H131v-0.9h9.1l0.1,3H139l0-0.7c0-0.4-0.1-0.7-0.3-0.9
		c-0.2-0.2-0.4-0.3-0.7-0.3h-2.8v4.1h3.9v1h-3.9V36.5L135.2,36.5z"/>
	<path class="st0" d="M141.8,36.6h0.7c0.1,0,0.2,0,0.3,0s0.2-0.1,0.3-0.1c0.1-0.1,0.1-0.2,0.2-0.3c0-0.1,0.1-0.3,0.1-0.5v-8
		c0-0.2,0-0.4-0.1-0.5c0-0.1-0.1-0.2-0.2-0.3s-0.2-0.1-0.3-0.1s-0.2,0-0.3,0h-0.7v-0.9h5.3c1.6,0,2.7,0.3,3.4,0.8s1.1,1.3,1.1,2.3
		c0,0.4-0.1,0.8-0.2,1.2c-0.1,0.3-0.3,0.6-0.5,0.9s-0.5,0.5-0.7,0.6c-0.3,0.2-0.5,0.3-0.8,0.4l2,3.4c0.1,0.2,0.3,0.4,0.4,0.6
		c0.1,0.2,0.3,0.3,0.4,0.4c0.1,0.1,0.3,0.2,0.4,0.2c0.1,0.1,0.3,0.1,0.4,0.1h0.1v0.9h-0.5c-0.5,0-0.9,0-1.3-0.1
		c-0.4,0-0.7-0.1-1-0.2c-0.3-0.1-0.5-0.3-0.7-0.5s-0.4-0.4-0.6-0.7l-2-3.6h-1.1v3.3c0,0.2,0,0.4,0.1,0.5c0,0.1,0.1,0.2,0.2,0.3
		s0.2,0.1,0.3,0.1s0.2,0,0.3,0h0.7v0.9h-5.7L141.8,36.6L141.8,36.6z M145.9,31.4h0.9c0.4,0,0.7-0.1,1-0.2s0.5-0.3,0.6-0.5
		c0.2-0.2,0.3-0.5,0.3-0.8c0.1-0.3,0.1-0.7,0.1-1.1s0-0.8-0.1-1.1c-0.1-0.3-0.2-0.5-0.4-0.7s-0.4-0.3-0.6-0.4
		c-0.3-0.1-0.6-0.1-0.9-0.1h-0.9L145.9,31.4L145.9,31.4z"/>
</g>
<path class="st0" d="M78.6,46.1c0.2-0.2,0.3-0.4,0.4-0.5c0.1-0.2,0.2-0.3,0.3-0.4s0.1-0.3,0.2-0.4s0-0.2,0-0.3
	c0-0.2-0.1-0.3-0.2-0.4C79.2,44,78.9,44,78.6,44v-0.9h4.5V44c-0.2,0-0.4,0-0.6,0.1s-0.4,0.2-0.6,0.3s-0.4,0.3-0.6,0.5
	s-0.4,0.4-0.6,0.6l-2.2,2.4l3.1,4.9c0.2,0.3,0.3,0.5,0.5,0.6c0.1,0.2,0.3,0.3,0.4,0.4c0.1,0.1,0.3,0.2,0.5,0.2s0.3,0.1,0.5,0.1h0.1
	V55h-0.9c-0.4,0-0.8,0-1.1,0c-0.3,0-0.6-0.1-0.8-0.1c-0.2-0.1-0.4-0.1-0.6-0.2s-0.3-0.2-0.5-0.3c-0.1-0.1-0.2-0.2-0.3-0.4
	c-0.1-0.1-0.2-0.3-0.3-0.5l-2.2-3.8l-0.7,0.6v2.8c0,0.2,0,0.4,0.1,0.6c0,0.1,0.1,0.2,0.2,0.3s0.2,0.1,0.3,0.1c0.1,0,0.2,0,0.3,0h0.7
	V55h-5.7v-1h0.7c0.1,0,0.2,0,0.3,0c0.1,0,0.2-0.1,0.3-0.1s0.1-0.2,0.2-0.3c0-0.1,0.1-0.3,0.1-0.5v-8c0-0.2,0-0.4-0.1-0.5
	s-0.1-0.2-0.2-0.3C73.2,44.1,73.1,44,73,44s-0.2,0-0.3,0H72v-0.9h5.7V44H77c-0.1,0-0.2,0-0.3,0c-0.1,0-0.2,0.1-0.3,0.1
	c-0.1,0.1-0.1,0.2-0.2,0.3c0,0.1-0.1,0.3-0.1,0.6v3.8L78.6,46.1z"/>
<path class="st0" d="M95.3,48.9c0,0.9-0.1,1.7-0.4,2.5c-0.2,0.7-0.6,1.4-1.1,1.9s-1.1,0.9-1.7,1.2c-0.7,0.3-1.5,0.4-2.4,0.4
	s-1.8-0.1-2.5-0.4c-0.7-0.3-1.3-0.7-1.7-1.2c-0.5-0.5-0.8-1.2-1-1.9s-0.3-1.6-0.3-2.5s0.1-1.7,0.3-2.5c0.2-0.7,0.6-1.4,1-1.9
	c0.5-0.5,1-0.9,1.7-1.2s1.5-0.4,2.5-0.4c0.9,0,1.7,0.1,2.4,0.4s1.3,0.7,1.7,1.2c0.5,0.5,0.8,1.2,1.1,1.9
	C95.2,47.2,95.3,48,95.3,48.9z M86.9,48.9c0,0.8,0.1,1.5,0.2,2.1s0.3,1.1,0.5,1.6c0.2,0.4,0.5,0.8,0.9,1s0.8,0.3,1.3,0.3
	s1-0.1,1.3-0.3c0.4-0.2,0.6-0.6,0.9-1c0.2-0.4,0.4-0.9,0.5-1.6c0.1-0.6,0.1-1.3,0.1-2.1s-0.1-1.5-0.1-2.1s-0.3-1.1-0.5-1.6
	c-0.2-0.4-0.5-0.8-0.9-1s-0.8-0.3-1.3-0.3s-1,0.1-1.3,0.3c-0.4,0.2-0.7,0.5-0.9,1c-0.2,0.4-0.4,0.9-0.5,1.6
	C87,47.4,86.9,48.1,86.9,48.9z"/>
<path class="st0" d="M96.7,54.8v-0.9h0.7c0.1,0,0.2,0,0.3,0c0.1,0,0.2-0.1,0.3-0.1c0.1-0.1,0.1-0.2,0.2-0.3c0-0.1,0.1-0.3,0.1-0.6
	V45c0-0.2,0-0.4-0.1-0.6c0-0.1-0.1-0.2-0.2-0.3C97.9,44,97.8,44,97.7,44c-0.1,0-0.2,0-0.3,0h-0.7v-0.9h5.7V44h-0.7
	c-0.1,0-0.2,0-0.3,0c-0.1,0-0.2,0.1-0.3,0.1s-0.1,0.2-0.2,0.3c0,0.1-0.1,0.3-0.1,0.5v8.9h3.1c0.4,0,0.7-0.1,0.9-0.4
	c0.2-0.2,0.4-0.6,0.5-1.1l0.3-1.2h0.9l-0.1,3.7L96.7,54.8L96.7,54.8z"/>
<path class="st0" d="M111.6,53.8h3.3c0.2,0,0.3,0,0.4-0.1s0.2-0.1,0.3-0.3c0.1-0.1,0.2-0.2,0.2-0.4s0.1-0.3,0.1-0.5l0.1-0.8h1.1
	l-0.1,3h-9.7v-0.9h0.7c0.1,0,0.2,0,0.3,0c0.1,0,0.2-0.1,0.3-0.1c0.1-0.1,0.1-0.2,0.2-0.3s0.1-0.3,0.1-0.5v-8c0-0.2,0-0.4-0.1-0.6
	s-0.1-0.2-0.2-0.3s-0.2-0.1-0.3-0.1c-0.1,0-0.2,0-0.3,0h-0.7V43h9.1l0.1,3h-1.2l-0.1-0.8c0-0.4-0.1-0.7-0.3-0.9
	c-0.2-0.2-0.4-0.3-0.7-0.3h-2.8v4.1h3.9v1h-3.9L111.6,53.8L111.6,53.8z"/>
<path class="st0" d="M123.6,43.9h-0.7c-0.1,0-0.2,0-0.3,0c-0.1,0-0.2,0.1-0.3,0.1c-0.1,0.1-0.1,0.2-0.2,0.3c0,0.1-0.1,0.3-0.1,0.6
	v9.9c0,0.5-0.1,0.9-0.2,1.3c-0.1,0.4-0.3,0.7-0.5,1s-0.4,0.5-0.7,0.7s-0.6,0.4-0.9,0.5s-0.7,0.2-1,0.3c-0.4,0.1-0.7,0.1-1.1,0.1H117
	v-1h0.3c0.3,0,0.5-0.1,0.8-0.1c0.2-0.1,0.5-0.3,0.7-0.5s0.3-0.5,0.5-0.9c0.1-0.4,0.2-0.8,0.2-1.4v-9.9c0-0.2,0-0.4-0.1-0.5
	c0-0.1-0.1-0.2-0.2-0.3S119,44,118.9,44c-0.1,0-0.2,0-0.3,0h-0.7v-0.9h5.7L123.6,43.9L123.6,43.9z"/>
<path class="st0" d="M124.3,54.8v-0.9h0.7c0.1,0,0.2,0,0.3,0c0.1,0,0.2-0.1,0.3-0.1c0.1-0.1,0.1-0.2,0.2-0.3c0-0.1,0.1-0.3,0.1-0.6
	V45c0-0.2,0-0.4-0.1-0.6c0-0.1-0.1-0.2-0.2-0.3s-0.2-0.1-0.3-0.1c-0.1,0-0.2,0-0.3,0h-0.7v-0.9h5.7V44h-0.7c-0.1,0-0.2,0-0.3,0
	s-0.2,0.1-0.3,0.1c-0.1,0.1-0.1,0.2-0.2,0.3c0,0.1-0.1,0.3-0.1,0.6v7.9c0,0.2,0,0.4,0.1,0.6c0,0.1,0.1,0.2,0.2,0.3s0.2,0.1,0.3,0.1
	s0.2,0,0.3,0h0.7v0.9H124.3L124.3,54.8z M125.7,40.6c0-0.2,0-0.4,0.1-0.5s0.2-0.3,0.3-0.4c0.1-0.1,0.3-0.2,0.4-0.2
	c0.2,0,0.4-0.1,0.6-0.1s0.4,0,0.5,0.1c0.2,0,0.3,0.1,0.5,0.2c0.1,0.1,0.2,0.2,0.3,0.4c0.1,0.1,0.1,0.3,0.1,0.5s0,0.4-0.1,0.5
	s-0.2,0.3-0.3,0.4s-0.3,0.2-0.5,0.2s-0.4,0.1-0.5,0.1c-0.2,0-0.4,0-0.6-0.1c-0.2,0-0.3-0.1-0.4-0.2c-0.1-0.1-0.2-0.2-0.3-0.4
	C125.7,41,125.7,40.8,125.7,40.6z"/>
</svg>
