<?xml version="1.0" encoding="utf-8"?>
<!-- Generator: Adobe Illustrator 22.0.0, SVG Export Plug-In . SVG Version: 6.00 Build 0)  -->
<svg version="1.1" id="Layer_1" xmlns="http://www.w3.org/2000/svg" xmlns:xlink="http://www.w3.org/1999/xlink" x="0px" y="0px"
	 width="121.2px" height="134px" viewBox="0 0 121.2 134" style="enable-background:new 0 0 121.2 134;" xml:space="preserve">
<style type="text/css">
	.st0{fill:#FFFFFF;}
	.st1{fill:#312B6E;}
	.st2{fill:#A51008;}
	.st3{clip-path:url(#SVGID_2_);enable-background:new    ;}
	.st4{clip-path:url(#SVGID_4_);enable-background:new    ;}
	.st5{enable-background:new    ;}
</style>
<g>
	<g>
		<path class="st0" d="M61.8,7.8C58,12.9,54.5,16.3,51.2,18c-6.1,0.7-11.7,2.3-16.8,4.8c-5.1,30.4,3.7,50.7,26.5,60.8
			C83.4,71.5,92,51.3,86.6,23c-5.5-3-11.4-4.7-17.6-5C68.3,13.4,65.9,10,61.8,7.8z"/>
	</g>
</g>
<g>
	<g>
		<path class="st1" d="M64.7,0c0.6,4.5-0.2,6.6-2.6,6.4c-0.8-0.6-1.6-1.1-2.6-1.4c0.6,1.7,0.5,3.4-0.2,5.1c-2.8,0.9-5.6,3-8.5,6.3
			c-5.7,0.8-11.7,2.5-17.8,5.1c-5,31.9,4.2,53.2,27.7,64.1c24-12.8,33-34.1,27-64c-6.1-2.7-12.2-4.5-18.1-5.4
			C71.6,10,69.9,4.6,64.7,0 M66.8,13.5c0.9,2.2,1.4,4.1,1.4,5.7c5.9,0.8,11.5,2.4,17,4.9c5.6,26.9-2.5,46.3-24.3,58
			c-21.1-8.8-29.6-28.2-25.3-58c4.4-1.9,8.7-3.3,13.2-4.2c-1.6,5.7-1,10.2,1.8,13.3c-0.7-2.2-0.9-3.8-0.7-5c1.1-3.1,3.5-5.9,7.2-8.6
			c4.3-3,6-6.5,5-10.3C64.4,10.2,66,11.6,66.8,13.5z"/>
	</g>
</g>
<g>
	<g>
		<path class="st2" d="M62,9.3c2.3,0.8,3.9,2.2,4.8,4.2c-1-3.2-2.6-5.5-4.7-7.1c-0.8-0.6-1.6-1-2.6-1.4c0.6,1.7,0.5,3.4-0.2,5.1
			c-0.6,1.5-1.7,3-3.3,4.5c-4.2,4-6.3,8.6-6.3,13.6c1.1-3.1,3.5-5.9,7.2-8.6C61.3,16.6,62.9,13.2,62,9.3z"/>
	</g>
</g>
<g>
	<g>
		<g>
			<defs>
				<rect id="SVGID_1_" x="43.7" y="58.3" width="13.7" height="7.8"/>
			</defs>
			<clipPath id="SVGID_2_">
				<use xlink:href="#SVGID_1_"  style="overflow:visible;"/>
			</clipPath>
			<g class="st3">
				<path class="st2" d="M45.8,60.7h-0.2h-0.1c0,0-0.1,0-0.1,0.1s0,0.1-0.1,0.1c0,0,0,0.1,0,0.2v3.3c0,0.2,0,0.3-0.1,0.4
					c0,0.1-0.1,0.2-0.2,0.3c-0.1,0.1-0.1,0.2-0.2,0.2c-0.1,0.1-0.2,0.1-0.3,0.2c-0.1,0-0.2,0.1-0.3,0.1s-0.2,0-0.4,0h-0.2v-0.3h0.1
					c0.1,0,0.2,0,0.3-0.1c0.1,0,0.2-0.1,0.2-0.2c0.1-0.1,0.1-0.2,0.2-0.3c0-0.1,0.1-0.3,0.1-0.5V61c0-0.1,0-0.1,0-0.2
					c0,0,0-0.1-0.1-0.1s-0.1,0-0.1,0h-0.1H44v-0.3h1.9v0.3H45.8z"/>
				<path class="st2" d="M47.1,63l-0.2,0.5c0,0,0,0.1,0,0.2c0,0.1,0,0.1,0,0.2V64c0,0,0,0,0.1,0.1s0.1,0,0.1,0h0.1h0.2v0.3H46V64h0
					h0.1c0,0,0.1,0,0.1-0.1l0.1-0.1c0-0.1,0.1-0.1,0.1-0.2l1.2-3.2h0.8l1.1,3.2c0,0.1,0.1,0.1,0.1,0.2c0,0.1,0.1,0.1,0.1,0.1
					l0.1,0.1h0.1H50v0.3h-1.8V64h0.2h0.1h0.1c0,0,0,0,0.1-0.1v-0.1v-0.1v-0.1L48.4,63H47.1L47.1,63z M48,61.8c0-0.1,0-0.1-0.1-0.2
					s0-0.1-0.1-0.2s0-0.1-0.1-0.2c0-0.1,0-0.1-0.1-0.2c0,0.1,0,0.1-0.1,0.2c0,0.1,0,0.1-0.1,0.2c0,0.1,0,0.1-0.1,0.2
					c0,0.1,0,0.1-0.1,0.2l-0.3,0.9H48L48,61.8z"/>
				<path class="st2" d="M50.2,64.3V64h0.2h0.1c0,0,0.1,0,0.1-0.1s0-0.1,0.1-0.1c0,0,0-0.1,0-0.2V61c0-0.1,0-0.1,0-0.2
					c0,0,0-0.1-0.1-0.1c0,0-0.1,0-0.1-0.1h-0.1h-0.2v-0.3h1.9v0.3h-0.2h-0.1h-0.1c0,0,0,0.1-0.1,0.1c0,0,0,0.1,0,0.2v3h1
					c0.1,0,0.2,0,0.3-0.1s0.1-0.2,0.2-0.4l0.1-0.4h0.3v1.2L50.2,64.3L50.2,64.3z"/>
				<path class="st2" d="M55.1,64h1.1c0.1,0,0.1,0,0.1,0l0.1-0.1l0.1-0.1c0-0.1,0-0.1,0-0.2v-0.3H57v1h-3.2V64H54h0.1h0.1
					c0,0,0-0.1,0.1-0.1c0,0,0-0.1,0-0.2V61c0-0.1,0-0.1,0-0.2c0,0,0-0.1-0.1-0.1c0,0-0.1,0-0.1-0.1H54h-0.2v-0.3h3v1h-0.4V61
					c0-0.1,0-0.2-0.1-0.3s-0.1-0.1-0.2-0.1h-0.9V62h1.3v0.3h-1.3L55.1,64L55.1,64z"/>
			</g>
		</g>
	</g>
</g>
<g>
	<g>
		<g>
			<defs>
				<rect id="SVGID_3_" x="58.8" y="58.3" width="18.7" height="7.8"/>
			</defs>
			<clipPath id="SVGID_4_">
				<use xlink:href="#SVGID_3_"  style="overflow:visible;"/>
			</clipPath>
			<g class="st4">
				<path class="st2" d="M61.2,63.7c0,0.1,0,0.1,0,0.2c0,0,0,0.1,0.1,0.1c0,0,0.1,0,0.1,0.1h0.1h0.2v0.3h-1.9V64H60h0.1
					c0,0,0.1,0,0.1-0.1s0-0.1,0.1-0.1c0,0,0-0.1,0-0.2v-2.9h-0.4c-0.1,0-0.2,0-0.2,0c-0.1,0-0.1,0-0.1,0.1l-0.1,0.1c0,0,0,0.1,0,0.2
					v0.3h-0.4v-1.1h3.4v1.1h-0.4v-0.3c0-0.1,0-0.1,0-0.2c0,0,0-0.1-0.1-0.1l-0.1-0.1c-0.1,0-0.1,0-0.2,0h-0.4L61.2,63.7L61.2,63.7z"
					/>
				<path class="st2" d="M64.1,64h1.1c0.1,0,0.1,0,0.1,0l0.1-0.1l0.1-0.1c0,0,0-0.1,0-0.2v-0.3H66v1h-3.2V64H63h0.1h0.1
					c0,0,0-0.1,0.1-0.1s0-0.1,0-0.2V61c0-0.1,0-0.1,0-0.2c0,0,0-0.1-0.1-0.1s-0.1,0-0.1-0.1H63h-0.2v-0.3h3v1h-0.4V61
					c0-0.1,0-0.2-0.1-0.3s-0.1-0.1-0.2-0.1h-0.9V62h1.3v0.3h-1.3L64.1,64L64.1,64z"/>
				<path class="st2" d="M69.5,60.7L67.4,64h1.2c0.1,0,0.2,0,0.3,0c0.1,0,0.1-0.1,0.2-0.1c0-0.1,0.1-0.1,0.1-0.2c0-0.1,0-0.1,0-0.2
					v-0.2h0.4v1.1h-3.2V64l2.1-3.3h-1.1c-0.1,0-0.2,0-0.2,0c-0.1,0-0.1,0.1-0.1,0.1S67,60.9,67,61c0,0.1,0,0.1,0,0.2v0.3h-0.4v-1.1
					h2.9L69.5,60.7L69.5,60.7z"/>
				<path class="st2" d="M71.4,64h1.1c0.1,0,0.1,0,0.1,0l0.1-0.1l0.1-0.1c0,0,0-0.1,0-0.2v-0.3h0.4v1H70V64h0.2h0.1h0.1
					c0,0,0-0.1,0.1-0.1s0-0.1,0-0.2V61c0-0.1,0-0.1,0-0.2c0,0,0-0.1-0.1-0.1c0,0-0.1,0-0.1-0.1h-0.1H70v-0.3h3v1h-0.4V61
					c0-0.1,0-0.2-0.1-0.3s-0.1-0.1-0.2-0.1h-0.9V62h1.3v0.3h-1.3V64L71.4,64z"/>
				<path class="st2" d="M73.6,64h0.2h0.1H74c0,0,0-0.1,0.1-0.1c0,0,0-0.1,0-0.2V61c0-0.1,0-0.1,0-0.2c0,0,0-0.1-0.1-0.1
					s-0.1,0-0.1,0h-0.1h-0.2v-0.3h1.8c0.5,0,0.9,0.1,1.1,0.3s0.4,0.4,0.4,0.8c0,0.1,0,0.3-0.1,0.4s-0.1,0.2-0.2,0.3
					s-0.2,0.2-0.2,0.2c-0.1,0.1-0.2,0.1-0.3,0.1l0.7,1.1c0,0.1,0.1,0.1,0.1,0.2c0,0.1,0.1,0.1,0.1,0.1l0.1,0.1h0.1l0,0v0.3H77
					c-0.2,0-0.3,0-0.4,0s-0.2,0-0.3-0.1c-0.1,0-0.2-0.1-0.2-0.2c-0.1-0.1-0.1-0.1-0.2-0.2l-0.6-1.2h-0.4v1.1c0,0.1,0,0.1,0,0.2
					c0,0.1,0,0.1,0.1,0.1h0.1h0.1h0.2v0.3h-1.9L73.6,64L73.6,64z M74.9,62.3h0.3c0.1,0,0.2,0,0.3-0.1c0.1,0,0.2-0.1,0.2-0.2
					c0.1-0.1,0.1-0.2,0.1-0.3s0-0.2,0-0.4c0-0.1,0-0.3,0-0.4c0-0.1-0.1-0.2-0.1-0.2c-0.1-0.1-0.1-0.1-0.2-0.1s-0.2,0-0.3,0h-0.3
					V62.3L74.9,62.3z"/>
			</g>
		</g>
	</g>
</g>
<g class="st5">
	<path class="st1" d="M52.6,67.2c0.1-0.1,0.1-0.1,0.1-0.2s0.1-0.1,0.1-0.1s0-0.1,0.1-0.1v-0.1c0-0.1,0-0.1-0.1-0.1c0,0-0.1,0-0.2,0
		v-0.3H54v0.3c-0.1,0-0.1,0-0.2,0c-0.1,0-0.1,0.1-0.2,0.1c-0.1,0-0.1,0.1-0.2,0.2c-0.1,0.1-0.1,0.1-0.2,0.2l-0.7,0.8l1,1.6
		c0.1,0.1,0.1,0.2,0.2,0.2c0.1,0.1,0.1,0.1,0.1,0.1c0.1,0,0.1,0.1,0.2,0.1c0.1,0,0.1,0,0.2,0l0,0v0.3h-0.3c-0.1,0-0.3,0-0.4,0
		c-0.1,0-0.2,0-0.3,0s-0.1,0-0.2-0.1c-0.1,0-0.1-0.1-0.2-0.1l-0.1-0.1c0,0-0.1-0.1-0.1-0.2l-0.7-1.3l-0.2,0.2v0.9c0,0.1,0,0.1,0,0.2
		c0,0,0,0.1,0.1,0.1c0,0,0.1,0,0.1,0.1H52h0.2v0.3h-1.9v-0.3h0.2h0.1h0.1c0,0,0-0.1,0.1-0.1c0,0,0-0.1,0-0.2v-2.7c0-0.1,0-0.1,0-0.2
		c0,0,0-0.1-0.1-0.1h-0.1h-0.1h-0.2v-0.3h1.9v0.3H52h-0.1c0,0-0.1,0-0.1,0.1c0,0,0,0.1-0.1,0.1c0,0,0,0.1,0,0.2v1.3L52.6,67.2z"/>
	<path class="st1" d="M58.1,68.1c0,0.3,0,0.6-0.1,0.8c-0.1,0.2-0.2,0.5-0.4,0.6c-0.2,0.2-0.4,0.3-0.6,0.4C56.8,70,56.5,70,56.2,70
		s-0.6,0-0.8-0.1s-0.4-0.2-0.6-0.4c-0.2-0.2-0.3-0.4-0.3-0.6c-0.1-0.2-0.1-0.5-0.1-0.8s0-0.6,0.1-0.8c0.1-0.2,0.2-0.5,0.3-0.6
		c0.2-0.2,0.3-0.3,0.6-0.4c0.2-0.1,0.5-0.1,0.8-0.1s0.6,0,0.8,0.1s0.4,0.2,0.6,0.4c0.2,0.2,0.3,0.4,0.4,0.6
		C58.1,67.5,58.1,67.8,58.1,68.1z M55.3,68.1c0,0.3,0,0.5,0.1,0.7c0,0.2,0.1,0.4,0.2,0.5c0.1,0.1,0.2,0.2,0.3,0.3
		c0.1,0.1,0.3,0.1,0.4,0.1c0.2,0,0.3,0,0.4-0.1c0.1-0.1,0.2-0.2,0.3-0.3c0.1-0.1,0.1-0.3,0.2-0.5c0-0.2,0.1-0.4,0.1-0.7
		c0-0.3,0-0.5-0.1-0.7c0-0.2-0.1-0.4-0.2-0.5c-0.1-0.1-0.2-0.2-0.3-0.3c-0.1-0.1-0.3-0.1-0.4-0.1c-0.2,0-0.3,0-0.4,0.1
		c-0.1,0.1-0.2,0.2-0.3,0.3c-0.1,0.1-0.1,0.3-0.2,0.5C55.3,67.6,55.3,67.8,55.3,68.1z"/>
	<path class="st1" d="M58.6,70.1v-0.3h0.2h0.1c0,0,0.1,0,0.1-0.1c0,0,0-0.1,0.1-0.1c0,0,0-0.1,0-0.2v-2.6c0-0.1,0-0.1,0-0.2
		c0,0,0-0.1-0.1-0.1c0,0-0.1,0-0.1-0.1h-0.1h-0.2v-0.3h1.9v0.3h-0.2h-0.1h-0.1c0,0,0,0.1-0.1,0.1c0,0,0,0.1,0,0.2v3h1
		c0.1,0,0.2,0,0.3-0.1s0.1-0.2,0.2-0.4l0.1-0.4h0.3V70L58.6,70.1L58.6,70.1z"/>
	<path class="st1" d="M63.5,69.7h1.1c0.1,0,0.1,0,0.1,0l0.1-0.1l0.1-0.1c0-0.1,0-0.1,0-0.2V69h0.4v1h-3.2v-0.3h0.2h0.1h0.1
		c0,0,0-0.1,0.1-0.1c0,0,0-0.1,0-0.2v-2.6c0-0.1,0-0.1,0-0.2c0,0,0-0.1-0.1-0.1c0,0-0.1,0-0.1-0.1s-0.1,0-0.1,0h-0.2v-0.3h3v1h-0.4
		v-0.3c0-0.1,0-0.2-0.1-0.3c-0.1-0.1-0.1-0.1-0.2-0.1h-0.9v1.4h1.3v0.3h-1.3L63.5,69.7L63.5,69.7z"/>
	<path class="st1" d="M67.5,66.5h-0.2h-0.1c0,0-0.1,0-0.1,0.1c0,0,0,0.1-0.1,0.1c0,0,0,0.1,0,0.2v3.3c0,0.2,0,0.3-0.1,0.4
		c0,0.1-0.1,0.2-0.2,0.3c-0.1,0.1-0.1,0.2-0.2,0.2c-0.1,0.1-0.2,0.1-0.3,0.2s-0.2,0.1-0.3,0.1c-0.1,0-0.2,0-0.4,0h-0.2v-0.3h0.1
		c0.1,0,0.2,0,0.3-0.1c0.1,0,0.2-0.1,0.2-0.2c0.1-0.1,0.1-0.2,0.2-0.3c0-0.1,0.1-0.3,0.1-0.5v-3.3c0-0.1,0-0.1,0-0.2
		c0,0,0-0.1-0.1-0.1H66h-0.1h-0.2v-0.3h1.9L67.5,66.5L67.5,66.5z"/>
	<path class="st1" d="M67.7,70.1v-0.3H68h0.1c0,0,0.1,0,0.1-0.1c0,0,0-0.1,0.1-0.1c0,0,0-0.1,0-0.2v-2.6c0-0.1,0-0.1,0-0.2
		s0-0.1-0.1-0.1c0,0-0.1,0-0.1-0.1s-0.1,0-0.1,0h-0.2v-0.3h1.9v0.3h-0.2h-0.1c0,0-0.1,0-0.1,0.1c0,0,0,0.1-0.1,0.1c0,0,0,0.1,0,0.2
		v2.6c0,0.1,0,0.1,0,0.2c0,0,0,0.1,0.1,0.1c0,0,0.1,0,0.1,0.1h0.1h0.2v0.3H67.7z M68.2,65.3c0-0.1,0-0.1,0-0.2s0.1-0.1,0.1-0.1
		l0.1-0.1c0.1,0,0.1,0,0.2,0s0.1,0,0.2,0s0.1,0,0.2,0.1l0.1,0.1c0,0.1,0,0.1,0,0.2s0,0.1,0,0.2S69,65.6,69,65.6s-0.1,0.1-0.2,0.1
		s-0.1,0-0.2,0s-0.1,0-0.2,0s-0.1,0-0.1-0.1l-0.1-0.1C68.2,65.5,68.2,65.4,68.2,65.3z"/>
</g>
<g>
	<path class="st1" d="M67.8,58.2h-5.2c0-6.3,0-12.6,0-18.9c0.9,0.2,1.8,0.4,2.8,0.6c0.8,0.2,1.6,0.3,2.4,0.4
		C67.8,46.3,67.8,52.2,67.8,58.2z"/>
	<path class="st2" d="M39.3,40.6c-1.5,5.2,6.3,4.9,9.1,3.3C43.7,49.1,34.6,45.2,39.3,40.6"/>
	<path class="st2" d="M80.7,38.6c-1.1,1.1-3.6,1.7-5.4,1.2c0.6-0.2,1.1-0.7,1.4-1.4c0.7,0.2,1.7,0.5,2.9,0.4
		C79.9,38.7,80.3,38.7,80.7,38.6z"/>
	<path class="st1" d="M45.3,37.5c-2.4,0.5-4.9,2-6.9,4.4c0.4-1,0.9-1.7,1.4-2.3C52.3,26,73,45.1,81.2,38.2c-2.1,4.8-16,1.7-22.6-0.1
		C54.4,36.7,49.7,36.6,45.3,37.5z"/>
	<path class="st1" d="M83.1,58.2L70.7,47.8l7.6-7.3c-1.5,0.5-3.3,0.7-4.8,0.6l-6,5.7v3.9l0.4,0.4l9,7.3h6.3L83.1,58.2L83.1,58.2z"/>
	<rect x="56.1" y="37.5" class="st1" width="5" height="20.8"/>
	<path class="st1" d="M48.3,59c-2.7,0-5.2-0.9-7.3-2.7c0.5-0.6,1-1.2,1.5-1.8c2.1,2.1,6.3,2.6,6.9-0.1c0.1-2.6,0-11.1,0-16.7
		c2.1,0.2,3.4,0.4,5,0.5c-0.1,5.7,0,13.8-0.1,16.2C54.2,56.7,51.5,58.7,48.3,59z"/>
</g>
<g class="st5">
	<path class="st0" d="M7.7,95.6H6.9c-0.1,0-0.3,0-0.4,0s-0.2,0.1-0.3,0.2C6.1,95.9,6,96,6,96.2s-0.1,0.4-0.1,0.7v11.8
		c0,0.6-0.1,1.1-0.2,1.6s-0.3,0.9-0.6,1.2c-0.2,0.3-0.5,0.6-0.9,0.9s-0.7,0.4-1.1,0.6c-0.4,0.1-0.8,0.3-1.2,0.3
		c-0.4,0.1-0.9,0.1-1.3,0.1h-0.7v-1.1h0.4c0.3,0,0.6-0.1,0.9-0.2s0.6-0.3,0.8-0.6c0.2-0.3,0.4-0.6,0.6-1.1c0.1-0.5,0.2-1,0.2-1.7
		V96.8c0-0.3,0-0.5-0.1-0.6c-0.1-0.2-0.1-0.3-0.2-0.4s-0.2-0.1-0.3-0.2c-0.1,0-0.2,0-0.4,0H0.9v-1h6.8C7.7,94.6,7.7,95.6,7.7,95.6z"
		/>
	<path class="st0" d="M12.2,104l-0.6,1.7c-0.1,0.2-0.1,0.3-0.2,0.6c-0.1,0.2-0.1,0.4-0.1,0.6c0,0.1,0,0.2,0.1,0.3
		c0.1,0.1,0.1,0.2,0.2,0.2c0.1,0.1,0.2,0.1,0.3,0.1s0.2,0,0.3,0H13v1H8v-1h0.2c0.2,0,0.3,0,0.5-0.1c0.1,0,0.3-0.1,0.4-0.2
		c0.1-0.1,0.2-0.3,0.4-0.4c0.1-0.2,0.2-0.4,0.3-0.7l4.3-11.6h2.7l4.1,11.6c0.1,0.3,0.2,0.5,0.3,0.7c0.1,0.2,0.2,0.3,0.3,0.4
		c0.1,0.1,0.3,0.2,0.4,0.2s0.3,0.1,0.4,0.1h0.4v1h-6.5v-1H17c0.1,0,0.2,0,0.3,0c0.1,0,0.2-0.1,0.3-0.1c0.1-0.1,0.1-0.1,0.2-0.2
		s0.1-0.2,0.1-0.3c0-0.2,0-0.3-0.1-0.5s-0.1-0.3-0.1-0.4l-0.7-2L12.2,104L12.2,104z M15.6,99.5c-0.1-0.2-0.1-0.5-0.2-0.7
		c-0.1-0.2-0.1-0.5-0.2-0.8c-0.1-0.3-0.1-0.5-0.2-0.8s-0.1-0.5-0.2-0.7c-0.1,0.2-0.1,0.4-0.2,0.7c-0.1,0.2-0.2,0.5-0.2,0.7
		c-0.1,0.2-0.2,0.5-0.3,0.7s-0.2,0.5-0.2,0.7l-1.2,3.3h4L15.6,99.5z"/>
	<path class="st0" d="M23.3,108.6v-1h0.8c0.1,0,0.3,0,0.4,0s0.2-0.1,0.3-0.2c0.1-0.1,0.2-0.2,0.2-0.4c0.1-0.2,0.1-0.4,0.1-0.7v-9.4
		c0-0.3,0-0.5-0.1-0.7s-0.1-0.3-0.2-0.4s-0.2-0.1-0.3-0.2c-0.1,0-0.3,0-0.4,0h-0.8v-1h6.8v1h-0.8c-0.1,0-0.3,0-0.4,0
		s-0.2,0.1-0.3,0.2c-0.1,0.1-0.2,0.2-0.2,0.4c-0.1,0.2-0.1,0.4-0.1,0.6v10.6H32c0.5,0,0.8-0.1,1.1-0.4s0.4-0.7,0.6-1.3l0.3-1.5h1
		l-0.1,4.4H23.3L23.3,108.6z"/>
	<path class="st0" d="M41.1,107.4H45c0.2,0,0.4,0,0.5-0.1s0.3-0.2,0.4-0.3c0.1-0.1,0.2-0.3,0.2-0.5c0.1-0.2,0.1-0.4,0.1-0.6l0.2-0.9
		h1.4l-0.1,3.6H36.1v-1H37c0.1,0,0.3,0,0.4,0c0.1,0,0.2-0.1,0.3-0.2s0.2-0.2,0.2-0.4s0.1-0.4,0.1-0.6v-9.5c0-0.3,0-0.5-0.1-0.7
		s-0.1-0.3-0.2-0.4c-0.1-0.1-0.2-0.1-0.3-0.2c-0.1,0-0.3,0-0.4,0h-0.8v-1h10.9l0.1,3.6h-1.4l-0.1-0.9c-0.1-0.5-0.2-0.8-0.4-1.1
		c-0.2-0.3-0.5-0.4-0.9-0.4h-3.3v4.9h4.7v1.2h-4.7L41.1,107.4L41.1,107.4z"/>
</g>
<g class="st5">
	<path class="st0" d="M63,106.2c0,0.3,0,0.5,0.1,0.7s0.1,0.3,0.2,0.4s0.2,0.1,0.3,0.2c0.1,0,0.3,0,0.4,0h0.8v1H58v-1h0.8
		c0.1,0,0.3,0,0.4,0c0.1,0,0.2-0.1,0.3-0.2s0.2-0.2,0.2-0.4c0.1-0.2,0.1-0.4,0.1-0.7V95.7h-1.6c-0.3,0-0.5,0-0.7,0.1
		S57.2,96,57,96.1c-0.1,0.1-0.2,0.3-0.3,0.4c-0.1,0.2-0.1,0.4-0.1,0.6l-0.1,1.2h-1.3l0.1-3.8h12.3l0.1,3.8h-1.3l-0.1-1.2
		c0-0.2-0.1-0.4-0.1-0.6c-0.1-0.2-0.2-0.3-0.3-0.4c-0.1-0.1-0.3-0.2-0.5-0.3c-0.2-0.1-0.4-0.1-0.7-0.1H63V106.2L63,106.2z"/>
	<path class="st0" d="M73.3,107.4h3.9c0.2,0,0.4,0,0.5-0.1s0.3-0.2,0.4-0.3c0.1-0.1,0.2-0.3,0.2-0.5s0.1-0.4,0.1-0.6l0.2-0.9H80
		l-0.1,3.6H68.4v-1h0.8c0.1,0,0.3,0,0.4,0s0.2-0.1,0.3-0.2c0.1-0.1,0.2-0.2,0.2-0.4c0.1-0.2,0.1-0.4,0.1-0.6v-9.5
		c0-0.3,0-0.5-0.1-0.7s-0.1-0.3-0.2-0.4s-0.2-0.1-0.3-0.2c-0.1,0-0.3,0-0.4,0h-0.8v-1h10.9l0.1,3.6H78l-0.1-0.9
		c-0.1-0.5-0.2-0.8-0.4-1.1c-0.2-0.3-0.5-0.4-0.9-0.4h-3.3v4.9H78v1.2h-4.7V107.4L73.3,107.4z"/>
	<path class="st0" d="M92.5,95.5l-7.4,11.8h4.2c0.4,0,0.7-0.1,1-0.2s0.5-0.3,0.6-0.4c0.2-0.2,0.3-0.4,0.3-0.6
		c0.1-0.2,0.1-0.5,0.1-0.7l0.1-0.9h1.4l-0.1,4.1H81.5v-1l7.4-11.9H85c-0.3,0-0.6,0-0.8,0.1c-0.2,0.1-0.4,0.2-0.5,0.4
		c-0.1,0.2-0.2,0.3-0.3,0.6c-0.1,0.2-0.1,0.5-0.1,0.7l-0.1,1.1h-1.4l0.1-4.1h10.5L92.5,95.5L92.5,95.5z"/>
	<path class="st0" d="M99.3,107.4h3.9c0.2,0,0.4,0,0.5-0.1s0.3-0.2,0.4-0.3c0.1-0.1,0.2-0.3,0.2-0.5s0.1-0.4,0.1-0.6l0.2-0.9h1.4
		l-0.1,3.6H94.3v-1h0.8c0.1,0,0.3,0,0.4,0s0.2-0.1,0.3-0.2c0.1-0.1,0.2-0.2,0.2-0.4c0.1-0.2,0.1-0.4,0.1-0.6v-9.5
		c0-0.3,0-0.5-0.1-0.7s-0.1-0.3-0.2-0.4s-0.2-0.1-0.3-0.2c-0.1,0-0.3,0-0.4,0h-0.8v-1h10.9l0.1,3.6h-1.4l-0.1-0.9
		c-0.1-0.5-0.2-0.8-0.4-1.1c-0.2-0.3-0.5-0.4-0.9-0.4h-3.3v4.9h4.7v1.2h-4.7L99.3,107.4L99.3,107.4z"/>
	<path class="st0" d="M107.1,107.5h0.8c0.1,0,0.3,0,0.4,0s0.2-0.1,0.3-0.2c0.1-0.1,0.2-0.2,0.2-0.4s0.1-0.4,0.1-0.6v-9.6
		c0-0.3,0-0.5-0.1-0.6c-0.1-0.2-0.1-0.3-0.2-0.4s-0.2-0.1-0.3-0.2c-0.1,0-0.2,0-0.4,0h-0.8v-1h6.3c1.9,0,3.2,0.3,4.1,0.9
		s1.3,1.5,1.3,2.7c0,0.5-0.1,1-0.2,1.4c-0.2,0.4-0.4,0.8-0.6,1.1c-0.3,0.3-0.5,0.6-0.9,0.8c-0.3,0.2-0.6,0.4-1,0.5l2.3,4
		c0.2,0.3,0.3,0.5,0.5,0.7s0.3,0.4,0.5,0.5s0.3,0.2,0.5,0.3c0.2,0.1,0.3,0.1,0.5,0.1h0.1v1h-0.6c-0.6,0-1.1,0-1.5-0.1
		c-0.4,0-0.8-0.1-1.2-0.3c-0.3-0.1-0.6-0.3-0.9-0.5s-0.5-0.5-0.7-0.9l-2.3-4.3H112v3.9c0,0.3,0,0.5,0.1,0.6c0.1,0.2,0.1,0.3,0.2,0.4
		s0.2,0.1,0.3,0.2c0.1,0,0.2,0,0.4,0h0.8v1H107L107.1,107.5L107.1,107.5z M112.1,101.3h1.1c0.5,0,0.8-0.1,1.1-0.2
		c0.3-0.1,0.5-0.3,0.7-0.5s0.3-0.5,0.4-0.9s0.1-0.8,0.1-1.3s0-0.9-0.1-1.3c-0.1-0.3-0.2-0.6-0.4-0.9c-0.2-0.2-0.4-0.4-0.7-0.5
		c-0.3-0.1-0.7-0.1-1.1-0.1h-1.1V101.3L112.1,101.3z"/>
</g>
<path class="st0" d="M31.8,118.8c0.2-0.2,0.4-0.4,0.5-0.6s0.3-0.4,0.3-0.5c0.1-0.2,0.1-0.3,0.2-0.4s0.1-0.3,0.1-0.4
	c0-0.2-0.1-0.4-0.2-0.5s-0.5-0.1-0.9-0.1v-1h5.3v1c-0.3,0-0.5,0-0.8,0.1c-0.2,0.1-0.5,0.2-0.7,0.4c-0.2,0.2-0.5,0.3-0.7,0.5
	s-0.5,0.4-0.7,0.7l-2.6,2.9l3.7,5.8c0.2,0.3,0.4,0.6,0.6,0.8c0.2,0.2,0.4,0.4,0.5,0.5c0.2,0.1,0.4,0.2,0.5,0.3
	c0.2,0.1,0.4,0.1,0.6,0.1h0.1v1h-1.1c-0.5,0-0.9,0-1.3,0c-0.4,0-0.7-0.1-1-0.1s-0.5-0.1-0.7-0.2c-0.2-0.1-0.4-0.2-0.5-0.3
	c-0.2-0.1-0.3-0.3-0.4-0.5c-0.1-0.2-0.2-0.4-0.4-0.6l-2.6-4.5l-0.9,0.7v3.3c0,0.3,0,0.5,0.1,0.7c0.1,0.2,0.1,0.3,0.2,0.4
	s0.2,0.1,0.3,0.2c0.1,0,0.3,0,0.4,0h0.8v1h-6.8v-1h0.8c0.1,0,0.3,0,0.4,0s0.2-0.1,0.3-0.2c0.1-0.1,0.2-0.2,0.2-0.4s0.1-0.4,0.1-0.6
	v-9.6c0-0.3,0-0.5-0.1-0.6c-0.1-0.2-0.1-0.3-0.2-0.4s-0.2-0.1-0.3-0.2c-0.1,0-0.3,0-0.4,0h-0.8v-1h6.8v1h-0.8c-0.1,0-0.3,0-0.4,0
	s-0.2,0.1-0.3,0.2c-0.1,0.1-0.2,0.2-0.2,0.4c-0.1,0.2-0.1,0.4-0.1,0.7v4.6L31.8,118.8z"/>
<path class="st0" d="M51.7,122.2c0,1.1-0.1,2.1-0.4,3c-0.3,0.9-0.7,1.7-1.3,2.3s-1.3,1.1-2.1,1.5c-0.8,0.3-1.8,0.5-2.8,0.5
	c-1.1,0-2.1-0.2-2.9-0.5c-0.8-0.3-1.5-0.8-2.1-1.5c-0.6-0.6-1-1.4-1.2-2.3s-0.4-1.9-0.4-3s0.1-2.1,0.4-3s0.7-1.6,1.2-2.3
	c0.6-0.6,1.2-1.1,2.1-1.5c0.8-0.3,1.8-0.5,2.9-0.5c1.1,0,2,0.2,2.8,0.5s1.5,0.8,2.1,1.5c0.6,0.6,1,1.4,1.3,2.3
	C51.5,120.1,51.7,121.1,51.7,122.2z M41.7,122.2c0,0.9,0.1,1.8,0.2,2.5c0.1,0.7,0.3,1.4,0.6,1.9s0.6,0.9,1,1.2s0.9,0.4,1.5,0.4
	s1.1-0.1,1.6-0.4c0.4-0.3,0.8-0.7,1-1.2c0.3-0.5,0.5-1.1,0.6-1.9c0.1-0.7,0.2-1.6,0.2-2.5s-0.1-1.8-0.2-2.5
	c-0.1-0.7-0.3-1.4-0.6-1.9s-0.6-0.9-1-1.2c-0.4-0.3-0.9-0.4-1.5-0.4s-1.1,0.1-1.6,0.4c-0.4,0.3-0.8,0.7-1,1.2
	c-0.3,0.5-0.5,1.1-0.6,1.9C41.7,120.5,41.7,121.3,41.7,122.2z"/>
<path class="st0" d="M53.3,129.3v-1h0.8c0.1,0,0.3,0,0.4,0c0.1,0,0.2-0.1,0.3-0.2c0.1-0.1,0.2-0.2,0.2-0.4c0.1-0.2,0.1-0.4,0.1-0.7
	v-9.4c0-0.3,0-0.5-0.1-0.7s-0.1-0.3-0.2-0.4s-0.2-0.1-0.3-0.2c-0.1,0-0.3,0-0.4,0h-0.8v-1h6.8v1h-0.8c-0.1,0-0.3,0-0.4,0
	c-0.1,0-0.2,0.1-0.3,0.2s-0.2,0.2-0.2,0.4s-0.1,0.4-0.1,0.6v10.6H62c0.5,0,0.8-0.1,1.1-0.4c0.3-0.3,0.4-0.7,0.6-1.3l0.3-1.5h1
	l-0.1,4.4H53.3L53.3,129.3z"/>
<path class="st0" d="M71.1,128.1H75c0.2,0,0.4,0,0.5-0.1c0.1-0.1,0.3-0.2,0.4-0.3c0.1-0.1,0.2-0.3,0.2-0.5c0.1-0.2,0.1-0.4,0.1-0.6
	l0.2-0.9h1.4l-0.1,3.6H66.2v-1H67c0.1,0,0.3,0,0.4,0s0.2-0.1,0.3-0.2c0.1-0.1,0.2-0.2,0.2-0.4c0.1-0.2,0.1-0.4,0.1-0.6v-9.5
	c0-0.3,0-0.5-0.1-0.7s-0.1-0.3-0.2-0.4s-0.2-0.1-0.3-0.2c-0.1,0-0.3,0-0.4,0h-0.8v-1h10.9l0.1,3.6h-1.4l-0.1-0.9
	c-0.1-0.5-0.2-0.8-0.4-1.1s-0.5-0.4-0.9-0.4h-3.3v4.9h4.7v1.2h-4.7L71.1,128.1L71.1,128.1z"/>
<path class="st0" d="M85.5,116.3h-0.8c-0.1,0-0.3,0-0.4,0s-0.2,0.1-0.3,0.2s-0.2,0.2-0.2,0.4c-0.1,0.2-0.1,0.4-0.1,0.7v11.8
	c0,0.6-0.1,1.1-0.2,1.6s-0.3,0.9-0.6,1.2c-0.2,0.3-0.5,0.6-0.9,0.9c-0.3,0.2-0.7,0.4-1.1,0.6c-0.4,0.1-0.8,0.3-1.2,0.3
	s-0.9,0.1-1.3,0.1h-0.7V133h0.4c0.3,0,0.6-0.1,0.9-0.2c0.3-0.1,0.6-0.3,0.8-0.6c0.2-0.3,0.4-0.6,0.6-1.1c0.1-0.5,0.2-1,0.2-1.7
	v-11.9c0-0.3,0-0.5-0.1-0.6c-0.1-0.2-0.1-0.3-0.2-0.4s-0.2-0.1-0.3-0.2c-0.1,0-0.2,0-0.4,0h-0.8v-1h6.8L85.5,116.3L85.5,116.3z"/>
<path class="st0" d="M86.3,129.3v-1h0.8c0.1,0,0.3,0,0.4,0s0.2-0.1,0.3-0.2c0.1-0.1,0.2-0.2,0.2-0.4c0.1-0.2,0.1-0.4,0.1-0.7v-9.4
	c0-0.3,0-0.5-0.1-0.7s-0.1-0.3-0.2-0.4s-0.2-0.1-0.3-0.2c-0.1,0-0.3,0-0.4,0h-0.8v-1H93v1h-0.8c-0.1,0-0.3,0-0.4,0s-0.2,0.1-0.3,0.2
	c-0.1,0.1-0.2,0.2-0.2,0.4c-0.1,0.2-0.1,0.4-0.1,0.7v9.4c0,0.3,0,0.5,0.1,0.7s0.1,0.3,0.2,0.4s0.2,0.1,0.3,0.2c0.1,0,0.3,0,0.4,0H93
	v1H86.3z M87.9,112.3c0-0.2,0-0.5,0.1-0.6c0.1-0.2,0.2-0.3,0.4-0.4c0.2-0.1,0.3-0.2,0.5-0.2c0.2-0.1,0.4-0.1,0.7-0.1
	c0.2,0,0.4,0,0.6,0.1s0.4,0.1,0.5,0.2c0.2,0.1,0.3,0.3,0.4,0.4c0.1,0.2,0.1,0.4,0.1,0.6s0,0.5-0.1,0.6c-0.1,0.2-0.2,0.3-0.4,0.4
	s-0.3,0.2-0.5,0.3c-0.2,0.1-0.4,0.1-0.6,0.1s-0.5,0-0.7-0.1s-0.4-0.1-0.5-0.3c-0.2-0.1-0.3-0.3-0.4-0.4
	C88,112.7,87.9,112.5,87.9,112.3z"/>
</svg>
