<?xml version="1.0" encoding="utf-8"?>
<!-- Generator: Adobe Illustrator 22.0.0, SVG Export Plug-In . SVG Version: 6.00 Build 0)  -->
<svg version="1.1" id="Layer_1" xmlns="http://www.w3.org/2000/svg" xmlns:xlink="http://www.w3.org/1999/xlink" x="0px" y="0px"
	 width="175.3px" height="134px" viewBox="0 0 175.3 134" style="enable-background:new 0 0 175.3 134;" xml:space="preserve">
<style type="text/css">
	.st0{fill:#BBBDBF;}
	.st1{enable-background:new    ;}
	.st2{fill:#FFFFFF;}
	.st3{fill:#231F6F;}
	.st4{fill:#EC1C24;}
</style>
<g>
	<path class="st0" d="M85.8,90.4c24.2-11,33.9-38.5,27.2-64.5c-5.5-2.5-11.5-4.2-18.2-5.8c-0.7-0.1,0.4-4.4-1-6.9
		c-1.6-2.5-5.6-3.1-6.3-3.3c-1.3-0.1-2.6,8.8-3.9,8.6c-9.7-0.1-15.2,2.7-25.8,7.3C52.8,51.4,60,80.2,85.8,90.4"/>
</g>
<g class="st1">
</g>
<g class="st1">
</g>
<g class="st1">
</g>
<g class="st1">
</g>
<g>
	<path class="st2" d="M87.5,90.9c24.2-11,33.9-38.5,27.2-64.5c-5.5-2.5-11.5-4.2-18.2-5.8c-0.7-0.1,0.4-4.4-1-6.9
		c-1.7-2.5-5.8-3.1-6.4-3.1c-1.3-0.1-2.6,8.8-3.9,8.6c-9.5-0.4-15,2.5-25.6,7.1C54.5,51.9,61.9,80.7,87.5,90.9"/>
</g>
<g>
	<path class="st3" d="M60.2,26.7c-5,25.1,2.2,53.6,27.6,63.7c23.8-10.7,33.4-37.9,26.8-63.7c-5.8-2.6-11.9-4.4-18.3-5.4
		c0.5-1.2,0.9-2.4,1.3-3.4c6.9,1,13.5,3.1,19.6,5.9c7.3,28.3-3.3,58.2-29.4,70c-27.9-11-35.7-42.4-30.4-70c6.7-3,13.3-4.8,19.8-5.8
		c-0.9,1.2-1.8,2.6-2.4,4.1C70,23,65.1,24.5,60.2,26.7"/>
</g>
<g>
	<path class="st3" d="M76.3,36.6c-2.6-13.2,9.4-23.7,12.8-26C79.9,12,68,23.9,76.3,36.6"/>
</g>
<g>
	<path class="st3" d="M96.1,21.6c4.5-9.6,2.3-15.5-4-21.6c0.4,1.4,1.6,6.4-2.5,7.5C92.5,9,96.1,17.4,96.1,21.6"/>
</g>
<g>
	<path class="st4" d="M86.5,5.8c2.9,9.5-11,11.3-10.5,25.5c2.1-8.8,15.8-11.3,13.1-20.8c2,0.1,4.8,2.6,5.9,5.8
		C95.7,12,91.3,7.1,86.5,5.8"/>
</g>
<g>
	<g>
		<path class="st4" d="M64.7,43.8c-1.6,5.5,6.7,5.2,9.7,3.5C69.4,52.9,59.8,48.7,64.7,43.8"/>
	</g>
	<g>
		<path class="st4" d="M108.6,41.7c-1.2,1.2-3.5,1.7-5.5,1.2c0.7-0.3,1.2-0.8,1.4-1.4C105.7,41.9,107,42,108.6,41.7"/>
	</g>
	<g>
		<path class="st3" d="M71.2,40.4c-2.5,0.8-5.2,2.1-7.3,4.7c0.4-1,0.9-1.8,1.4-2.5c13.3-14.4,35.5,5.9,44.1-1.4
			c-2.2,5.1-17,1.8-24.1-0.1C80.8,39.6,75.9,39.5,71.2,40.4"/>
	</g>
	<g>
		<path class="st3" d="M95.1,62.5h-5.5c0-6.8,0-13.5,0-20.3c2.1,0.7,3.4,0.9,5.5,1V62.5z"/>
	</g>
	<g>
		<path class="st3" d="M111.4,62.5L98.2,51.4l8.1-7.7c-1.6,0.5-3.5,0.8-5.1,0.7l-6.4,6v4.2l0.4,0.4l9.5,7.7h6.7
			C111.4,62.7,111.4,62.5,111.4,62.5z"/>
	</g>
	<g>
		<rect x="82.7" y="40.4" class="st3" width="5.4" height="22.1"/>
	</g>
	<g>
		<path class="st3" d="M80.8,58.3c0.1-2.6,0-11.3,0.1-17.3c-1.7-0.1-3.1-0.3-5.4-0.5c0,6,0.1,15,0,17.8c-0.7,2.9-5.1,2.4-7.3,0.1
			c-0.5,0.7-1,1.3-1.6,2c2.2,2,4.8,2.9,7.7,2.9C77.8,63.1,80.7,61,80.8,58.3"/>
	</g>
</g>
<g>
	<g class="st1">
		<path class="st4" d="M71,70.3c0,0.2,0,0.4-0.1,0.6c0,0.2-0.1,0.3-0.2,0.4c-0.1,0.1-0.2,0.3-0.4,0.4c-0.2,0.1-0.5,0.2-0.8,0.3
			l-0.2-0.4c0.1-0.1,0.2-0.1,0.3-0.2c0.1-0.1,0.1-0.1,0.1-0.2c0-0.1,0.1-0.1,0.1-0.2s0-0.2,0-0.4v-3.7c0-0.1,0-0.2,0-0.3
			s0-0.1,0-0.2c0,0-0.1-0.1-0.1-0.1c0,0-0.1-0.1-0.2-0.1V66h1.8v0.2c-0.1,0-0.2,0.1-0.2,0.1c0,0-0.1,0.1-0.1,0.1c0,0,0,0.1,0,0.2
			c0,0.1,0,0.2,0,0.3V70.3z"/>
	</g>
	<g class="st1">
		<path class="st4" d="M74.2,69.3h-1.5l-0.1,0.3c0,0.1-0.1,0.2-0.1,0.3c0,0.1,0,0.2,0,0.3c0,0.2,0.1,0.3,0.4,0.4v0.2h-1.5v-0.2
			c0.1,0,0.2,0,0.2-0.1c0.1,0,0.1-0.1,0.2-0.2s0.1-0.2,0.2-0.4l1.4-3.8h0.9l1.1,3.8c0.1,0.2,0.1,0.3,0.1,0.4c0,0.1,0.1,0.1,0.1,0.2
			c0.1,0,0.1,0.1,0.2,0.1v0.2h-1.9v-0.2c0.1,0,0.2,0,0.3-0.1c0.1-0.1,0.1-0.1,0.1-0.2c0-0.1,0-0.2,0-0.2s0-0.2-0.1-0.3L74.2,69.3z
			 M72.9,68.9h1.2l-0.5-1.9L72.9,68.9z"/>
		<path class="st4" d="M78.2,66v0.2c-0.1,0-0.1,0-0.2,0.1c0,0-0.1,0.1-0.1,0.1s0,0.1-0.1,0.2c0,0.1,0,0.2,0,0.3v3.4h0.7
			c0.1,0,0.2,0,0.3-0.1s0.1-0.1,0.2-0.2s0.1-0.2,0.2-0.3c0-0.1,0.1-0.3,0.1-0.4h0.5l-0.1,1.4h-3.3v-0.2c0.1,0,0.2,0,0.2-0.1
			c0,0,0.1-0.1,0.1-0.1c0,0,0-0.1,0-0.2s0-0.2,0-0.3v-3c0-0.1,0-0.2,0-0.3c0-0.1,0-0.1,0-0.2s-0.1-0.1-0.1-0.1c0,0-0.1-0.1-0.2-0.1
			V66H78.2z"/>
		<path class="st4" d="M83.7,66v1.1h-0.5c-0.1-0.2-0.1-0.4-0.2-0.4s-0.1-0.1-0.2-0.2c-0.1,0-0.2-0.1-0.4-0.1h-0.7v1.6h0.5
			c0.1,0,0.2,0,0.2,0c0.1,0,0.1-0.1,0.1-0.1c0-0.1,0.1-0.2,0.1-0.3H83V69h-0.4c0-0.1-0.1-0.2-0.1-0.3c0-0.1-0.1-0.1-0.1-0.1
			c-0.1,0-0.1,0-0.2,0h-0.5v1.8h0.7c0.1,0,0.1,0,0.2,0c0.1,0,0.1,0,0.1-0.1s0.1-0.1,0.1-0.1c0,0,0.1-0.1,0.1-0.1
			c0-0.1,0.1-0.1,0.1-0.2c0-0.1,0.1-0.2,0.1-0.3h0.5l-0.1,1.3h-3.4v-0.2c0.1,0,0.2,0,0.2-0.1c0,0,0.1-0.1,0.1-0.1c0,0,0-0.1,0-0.2
			c0-0.1,0-0.2,0-0.3v-3c0-0.1,0-0.2,0-0.3c0-0.1,0-0.1,0-0.2s-0.1-0.1-0.1-0.1c0,0-0.1-0.1-0.2-0.1V66H83.7z"/>
		<path class="st4" d="M86.8,70.7v-0.2c0.1,0,0.2,0,0.2-0.1s0.1-0.1,0.1-0.1c0,0,0-0.1,0.1-0.2s0-0.2,0-0.3v-3.4H87
			c-0.1,0-0.2,0-0.3,0c-0.1,0-0.1,0.1-0.2,0.2s-0.1,0.2-0.1,0.3c0,0.1-0.1,0.2-0.1,0.3h-0.5V66h4v1.2h-0.5c0-0.2-0.1-0.3-0.1-0.3
			c0-0.1-0.1-0.1-0.1-0.2c0-0.1-0.1-0.1-0.1-0.1c0,0-0.1-0.1-0.1-0.1c0,0-0.1,0-0.1,0c-0.1,0-0.1,0-0.2,0h-0.2v3.4
			c0,0.1,0,0.2,0,0.3c0,0.1,0,0.1,0,0.2c0,0,0,0.1,0.1,0.1c0,0,0.1,0,0.1,0.1c0,0,0.1,0,0.2,0v0.2H86.8z"/>
		<path class="st4" d="M93.8,66v1.1h-0.5c-0.1-0.2-0.1-0.4-0.2-0.4s-0.1-0.1-0.2-0.2c-0.1,0-0.2-0.1-0.4-0.1h-0.7v1.6h0.5
			c0.1,0,0.2,0,0.2,0s0.1-0.1,0.1-0.1s0.1-0.2,0.1-0.3h0.4V69h-0.4c0-0.1-0.1-0.2-0.1-0.3c0-0.1-0.1-0.1-0.1-0.1c-0.1,0-0.1,0-0.2,0
			h-0.5v1.8h0.7c0.1,0,0.1,0,0.2,0c0.1,0,0.1,0,0.1-0.1c0,0,0.1-0.1,0.1-0.1c0,0,0.1-0.1,0.1-0.1s0.1-0.1,0.1-0.2
			c0-0.1,0.1-0.2,0.1-0.3h0.5l-0.1,1.3h-3.4v-0.2c0.1,0,0.2,0,0.2-0.1s0.1-0.1,0.1-0.1c0,0,0-0.1,0-0.2c0-0.1,0-0.2,0-0.3v-3
			c0-0.1,0-0.2,0-0.3s0-0.1,0-0.2c0,0-0.1-0.1-0.1-0.1c0,0-0.1-0.1-0.2-0.1V66H93.8z"/>
		<path class="st4" d="M95.6,70.3h1c0.1,0,0.2,0,0.3-0.1s0.2-0.1,0.2-0.2s0.1-0.3,0.2-0.6h0.5v1.3h-3.4v-0.2l2.2-4.1h-0.9
			c-0.2,0-0.3,0-0.4,0.1c-0.1,0.1-0.2,0.1-0.2,0.3c-0.1,0.1-0.1,0.3-0.2,0.5h-0.5V66h3.4v0.2L95.6,70.3z"/>
		<path class="st4" d="M101.8,66v1.1h-0.5c-0.1-0.2-0.1-0.4-0.2-0.4s-0.1-0.1-0.2-0.2c-0.1,0-0.2-0.1-0.4-0.1h-0.7v1.6h0.5
			c0.1,0,0.2,0,0.2,0s0.1-0.1,0.1-0.1s0.1-0.2,0.1-0.3h0.4V69h-0.4c0-0.1-0.1-0.2-0.1-0.3c0-0.1-0.1-0.1-0.1-0.1c-0.1,0-0.1,0-0.2,0
			h-0.5v1.8h0.7c0.1,0,0.1,0,0.2,0c0.1,0,0.1,0,0.1-0.1c0,0,0.1-0.1,0.1-0.1c0,0,0.1-0.1,0.1-0.1s0.1-0.1,0.1-0.2
			c0-0.1,0.1-0.2,0.1-0.3h0.5l-0.1,1.3h-3.4v-0.2c0.1,0,0.2,0,0.2-0.1s0.1-0.1,0.1-0.1c0,0,0-0.1,0-0.2c0-0.1,0-0.2,0-0.3v-3
			c0-0.1,0-0.2,0-0.3s0-0.1,0-0.2c0,0-0.1-0.1-0.1-0.1c0,0-0.1-0.1-0.2-0.1V66H101.8z"/>
		<path class="st4" d="M104.3,70.7h-1.8v-0.2c0.1,0,0.2,0,0.2-0.1s0.1-0.1,0.1-0.1c0,0,0-0.1,0-0.2c0-0.1,0-0.2,0-0.3v-3
			c0-0.1,0-0.2,0-0.3s0-0.1,0-0.2c0,0-0.1-0.1-0.1-0.1c0,0-0.1-0.1-0.2-0.1V66h2c0.3,0,0.5,0,0.7,0.1c0.2,0,0.4,0.1,0.5,0.2
			c0.1,0.1,0.2,0.1,0.3,0.2c0.1,0.1,0.1,0.2,0.2,0.3c0,0.1,0.1,0.3,0.1,0.5c0,0.2,0,0.4-0.1,0.6c-0.1,0.2-0.2,0.3-0.3,0.4
			c-0.1,0.1-0.3,0.2-0.5,0.3v0c0.2,0.1,0.3,0.2,0.4,0.3c0.1,0.1,0.2,0.3,0.3,0.5l0.2,0.5c0.1,0.2,0.2,0.4,0.3,0.5
			c0.1,0.1,0.2,0.2,0.3,0.2v0.2h-1.3c-0.1-0.2-0.3-0.5-0.5-0.8l-0.3-0.6c-0.1-0.2-0.1-0.3-0.2-0.4c-0.1-0.1-0.1-0.1-0.2-0.2
			c-0.1,0-0.2,0-0.3,0h-0.2v1.1c0,0.2,0,0.3,0,0.4c0,0.1,0,0.1,0.1,0.2s0.1,0.1,0.3,0.1V70.7z M103.9,66.4v1.9h0.3
			c0.2,0,0.3,0,0.5-0.1s0.2-0.1,0.3-0.2c0.1-0.1,0.1-0.2,0.1-0.3s0-0.2,0-0.4c0-0.3-0.1-0.5-0.2-0.7c-0.1-0.2-0.4-0.2-0.7-0.2
			C104.1,66.4,104,66.4,103.9,66.4z"/>
	</g>
	<g class="st1">
		<path class="st3" d="M72,72.4V73h-0.3c0-0.1-0.1-0.2-0.1-0.2s-0.1-0.1-0.1-0.1c0,0-0.1,0-0.2,0H71v0.9h0.2c0.1,0,0.1,0,0.1,0
			c0,0,0.1,0,0.1-0.1c0,0,0-0.1,0.1-0.2h0.2v0.8h-0.2c0-0.1,0-0.1-0.1-0.2c0,0,0-0.1-0.1-0.1c0,0-0.1,0-0.1,0H71v1h0.4
			c0,0,0.1,0,0.1,0c0,0,0.1,0,0.1,0c0,0,0,0,0.1-0.1c0,0,0,0,0.1-0.1c0,0,0-0.1,0.1-0.1c0,0,0-0.1,0.1-0.2h0.3l0,0.7h-1.8v-0.1
			c0,0,0.1,0,0.1,0c0,0,0,0,0.1-0.1c0,0,0-0.1,0-0.1c0,0,0-0.1,0-0.2v-1.6c0-0.1,0-0.1,0-0.1c0,0,0-0.1,0-0.1c0,0,0,0-0.1-0.1
			s-0.1,0-0.1,0v-0.1H72z"/>
	</g>
	<g class="st1">
		<path class="st3" d="M74.3,72.5v0.5h-0.3c0-0.1-0.1-0.2-0.1-0.2c0-0.1-0.1-0.1-0.1-0.1c-0.1,0-0.1,0-0.2,0c-0.1,0-0.2,0-0.3,0.1
			c-0.1,0.1-0.2,0.2-0.2,0.4C73,73.3,73,73.5,73,73.7c0,0.2,0,0.4,0.1,0.6c0,0.2,0.1,0.3,0.2,0.4c0.1,0.1,0.2,0.1,0.3,0.1
			c0.1,0,0.2,0,0.2-0.1c0.1-0.1,0.1-0.2,0.1-0.3v-0.1c0-0.1,0-0.2,0-0.2c0,0,0-0.1,0-0.1s0,0-0.1,0s-0.1,0-0.1,0v-0.1h1V74
			c-0.1,0-0.1,0-0.1,0.1c0,0,0,0.1,0,0.1c0,0,0,0.1,0,0.2V75L74.1,75L74,74.9C73.8,75,73.7,75,73.5,75c-0.4,0-0.6-0.1-0.8-0.3
			c-0.2-0.2-0.3-0.5-0.3-1c0-0.2,0-0.4,0.1-0.6s0.2-0.3,0.3-0.4c0.1-0.1,0.2-0.2,0.4-0.2c0.1,0,0.3-0.1,0.5-0.1
			C73.9,72.4,74.1,72.5,74.3,72.5z M74.1,71.7c0,0.2-0.1,0.3-0.2,0.4c-0.1,0.1-0.2,0.1-0.4,0.1c-0.2,0-0.3,0-0.4-0.1
			c-0.1-0.1-0.2-0.2-0.2-0.4l0.2-0.1c0,0.1,0.1,0.2,0.2,0.2c0.1,0,0.2,0.1,0.3,0.1c0.1,0,0.2,0,0.3-0.1c0.1,0,0.1-0.1,0.2-0.2
			L74.1,71.7z"/>
		<path class="st3" d="M75.6,74.5c0,0,0,0.1,0,0.1c0,0,0,0.1,0,0.1c0,0,0,0,0,0.1c0,0,0,0,0.1,0c0,0,0.1,0,0.1,0V75h-1v-0.1
			c0,0,0.1,0,0.1,0c0,0,0,0,0.1-0.1c0,0,0-0.1,0-0.1c0,0,0-0.1,0-0.2v-1.6c0-0.1,0-0.1,0-0.1c0,0,0-0.1,0-0.1c0,0,0,0-0.1-0.1
			s-0.1,0-0.1,0v-0.1h1v0.1c-0.1,0-0.1,0-0.1,0c0,0,0,0-0.1,0.1c0,0,0,0.1,0,0.1s0,0.1,0,0.2V74.5z M75.6,71.8v0.5h-0.5v-0.5H75.6z"
			/>
		<path class="st3" d="M76.7,75v-0.1c0.1,0,0.1,0,0.1,0s0.1,0,0.1-0.1s0-0.1,0-0.1c0,0,0-0.1,0-0.2v-1.9h-0.2c-0.1,0-0.1,0-0.2,0
			s-0.1,0-0.1,0.1c0,0-0.1,0.1-0.1,0.2s0,0.1-0.1,0.2h-0.3v-0.7h2.2v0.7h-0.3c0-0.1,0-0.1-0.1-0.2c0,0,0-0.1,0-0.1s0-0.1-0.1-0.1
			c0,0,0,0-0.1,0c0,0,0,0-0.1,0c0,0-0.1,0-0.1,0h-0.1v1.9c0,0.1,0,0.1,0,0.2c0,0,0,0.1,0,0.1c0,0,0,0,0,0.1c0,0,0,0,0.1,0
			s0.1,0,0.1,0V75H76.7z"/>
		<path class="st3" d="M79.5,74.5c0,0,0,0.1,0,0.1c0,0,0,0.1,0,0.1c0,0,0,0,0,0.1c0,0,0,0,0.1,0c0,0,0.1,0,0.1,0V75h-1v-0.1
			c0,0,0.1,0,0.1,0c0,0,0,0,0.1-0.1c0,0,0-0.1,0-0.1c0,0,0-0.1,0-0.2v-1.6c0-0.1,0-0.1,0-0.1c0,0,0-0.1,0-0.1c0,0,0,0-0.1-0.1
			s-0.1,0-0.1,0v-0.1h1v0.1c-0.1,0-0.1,0-0.1,0c0,0,0,0-0.1,0.1c0,0,0,0.1,0,0.1s0,0.1,0,0.2V74.5z M79.4,71.8v0.5h-0.5v-0.5H79.4z"
			/>
		<path class="st3" d="M82.9,72.6c-0.1,0-0.1,0-0.1,0.1c0,0,0,0.1,0,0.1c0,0,0,0.1,0,0.2v1.6c0,0.1,0,0.1,0,0.2c0,0,0,0.1,0,0.1
			c0,0,0.1,0,0.1,0.1V75h-1v-0.1c0.1,0,0.1,0,0.1,0c0,0,0,0,0,0c0,0,0,0,0-0.1c0,0,0-0.1,0-0.2v-0.9c0-0.1,0-0.2,0-0.4
			c0-0.1,0-0.2,0-0.3h0c0,0.1,0,0.1,0,0.1c0,0,0,0.1-0.1,0.3l-0.5,1.4h-0.3l-0.5-1.5c0-0.1-0.1-0.2-0.1-0.3h0c0,0.2,0,0.5,0,0.7v0.9
			c0,0.1,0,0.2,0,0.2s0,0.1,0.1,0.1c0,0,0.1,0,0.1,0.1V75H80v-0.1c0,0,0.1,0,0.1,0c0,0,0,0,0.1-0.1s0-0.1,0-0.1c0,0,0-0.1,0-0.1
			v-1.6c0-0.1,0-0.2,0-0.2c0,0,0-0.1,0-0.1s-0.1,0-0.1-0.1v-0.1h0.9l0.5,1.5l0.6-1.5h0.9V72.6z"/>
		<path class="st3" d="M86.2,74.5c0,0.1,0.1,0.1,0.1,0.2c0,0,0.1,0.1,0.1,0.1c0,0,0,0,0.1,0.1c0,0,0.1,0,0.1,0V75h-1v-0.1
			c0,0,0.1,0,0.1,0s0,0,0-0.1c0,0,0,0,0-0.1c0,0,0,0,0-0.1c0,0-0.1-0.1-0.1-0.2L85.2,74c0-0.1-0.1-0.1-0.1-0.1c0,0-0.1-0.1-0.1-0.1
			c0,0-0.1,0-0.1,0h0v0.7c0,0,0,0.1,0,0.1c0,0,0,0.1,0,0.1c0,0,0,0,0,0.1c0,0,0,0,0.1,0c0,0,0.1,0,0.1,0V75h-1v-0.1c0,0,0.1,0,0.1,0
			c0,0,0,0,0.1-0.1c0,0,0-0.1,0-0.1c0,0,0-0.1,0-0.2v-1.6c0-0.1,0-0.1,0-0.1c0,0,0-0.1,0-0.1c0,0,0,0-0.1-0.1s-0.1,0-0.1,0v-0.1h1
			v0.1c-0.1,0-0.1,0-0.1,0s0,0-0.1,0.1c0,0,0,0.1,0,0.1s0,0.1,0,0.2v0.7h0c0.1,0,0.1,0,0.1,0c0,0,0.1,0,0.1-0.1c0,0,0.1-0.1,0.2-0.2
			c0.1-0.1,0.2-0.2,0.2-0.3s0.1-0.1,0.1-0.2c0,0,0-0.1,0-0.1c0,0,0-0.1,0-0.1s-0.1,0-0.1,0v-0.1h1v0.1c0,0-0.1,0-0.1,0
			s-0.1,0-0.1,0.1c0,0-0.1,0.1-0.2,0.2l-0.6,0.6L86.2,74.5z"/>
	</g>
	<g class="st1">
		<path class="st3" d="M88.4,72.9c0-0.1,0-0.2,0-0.2s0-0.1,0-0.1s-0.1,0-0.1-0.1v-0.1H89v0.1c0,0-0.1,0-0.1,0s0,0-0.1,0.1
			c0,0,0,0.1,0,0.1c0,0,0,0.1,0,0.1v1.2c0,0.2,0,0.3,0,0.4c0,0.1-0.1,0.2-0.1,0.3c-0.1,0.1-0.1,0.1-0.2,0.2c-0.1,0-0.2,0.1-0.3,0.1
			c-0.1,0-0.2,0-0.3,0c-0.2,0-0.3,0-0.5-0.1c-0.1,0-0.2-0.1-0.3-0.2c-0.1-0.1-0.1-0.2-0.2-0.3c0-0.1-0.1-0.2-0.1-0.4v-1.2
			c0-0.1,0-0.1,0-0.1c0,0,0-0.1,0-0.1c0,0,0,0-0.1-0.1s-0.1,0-0.1,0v-0.1h1v0.1c-0.1,0-0.1,0-0.1,0s0,0-0.1,0.1c0,0,0,0.1,0,0.1
			c0,0,0,0.1,0,0.2v1.2c0,0.1,0,0.2,0,0.3c0,0.1,0,0.2,0.1,0.2c0,0.1,0.1,0.1,0.1,0.1c0.1,0,0.1,0,0.2,0c0.1,0,0.2,0,0.3-0.1
			c0.1-0.1,0.1-0.1,0.1-0.2s0-0.2,0-0.4V72.9z"/>
		<path class="st3" d="M90.3,75h-1v-0.1c0,0,0.1,0,0.1,0c0,0,0,0,0.1-0.1c0,0,0-0.1,0-0.1c0,0,0-0.1,0-0.2v-1.6c0-0.1,0-0.1,0-0.1
			s0-0.1,0-0.1c0,0,0,0-0.1-0.1c0,0-0.1,0-0.1,0v-0.1h1.1c0.1,0,0.3,0,0.4,0c0.1,0,0.2,0.1,0.3,0.1c0.1,0,0.1,0.1,0.2,0.1
			c0,0.1,0.1,0.1,0.1,0.2c0,0.1,0,0.2,0,0.2c0,0.1,0,0.2-0.1,0.3c0,0.1-0.1,0.2-0.2,0.2c-0.1,0.1-0.2,0.1-0.3,0.2v0
			c0.1,0,0.2,0.1,0.2,0.2s0.1,0.2,0.2,0.3l0.1,0.3c0.1,0.1,0.1,0.2,0.2,0.3s0.1,0.1,0.2,0.1V75h-0.7c-0.1-0.1-0.2-0.2-0.2-0.4
			l-0.1-0.3c0-0.1-0.1-0.2-0.1-0.2S90.4,74,90.3,74c0,0-0.1,0-0.2,0h-0.1v0.6c0,0.1,0,0.2,0,0.2c0,0,0,0.1,0.1,0.1
			c0,0,0.1,0,0.1,0.1V75z M90.1,72.7v1h0.2c0.1,0,0.2,0,0.2,0c0.1,0,0.1-0.1,0.2-0.1c0,0,0.1-0.1,0.1-0.2c0-0.1,0-0.1,0-0.2
			c0-0.2,0-0.3-0.1-0.4c-0.1-0.1-0.2-0.1-0.4-0.1C90.2,72.7,90.1,72.7,90.1,72.7z"/>
	</g>
	<g class="st1">
		<path class="st3" d="M93.4,72.9c0-0.1,0-0.2,0-0.2c0,0,0-0.1,0-0.1c0,0-0.1,0-0.1-0.1v-0.1H94v0.1c0,0-0.1,0-0.1,0s0,0-0.1,0.1
			c0,0,0,0.1,0,0.1c0,0,0,0.1,0,0.1v1.2c0,0.2,0,0.3,0,0.4c0,0.1-0.1,0.2-0.1,0.3c-0.1,0.1-0.1,0.1-0.2,0.2c-0.1,0-0.2,0.1-0.3,0.1
			s-0.2,0-0.3,0c-0.2,0-0.3,0-0.5-0.1c-0.1,0-0.2-0.1-0.3-0.2C92,74.7,92,74.7,92,74.6s-0.1-0.2-0.1-0.4v-1.2c0-0.1,0-0.1,0-0.1
			c0,0,0-0.1,0-0.1c0,0,0,0-0.1-0.1c0,0-0.1,0-0.1,0v-0.1h1v0.1c-0.1,0-0.1,0-0.1,0s0,0-0.1,0.1s0,0.1,0,0.1s0,0.1,0,0.2v1.2
			c0,0.1,0,0.2,0,0.3c0,0.1,0,0.2,0.1,0.2c0,0.1,0.1,0.1,0.1,0.1c0.1,0,0.1,0,0.2,0c0.1,0,0.2,0,0.3-0.1c0.1-0.1,0.1-0.1,0.1-0.2
			c0-0.1,0-0.2,0-0.4V72.9z"/>
		<path class="st3" d="M97.2,72.6c-0.1,0-0.1,0-0.1,0.1c0,0,0,0.1,0,0.1c0,0,0,0.1,0,0.2v1.6c0,0.1,0,0.1,0,0.2c0,0,0,0.1,0,0.1
			c0,0,0.1,0,0.1,0.1V75h-1v-0.1c0.1,0,0.1,0,0.1,0c0,0,0,0,0,0c0,0,0,0,0-0.1c0,0,0-0.1,0-0.2v-0.9c0-0.1,0-0.2,0-0.4
			c0-0.1,0-0.2,0-0.3h0c0,0.1,0,0.1,0,0.1c0,0,0,0.1-0.1,0.3l-0.5,1.4h-0.3l-0.5-1.5c0-0.1-0.1-0.2-0.1-0.3h0c0,0.2,0,0.5,0,0.7v0.9
			c0,0.1,0,0.2,0,0.2s0,0.1,0.1,0.1c0,0,0.1,0,0.1,0.1V75h-0.7v-0.1c0,0,0.1,0,0.1,0c0,0,0,0,0.1-0.1s0-0.1,0-0.1c0,0,0-0.1,0-0.1
			v-1.6c0-0.1,0-0.2,0-0.2c0,0,0-0.1,0-0.1c0,0-0.1,0-0.1-0.1v-0.1h0.9l0.5,1.5l0.6-1.5h0.9V72.6z"/>
		<path class="st3" d="M98.6,72.4v0.1c0,0-0.1,0-0.1,0s0,0-0.1,0.1c0,0,0,0.1,0,0.1c0,0,0,0.1,0,0.1v1.9h0.4c0.1,0,0.1,0,0.2,0
			s0.1-0.1,0.1-0.1s0.1-0.1,0.1-0.2c0-0.1,0-0.1,0.1-0.2h0.3l0,0.8h-1.8v-0.1c0,0,0.1,0,0.1,0c0,0,0,0,0.1-0.1c0,0,0-0.1,0-0.1
			c0,0,0-0.1,0-0.1v-1.6c0-0.1,0-0.1,0-0.1c0,0,0-0.1,0-0.1c0,0,0,0-0.1-0.1c0,0-0.1,0-0.1,0v-0.1H98.6z"/>
		<path class="st3" d="M101.1,74.2h-0.8l-0.1,0.2c0,0.1,0,0.1,0,0.1c0,0,0,0.1,0,0.2c0,0.1,0.1,0.2,0.2,0.2V75h-0.8v-0.1
			c0,0,0.1,0,0.1,0s0.1-0.1,0.1-0.1c0,0,0.1-0.1,0.1-0.2l0.8-2.1h0.5l0.6,2.1c0,0.1,0.1,0.2,0.1,0.2c0,0,0,0.1,0.1,0.1
			c0,0,0.1,0,0.1,0.1V75h-1v-0.1c0.1,0,0.1,0,0.1-0.1c0,0,0-0.1,0-0.1c0,0,0-0.1,0-0.1s0-0.1,0-0.2L101.1,74.2z M100.3,74h0.7
			l-0.3-1.1L100.3,74z"/>
		<path class="st3" d="M103.2,75h-1v-0.1c0,0,0.1,0,0.1,0c0,0,0,0,0.1-0.1c0,0,0-0.1,0-0.1c0,0,0-0.1,0-0.2v-1.6c0-0.1,0-0.1,0-0.1
			s0-0.1,0-0.1c0,0,0,0-0.1-0.1c0,0-0.1,0-0.1,0v-0.1h1.1c0.1,0,0.3,0,0.4,0c0.1,0,0.2,0.1,0.3,0.1c0.1,0,0.1,0.1,0.2,0.1
			c0,0.1,0.1,0.1,0.1,0.2c0,0.1,0,0.2,0,0.2c0,0.1,0,0.2-0.1,0.3s-0.1,0.2-0.2,0.2c-0.1,0.1-0.2,0.1-0.3,0.2v0
			c0.1,0,0.2,0.1,0.2,0.2s0.1,0.2,0.2,0.3l0.1,0.3c0.1,0.1,0.1,0.2,0.2,0.3s0.1,0.1,0.2,0.1V75h-0.7c-0.1-0.1-0.2-0.2-0.2-0.4
			l-0.1-0.3c0-0.1-0.1-0.2-0.1-0.2s-0.1-0.1-0.1-0.1c0,0-0.1,0-0.2,0H103v0.6c0,0.1,0,0.2,0,0.2c0,0,0,0.1,0.1,0.1
			c0,0,0.1,0,0.1,0.1V75z M103,72.7v1h0.2c0.1,0,0.2,0,0.2,0c0.1,0,0.1-0.1,0.2-0.1c0,0,0.1-0.1,0.1-0.2c0-0.1,0-0.1,0-0.2
			c0-0.2,0-0.3-0.1-0.4c-0.1-0.1-0.2-0.1-0.4-0.1C103.1,72.7,103.1,72.7,103,72.7z"/>
		<path class="st3" d="M105.6,74.5c0,0,0,0.1,0,0.1c0,0,0,0.1,0,0.1c0,0,0,0,0,0.1c0,0,0,0,0.1,0c0,0,0.1,0,0.1,0V75h-1v-0.1
			c0,0,0.1,0,0.1,0c0,0,0,0,0.1-0.1c0,0,0-0.1,0-0.1c0,0,0-0.1,0-0.2v-1.6c0-0.1,0-0.1,0-0.1s0-0.1,0-0.1c0,0,0,0-0.1-0.1
			c0,0-0.1,0-0.1,0v-0.1h1v0.1c-0.1,0-0.1,0-0.1,0c0,0,0,0-0.1,0.1c0,0,0,0.1,0,0.1s0,0.1,0,0.2V74.5z"/>
	</g>
</g>
<g>
	<g>
		<path class="st2" d="M7.8,124.9c0,1.2-0.1,2.1-0.3,2.8c-0.2,0.7-0.5,1.4-0.9,1.9c-0.5,0.7-1.2,1.3-2,1.8c-1,0.6-2.2,1.1-3.6,1.6
			l-0.8-2c0.7-0.3,1.1-0.6,1.5-0.8c0.3-0.3,0.5-0.5,0.7-0.8c0.1-0.3,0.2-0.7,0.3-1.1c0.1-0.4,0.1-1.1,0.1-1.9v-17.6
			c0-0.5,0-0.9,0-1.3c0-0.3-0.1-0.6-0.2-0.8c-0.1-0.2-0.3-0.4-0.5-0.5s-0.5-0.3-1-0.4v-1h8.4v1c-0.5,0.1-0.8,0.2-1,0.4
			c-0.2,0.1-0.4,0.3-0.5,0.5c-0.1,0.2-0.2,0.4-0.2,0.7c0,0.3-0.1,0.8-0.1,1.4L7.8,124.9L7.8,124.9z"/>
	</g>
	<g>
		<path class="st2" d="M22.9,119.9H16l-0.5,1.5c-0.2,0.4-0.3,0.8-0.4,1.2s-0.1,0.8-0.1,1.3c0,1,0.6,1.6,1.7,1.7v1.1H9.8v-1.1
			c0.4,0,0.7-0.2,1-0.4c0.3-0.2,0.6-0.6,0.8-1s0.5-1,0.8-1.8l6.7-17.9h4.3l5.3,18c0.2,0.8,0.4,1.4,0.6,1.7c0.2,0.3,0.4,0.6,0.6,0.8
			c0.3,0.2,0.6,0.4,1.1,0.5v1.1h-8.9v-1.1c0.6-0.1,1-0.2,1.2-0.5c0.3-0.2,0.4-0.6,0.4-1c0-0.3,0-0.7-0.1-1.1s-0.2-0.9-0.4-1.5
			L22.9,119.9z M16.7,118h5.8l-2.6-9L16.7,118z"/>
	</g>
	<g>
		<path class="st2" d="M41.4,104.8v1c-0.4,0.1-0.7,0.2-0.9,0.3c-0.2,0.1-0.4,0.3-0.5,0.5s-0.2,0.5-0.2,0.8s-0.1,0.8-0.1,1.3v16h3.1
			c0.6,0,1.1-0.1,1.5-0.3c0.4-0.2,0.7-0.5,1-0.9s0.5-0.9,0.7-1.6c0.2-0.6,0.4-1.3,0.5-1.8h2.2l-0.4,6.5H32.9v-1.1
			c0.4-0.1,0.7-0.2,0.9-0.4c0.2-0.1,0.4-0.3,0.5-0.5s0.2-0.5,0.2-0.8s0-0.8,0-1.3v-13.7c0-0.5,0-0.9,0-1.3s-0.1-0.6-0.2-0.8
			c-0.1-0.2-0.3-0.4-0.5-0.5s-0.5-0.3-1-0.4v-1C32.8,104.8,41.4,104.8,41.4,104.8z"/>
	</g>
	<g>
		<path class="st2" d="M67,104.8v5.1h-2.2c-0.4-1-0.7-1.7-0.9-2.1c-0.2-0.4-0.5-0.6-0.9-0.9c-0.3-0.2-0.9-0.3-1.8-0.3h-3.5v7.7h2.1
			c0.5,0,0.8-0.1,1.1-0.2s0.5-0.4,0.7-0.7c0.2-0.3,0.3-0.8,0.5-1.4h1.8v6.5h-1.8c-0.1-0.6-0.3-1.1-0.5-1.4s-0.4-0.6-0.7-0.7
			s-0.6-0.2-1.1-0.2h-2.1v8.6h3.5c0.4,0,0.7,0,0.9-0.1c0.3,0,0.5-0.1,0.7-0.2s0.4-0.3,0.6-0.5c0.2-0.2,0.4-0.4,0.5-0.7
			c0.1-0.2,0.3-0.5,0.5-0.9s0.3-0.9,0.5-1.6h2.2l-0.3,5.9H51.1v-1.1c0.4-0.1,0.7-0.2,0.9-0.3c0.2-0.1,0.4-0.3,0.5-0.5
			s0.2-0.5,0.2-0.8s0-0.8,0-1.3v-13.9c0-0.5,0-0.9,0-1.3c0-0.3-0.1-0.6-0.2-0.8c-0.1-0.2-0.3-0.4-0.5-0.5s-0.5-0.3-1-0.4v-1
			C51,104.8,67,104.8,67,104.8z"/>
	</g>
	<g>
		<path class="st2" d="M81.9,126.7v-1.1c0.4-0.1,0.8-0.2,1.1-0.3s0.5-0.3,0.6-0.5s0.2-0.5,0.2-0.9c0-0.3,0-0.8,0-1.3v-16h-1.3
			c-0.6,0-1.1,0.1-1.5,0.2c-0.3,0.2-0.6,0.4-0.9,0.7c-0.3,0.3-0.5,0.8-0.7,1.3s-0.3,1.1-0.5,1.5h-2.2v-5.5h18.9v5.6h-2.2
			c-0.2-0.7-0.4-1.3-0.5-1.6c-0.1-0.3-0.2-0.6-0.4-0.9c-0.2-0.3-0.3-0.4-0.5-0.6s-0.3-0.3-0.5-0.4s-0.4-0.2-0.7-0.2
			s-0.6-0.1-1.1-0.1h-1.2v16c0,0.6,0,1,0,1.3s0.1,0.5,0.2,0.7s0.2,0.3,0.3,0.4s0.3,0.2,0.5,0.3s0.5,0.2,0.9,0.2v1.1h-8.5
			C81.9,126.6,81.9,126.7,81.9,126.7z"/>
	</g>
	<g>
		<path class="st2" d="M114.3,104.8v5.1h-2.2c-0.4-1-0.7-1.7-0.9-2.1c-0.2-0.4-0.5-0.6-0.9-0.9c-0.3-0.2-0.9-0.3-1.8-0.3h-3.4v7.7
			h2.1c0.5,0,0.8-0.1,1.1-0.2s0.5-0.4,0.7-0.7c0.2-0.3,0.3-0.8,0.5-1.4h1.8v6.5h-1.8c-0.1-0.6-0.3-1.1-0.5-1.4s-0.4-0.6-0.7-0.7
			c-0.3-0.1-0.6-0.2-1.1-0.2h-2.1v8.6h3.5c0.4,0,0.7,0,0.9-0.1c0.3,0,0.5-0.1,0.7-0.2s0.4-0.3,0.6-0.5s0.4-0.4,0.5-0.7
			c0.1-0.2,0.3-0.5,0.5-0.9s0.3-0.9,0.5-1.6h2.2l-0.3,5.9H98.4v-1.1c0.4-0.1,0.7-0.2,0.9-0.3s0.4-0.3,0.5-0.5s0.2-0.5,0.2-0.8
			s0-0.8,0-1.3v-13.9c0-0.5,0-0.9,0-1.3s-0.1-0.6-0.2-0.8c-0.1-0.2-0.3-0.4-0.5-0.5s-0.5-0.3-1-0.4v-1
			C98.3,104.8,114.3,104.8,114.3,104.8z"/>
	</g>
	<g>
		<path class="st2" d="M123,124.8h4.6c0.6,0,1.1-0.1,1.5-0.4c0.4-0.2,0.7-0.6,1-1.1s0.6-1.4,0.9-2.7h2.2v6.1h-16.1v-1.1l10.3-19H123
			c-0.7,0-1.3,0.1-1.7,0.4c-0.4,0.3-0.8,0.7-1,1.2c-0.3,0.6-0.5,1.3-0.8,2.3h-2.2v-5.7h15.9v1L123,124.8z"/>
	</g>
	<g>
		<path class="st2" d="M152,104.8v5.1h-2.2c-0.4-1-0.7-1.7-0.9-2.1s-0.5-0.6-0.9-0.9c-0.3-0.2-0.9-0.3-1.8-0.3h-3.5v7.7h2.1
			c0.5,0,0.8-0.1,1.1-0.2s0.5-0.4,0.7-0.7c0.2-0.3,0.3-0.8,0.5-1.4h1.8v6.5h-1.8c-0.1-0.6-0.3-1.1-0.5-1.4s-0.4-0.6-0.7-0.7
			s-0.6-0.2-1.1-0.2h-2.1v8.6h3.5c0.4,0,0.7,0,0.9-0.1c0.3,0,0.5-0.1,0.7-0.2s0.4-0.3,0.6-0.5c0.2-0.2,0.4-0.4,0.5-0.7
			c0.1-0.2,0.3-0.5,0.5-0.9s0.3-0.9,0.5-1.6h2.2l-0.3,5.9H136v-1.1c0.4-0.1,0.7-0.2,0.9-0.3s0.4-0.3,0.5-0.5s0.2-0.5,0.2-0.8
			s0-0.8,0-1.3v-13.9c0-0.5,0-0.9,0-1.3s-0.1-0.6-0.2-0.8c-0.1-0.2-0.3-0.4-0.5-0.5s-0.5-0.3-1-0.4v-1
			C135.9,104.8,152,104.8,152,104.8z"/>
	</g>
	<g>
		<path class="st2" d="M163.5,126.7h-8.4v-1.1c0.4-0.1,0.7-0.2,0.9-0.3s0.4-0.3,0.5-0.5s0.2-0.5,0.2-0.8s0-0.8,0-1.3v-13.9
			c0-0.5,0-0.9,0-1.3c0-0.3-0.1-0.6-0.2-0.8c-0.1-0.2-0.3-0.4-0.5-0.5s-0.5-0.3-1-0.4v-1h9.4c1.3,0,2.3,0.1,3.2,0.3
			c0.9,0.2,1.7,0.4,2.3,0.8c0.6,0.3,1,0.7,1.4,1.1c0.4,0.5,0.7,1,0.9,1.6s0.3,1.3,0.3,2.1c0,1.1-0.2,2-0.6,2.7
			c-0.4,0.8-0.9,1.4-1.5,1.9s-1.5,1-2.5,1.4v0.1c0.8,0.3,1.4,0.8,2,1.4c0.5,0.6,1,1.3,1.4,2.2l1,2.2c0.5,1,0.9,1.7,1.3,2.2
			s1,0.8,1.6,0.9v1.1h-6.1c-0.6-0.9-1.3-2.1-2.1-3.8l-1.3-2.7c-0.4-0.8-0.7-1.4-1-1.7c-0.3-0.3-0.5-0.6-0.8-0.7s-0.7-0.2-1.3-0.2
			h-0.9v5.2c0,0.8,0,1.4,0.1,1.7c0.1,0.3,0.2,0.6,0.4,0.8c0.2,0.2,0.6,0.4,1.2,0.5v0.8L163.5,126.7L163.5,126.7z M161.7,106.7v8.9
			h1.6c0.9,0,1.6-0.1,2.1-0.3c0.6-0.2,1-0.6,1.3-1s0.6-0.9,0.7-1.5c0.1-0.6,0.2-1.2,0.2-1.8c0-1.5-0.3-2.5-1-3.3
			c-0.7-0.7-1.7-1.1-3.1-1.1C162.6,106.6,162,106.7,161.7,106.7z"/>
	</g>
</g>
</svg>
