<?xml version="1.0" encoding="utf-8"?>
<!-- Generator: Adobe Illustrator 19.2.1, SVG Export Plug-In . SVG Version: 6.00 Build 0)  -->
<svg version="1.1" id="Layer_1" xmlns="http://www.w3.org/2000/svg" xmlns:xlink="http://www.w3.org/1999/xlink" x="0px" y="0px"
	 viewBox="0 0 233 71.5" style="enable-background:new 0 0 233 71.5;" xml:space="preserve">
<style type="text/css">
	.st0{fill-rule:evenodd;clip-rule:evenodd;fill:#BBBDBF;}
	.st1{fill:none;stroke:#231F20;stroke-width:0.216;stroke-miterlimit:22.9256;}
	.st2{fill:#BBBDBF;}
	.st3{font-family:'FuturaBT-Bold';}
	.st4{font-size:4.1314px;}
	.st5{font-family:'FrizQuadrataTT';}
	.st6{font-size:4.1317px;}
	.st7{font-size:4.1315px;}
	.st8{font-size:4.1316px;}
	.st9{font-size:4.1313px;}
	.st10{fill-rule:evenodd;clip-rule:evenodd;fill:#FFFFFF;}
	.st11{fill-rule:evenodd;clip-rule:evenodd;fill:#231F6F;}
	.st12{fill-rule:evenodd;clip-rule:evenodd;fill:#EC1C24;}
	.st13{fill:#EC1C24;}
	.st14{font-family:'Cambria-Bold';}
	.st15{font-size:5.3805px;}
	.st16{fill:#231F6F;}
	.st17{font-size:2.945px;}
</style>
<g>
	<g>
		<path class="st0" d="M22.7,69c18.5-8.4,25.9-29.4,20.8-49.3c-4.2-1.9-8.8-3.2-13.9-4.4c-0.5-0.1,0.3-3.4-0.8-5.3
			c-1.2-1.9-4.3-2.4-4.8-2.5c-1-0.1-2,6.7-3,6.6C13.6,14,9.4,16.2,1.3,19.7C-2.5,39.2,3,61.2,22.7,69"/>
		<path class="st0" d="M5.1,33c-1.2,4.2,5.1,4,7.4,2.7C8.7,39.8,1.3,36.7,5.1,33"/>
		<path class="st0" d="M38.6,31.3c-0.9,0.9-2.7,1.3-4.2,0.9c0.5-0.2,0.9-0.6,1.1-1.1C36.4,31.5,37.4,31.6,38.6,31.3"/>
		<path class="st0" d="M10,30.3C8,30.9,6,31.9,4.3,34C4.7,33.1,5,32.5,5.5,32c10.2-11,27.1,4.5,33.7-1.1c-1.7,3.9-13,1.4-18.4-0.1
			C17.3,29.8,13.5,29.7,10,30.3"/>
		<path class="st0" d="M28.3,47.3h-4.2c0-5.2,0-10.3,0-15.5c1.6,0.5,2.6,0.7,4.2,0.8L28.3,47.3z"/>
		<line class="st1" x1="28" y1="38" x2="28" y2="41"/>
		<path class="st0" d="M40.7,47.2l-10.1-8.5l6.2-5.9c-1.2,0.4-2.7,0.6-3.9,0.5L28,37.9V41l0.3,0.3l7.3,5.9H40.7z"/>
		<rect x="18.8" y="30.3" class="st0" width="4.1" height="16.9"/>
		<path class="st0" d="M17.4,44.1c0.1-2,0-8.6,0.1-13.2c-1.3-0.1-2.4-0.2-4.1-0.4c0,4.6,0.1,11.5,0,13.6c-0.5,2.2-3.9,1.8-5.6,0.1
			c-0.4,0.5-0.8,1-1.2,1.5c1.7,1.5,3.7,2.2,5.9,2.2C15.1,47.7,17.3,46.1,17.4,44.1"/>
		<text transform="matrix(-0.1045 -0.9945 0.9945 -0.1045 44.8345 28.5117)" class="st2 st3 st4">İ</text>
		<text transform="matrix(-6.980000e-002 -0.9976 0.9976 -6.980000e-002 45.032 29.7439)" class="st2 st5 st6">J</text>
		<text transform="matrix(-3.490000e-002 -0.9994 0.9994 -3.490000e-002 45.0128 31.9141)" class="st2 st5 st7">E</text>
		<text transform="matrix(0 -1 1 0 44.8837 34.0721)" class="st2 st5 st7">L</text>
		<text transform="matrix(8.720000e-002 -0.9962 0.9962 8.720000e-002 44.475 37.4591)" class="st2 st5 st7">O</text>
		<text transform="matrix(0.1736 -0.9848 0.9848 0.1736 43.9549 39.6939)" class="st2 st5 st4">K</text>
		<text transform="matrix(0.1908 -0.9816 0.9816 0.1908 43.8414 40.9457)" class="st2 st5 st4"> </text>
		<text transform="matrix(0.2419 -0.9703 0.9703 0.2419 43.1654 43.3141)" class="st2 st5 st7">R</text>
		<text transform="matrix(0.2756 -0.9613 0.9613 0.2756 42.4448 45.3792)" class="st2 st5 st8">E</text>
		<text transform="matrix(0.3584 -0.9336 0.9336 0.3584 41.3154 47.6602)" class="st2 st5 st8">Z</text>
		<text transform="matrix(0.3907 -0.9205 0.9205 0.3907 40.4273 49.7475)" class="st2 st5 st4">E</text>
		<text transform="matrix(0.4848 -0.8746 0.8746 0.4848 39.38 51.6683)" class="st2 st5 st4">T</text>
		<text transform="matrix(0.515 -0.8572 0.8572 0.515 38.8666 52.7878)" class="st2 st5 st7"> </text>
		<text transform="matrix(0.5592 -0.829 0.829 0.5592 37.589 54.6133)" class="st2 st5 st4">E</text>
		<text transform="matrix(0.5878 -0.809 0.809 0.5878 36.2154 56.2559)" class="st2 st5 st7">L</text>
		<text transform="matrix(0.6691 -0.7431 0.7431 0.6691 33.954 58.2901)" class="st2 st5 st9">A</text>
		<text transform="matrix(0.7071 -0.7071 0.7071 0.7071 33.2091 59.1064)" class="st2 st5 st7">J</text>
		<text transform="matrix(-5.230000e-002 0.9986 -0.9986 -5.230000e-002 2.1065 28.5483)" class="st2 st5 st4">J</text>
		<text transform="matrix(0 1 -1 0 2.0224 29.7283)" class="st2 st5 st7">A</text>
		<text transform="matrix(5.230000e-002 0.9986 -0.9986 5.230000e-002 2.5644 32.2907)" class="st2 st5 st4">L</text>
		<text transform="matrix(8.720000e-002 0.9962 -0.9962 8.720000e-002 2.8039 34.3849)" class="st2 st5 st7">E</text>
		<text transform="matrix(0.1219 0.9925 -0.9925 0.1219 3.1237 36.5353)" class="st2 st5 st9"> </text>
		<text transform="matrix(0.1564 0.9877 -0.9877 0.1564 3.0375 37.7416)" class="st2 st5 st7">T</text>
		<text transform="matrix(0.1908 0.9816 -0.9816 0.1908 3.4339 40.0076)" class="st2 st5 st4">E</text>
		<text transform="matrix(0.2588 0.9659 -0.9659 0.2588 3.902 42.1625)" class="st2 st5 st4">Z</text>
		<text transform="matrix(0.2924 0.9563 -0.9563 0.2924 4.7873 44.509)" class="st2 st5 st7">E</text>
		<text transform="matrix(0.3746 0.9272 -0.9272 0.3746 5.5172 46.5796)" class="st2 st5 st8">R</text>
		<text transform="matrix(0.4226 0.9063 -0.9063 0.4226 6.5335 48.8464)" class="st2 st5 st7"> </text>
		<text transform="matrix(0.4695 0.8829 -0.8829 0.4695 6.7746 50.1176)" class="st2 st5 st4">K</text>
		<text transform="matrix(0.5446 0.8387 -0.8387 0.5446 8.0364 52.1093)" class="st2 st5 st7">O</text>
		<text transform="matrix(0.5878 0.809 -0.809 0.5878 9.9762 54.8895)" class="st2 st5 st7">L</text>
		<text transform="matrix(0.6691 0.7431 -0.7431 0.6691 11.4362 56.7059)" class="st2 st5 st9">E</text>
		<text transform="matrix(0.7071 0.7071 -0.7071 0.7071 12.9545 58.3575)" class="st2 st5 st7">J</text>
		<text transform="matrix(0.7431 0.6691 -0.6691 0.7431 13.7408 59.2761)" class="st2 st3 st9">İ</text>
		<path class="st10" d="M24,69.4C42.5,61,49.9,40,44.8,20.1c-4.2-1.9-8.8-3.2-13.9-4.4c-0.5-0.1,0.3-3.4-0.8-5.3
			C28.8,8.5,25.7,8,25.2,8c-1-0.1-2,6.7-3,6.6c-7.3-0.3-11.5,1.9-19.6,5.4C-1.2,39.6,4.4,61.6,24,69.4"/>
		<path class="st11" d="M3.1,20.3c-3.8,19.2,1.7,41,21.1,48.7c18.2-8.2,25.5-29,20.5-48.7c-4.4-2-9.1-3.4-14-4.1
			c0.4-0.9,0.7-1.8,1-2.6C37,14.4,42,16,46.7,18.1c5.6,21.6-2.5,44.5-22.5,53.5C2.9,63.2-3.1,39.2,1,18.1c5.1-2.3,10.2-3.7,15.1-4.4
			c-0.7,0.9-1.4,2-1.8,3.1C10.6,17.5,6.9,18.6,3.1,20.3"/>
		<path class="st11" d="M15.4,27.9c-2-10.1,7.2-18.1,9.8-19.9C18.2,9.1,9.1,18.2,15.4,27.9"/>
		<path class="st11" d="M30.6,16.4c3.4-7.3,1.7-11.8-3.1-16.5c0.3,1.1,1.2,4.9-1.9,5.7C27.8,6.8,30.6,13.2,30.6,16.4"/>
		<path class="st12" d="M23.2,4.3c2.2,7.3-8.4,8.6-8,19.5c1.6-6.7,12.1-8.6,10-15.9c1.5,0.1,3.7,2,4.5,4.4
			C30.3,9.1,26.9,5.3,23.2,4.3"/>
		<path class="st12" d="M6.6,33.4c-1.2,4.2,5.1,4,7.4,2.7C10.2,40.3,2.8,37.1,6.6,33.4"/>
		<path class="st12" d="M40.1,31.8c-0.9,0.9-2.7,1.3-4.2,0.9c0.5-0.2,0.9-0.6,1.1-1.1C37.9,31.9,38.9,32,40.1,31.8"/>
		<path class="st11" d="M11.5,30.8c-1.9,0.6-4,1.6-5.6,3.6C6.2,33.6,6.6,33,7,32.5c10.2-11,27.1,4.5,33.7-1.1
			c-1.7,3.9-13,1.4-18.4-0.1C18.9,30.2,15.1,30.1,11.5,30.8"/>
		<path class="st11" d="M29.8,47.7h-4.2c0-5.2,0-10.3,0-15.5c1.6,0.5,2.6,0.7,4.2,0.8L29.8,47.7z"/>
		<line class="st1" x1="29.5" y1="38.5" x2="29.5" y2="41.5"/>
		<path class="st11" d="M42.3,47.7l-10.1-8.5l6.2-5.9c-1.2,0.4-2.7,0.6-3.9,0.5l-4.9,4.6v3.2l0.3,0.3l7.3,5.9H42.3z"/>
		<rect x="20.3" y="30.8" class="st11" width="4.1" height="16.9"/>
		<path class="st11" d="M18.9,44.5c0.1-2,0-8.6,0.1-13.2c-1.3-0.1-2.4-0.2-4.1-0.4c0,4.6,0.1,11.5,0,13.6c-0.5,2.2-3.9,1.8-5.6,0.1
			c-0.4,0.5-0.8,1-1.2,1.5c1.7,1.5,3.7,2.2,5.9,2.2C16.6,48.1,18.8,46.5,18.9,44.5"/>
		<text transform="matrix(1 0 0 1 10.0614 53.9666)" class="st13 st14 st15">J</text>
		<text transform="matrix(1 0 0 1 11.7275 53.9666)" class="st13 st14 st15">ALE TEZER </text>
		<text transform="matrix(1 0 0 1 10.6191 57.242)" class="st16 st14 st17">E</text>
		<text transform="matrix(1 0 0 1 12.2919 57.242)" class="st16 st14 st17">ĞİTİM K</text>
		<text transform="matrix(1 0 0 1 23.2431 57.242)" class="st16 st14 st17">UR</text>
		<text transform="matrix(1 0 0 1 27.0956 57.242)" class="st16 st14 st17">UMLARI</text>
	</g>
	<g>
		<path class="st16" d="M65.7,39.1c0,1.2-0.1,2.1-0.3,2.8c-0.2,0.7-0.5,1.4-0.9,1.9c-0.5,0.7-1.2,1.3-2,1.8c-1,0.6-2.2,1.1-3.6,1.6
			l-0.8-2c0.7-0.3,1.1-0.6,1.5-0.8c0.3-0.3,0.5-0.5,0.7-0.8c0.1-0.3,0.2-0.7,0.3-1.1c0.1-0.4,0.1-1.1,0.1-1.9V23c0-0.5,0-0.9,0-1.3
			c0-0.3-0.1-0.6-0.2-0.8c-0.1-0.2-0.3-0.4-0.5-0.5c-0.2-0.1-0.5-0.3-1-0.4V19h8.4V20c-0.5,0.1-0.8,0.2-1,0.4
			c-0.2,0.1-0.4,0.3-0.5,0.5c-0.1,0.2-0.2,0.4-0.2,0.7c0,0.3-0.1,0.8-0.1,1.4V39.1z"/>
		<path class="st16" d="M80.8,34.1h-6.9l-0.5,1.5c-0.2,0.4-0.3,0.8-0.4,1.2c-0.1,0.4-0.1,0.8-0.1,1.3c0,1,0.6,1.6,1.7,1.7v1.1h-6.9
			v-1.1c0.4,0,0.7-0.2,1-0.4c0.3-0.2,0.6-0.6,0.8-1c0.2-0.4,0.5-1,0.8-1.8l6.7-17.9h4.3l5.3,18c0.2,0.8,0.4,1.4,0.6,1.7
			c0.2,0.3,0.4,0.6,0.6,0.8c0.3,0.2,0.6,0.4,1.1,0.5v1.1h-8.9v-1.1c0.6-0.1,1-0.2,1.2-0.5c0.3-0.2,0.4-0.6,0.4-1
			c0-0.3,0-0.7-0.1-1.1c-0.1-0.4-0.2-0.9-0.4-1.5L80.8,34.1z M74.6,32.2h5.8l-2.6-9L74.6,32.2z"/>
		<path class="st16" d="M99.3,19V20c-0.4,0.1-0.7,0.2-0.9,0.3c-0.2,0.1-0.4,0.3-0.5,0.5c-0.1,0.2-0.2,0.5-0.2,0.8
			c0,0.3-0.1,0.8-0.1,1.3v16h3.1c0.6,0,1.1-0.1,1.5-0.3c0.4-0.2,0.7-0.5,1-0.9c0.3-0.4,0.5-0.9,0.7-1.6c0.2-0.6,0.4-1.3,0.5-1.8h2.2
			l-0.4,6.5H90.8v-1.1c0.4-0.1,0.7-0.2,0.9-0.4c0.2-0.1,0.4-0.3,0.5-0.5c0.1-0.2,0.2-0.5,0.2-0.8c0-0.3,0-0.8,0-1.3V23
			c0-0.5,0-0.9,0-1.3s-0.1-0.6-0.2-0.8c-0.1-0.2-0.3-0.4-0.5-0.5c-0.2-0.1-0.5-0.3-1-0.4V19H99.3z"/>
		<path class="st16" d="M124.9,19v5.1h-2.2c-0.4-1-0.7-1.7-0.9-2.1c-0.2-0.4-0.5-0.6-0.9-0.9c-0.3-0.2-0.9-0.3-1.8-0.3h-3.5v7.7h2.1
			c0.5,0,0.8-0.1,1.1-0.2c0.3-0.1,0.5-0.4,0.7-0.7c0.2-0.3,0.3-0.8,0.5-1.4h1.8v6.5h-1.8c-0.1-0.6-0.3-1.1-0.5-1.4
			c-0.2-0.3-0.4-0.6-0.7-0.7c-0.3-0.1-0.6-0.2-1.1-0.2h-2.1V39h3.5c0.4,0,0.7,0,0.9-0.1c0.3,0,0.5-0.1,0.7-0.2
			c0.2-0.1,0.4-0.3,0.6-0.5c0.2-0.2,0.4-0.4,0.5-0.7c0.1-0.2,0.3-0.5,0.5-0.9c0.2-0.4,0.3-0.9,0.5-1.6h2.2l-0.3,5.9H109v-1.1
			c0.4-0.1,0.7-0.2,0.9-0.3c0.2-0.1,0.4-0.3,0.5-0.5s0.2-0.5,0.2-0.8c0-0.3,0-0.8,0-1.3V23c0-0.5,0-0.9,0-1.3c0-0.3-0.1-0.6-0.2-0.8
			c-0.1-0.2-0.3-0.4-0.5-0.5c-0.2-0.1-0.5-0.3-1-0.4V19H124.9z"/>
		<path class="st16" d="M139.8,40.9v-1.1c0.4-0.1,0.8-0.2,1.1-0.3c0.3-0.1,0.5-0.3,0.6-0.5c0.1-0.2,0.2-0.5,0.2-0.9
			c0-0.3,0-0.8,0-1.3v-16h-1.3c-0.6,0-1.1,0.1-1.5,0.2c-0.3,0.2-0.6,0.4-0.9,0.7c-0.3,0.3-0.5,0.8-0.7,1.3c-0.2,0.5-0.3,1.1-0.5,1.5
			h-2.2V19h18.9v5.6h-2.2c-0.2-0.7-0.4-1.3-0.5-1.6c-0.1-0.3-0.2-0.6-0.4-0.9s-0.3-0.4-0.5-0.6c-0.2-0.2-0.3-0.3-0.5-0.4
			c-0.2-0.1-0.4-0.2-0.7-0.2c-0.3,0-0.6-0.1-1.1-0.1h-1.2v16c0,0.6,0,1,0,1.3c0,0.3,0.1,0.5,0.2,0.7c0.1,0.2,0.2,0.3,0.3,0.4
			c0.1,0.1,0.3,0.2,0.5,0.3c0.2,0.1,0.5,0.2,0.9,0.2v1.1H139.8z"/>
		<path class="st16" d="M172.2,19v5.1H170c-0.4-1-0.7-1.7-0.9-2.1c-0.2-0.4-0.5-0.6-0.9-0.9c-0.3-0.2-0.9-0.3-1.8-0.3H163v7.7h2.1
			c0.5,0,0.8-0.1,1.1-0.2s0.5-0.4,0.7-0.7c0.2-0.3,0.3-0.8,0.5-1.4h1.8v6.5h-1.8c-0.1-0.6-0.3-1.1-0.5-1.4c-0.2-0.3-0.4-0.6-0.7-0.7
			c-0.3-0.1-0.6-0.2-1.1-0.2H163V39h3.5c0.4,0,0.7,0,0.9-0.1c0.3,0,0.5-0.1,0.7-0.2c0.2-0.1,0.4-0.3,0.6-0.5
			c0.2-0.2,0.4-0.4,0.5-0.7c0.1-0.2,0.3-0.5,0.5-0.9c0.2-0.4,0.3-0.9,0.5-1.6h2.2l-0.3,5.9h-15.8v-1.1c0.4-0.1,0.7-0.2,0.9-0.3
			c0.2-0.1,0.4-0.3,0.5-0.5c0.1-0.2,0.2-0.5,0.2-0.8c0-0.3,0-0.8,0-1.3V23c0-0.5,0-0.9,0-1.3s-0.1-0.6-0.2-0.8
			c-0.1-0.2-0.3-0.4-0.5-0.5s-0.5-0.3-1-0.4V19H172.2z"/>
		<path class="st16" d="M180.9,39h4.6c0.6,0,1.1-0.1,1.5-0.4c0.4-0.2,0.7-0.6,1-1.1c0.3-0.5,0.6-1.4,0.9-2.7h2.2v6.1H175v-1.1
			l10.3-19h-4.4c-0.7,0-1.3,0.1-1.7,0.4c-0.4,0.3-0.8,0.7-1,1.2c-0.3,0.6-0.5,1.3-0.8,2.3h-2.2V19h15.9V20L180.9,39z"/>
		<path class="st16" d="M209.9,19v5.1h-2.2c-0.4-1-0.7-1.7-0.9-2.1s-0.5-0.6-0.9-0.9c-0.3-0.2-0.9-0.3-1.8-0.3h-3.5v7.7h2.1
			c0.5,0,0.8-0.1,1.1-0.2s0.5-0.4,0.7-0.7c0.2-0.3,0.3-0.8,0.5-1.4h1.8v6.5H205c-0.1-0.6-0.3-1.1-0.5-1.4c-0.2-0.3-0.4-0.6-0.7-0.7
			c-0.3-0.1-0.6-0.2-1.1-0.2h-2.1V39h3.5c0.4,0,0.7,0,0.9-0.1c0.3,0,0.5-0.1,0.7-0.2c0.2-0.1,0.4-0.3,0.6-0.5
			c0.2-0.2,0.4-0.4,0.5-0.7c0.1-0.2,0.3-0.5,0.5-0.9c0.2-0.4,0.3-0.9,0.5-1.6h2.2l-0.3,5.9h-15.8v-1.1c0.4-0.1,0.7-0.2,0.9-0.3
			c0.2-0.1,0.4-0.3,0.5-0.5c0.1-0.2,0.2-0.5,0.2-0.8c0-0.3,0-0.8,0-1.3V23c0-0.5,0-0.9,0-1.3s-0.1-0.6-0.2-0.8
			c-0.1-0.2-0.3-0.4-0.5-0.5s-0.5-0.3-1-0.4V19H209.9z"/>
		<path class="st16" d="M221.4,40.9h-8.4v-1.1c0.4-0.1,0.7-0.2,0.9-0.3c0.2-0.1,0.4-0.3,0.5-0.5c0.1-0.2,0.2-0.5,0.2-0.8
			c0-0.3,0-0.8,0-1.3V23c0-0.5,0-0.9,0-1.3c0-0.3-0.1-0.6-0.2-0.8c-0.1-0.2-0.3-0.4-0.5-0.5s-0.5-0.3-1-0.4V19h9.4
			c1.3,0,2.3,0.1,3.2,0.3c0.9,0.2,1.7,0.4,2.3,0.8c0.6,0.3,1,0.7,1.4,1.1c0.4,0.5,0.7,1,0.9,1.6c0.2,0.6,0.3,1.3,0.3,2.1
			c0,1.1-0.2,2-0.6,2.7c-0.4,0.8-0.9,1.4-1.5,1.9c-0.6,0.5-1.5,1-2.5,1.4V31c0.8,0.3,1.4,0.8,2,1.4c0.5,0.6,1,1.3,1.4,2.2l1,2.2
			c0.5,1,0.9,1.7,1.3,2.2s1,0.8,1.6,0.9v1.1H227c-0.6-0.9-1.3-2.1-2.1-3.8l-1.3-2.7c-0.4-0.8-0.7-1.4-1-1.7
			c-0.3-0.3-0.5-0.6-0.8-0.7c-0.3-0.1-0.7-0.2-1.3-0.2h-0.9v5.2c0,0.8,0,1.4,0.1,1.7c0.1,0.3,0.2,0.6,0.4,0.8
			c0.2,0.2,0.6,0.4,1.2,0.5V40.9z M219.6,20.9v8.9h1.6c0.9,0,1.6-0.1,2.1-0.3c0.6-0.2,1-0.6,1.3-1c0.3-0.4,0.6-0.9,0.7-1.5
			c0.1-0.6,0.2-1.2,0.2-1.8c0-1.5-0.3-2.5-1-3.3c-0.7-0.7-1.7-1.1-3.1-1.1C220.5,20.8,219.9,20.9,219.6,20.9z"/>
	</g>
	<g>
		<path class="st13" d="M67.4,50.8v2.9h-1.3c-0.2-0.6-0.4-1-0.5-1.2c-0.1-0.2-0.3-0.4-0.5-0.5c-0.2-0.1-0.5-0.2-1-0.2h-2v4.4h1.2
			c0.3,0,0.5,0,0.6-0.1c0.2-0.1,0.3-0.2,0.4-0.4c0.1-0.2,0.2-0.5,0.3-0.8h1v3.8h-1c-0.1-0.4-0.2-0.6-0.3-0.8
			c-0.1-0.2-0.2-0.3-0.4-0.4c-0.1-0.1-0.4-0.1-0.7-0.1h-1.2v4.9h2c0.2,0,0.4,0,0.5,0c0.1,0,0.3-0.1,0.4-0.1c0.1-0.1,0.2-0.2,0.3-0.3
			c0.1-0.1,0.2-0.2,0.3-0.4s0.2-0.3,0.3-0.5c0.1-0.2,0.2-0.5,0.3-0.9h1.3l-0.2,3.4h-9.1v-0.6c0.2-0.1,0.4-0.1,0.5-0.2
			c0.1-0.1,0.2-0.2,0.3-0.3c0.1-0.1,0.1-0.3,0.1-0.5c0-0.2,0-0.4,0-0.7v-8c0-0.3,0-0.5,0-0.7c0-0.2-0.1-0.4-0.1-0.5
			c-0.1-0.1-0.2-0.2-0.3-0.3c-0.1-0.1-0.3-0.1-0.6-0.2v-0.6H67.4z"/>
		<path class="st13" d="M78.7,51.2v2.6h-1.3c-0.1-0.5-0.3-0.9-0.5-1.2c-0.2-0.3-0.4-0.5-0.7-0.6c-0.3-0.1-0.7-0.2-1.1-0.2
			c-0.6,0-1.2,0.2-1.6,0.6c-0.5,0.4-0.8,1-1.1,1.8C72.1,54.9,72,56,72,57.2c0,1.1,0.1,2,0.3,2.8c0.2,0.8,0.5,1.4,0.8,1.8
			c0.4,0.4,0.8,0.7,1.4,0.7c0.5,0,0.9-0.2,1.2-0.5c0.3-0.3,0.4-0.8,0.4-1.5v-0.4c0-0.5,0-0.8,0-1c0-0.2-0.1-0.3-0.1-0.4
			c-0.1-0.1-0.1-0.2-0.3-0.2c-0.1-0.1-0.3-0.1-0.6-0.2v-0.6h4.7v0.6c-0.3,0.1-0.5,0.2-0.6,0.3c-0.1,0.1-0.2,0.3-0.2,0.5
			c0,0.2-0.1,0.5-0.1,0.8v3.5l-1.3,0.3l-0.6-0.7c-0.7,0.5-1.6,0.7-2.5,0.7c-1.8,0-3.1-0.5-4-1.6C69.5,61,69,59.4,69,57.3
			c0-1.1,0.2-2.1,0.5-3c0.3-0.9,0.8-1.5,1.3-2.1c0.6-0.5,1.2-0.9,1.9-1.2c0.7-0.2,1.5-0.4,2.3-0.4C76.3,50.7,77.5,50.9,78.7,51.2z
			 M77.4,47.2c-0.2,0.9-0.6,1.5-1.1,1.9c-0.5,0.4-1.2,0.7-2,0.7c-0.8,0-1.4-0.2-1.9-0.7c-0.5-0.4-0.8-1.1-1-1.9l0.9-0.3
			c0.2,0.5,0.5,0.8,0.8,1.1s0.8,0.3,1.3,0.3c0.6,0,1-0.1,1.4-0.4c0.3-0.2,0.6-0.6,0.8-1L77.4,47.2z"/>
		<path class="st13" d="M85.1,61.1c0,0.2,0,0.4,0,0.6c0,0.2,0,0.3,0.1,0.5s0.1,0.2,0.2,0.3c0.1,0.1,0.2,0.1,0.3,0.2
			c0.1,0.1,0.3,0.1,0.5,0.2v0.6h-4.9v-0.6c0.2-0.1,0.4-0.1,0.5-0.2c0.1-0.1,0.2-0.2,0.3-0.3c0.1-0.1,0.1-0.3,0.1-0.5
			c0-0.2,0-0.4,0-0.7v-8c0-0.3,0-0.5,0-0.7c0-0.2-0.1-0.3-0.1-0.5c-0.1-0.1-0.2-0.2-0.3-0.3c-0.1-0.1-0.3-0.1-0.6-0.2v-0.6h4.9v0.6
			c-0.3,0.1-0.4,0.1-0.6,0.2c-0.1,0.1-0.2,0.2-0.3,0.3c-0.1,0.1-0.1,0.3-0.1,0.4c0,0.2,0,0.4,0,0.8V61.1z M84.9,47.4v2.3h-2.5v-2.3
			H84.9z"/>
		<path class="st13" d="M90.5,63.5v-0.6c0.3,0,0.5-0.1,0.6-0.2s0.3-0.2,0.3-0.3c0.1-0.1,0.1-0.3,0.1-0.5s0-0.4,0-0.7v-9.2h-0.7
			c-0.4,0-0.7,0-0.9,0.1c-0.2,0.1-0.4,0.2-0.5,0.4c-0.1,0.2-0.3,0.4-0.4,0.7c-0.1,0.3-0.2,0.6-0.3,0.9h-1.3v-3.2h10.9v3.2h-1.3
			c-0.1-0.4-0.2-0.7-0.3-0.9c-0.1-0.2-0.1-0.4-0.2-0.5c-0.1-0.1-0.2-0.3-0.3-0.3c-0.1-0.1-0.2-0.2-0.3-0.2C96,52,95.9,52,95.7,52
			c-0.2,0-0.4,0-0.6,0h-0.7v9.2c0,0.3,0,0.6,0,0.7s0.1,0.3,0.1,0.4c0,0.1,0.1,0.2,0.2,0.3c0.1,0.1,0.2,0.1,0.3,0.2
			c0.1,0.1,0.3,0.1,0.5,0.1v0.6H90.5z"/>
		<path class="st13" d="M103.8,61.1c0,0.2,0,0.4,0,0.6c0,0.2,0,0.3,0.1,0.5s0.1,0.2,0.2,0.3c0.1,0.1,0.2,0.1,0.3,0.2
			c0.1,0.1,0.3,0.1,0.5,0.2v0.6h-4.9v-0.6c0.2-0.1,0.4-0.1,0.5-0.2c0.1-0.1,0.2-0.2,0.3-0.3c0.1-0.1,0.1-0.3,0.1-0.5
			c0-0.2,0-0.4,0-0.7v-8c0-0.3,0-0.5,0-0.7c0-0.2-0.1-0.3-0.1-0.5c-0.1-0.1-0.2-0.2-0.3-0.3c-0.1-0.1-0.3-0.1-0.6-0.2v-0.6h4.9v0.6
			c-0.3,0.1-0.4,0.1-0.6,0.2S104,51.8,104,52c-0.1,0.1-0.1,0.3-0.1,0.4c0,0.2,0,0.4,0,0.8V61.1z M103.6,47.4v2.3h-2.5v-2.3H103.6z"
			/>
		<path class="st13" d="M120.8,51.5c-0.3,0.1-0.5,0.2-0.7,0.3c-0.1,0.1-0.2,0.3-0.2,0.4c0,0.2-0.1,0.5-0.1,1v8c0,0.4,0,0.7,0.1,0.9
			c0,0.2,0.1,0.4,0.2,0.5c0.1,0.1,0.3,0.2,0.7,0.3v0.6h-4.7v-0.6c0.3-0.1,0.5-0.1,0.6-0.2c0.1-0.1,0.2-0.1,0.2-0.2
			c0.1-0.1,0.1-0.2,0.1-0.4c0-0.2,0-0.5,0-0.9v-4.5c0-0.5,0-1.1,0-1.8c0-0.7,0-1.2,0.1-1.4h-0.2c-0.1,0.2-0.2,0.5-0.2,0.7
			c-0.1,0.2-0.2,0.7-0.5,1.3l-2.5,6.7h-1.6l-2.6-7.5c-0.2-0.4-0.3-0.8-0.4-1.3H109c0.1,1,0.1,2.2,0.1,3.6v4.3c0,0.5,0,0.8,0.1,1
			c0,0.2,0.1,0.3,0.3,0.4s0.4,0.2,0.7,0.3v0.6h-3.5v-0.6c0.2-0.1,0.4-0.1,0.5-0.2c0.1-0.1,0.2-0.2,0.3-0.3c0.1-0.1,0.1-0.3,0.1-0.5
			c0-0.2,0-0.4,0-0.7v-8c0-0.5,0-0.8-0.1-1c0-0.2-0.1-0.3-0.2-0.4c-0.1-0.1-0.3-0.2-0.7-0.3v-0.6h4.6l2.6,7.6l2.8-7.6h4.3V51.5z"/>
		<path class="st13" d="M137.1,61c0.2,0.4,0.4,0.7,0.6,0.9c0.2,0.2,0.3,0.4,0.4,0.5c0.1,0.1,0.2,0.2,0.4,0.3
			c0.1,0.1,0.3,0.1,0.5,0.2v0.6h-5v-0.6c0.2,0,0.4-0.1,0.4-0.2s0.1-0.2,0.1-0.3c0-0.1,0-0.2,0-0.3c0-0.1-0.1-0.2-0.2-0.4
			c-0.1-0.2-0.3-0.5-0.6-1l-1.4-2.2c-0.2-0.3-0.3-0.5-0.4-0.6c-0.1-0.1-0.3-0.3-0.4-0.3c-0.1-0.1-0.3-0.1-0.5-0.1h-0.2v3.7
			c0,0.2,0,0.4,0,0.6c0,0.2,0,0.3,0.1,0.5c0,0.1,0.1,0.2,0.2,0.3c0.1,0.1,0.2,0.1,0.3,0.2c0.1,0.1,0.3,0.1,0.5,0.2v0.6h-4.9v-0.6
			c0.2-0.1,0.4-0.1,0.5-0.2c0.1-0.1,0.2-0.2,0.3-0.3c0.1-0.1,0.1-0.3,0.1-0.5c0-0.2,0-0.4,0-0.7v-8c0-0.3,0-0.5,0-0.7
			c0-0.2-0.1-0.4-0.1-0.5c-0.1-0.1-0.2-0.2-0.3-0.3c-0.1-0.1-0.3-0.1-0.6-0.2v-0.6h4.9v0.6c-0.3,0.1-0.4,0.1-0.6,0.2
			c-0.1,0.1-0.2,0.2-0.3,0.3c-0.1,0.1-0.1,0.3-0.1,0.4s0,0.4,0,0.8v3.3h0.2c0.3,0,0.5,0,0.7-0.1c0.2-0.1,0.3-0.2,0.5-0.3
			c0.2-0.2,0.5-0.5,1-1.1c0.5-0.6,0.9-1,1.1-1.4c0.2-0.3,0.4-0.6,0.5-0.8c0.1-0.2,0.1-0.4,0.1-0.6c0-0.2-0.1-0.4-0.2-0.5
			c-0.1-0.1-0.3-0.2-0.6-0.2v-0.6h4.7v0.6c-0.2,0-0.4,0.1-0.6,0.2c-0.2,0.1-0.4,0.2-0.6,0.4c-0.2,0.2-0.5,0.5-0.8,0.9l-2.8,3.1
			L137.1,61z"/>
		<path class="st13" d="M147.6,53.2c0-0.5,0-0.8-0.1-1c0-0.2-0.1-0.3-0.2-0.4s-0.3-0.2-0.7-0.3v-0.6h4.1v0.6
			c-0.2,0.1-0.4,0.1-0.5,0.2c-0.1,0.1-0.2,0.2-0.3,0.3c-0.1,0.1-0.1,0.3-0.1,0.5s0,0.4,0,0.7v5.8c0,0.8-0.1,1.4-0.2,1.9
			c-0.1,0.5-0.3,0.9-0.6,1.3s-0.6,0.6-1,0.9c-0.4,0.2-0.8,0.4-1.3,0.5c-0.5,0.1-1,0.1-1.6,0.1c-0.9,0-1.6-0.1-2.2-0.3
			c-0.6-0.2-1.1-0.5-1.5-0.8c-0.4-0.4-0.7-0.8-0.8-1.3c-0.2-0.5-0.3-1.2-0.3-2v-6c0-0.3,0-0.5,0-0.7c0-0.2-0.1-0.4-0.1-0.5
			c-0.1-0.1-0.2-0.2-0.3-0.3c-0.1-0.1-0.3-0.1-0.6-0.2v-0.6h4.9v0.6c-0.3,0.1-0.4,0.1-0.6,0.2c-0.1,0.1-0.2,0.2-0.3,0.3
			c-0.1,0.1-0.1,0.3-0.1,0.4c0,0.2,0,0.4,0,0.8v6.1c0,0.5,0,0.9,0.1,1.3c0.1,0.4,0.2,0.7,0.3,1c0.2,0.3,0.4,0.5,0.7,0.7
			c0.3,0.2,0.7,0.2,1.1,0.2c0.6,0,1.1-0.1,1.4-0.4c0.3-0.3,0.5-0.6,0.7-1.1c0.1-0.5,0.2-1.1,0.2-2V53.2z"/>
		<path class="st13" d="M157.1,63.5h-4.9v-0.6c0.2-0.1,0.4-0.1,0.5-0.2c0.1-0.1,0.2-0.2,0.3-0.3c0.1-0.1,0.1-0.3,0.1-0.5
			c0-0.2,0-0.4,0-0.7v-8c0-0.3,0-0.5,0-0.7c0-0.2-0.1-0.4-0.1-0.5c-0.1-0.1-0.2-0.2-0.3-0.3c-0.1-0.1-0.3-0.1-0.6-0.2v-0.6h5.4
			c0.7,0,1.3,0.1,1.9,0.2c0.5,0.1,1,0.3,1.3,0.5c0.3,0.2,0.6,0.4,0.8,0.7c0.2,0.3,0.4,0.6,0.5,0.9c0.1,0.3,0.2,0.8,0.2,1.2
			c0,0.6-0.1,1.1-0.3,1.6c-0.2,0.4-0.5,0.8-0.9,1.1c-0.4,0.3-0.8,0.6-1.4,0.8v0.1c0.5,0.2,0.8,0.5,1.1,0.8c0.3,0.3,0.6,0.7,0.8,1.3
			l0.6,1.3c0.3,0.6,0.5,1,0.8,1.3c0.3,0.3,0.6,0.5,0.9,0.5v0.6h-3.6c-0.4-0.5-0.8-1.2-1.2-2.2l-0.7-1.6c-0.2-0.5-0.4-0.8-0.6-1
			c-0.2-0.2-0.3-0.3-0.5-0.4c-0.2-0.1-0.4-0.1-0.8-0.1h-0.5v3c0,0.5,0,0.8,0.1,1c0,0.2,0.1,0.3,0.2,0.4c0.1,0.1,0.4,0.2,0.7,0.3
			V63.5z M156.1,51.9v5.1h0.9c0.5,0,0.9-0.1,1.2-0.2c0.3-0.1,0.6-0.3,0.8-0.6c0.2-0.2,0.3-0.5,0.4-0.8c0.1-0.3,0.1-0.7,0.1-1.1
			c0-0.8-0.2-1.5-0.6-1.9c-0.4-0.4-1-0.6-1.8-0.6C156.6,51.9,156.2,51.9,156.1,51.9z"/>
		<path class="st13" d="M172.3,53.2c0-0.5,0-0.8-0.1-1c0-0.2-0.1-0.3-0.2-0.4s-0.3-0.2-0.7-0.3v-0.6h4.1v0.6
			c-0.2,0.1-0.4,0.1-0.5,0.2c-0.1,0.1-0.2,0.2-0.3,0.3c-0.1,0.1-0.1,0.3-0.1,0.5s0,0.4,0,0.7v5.8c0,0.8-0.1,1.4-0.2,1.9
			c-0.1,0.5-0.3,0.9-0.6,1.3s-0.6,0.6-1,0.9c-0.4,0.2-0.8,0.4-1.3,0.5c-0.5,0.1-1,0.1-1.6,0.1c-0.9,0-1.6-0.1-2.2-0.3
			c-0.6-0.2-1.1-0.5-1.5-0.8c-0.4-0.4-0.7-0.8-0.8-1.3c-0.2-0.5-0.3-1.2-0.3-2v-6c0-0.3,0-0.5,0-0.7c0-0.2-0.1-0.4-0.1-0.5
			c-0.1-0.1-0.2-0.2-0.3-0.3c-0.1-0.1-0.3-0.1-0.6-0.2v-0.6h4.9v0.6c-0.3,0.1-0.4,0.1-0.6,0.2c-0.1,0.1-0.2,0.2-0.3,0.3
			s-0.1,0.3-0.1,0.4c0,0.2,0,0.4,0,0.8v6.1c0,0.5,0,0.9,0.1,1.3c0.1,0.4,0.2,0.7,0.3,1c0.2,0.3,0.4,0.5,0.7,0.7
			c0.3,0.2,0.7,0.2,1.1,0.2c0.6,0,1.1-0.1,1.4-0.4c0.3-0.3,0.5-0.6,0.7-1.1c0.1-0.5,0.2-1.1,0.2-2V53.2z"/>
		<path class="st13" d="M191.3,51.5c-0.3,0.1-0.5,0.2-0.7,0.3c-0.1,0.1-0.2,0.3-0.2,0.4c0,0.2-0.1,0.5-0.1,1v8c0,0.4,0,0.7,0.1,0.9
			c0,0.2,0.1,0.4,0.2,0.5c0.1,0.1,0.3,0.2,0.7,0.3v0.6h-4.7v-0.6c0.3-0.1,0.5-0.1,0.6-0.2c0.1-0.1,0.2-0.1,0.2-0.2
			c0.1-0.1,0.1-0.2,0.1-0.4c0-0.2,0-0.5,0-0.9v-4.5c0-0.5,0-1.1,0-1.8s0-1.2,0.1-1.4h-0.2c-0.1,0.2-0.2,0.5-0.2,0.7
			c-0.1,0.2-0.2,0.7-0.5,1.3l-2.5,6.7h-1.6l-2.6-7.5c-0.2-0.4-0.3-0.8-0.4-1.3h-0.2c0.1,1,0.1,2.2,0.1,3.6v4.3c0,0.5,0,0.8,0.1,1
			c0,0.2,0.1,0.3,0.3,0.4c0.1,0.1,0.4,0.2,0.7,0.3v0.6H177v-0.6c0.2-0.1,0.4-0.1,0.5-0.2c0.1-0.1,0.2-0.2,0.3-0.3
			c0.1-0.1,0.1-0.3,0.1-0.5c0-0.2,0-0.4,0-0.7v-8c0-0.5,0-0.8-0.1-1c0-0.2-0.1-0.3-0.2-0.4c-0.1-0.1-0.3-0.2-0.7-0.3v-0.6h4.6
			l2.6,7.6l2.8-7.6h4.3V51.5z"/>
		<path class="st13" d="M197.9,50.8v0.6c-0.2,0.1-0.4,0.1-0.5,0.2c-0.1,0.1-0.2,0.2-0.3,0.3c-0.1,0.1-0.1,0.3-0.1,0.5
			c0,0.2,0,0.4,0,0.7v9.2h1.8c0.4,0,0.6-0.1,0.9-0.2c0.2-0.1,0.4-0.3,0.6-0.5c0.2-0.2,0.3-0.5,0.4-0.9c0.1-0.4,0.2-0.7,0.3-1h1.3
			l-0.2,3.7H193v-0.6c0.2-0.1,0.4-0.1,0.5-0.2c0.1-0.1,0.2-0.2,0.3-0.3c0.1-0.1,0.1-0.3,0.1-0.5c0-0.2,0-0.4,0-0.7v-8
			c0-0.3,0-0.5,0-0.7c0-0.2-0.1-0.4-0.1-0.5c-0.1-0.1-0.2-0.2-0.3-0.3c-0.1-0.1-0.3-0.1-0.6-0.2v-0.6H197.9z"/>
		<path class="st13" d="M210,59.6h-3.9l-0.3,0.9c-0.1,0.2-0.2,0.5-0.2,0.7c-0.1,0.2-0.1,0.5-0.1,0.7c0,0.6,0.3,0.9,1,1v0.6h-3.9
			v-0.6c0.2,0,0.4-0.1,0.6-0.2c0.2-0.1,0.3-0.3,0.5-0.6c0.1-0.2,0.3-0.6,0.5-1l3.9-10.3h2.5l3.1,10.4c0.1,0.5,0.3,0.8,0.3,1
			c0.1,0.2,0.2,0.4,0.4,0.5c0.1,0.1,0.4,0.2,0.6,0.3v0.6h-5.1v-0.6c0.3,0,0.6-0.1,0.7-0.3c0.2-0.1,0.2-0.3,0.2-0.6
			c0-0.2,0-0.4-0.1-0.6c0-0.2-0.1-0.5-0.2-0.9L210,59.6z M206.5,58.5h3.3l-1.5-5.2L206.5,58.5z"/>
		<path class="st13" d="M220.7,63.5h-4.9v-0.6c0.2-0.1,0.4-0.1,0.5-0.2c0.1-0.1,0.2-0.2,0.3-0.3c0.1-0.1,0.1-0.3,0.1-0.5
			c0-0.2,0-0.4,0-0.7v-8c0-0.3,0-0.5,0-0.7c0-0.2-0.1-0.4-0.1-0.5c-0.1-0.1-0.2-0.2-0.3-0.3c-0.1-0.1-0.3-0.1-0.6-0.2v-0.6h5.4
			c0.7,0,1.3,0.1,1.9,0.2c0.5,0.1,1,0.3,1.3,0.5c0.3,0.2,0.6,0.4,0.8,0.7c0.2,0.3,0.4,0.6,0.5,0.9c0.1,0.3,0.2,0.8,0.2,1.2
			c0,0.6-0.1,1.1-0.3,1.6c-0.2,0.4-0.5,0.8-0.9,1.1c-0.4,0.3-0.8,0.6-1.4,0.8v0.1c0.5,0.2,0.8,0.5,1.1,0.8c0.3,0.3,0.6,0.7,0.8,1.3
			l0.6,1.3c0.3,0.6,0.5,1,0.8,1.3c0.3,0.3,0.6,0.5,0.9,0.5v0.6h-3.6c-0.4-0.5-0.8-1.2-1.2-2.2l-0.7-1.6c-0.2-0.5-0.4-0.8-0.6-1
			c-0.2-0.2-0.3-0.3-0.5-0.4c-0.2-0.1-0.4-0.1-0.8-0.1h-0.5v3c0,0.5,0,0.8,0.1,1c0,0.2,0.1,0.3,0.2,0.4c0.1,0.1,0.4,0.2,0.7,0.3
			V63.5z M219.7,51.9v5.1h0.9c0.5,0,0.9-0.1,1.2-0.2c0.3-0.1,0.6-0.3,0.8-0.6c0.2-0.2,0.3-0.5,0.4-0.8c0.1-0.3,0.1-0.7,0.1-1.1
			c0-0.8-0.2-1.5-0.6-1.9c-0.4-0.4-1-0.6-1.8-0.6C220.2,51.9,219.8,51.9,219.7,51.9z"/>
		<path class="st13" d="M232.2,61.1c0,0.2,0,0.4,0,0.6c0,0.2,0,0.3,0.1,0.5c0,0.1,0.1,0.2,0.2,0.3c0.1,0.1,0.2,0.1,0.3,0.2
			c0.1,0.1,0.3,0.1,0.5,0.2v0.6h-4.9v-0.6c0.2-0.1,0.4-0.1,0.5-0.2c0.1-0.1,0.2-0.2,0.3-0.3c0.1-0.1,0.1-0.3,0.1-0.5
			c0-0.2,0-0.4,0-0.7v-8c0-0.3,0-0.5,0-0.7c0-0.2-0.1-0.3-0.1-0.5c-0.1-0.1-0.2-0.2-0.3-0.3c-0.1-0.1-0.3-0.1-0.6-0.2v-0.6h4.9v0.6
			c-0.3,0.1-0.4,0.1-0.6,0.2s-0.2,0.2-0.3,0.3c-0.1,0.1-0.1,0.3-0.1,0.4c0,0.2,0,0.4,0,0.8V61.1z"/>
	</g>
</g>
</svg>
