<?xml version="1.0" encoding="utf-8"?>
<!-- Generator: Adobe Illustrator 19.2.1, SVG Export Plug-In . SVG Version: 6.00 Build 0)  -->
<svg version="1.1" id="Layer_1" xmlns="http://www.w3.org/2000/svg" xmlns:xlink="http://www.w3.org/1999/xlink" x="0px" y="0px"
	 viewBox="0 0 175.3 149.6" style="enable-background:new 0 0 175.3 149.6;" xml:space="preserve">
<style type="text/css">
	.st0{fill:#BBBDBF;}
	.st1{fill:none;stroke:#231F20;stroke-width:0.216;stroke-miterlimit:22.9256;}
	.st2{font-family:'FuturaBT-Bold';}
	.st3{font-size:5.4046px;}
	.st4{font-family:'FrizQuadrataTT';}
	.st5{font-size:5.4054px;}
	.st6{font-size:5.4049px;}
	.st7{font-size:5.4047px;}
	.st8{font-size:5.4052px;}
	.st9{font-size:5.4043px;}
	.st10{font-size:5.4048px;}
	.st11{font-size:5.4044px;}
	.st12{font-size:5.4051px;}
	.st13{fill:#FFFFFF;}
	.st14{fill:#231F6F;}
	.st15{fill:#EC1C24;}
	.st16{font-family:'Cambria-Bold';}
	.st17{font-size:7.0388px;}
	.st18{font-size:3.8527px;}
</style>
<g>
	<g>
		<path class="st0" d="M85.8,90.4c24.2-11,33.9-38.5,27.2-64.5c-5.5-2.5-11.5-4.2-18.2-5.8c-0.7-0.1,0.4-4.4-1-6.9
			c-1.6-2.5-5.6-3.1-6.3-3.3c-1.3-0.1-2.6,8.8-3.9,8.6c-9.7-0.1-15.2,2.7-25.8,7.3C52.8,51.4,60,80.2,85.8,90.4"/>
		<path class="st0" d="M62.8,43.3c-1.6,5.5,6.7,5.2,9.7,3.5C67.5,52.2,57.8,48.1,62.8,43.3"/>
		<path class="st0" d="M106.6,41.1c-1.2,1.2-3.5,1.7-5.5,1.2c0.7-0.3,1.2-0.8,1.4-1.4C103.7,41.3,105,41.5,106.6,41.1"/>
		<path class="st0" d="M69.2,39.8c-2.6,0.8-5.2,2.1-7.5,4.8c0.5-1.2,0.9-2,1.6-2.6c13.3-14.4,35.5,5.9,44.1-1.4
			c-2.2,5.1-17,1.8-24.1-0.1C78.7,39.1,73.8,39,69.2,39.8"/>
		<path class="st0" d="M93.1,62h-5.5c0-6.8,0-13.5,0-20.3c2.1,0.7,3.4,0.9,5.5,1V62z"/>
		<line class="st1" x1="92.7" y1="49.8" x2="92.7" y2="53.8"/>
		<path class="st0" d="M109.4,61.9L96.1,50.8l8.1-7.7c-1.6,0.5-3.5,0.8-5.1,0.7l-6.4,6v4.1l0.4,0.4l9.5,7.7H109.4z"/>
		<rect x="80.7" y="39.8" class="st0" width="5.4" height="22.1"/>
		<path class="st0" d="M78.9,57.8c0.1-2.6,0-11.3,0.1-17.3c-1.7-0.1-3.1-0.3-5.4-0.5c0,6,0.1,15,0,17.8c-0.7,2.9-5.1,2.4-7.3,0.1
			c-0.5,0.7-1,1.3-1.6,2c2.2,2,4.8,2.9,7.7,2.9C75.9,62.5,78.7,60.4,78.9,57.8"/>
		<text transform="matrix(-0.1045 -0.9945 0.9945 -0.1045 114.7583 37.4283)" class="st0 st2 st3">İ</text>
		<text transform="matrix(-6.979728e-002 -0.9976 0.9976 -6.979728e-002 115.0172 39.0444)" class="st0 st4 st5">J</text>
		<text transform="matrix(-3.489968e-002 -0.9994 0.9994 -3.489968e-002 114.9928 41.8823)" class="st0 st4 st6">E</text>
		<text transform="matrix(0 -1 1 0 114.8232 44.7047)" class="st0 st4 st6">L</text>
		<text transform="matrix(8.719920e-002 -0.9962 0.9962 8.719920e-002 114.2896 49.1353)" class="st0 st4 st6">O</text>
		<text transform="matrix(0.1736 -0.9848 0.9848 0.1736 113.6095 52.0566)" class="st0 st4 st7">K</text>
		<text transform="matrix(0.1908 -0.9816 0.9816 0.1908 113.4609 53.6959)" class="st0 st4 st3"> </text>
		<text transform="matrix(0.2419 -0.9703 0.9703 0.2419 112.5762 56.7933)" class="st0 st4 st6">R</text>
		<text transform="matrix(0.2756 -0.9613 0.9613 0.2756 111.6328 59.4964)" class="st0 st4 st8">E</text>
		<text transform="matrix(0.3584 -0.9336 0.9336 0.3584 110.156 62.4797)" class="st0 st4 st8">Z</text>
		<text transform="matrix(0.3907 -0.9205 0.9205 0.3907 108.9943 65.2107)" class="st0 st4 st7">E</text>
		<text transform="matrix(0.4848 -0.8746 0.8746 0.4848 107.6234 67.7231)" class="st0 st4 st3">T</text>
		<text transform="matrix(0.515 -0.8572 0.8572 0.515 106.9512 69.1893)" class="st0 st4 st6"> </text>
		<text transform="matrix(0.5592 -0.829 0.829 0.5592 105.2813 71.5769)" class="st0 st4 st3">E</text>
		<text transform="matrix(0.5878 -0.809 0.809 0.5878 103.4838 73.7246)" class="st0 st4 st6">L</text>
		<text transform="matrix(0.6691 -0.7431 0.7431 0.6691 100.5252 76.3875)" class="st0 st4 st9">A</text>
		<text transform="matrix(0.7071 -0.7071 0.7071 0.7071 99.5505 77.4553)" class="st0 st4 st10">J</text>
		<text transform="matrix(-5.230164e-002 0.9986 -0.9986 -5.230164e-002 58.8629 37.4797)" class="st0 st4 st3">J</text>
		<text transform="matrix(0 1 -1 0 58.7539 39.0221)" class="st0 st4 st6">A</text>
		<text transform="matrix(5.230164e-002 0.9986 -0.9986 5.230164e-002 59.4616 42.3754)" class="st0 st4 st3">L</text>
		<text transform="matrix(8.719920e-002 0.9962 -0.9962 8.719920e-002 59.7719 45.1146)" class="st0 st4 st6">E</text>
		<text transform="matrix(0.1219 0.9925 -0.9925 0.1219 60.192 47.9277)" class="st0 st4 st11"> </text>
		<text transform="matrix(0.1564 0.9877 -0.9877 0.1564 60.0785 49.5063)" class="st0 st4 st6">T</text>
		<text transform="matrix(0.1908 0.9816 -0.9816 0.1908 60.5983 52.4715)" class="st0 st4 st3">E</text>
		<text transform="matrix(0.2588 0.9659 -0.9659 0.2588 61.2101 55.2894)" class="st0 st4 st3">Z</text>
		<text transform="matrix(0.2924 0.9563 -0.9563 0.2924 62.3693 58.3593)" class="st0 st4 st6">E</text>
		<text transform="matrix(0.3746 0.9272 -0.9272 0.3746 63.3233 61.0665)" class="st0 st4 st12">R</text>
		<text transform="matrix(0.4226 0.9063 -0.9063 0.4226 64.6518 64.0332)" class="st0 st4 st10"> </text>
		<text transform="matrix(0.4695 0.8829 -0.8829 0.4695 64.9688 65.6953)" class="st0 st4 st3">K</text>
		<text transform="matrix(0.5446 0.8387 -0.8387 0.5446 66.6204 68.301)" class="st0 st4 st6">O</text>
		<text transform="matrix(0.5878 0.809 -0.809 0.5878 69.1573 71.9398)" class="st0 st4 st6">L</text>
		<text transform="matrix(0.6691 0.7431 -0.7431 0.6691 71.0673 74.3152)" class="st0 st4 st9">E</text>
		<text transform="matrix(0.7071 0.7071 -0.7071 0.7071 73.0526 76.4754)" class="st0 st4 st10">J</text>
		<text transform="matrix(0.7431 0.6691 -0.6691 0.7431 74.0821 77.6769)" class="st0 st2 st9">İ</text>
		<path class="st13" d="M87.5,90.9c24.2-11,33.9-38.5,27.2-64.5c-5.5-2.5-11.5-4.2-18.2-5.8c-0.7-0.1,0.4-4.4-1-6.9
			c-1.7-2.5-5.8-3.1-6.4-3.1c-1.3-0.1-2.6,8.8-3.9,8.6c-9.5-0.4-15,2.5-25.6,7.1C54.5,51.9,61.9,80.7,87.5,90.9"/>
		<path class="st14" d="M60.2,26.7c-5,25.1,2.2,53.6,27.6,63.7c23.8-10.7,33.4-37.9,26.8-63.7c-5.8-2.6-11.9-4.4-18.3-5.4
			c0.5-1.2,0.9-2.4,1.3-3.4c6.9,1,13.5,3.1,19.6,5.9c7.3,28.3-3.3,58.2-29.4,70c-27.9-11-35.7-42.4-30.4-70c6.7-3,13.3-4.8,19.8-5.8
			c-0.9,1.2-1.8,2.6-2.4,4.1C70,23,65.1,24.5,60.2,26.7"/>
		<path class="st14" d="M76.3,36.6c-2.6-13.2,9.4-23.7,12.8-26C79.9,12,68,23.9,76.3,36.6"/>
		<path class="st14" d="M96.1,21.6C100.6,12,98.4,6.1,92.1,0c0.4,1.4,1.6,6.4-2.5,7.5C92.5,9,96.1,17.4,96.1,21.6"/>
		<path class="st15" d="M86.5,5.8c2.9,9.5-11,11.3-10.5,25.5c2.1-8.8,15.8-11.3,13.1-20.8c2,0.1,4.8,2.6,5.9,5.8
			C95.7,12,91.3,7.1,86.5,5.8"/>
		<path class="st15" d="M64.7,43.8c-1.6,5.5,6.7,5.2,9.7,3.5C69.4,52.9,59.8,48.7,64.7,43.8"/>
		<path class="st15" d="M108.6,41.7c-1.2,1.2-3.5,1.7-5.5,1.2c0.7-0.3,1.2-0.8,1.4-1.4C105.7,41.9,107,42,108.6,41.7"/>
		<path class="st14" d="M71.2,40.4c-2.5,0.8-5.2,2.1-7.3,4.7c0.4-1,0.9-1.8,1.4-2.5c13.3-14.4,35.5,5.9,44.1-1.4
			c-2.2,5.1-17,1.8-24.1-0.1C80.8,39.6,75.9,39.5,71.2,40.4"/>
		<path class="st14" d="M95.1,62.5h-5.5c0-6.8,0-13.5,0-20.3c2.1,0.7,3.4,0.9,5.5,1V62.5z"/>
		<line class="st1" x1="94.7" y1="50.5" x2="94.7" y2="54.4"/>
		<path class="st14" d="M111.4,62.5L98.2,51.4l8.1-7.7c-1.6,0.5-3.5,0.8-5.1,0.7l-6.4,6v4.2l0.4,0.4l9.5,7.7h6.7V62.5z"/>
		<rect x="82.7" y="40.4" class="st14" width="5.4" height="22.1"/>
		<path class="st14" d="M80.8,58.3c0.1-2.6,0-11.3,0.1-17.3c-1.7-0.1-3.1-0.3-5.4-0.5c0,6,0.1,15,0,17.8c-0.7,2.9-5.1,2.4-7.3,0.1
			c-0.5,0.7-1,1.3-1.6,2c2.2,2,4.8,2.9,7.7,2.9C77.8,63.1,80.7,61,80.8,58.3"/>
		<text transform="matrix(1 0 0 1 69.2685 70.7311)" class="st15 st16 st17">J</text>
		<text transform="matrix(1 0 0 1 71.4477 70.7311)" class="st15 st16 st17">ALE TEZER </text>
		<text transform="matrix(1 0 0 1 69.998 75.0163)" class="st14 st16 st18">E</text>
		<text transform="matrix(1 0 0 1 72.1865 75.0163)" class="st14 st16 st18">ĞİTİM K</text>
		<text transform="matrix(1 0 0 1 86.5127 75.0163)" class="st14 st16 st18">UR</text>
		<text transform="matrix(1 0 0 1 91.5527 75.0163)" class="st14 st16 st18">UMLARI</text>
	</g>
	<g>
		<path class="st13" d="M7.8,124.9c0,1.2-0.1,2.1-0.3,2.8c-0.2,0.7-0.5,1.4-0.9,1.9c-0.5,0.7-1.2,1.3-2,1.8c-1,0.6-2.2,1.1-3.6,1.6
			l-0.8-2c0.7-0.3,1.1-0.6,1.5-0.8c0.3-0.3,0.5-0.5,0.7-0.8c0.1-0.3,0.2-0.7,0.3-1.1c0.1-0.4,0.1-1.1,0.1-1.9v-17.6
			c0-0.5,0-0.9,0-1.3c0-0.3-0.1-0.6-0.2-0.8c-0.1-0.2-0.3-0.4-0.5-0.5c-0.2-0.1-0.5-0.3-1-0.4v-1h8.4v1c-0.5,0.1-0.8,0.2-1,0.4
			c-0.2,0.1-0.4,0.3-0.5,0.5c-0.1,0.2-0.2,0.4-0.2,0.7c0,0.3-0.1,0.8-0.1,1.4L7.8,124.9L7.8,124.9z"/>
		<path class="st13" d="M22.9,119.9H16l-0.5,1.5c-0.2,0.4-0.3,0.8-0.4,1.2s-0.1,0.8-0.1,1.3c0,1,0.6,1.6,1.7,1.7v1.1H9.8v-1.1
			c0.4,0,0.7-0.2,1-0.4c0.3-0.2,0.6-0.6,0.8-1c0.2-0.4,0.5-1,0.8-1.8l6.7-17.9h4.3l5.3,18c0.2,0.8,0.4,1.4,0.6,1.7
			c0.2,0.3,0.4,0.6,0.6,0.8c0.3,0.2,0.6,0.4,1.1,0.5v1.1h-8.9v-1.1c0.6-0.1,1-0.2,1.2-0.5c0.3-0.2,0.4-0.6,0.4-1
			c0-0.3,0-0.7-0.1-1.1c-0.1-0.4-0.2-0.9-0.4-1.5L22.9,119.9z M16.7,118h5.8l-2.6-9L16.7,118z"/>
		<path class="st13" d="M41.4,104.8v1c-0.4,0.1-0.7,0.2-0.9,0.3c-0.2,0.1-0.4,0.3-0.5,0.5c-0.1,0.2-0.2,0.5-0.2,0.8
			c0,0.3-0.1,0.8-0.1,1.3v16h3.1c0.6,0,1.1-0.1,1.5-0.3c0.4-0.2,0.7-0.5,1-0.9s0.5-0.9,0.7-1.6c0.2-0.6,0.4-1.3,0.5-1.8h2.2
			l-0.4,6.5H32.9v-1.1c0.4-0.1,0.7-0.2,0.9-0.4c0.2-0.1,0.4-0.3,0.5-0.5c0.1-0.2,0.2-0.5,0.2-0.8c0-0.3,0-0.8,0-1.3v-13.7
			c0-0.5,0-0.9,0-1.3s-0.1-0.6-0.2-0.8c-0.1-0.2-0.3-0.4-0.5-0.5c-0.2-0.1-0.5-0.3-1-0.4v-1H41.4z"/>
		<path class="st13" d="M67,104.8v5.1h-2.2c-0.4-1-0.7-1.7-0.9-2.1c-0.2-0.4-0.5-0.6-0.9-0.9c-0.3-0.2-0.9-0.3-1.8-0.3h-3.5v7.7h2.1
			c0.5,0,0.8-0.1,1.1-0.2c0.3-0.1,0.5-0.4,0.7-0.7c0.2-0.3,0.3-0.8,0.5-1.4h1.8v6.5h-1.8c-0.1-0.6-0.3-1.1-0.5-1.4
			c-0.2-0.3-0.4-0.6-0.7-0.7c-0.3-0.1-0.6-0.2-1.1-0.2h-2.1v8.6h3.5c0.4,0,0.7,0,0.9-0.1c0.3,0,0.5-0.1,0.7-0.2
			c0.2-0.1,0.4-0.3,0.6-0.5c0.2-0.2,0.4-0.4,0.5-0.7c0.1-0.2,0.3-0.5,0.5-0.9s0.3-0.9,0.5-1.6h2.2l-0.3,5.9H51.1v-1.1
			c0.4-0.1,0.7-0.2,0.9-0.3c0.2-0.1,0.4-0.3,0.5-0.5c0.1-0.2,0.2-0.5,0.2-0.8c0-0.3,0-0.8,0-1.3v-13.9c0-0.5,0-0.9,0-1.3
			c0-0.3-0.1-0.6-0.2-0.8c-0.1-0.2-0.3-0.4-0.5-0.5c-0.2-0.1-0.5-0.3-1-0.4v-1H67z"/>
		<path class="st13" d="M81.9,126.7v-1.1c0.4-0.1,0.8-0.2,1.1-0.3s0.5-0.3,0.6-0.5c0.1-0.2,0.2-0.5,0.2-0.9c0-0.3,0-0.8,0-1.3v-16
			h-1.3c-0.6,0-1.1,0.1-1.5,0.2c-0.3,0.2-0.6,0.4-0.9,0.7c-0.3,0.3-0.5,0.8-0.7,1.3s-0.3,1.1-0.5,1.5h-2.2v-5.5h18.9v5.6h-2.2
			c-0.2-0.7-0.4-1.3-0.5-1.6c-0.1-0.3-0.2-0.6-0.4-0.9c-0.2-0.3-0.3-0.4-0.5-0.6c-0.2-0.2-0.3-0.3-0.5-0.4s-0.4-0.2-0.7-0.2
			s-0.6-0.1-1.1-0.1h-1.2v16c0,0.6,0,1,0,1.3c0,0.3,0.1,0.5,0.2,0.7c0.1,0.2,0.2,0.3,0.3,0.4s0.3,0.2,0.5,0.3s0.5,0.2,0.9,0.2v1.1
			h-8.5V126.7z"/>
		<path class="st13" d="M114.3,104.8v5.1h-2.2c-0.4-1-0.7-1.7-0.9-2.1c-0.2-0.4-0.5-0.6-0.9-0.9c-0.3-0.2-0.9-0.3-1.8-0.3h-3.4v7.7
			h2.1c0.5,0,0.8-0.1,1.1-0.2s0.5-0.4,0.7-0.7c0.2-0.3,0.3-0.8,0.5-1.4h1.8v6.5h-1.8c-0.1-0.6-0.3-1.1-0.5-1.4
			c-0.2-0.3-0.4-0.6-0.7-0.7c-0.3-0.1-0.6-0.2-1.1-0.2h-2.1v8.6h3.5c0.4,0,0.7,0,0.9-0.1c0.3,0,0.5-0.1,0.7-0.2
			c0.2-0.1,0.4-0.3,0.6-0.5c0.2-0.2,0.4-0.4,0.5-0.7c0.1-0.2,0.3-0.5,0.5-0.9s0.3-0.9,0.5-1.6h2.2l-0.3,5.9H98.4v-1.1
			c0.4-0.1,0.7-0.2,0.9-0.3s0.4-0.3,0.5-0.5c0.1-0.2,0.2-0.5,0.2-0.8c0-0.3,0-0.8,0-1.3v-13.9c0-0.5,0-0.9,0-1.3s-0.1-0.6-0.2-0.8
			c-0.1-0.2-0.3-0.4-0.5-0.5c-0.2-0.1-0.5-0.3-1-0.4v-1H114.3z"/>
		<path class="st13" d="M123,124.8h4.6c0.6,0,1.1-0.1,1.5-0.4c0.4-0.2,0.7-0.6,1-1.1s0.6-1.4,0.9-2.7h2.2v6.1h-16.1v-1.1l10.3-19
			H123c-0.7,0-1.3,0.1-1.7,0.4c-0.4,0.3-0.8,0.7-1,1.2c-0.3,0.6-0.5,1.3-0.8,2.3h-2.2v-5.7h15.9v1L123,124.8z"/>
		<path class="st13" d="M152,104.8v5.1h-2.2c-0.4-1-0.7-1.7-0.9-2.1c-0.2-0.4-0.5-0.6-0.9-0.9c-0.3-0.2-0.9-0.3-1.8-0.3h-3.5v7.7
			h2.1c0.5,0,0.8-0.1,1.1-0.2s0.5-0.4,0.7-0.7c0.2-0.3,0.3-0.8,0.5-1.4h1.8v6.5h-1.8c-0.1-0.6-0.3-1.1-0.5-1.4
			c-0.2-0.3-0.4-0.6-0.7-0.7c-0.3-0.1-0.6-0.2-1.1-0.2h-2.1v8.6h3.5c0.4,0,0.7,0,0.9-0.1c0.3,0,0.5-0.1,0.7-0.2
			c0.2-0.1,0.4-0.3,0.6-0.5c0.2-0.2,0.4-0.4,0.5-0.7c0.1-0.2,0.3-0.5,0.5-0.9s0.3-0.9,0.5-1.6h2.2l-0.3,5.9H136v-1.1
			c0.4-0.1,0.7-0.2,0.9-0.3s0.4-0.3,0.5-0.5c0.1-0.2,0.2-0.5,0.2-0.8c0-0.3,0-0.8,0-1.3v-13.9c0-0.5,0-0.9,0-1.3s-0.1-0.6-0.2-0.8
			c-0.1-0.2-0.3-0.4-0.5-0.5c-0.2-0.1-0.5-0.3-1-0.4v-1H152z"/>
		<path class="st13" d="M163.5,126.7h-8.4v-1.1c0.4-0.1,0.7-0.2,0.9-0.3s0.4-0.3,0.5-0.5c0.1-0.2,0.2-0.5,0.2-0.8c0-0.3,0-0.8,0-1.3
			v-13.9c0-0.5,0-0.9,0-1.3c0-0.3-0.1-0.6-0.2-0.8c-0.1-0.2-0.3-0.4-0.5-0.5c-0.2-0.1-0.5-0.3-1-0.4v-1h9.4c1.3,0,2.3,0.1,3.2,0.3
			c0.9,0.2,1.7,0.4,2.3,0.8c0.6,0.3,1,0.7,1.4,1.1c0.4,0.5,0.7,1,0.9,1.6s0.3,1.3,0.3,2.1c0,1.1-0.2,2-0.6,2.7
			c-0.4,0.8-0.9,1.4-1.5,1.9s-1.5,1-2.5,1.4v0.1c0.8,0.3,1.4,0.8,2,1.4c0.5,0.6,1,1.3,1.4,2.2l1,2.2c0.5,1,0.9,1.7,1.3,2.2
			s1,0.8,1.6,0.9v1.1h-6.1c-0.6-0.9-1.3-2.1-2.1-3.8l-1.3-2.7c-0.4-0.8-0.7-1.4-1-1.7c-0.3-0.3-0.5-0.6-0.8-0.7
			c-0.3-0.1-0.7-0.2-1.3-0.2h-0.9v5.2c0,0.8,0,1.4,0.1,1.7c0.1,0.3,0.2,0.6,0.4,0.8c0.2,0.2,0.6,0.4,1.2,0.5v0.8H163.5z
			 M161.7,106.7v8.9h1.6c0.9,0,1.6-0.1,2.1-0.3c0.6-0.2,1-0.6,1.3-1c0.3-0.4,0.6-0.9,0.7-1.5c0.1-0.6,0.2-1.2,0.2-1.8
			c0-1.5-0.3-2.5-1-3.3c-0.7-0.7-1.7-1.1-3.1-1.1C162.6,106.6,162,106.7,161.7,106.7z"/>
	</g>
	<g>
		<path class="st13" d="M9.4,136.6v2.9H8.1c-0.2-0.6-0.4-1-0.5-1.2s-0.3-0.4-0.5-0.5c-0.2-0.1-0.5-0.2-1-0.2h-2v4.4h1.2
			c0.3,0,0.5,0,0.6-0.1c0.2-0.1,0.3-0.2,0.4-0.4s0.2-0.5,0.3-0.8h1v3.8h-1c-0.1-0.4-0.2-0.6-0.3-0.8c-0.1-0.2-0.2-0.3-0.4-0.4
			c-0.1-0.1-0.4-0.1-0.7-0.1H4v4.9h2c0.2,0,0.4,0,0.5,0s0.3-0.1,0.4-0.1c0.1-0.1,0.2-0.2,0.3-0.3c0.1-0.1,0.2-0.2,0.3-0.4
			s0.2-0.3,0.3-0.5c0.1-0.2,0.2-0.5,0.3-0.9h1.3l-0.2,3.4H0.1v-0.6c0.2-0.1,0.4-0.1,0.5-0.2c0.1-0.1,0.2-0.2,0.3-0.3
			c0.1-0.1,0.1-0.3,0.1-0.5c0-0.2,0-0.4,0-0.7v-8c0-0.3,0-0.5,0-0.7s-0.1-0.4-0.1-0.5c-0.1-0.1-0.2-0.2-0.3-0.3
			c-0.1-0.1-0.3-0.1-0.6-0.2v-0.6h9.4V136.6z"/>
		<path class="st13" d="M20.7,137v2.6h-1.3c-0.1-0.5-0.3-0.9-0.5-1.2c-0.2-0.3-0.4-0.5-0.7-0.6c-0.3-0.1-0.7-0.2-1.1-0.2
			c-0.6,0-1.2,0.2-1.6,0.6c-0.5,0.4-0.8,1-1.1,1.8c-0.3,0.7-0.4,1.8-0.4,3c0,1.1,0.1,2,0.3,2.8c0.2,0.8,0.5,1.4,0.8,1.8
			c0.4,0.4,0.8,0.7,1.4,0.7c0.5,0,0.9-0.2,1.2-0.5c0.3-0.3,0.4-0.8,0.4-1.5v-0.4c0-0.5,0-0.8,0-1c0-0.2-0.1-0.3-0.1-0.4
			c-0.1-0.1-0.1-0.2-0.3-0.2c-0.1-0.1-0.3-0.1-0.6-0.2v-0.6h4.7v0.6c-0.3,0.1-0.5,0.2-0.6,0.3c-0.1,0.1-0.2,0.3-0.2,0.5
			s-0.1,0.5-0.1,0.8v3.5l-1.3,0.3l-0.6-0.7c-0.7,0.5-1.6,0.7-2.5,0.7c-1.8,0-3.1-0.5-4-1.6c-1-1.1-1.5-2.7-1.5-4.8
			c0-1.1,0.2-2.1,0.5-3c0.3-0.9,0.8-1.5,1.3-2.1c0.6-0.5,1.2-0.9,1.9-1.2c0.7-0.2,1.5-0.4,2.3-0.4C18.3,136.5,19.5,136.7,20.7,137z
			 M19.4,133c-0.2,0.9-0.6,1.5-1.1,1.9c-0.5,0.4-1.2,0.7-2,0.7c-0.8,0-1.4-0.2-1.9-0.7c-0.5-0.4-0.8-1.1-1-1.9l0.9-0.3
			c0.2,0.5,0.5,0.8,0.8,1.1s0.8,0.3,1.3,0.3c0.6,0,1-0.1,1.4-0.4c0.3-0.2,0.6-0.6,0.8-1L19.4,133z"/>
		<path class="st13" d="M27.1,146.9c0,0.2,0,0.4,0,0.6s0,0.3,0.1,0.5s0.1,0.2,0.2,0.3c0.1,0.1,0.2,0.1,0.3,0.2
			c0.1,0.1,0.3,0.1,0.5,0.2v0.6h-4.9v-0.6c0.2-0.1,0.4-0.1,0.5-0.2s0.2-0.2,0.3-0.3c0.1-0.1,0.1-0.3,0.1-0.5s0-0.4,0-0.7v-8
			c0-0.3,0-0.5,0-0.7c0-0.2-0.1-0.3-0.1-0.5c-0.1-0.1-0.2-0.2-0.3-0.3c-0.1-0.1-0.3-0.1-0.6-0.2v-0.6h4.9v0.6
			c-0.3,0.1-0.4,0.1-0.6,0.2c-0.1,0.1-0.2,0.2-0.3,0.3c-0.1,0.1-0.1,0.3-0.1,0.4c0,0.2,0,0.4,0,0.8V146.9z M26.9,133.2v2.3h-2.5
			v-2.3H26.9z"/>
		<path class="st13" d="M32.5,149.3v-0.6c0.3,0,0.5-0.1,0.6-0.2s0.3-0.2,0.3-0.3c0.1-0.1,0.1-0.3,0.1-0.5c0-0.2,0-0.4,0-0.7v-9.2
			h-0.7c-0.4,0-0.7,0-0.9,0.1c-0.2,0.1-0.4,0.2-0.5,0.4s-0.3,0.4-0.4,0.7s-0.2,0.6-0.3,0.9h-1.3v-3.2h10.9v3.2H39
			c-0.1-0.4-0.2-0.7-0.3-0.9c-0.1-0.2-0.1-0.4-0.2-0.5c-0.1-0.1-0.2-0.3-0.3-0.3c-0.1-0.1-0.2-0.2-0.3-0.2c0.1-0.2,0-0.2-0.2-0.2
			c-0.2,0-0.4,0-0.6,0h-0.7v9.2c0,0.3,0,0.6,0,0.7c0,0.1,0.1,0.3,0.1,0.4c0,0.1,0.1,0.2,0.2,0.3c0.1,0.1,0.2,0.1,0.3,0.2
			c0.1,0.1,0.3,0.1,0.5,0.1v0.6H32.5z"/>
		<path class="st13" d="M45.8,146.9c0,0.2,0,0.4,0,0.6s0,0.3,0.1,0.5s0.1,0.2,0.2,0.3c0.1,0.1,0.2,0.1,0.3,0.2
			c0.1,0.1,0.3,0.1,0.5,0.2v0.6H42v-0.6c0.2-0.1,0.4-0.1,0.5-0.2s0.2-0.2,0.3-0.3c0.1-0.1,0.1-0.3,0.1-0.5s0-0.4,0-0.7v-8
			c0-0.3,0-0.5,0-0.7c0-0.2-0.1-0.3-0.1-0.5c-0.1-0.1-0.2-0.2-0.3-0.3c-0.1-0.1-0.3-0.1-0.6-0.2v-0.6h4.9v0.6
			c-0.3,0.1-0.4,0.1-0.6,0.2s-0.2,0.1-0.2,0.3c-0.1,0.1-0.1,0.3-0.1,0.4c0,0.2,0,0.4,0,0.8L45.8,146.9L45.8,146.9z M45.6,133.2v2.3
			h-2.5v-2.3H45.6z"/>
		<path class="st13" d="M62.8,137.3c-0.3,0.1-0.5,0.2-0.7,0.3c-0.1,0.1-0.2,0.3-0.2,0.4c0,0.2-0.1,0.5-0.1,1v8c0,0.4,0,0.7,0.1,0.9
			c0,0.2,0.1,0.4,0.2,0.5c0.1,0.1,0.3,0.2,0.7,0.3v0.6h-4.7v-0.6c0.3-0.1,0.5-0.1,0.6-0.2c0.1-0.1,0.2-0.1,0.2-0.2
			c0.1-0.1,0.1-0.2,0.1-0.4c0-0.2,0-0.5,0-0.9v-4.5c0-0.5,0-1.1,0-1.8s0-1.2,0.1-1.4h-0.2c-0.1,0.2-0.2,0.5-0.2,0.7
			c-0.1,0.2-0.2,0.7-0.5,1.3l-2.5,6.7h-1.6l-2.6-7.5c-0.2-0.4-0.3-0.8-0.4-1.3H51c0.1,1,0.1,2.2,0.1,3.6v4.3c0,0.5,0,0.8,0.1,1
			c0,0.2,0.1,0.3,0.3,0.4s0.4,0.2,0.7,0.3v0.6h-3.5v-0.6c0.2-0.1,0.4-0.1,0.5-0.2c0.1-0.1,0.2-0.2,0.3-0.3c0.1-0.1,0.1-0.3,0.1-0.5
			c0-0.2,0-0.4,0-0.7v-8c0-0.5,0-0.8-0.1-1c0-0.2-0.1-0.3-0.2-0.4s-0.3-0.2-0.7-0.3v-0.6h4.6l2.6,7.6l2.8-7.6h4.3v0.5H62.8z"/>
		<path class="st13" d="M79.1,146.8c0.2,0.4,0.4,0.7,0.6,0.9c0.2,0.2,0.3,0.4,0.4,0.5c0.1,0.1,0.2,0.2,0.4,0.3
			c0.1,0.1,0.3,0.1,0.5,0.2v0.6h-5v-0.6c0.2,0,0.4-0.1,0.4-0.2s0.1-0.2,0.1-0.3c0-0.1,0-0.2,0-0.3c0-0.1-0.1-0.2-0.2-0.4
			c-0.1-0.2-0.3-0.5-0.6-1l-1.4-2.2c-0.2-0.3-0.3-0.5-0.4-0.6c-0.1-0.1-0.3-0.3-0.4-0.3c-0.1-0.1-0.3-0.1-0.5-0.1h-0.2v3.7
			c0,0.2,0,0.4,0,0.6s0,0.3,0.1,0.5c0,0.1,0.1,0.2,0.2,0.3c0.1,0.1,0.2,0.1,0.3,0.2c0.1,0.1,0.3,0.1,0.5,0.2v0.6H69v-0.6
			c0.2-0.1,0.4-0.1,0.5-0.2s0.2-0.2,0.3-0.3c0.1-0.1,0.1-0.3,0.1-0.5s0-0.4,0-0.7v-8c0-0.3,0-0.5,0-0.7c0-0.2-0.1-0.4-0.1-0.5
			c-0.1-0.1-0.2-0.2-0.3-0.3c-0.1-0.1-0.3-0.1-0.6-0.2v-0.6h4.9v0.6c-0.3,0.1-0.4,0.1-0.6,0.2c-0.1,0.1-0.2,0.2-0.3,0.3
			c-0.1,0.1-0.1,0.3-0.1,0.4s0,0.4,0,0.8v3.3H73c0.3,0,0.5,0,0.7-0.1c0.2-0.1,0.3-0.2,0.5-0.3c0.2-0.2,0.5-0.5,1-1.1
			c0.5-0.6,0.9-1,1.1-1.4c0.2-0.3,0.4-0.6,0.5-0.8c0.1-0.2,0.1-0.4,0.1-0.6s-0.1-0.4-0.2-0.5c-0.1-0.1-0.3-0.2-0.6-0.2v-0.6h4.7v0.6
			c-0.2,0-0.4,0.1-0.6,0.2c-0.2,0.1-0.4,0.2-0.6,0.4c-0.2,0.2-0.5,0.5-0.8,0.9L76,142L79.1,146.8z"/>
		<path class="st13" d="M89.6,139c0-0.5,0-0.8-0.1-1c0-0.2-0.1-0.3-0.2-0.4c-0.1-0.1-0.3-0.2-0.7-0.3v-0.6h4.1v0.6
			c-0.2,0.1-0.4,0.1-0.5,0.2s-0.2,0.2-0.3,0.3c-0.1,0.1-0.1,0.3-0.1,0.5s0,0.4,0,0.7v5.8c0,0.8-0.1,1.4-0.2,1.9
			c-0.1,0.5-0.3,0.9-0.6,1.3s-0.6,0.6-1,0.9c-0.4,0.2-0.8,0.4-1.3,0.5c-0.5,0.1-1,0.1-1.6,0.1c-0.9,0-1.6-0.1-2.2-0.3
			c-0.6-0.2-1.1-0.5-1.5-0.8c-0.4-0.4-0.7-0.8-0.8-1.3c-0.2-0.5-0.3-1.2-0.3-2v-6c0-0.3,0-0.5,0-0.7c0-0.2-0.1-0.4-0.1-0.5
			c-0.1-0.1-0.2-0.2-0.3-0.3c-0.1-0.1-0.3-0.1-0.6-0.2v-0.6h4.9v0.6c-0.3,0.1-0.4,0.1-0.6,0.2c-0.1,0.1-0.2,0.2-0.3,0.3
			c-0.1,0.1-0.1,0.3-0.1,0.4c0,0.2,0,0.4,0,0.8v6.1c0,0.5,0,0.9,0.1,1.3c0.1,0.4,0.2,0.7,0.3,1c0.2,0.3,0.4,0.5,0.7,0.7
			c0.3,0.2,0.7,0.2,1.1,0.2c0.6,0,1.1-0.1,1.4-0.4c0.3-0.3,0.5-0.6,0.7-1.1c0.1-0.5,0.2-1.1,0.2-2L89.6,139L89.6,139z"/>
		<path class="st13" d="M99.1,149.3h-4.9v-0.6c0.2-0.1,0.4-0.1,0.5-0.2c0.1-0.1,0.2-0.2,0.3-0.3c0.1-0.1,0.1-0.3,0.1-0.5
			c0-0.2,0-0.4,0-0.7v-8c0-0.3,0-0.5,0-0.7s-0.1-0.4-0.1-0.5c-0.1-0.1-0.2-0.2-0.3-0.3c-0.1-0.1-0.3-0.1-0.6-0.2v-0.6h5.4
			c0.7,0,1.3,0.1,1.9,0.2c0.5,0.1,1,0.3,1.3,0.5c0.3,0.2,0.6,0.4,0.8,0.7s0.4,0.6,0.5,0.9s0.2,0.8,0.2,1.2c0,0.6-0.1,1.1-0.3,1.6
			c-0.2,0.4-0.5,0.8-0.9,1.1c-0.4,0.3-0.8,0.6-1.4,0.8v0.1c0.5,0.2,0.8,0.5,1.1,0.8c0.3,0.3,0.6,0.7,0.8,1.3l0.6,1.3
			c0.3,0.6,0.5,1,0.8,1.3s0.6,0.5,0.9,0.5v0.6h-3.6c-0.4-0.5-0.8-1.2-1.2-2.2l-0.7-1.6c-0.2-0.5-0.4-0.8-0.6-1
			c-0.2-0.2-0.3-0.3-0.5-0.4c-0.2-0.1-0.4-0.1-0.8-0.1h-0.5v3c0,0.5,0,0.8,0.1,1c0,0.2,0.1,0.3,0.2,0.4c0.1,0.1,0.4,0.2,0.7,0.3v0.3
			H99.1z M98.1,137.7v5.1H99c0.5,0,0.9-0.1,1.2-0.2c0.3-0.1,0.6-0.3,0.8-0.6c0.2-0.2,0.3-0.5,0.4-0.8c0.1-0.3,0.1-0.7,0.1-1.1
			c0-0.8-0.2-1.5-0.6-1.9c-0.4-0.4-1-0.6-1.8-0.6C98.6,137.7,98.2,137.7,98.1,137.7z"/>
		<path class="st13" d="M114.3,139c0-0.5,0-0.8-0.1-1c0-0.2-0.1-0.3-0.2-0.4c-0.1-0.1-0.3-0.2-0.7-0.3v-0.6h4.1v0.6
			c-0.2,0.1-0.4,0.1-0.5,0.2s-0.2,0.2-0.3,0.3c-0.1,0.1-0.1,0.3-0.1,0.5s0,0.4,0,0.7v5.8c0,0.8-0.1,1.4-0.2,1.9
			c-0.1,0.5-0.3,0.9-0.6,1.3s-0.6,0.6-1,0.9c-0.4,0.2-0.8,0.4-1.3,0.5c-0.5,0.1-1,0.1-1.6,0.1c-0.9,0-1.6-0.1-2.2-0.3
			c-0.6-0.2-1.1-0.5-1.5-0.8c-0.4-0.4-0.7-0.8-0.8-1.3c-0.2-0.5-0.3-1.2-0.3-2v-6c0-0.3,0-0.5,0-0.7c0-0.2-0.1-0.4-0.1-0.5
			c-0.1-0.1-0.2-0.2-0.3-0.3c-0.1-0.1-0.3-0.1-0.6-0.2v-0.6h4.9v0.6c-0.3,0.1-0.4,0.1-0.6,0.2c-0.1,0.1-0.2,0.2-0.3,0.3
			c-0.1,0.1-0.1,0.3-0.1,0.4c0,0.2,0,0.4,0,0.8v6.1c0,0.5,0,0.9,0.1,1.3c0.1,0.4,0.2,0.7,0.3,1c0.2,0.3,0.4,0.5,0.7,0.7
			c0.3,0.2,0.7,0.2,1.1,0.2c0.6,0,1.1-0.1,1.4-0.4c0.3-0.3,0.5-0.6,0.7-1.1c0.1-0.5,0.2-1.1,0.2-2L114.3,139L114.3,139z"/>
		<path class="st13" d="M133.3,137.3c-0.3,0.1-0.5,0.2-0.7,0.3c-0.1,0.1-0.2,0.3-0.2,0.4c0,0.2-0.1,0.5-0.1,1v8c0,0.4,0,0.7,0.1,0.9
			c0,0.2,0.1,0.4,0.2,0.5c0.1,0.1,0.3,0.2,0.7,0.3v0.6h-4.7v-0.6c0.3-0.1,0.5-0.1,0.6-0.2c0.1-0.1,0.2-0.1,0.2-0.2
			c0.1-0.1,0.1-0.2,0.1-0.4c0-0.2,0-0.5,0-0.9v-4.5c0-0.5,0-1.1,0-1.8s0-1.2,0.1-1.4h-0.2c-0.1,0.2-0.2,0.5-0.2,0.7
			c-0.1,0.2-0.2,0.7-0.5,1.3l-2.5,6.7h-1.6l-2.6-7.5c-0.2-0.4-0.3-0.8-0.4-1.3h-0.2c0.1,1,0.1,2.2,0.1,3.6v4.3c0,0.5,0,0.8,0.1,1
			c0,0.2,0.1,0.3,0.3,0.4c0.1,0.1,0.4,0.2,0.7,0.3v0.6H119v-0.6c0.2-0.1,0.4-0.1,0.5-0.2c0.1-0.1,0.2-0.2,0.3-0.3
			c0.1-0.1,0.1-0.3,0.1-0.5c0-0.2,0-0.4,0-0.7v-8c0-0.5,0-0.8-0.1-1c0-0.2-0.1-0.3-0.2-0.4c-0.1-0.1-0.3-0.2-0.7-0.3v-0.6h4.6
			l2.6,7.6l2.8-7.6h4.3L133.3,137.3L133.3,137.3z"/>
		<path class="st13" d="M139.9,136.6v0.6c-0.2,0.1-0.4,0.1-0.5,0.2c-0.1,0.1-0.2,0.2-0.3,0.3c-0.1,0.1-0.1,0.3-0.1,0.5s0,0.4,0,0.7
			v9.2h1.8c0.4,0,0.6-0.1,0.9-0.2c0.2-0.1,0.4-0.3,0.6-0.5c0.2-0.2,0.3-0.5,0.4-0.9c0.1-0.4,0.2-0.7,0.3-1h1.3l-0.2,3.7H135v-0.6
			c0.2-0.1,0.4-0.1,0.5-0.2c0.1-0.1,0.2-0.2,0.3-0.3c0.1-0.1,0.1-0.3,0.1-0.5c0-0.2,0-0.4,0-0.7v-8c0-0.3,0-0.5,0-0.7
			s-0.1-0.4-0.1-0.5c-0.1-0.1-0.2-0.2-0.3-0.3c-0.1-0.1-0.3-0.1-0.6-0.2v-0.6H139.9z"/>
		<path class="st13" d="M152,145.4h-3.9l-0.3,0.9c-0.1,0.2-0.2,0.5-0.2,0.7c-0.1,0.2-0.1,0.5-0.1,0.7c0,0.6,0.3,0.9,1,1v0.6h-3.9
			v-0.6c0.2,0,0.4-0.1,0.6-0.2c0.2-0.1,0.3-0.3,0.5-0.6c0.1-0.2,0.3-0.6,0.5-1l3.9-10.3h2.5l3.1,10.4c0.1,0.5,0.3,0.8,0.3,1
			c0.1,0.2,0.2,0.4,0.4,0.5c0.1,0.1,0.4,0.2,0.6,0.3v0.6h-5.1v-0.6c0.3,0,0.6-0.1,0.7-0.3c0.2-0.1,0.2-0.3,0.2-0.6
			c0-0.2,0-0.4-0.1-0.6c0-0.2-0.1-0.5-0.2-0.9L152,145.4z M148.5,144.3h3.3l-1.5-5.2L148.5,144.3z"/>
		<path class="st13" d="M162.7,149.3h-4.9v-0.6c0.2-0.1,0.4-0.1,0.5-0.2c0.1-0.1,0.2-0.2,0.3-0.3c0.1-0.1,0.1-0.3,0.1-0.5
			c0-0.2,0-0.4,0-0.7v-8c0-0.3,0-0.5,0-0.7s-0.1-0.4-0.1-0.5c-0.1-0.1-0.2-0.2-0.3-0.3c-0.1-0.1-0.3-0.1-0.6-0.2v-0.6h5.4
			c0.7,0,1.3,0.1,1.9,0.2c0.5,0.1,1,0.3,1.3,0.5c0.3,0.2,0.6,0.4,0.8,0.7s0.4,0.6,0.5,0.9s0.2,0.8,0.2,1.2c0,0.6-0.1,1.1-0.3,1.6
			c-0.2,0.4-0.5,0.8-0.9,1.1c-0.4,0.3-0.8,0.6-1.4,0.8v0.1c0.5,0.2,0.8,0.5,1.1,0.8c0.3,0.3,0.6,0.7,0.8,1.3l0.6,1.3
			c0.3,0.6,0.5,1,0.8,1.3s0.6,0.5,0.9,0.5v0.6h-3.6c-0.4-0.5-0.8-1.2-1.2-2.2l-0.7-1.6c-0.2-0.5-0.4-0.8-0.6-1
			c-0.2-0.2-0.3-0.3-0.5-0.4c-0.2-0.1-0.4-0.1-0.8-0.1h-0.5v3c0,0.5,0,0.8,0.1,1c0,0.2,0.1,0.3,0.2,0.4c0.1,0.1,0.4,0.2,0.7,0.3v0.3
			H162.7z M161.7,137.7v5.1h0.9c0.5,0,0.9-0.1,1.2-0.2c0.3-0.1,0.6-0.3,0.8-0.6c0.2-0.2,0.3-0.5,0.4-0.8c0.1-0.3,0.1-0.7,0.1-1.1
			c0-0.8-0.2-1.5-0.6-1.9c-0.4-0.4-1-0.6-1.8-0.6C162.2,137.7,161.8,137.7,161.7,137.7z"/>
		<path class="st13" d="M174.2,146.9c0,0.2,0,0.4,0,0.6s0,0.3,0.1,0.5c0,0.1,0.1,0.2,0.2,0.3c0.1,0.1,0.2,0.1,0.3,0.2
			c0.1,0.1,0.3,0.1,0.5,0.2v0.6h-4.9v-0.6c0.2-0.1,0.4-0.1,0.5-0.2s0.2-0.2,0.3-0.3c0.1-0.1,0.1-0.3,0.1-0.5s0-0.4,0-0.7v-8
			c0-0.3,0-0.5,0-0.7c0-0.2-0.1-0.3-0.1-0.5c-0.1-0.1-0.2-0.2-0.3-0.3c-0.1-0.1-0.3-0.1-0.6-0.2v-0.6h4.9v0.6
			c-0.3,0.1-0.4,0.1-0.6,0.2s-0.2,0.2-0.3,0.3c-0.1,0.1-0.1,0.3-0.1,0.4c0,0.2,0,0.4,0,0.8L174.2,146.9L174.2,146.9z"/>
	</g>
</g>
</svg>
