<?xml version="1.0" encoding="utf-8"?>
<!-- Generator: Adobe Illustrator 19.2.1, SVG Export Plug-In . SVG Version: 6.00 Build 0)  -->
<svg version="1.1" id="Layer_1" xmlns="http://www.w3.org/2000/svg" xmlns:xlink="http://www.w3.org/1999/xlink" x="0px" y="0px"
	 viewBox="0 0 175 71.5" style="enable-background:new 0 0 175 71.5;" xml:space="preserve">
<style type="text/css">
	.st0{fill:#BBBDBF;}
	.st1{fill:none;stroke:#231F20;stroke-width:0.216;stroke-miterlimit:22.9256;}
	.st2{font-family:'FuturaBT-Bold';}
	.st3{font-size:4.1314px;}
	.st4{font-family:'FrizQuadrataTT';}
	.st5{font-size:4.1319px;}
	.st6{font-size:4.1315px;}
	.st7{font-size:4.1316px;}
	.st8{font-size:4.1311px;}
	.st9{font-size:4.1313px;}
	.st10{fill:#FFFFFF;}
	.st11{fill:#231F6F;}
	.st12{fill:#EC1C24;}
	.st13{font-family:'Cambria-Bold';}
	.st14{font-size:5.3805px;}
	.st15{font-size:2.945px;}
</style>
<g>
	<path class="st0" d="M22.7,69c18.5-8.4,25.9-29.4,20.8-49.3c-4.2-1.9-8.8-3.2-13.9-4.4c-0.5-0.1,0.3-3.4-0.8-5.3
		c-1.2-1.9-4.3-2.4-4.8-2.5c-1-0.1-2,6.7-3,6.6C13.6,14,9.4,16.2,1.3,19.7C-2.5,39.2,3,61.2,22.7,69"/>
	<path class="st0" d="M5.1,33c-1.2,4.2,5.1,4,7.4,2.7C8.7,39.8,1.3,36.7,5.1,33"/>
	<path class="st0" d="M38.6,31.3c-0.9,0.9-2.7,1.3-4.2,0.9c0.5-0.2,0.9-0.6,1.1-1.1C36.4,31.5,37.4,31.6,38.6,31.3"/>
	<path class="st0" d="M10,30.3c-2,0.6-4,1.6-5.7,3.7c0.4-0.9,0.7-1.5,1.2-2c10.2-11,27.1,4.5,33.7-1.1c-1.7,3.9-13,1.4-18.4-0.1
		C17.3,29.8,13.5,29.7,10,30.3"/>
	<path class="st0" d="M28.3,47.3h-4.2c0-5.2,0-10.3,0-15.5c1.6,0.5,2.6,0.7,4.2,0.8V47.3z"/>
	<line class="st1" x1="28" y1="38" x2="28" y2="41"/>
	<path class="st0" d="M40.7,47.2l-10.1-8.5l6.2-5.9c-1.2,0.4-2.7,0.6-3.9,0.5L28,37.9V41l0.3,0.3l7.3,5.9H40.7z"/>
	<rect x="18.8" y="30.3" class="st0" width="4.1" height="16.9"/>
	<path class="st0" d="M17.4,44.1c0.1-2,0-8.6,0.1-13.2c-1.3-0.1-2.4-0.2-4.1-0.4c0,4.6,0.1,11.5,0,13.6c-0.5,2.2-3.9,1.8-5.6,0.1
		c-0.4,0.5-0.8,1-1.2,1.5c1.7,1.5,3.7,2.2,5.9,2.2C15.1,47.7,17.3,46.1,17.4,44.1"/>
	<text transform="matrix(-0.1045 -0.9945 0.9945 -0.1045 44.8345 28.5124)" class="st0 st2 st3">İ</text>
	<text transform="matrix(-6.979728e-002 -0.9976 0.9976 -6.979728e-002 45.0311 29.7443)" class="st0 st4 st5">J</text>
	<text transform="matrix(-3.490000e-002 -0.9994 0.9994 -3.490000e-002 45.0128 31.9149)" class="st0 st4 st6">E</text>
	<text transform="matrix(0 -1 1 0 44.8837 34.0722)" class="st0 st4 st6">L</text>
	<text transform="matrix(8.720000e-002 -0.9962 0.9962 8.720000e-002 44.475 37.459)" class="st0 st4 st6">O</text>
	<text transform="matrix(0.1736 -0.9848 0.9848 0.1736 43.9549 39.6934)" class="st0 st4 st3">K</text>
	<text transform="matrix(0.1908 -0.9816 0.9816 0.1908 43.8414 40.9459)" class="st0 st4 st3"> </text>
	<text transform="matrix(0.2419 -0.9703 0.9703 0.2419 43.1654 43.3146)" class="st0 st4 st6">R</text>
	<text transform="matrix(0.2756 -0.9613 0.9613 0.2756 42.4449 45.379)" class="st0 st4 st7">E</text>
	<text transform="matrix(0.3584 -0.9336 0.9336 0.3584 41.3155 47.6604)" class="st0 st4 st7">Z</text>
	<text transform="matrix(0.3907 -0.9205 0.9205 0.3907 40.4272 49.7477)" class="st0 st4 st3">E</text>
	<text transform="matrix(0.4848 -0.8746 0.8746 0.4848 39.3801 51.668)" class="st0 st4 st3">T</text>
	<text transform="matrix(0.515 -0.8572 0.8572 0.515 38.8666 52.7881)" class="st0 st4 st6"> </text>
	<text transform="matrix(0.5592 -0.829 0.829 0.5592 37.5891 54.6133)" class="st0 st4 st3">E</text>
	<text transform="matrix(0.5878 -0.809 0.809 0.5878 36.2155 56.2562)" class="st0 st4 st6">L</text>
	<text transform="matrix(0.6691 -0.7431 0.7431 0.6691 33.9546 58.29)" class="st0 st4 st8">A</text>
	<text transform="matrix(0.7071 -0.7071 0.7071 0.7071 33.2092 59.1066)" class="st0 st4 st6">J</text>
	<text transform="matrix(-5.230164e-002 0.9986 -0.9986 -5.230164e-002 2.1079 28.5487)" class="st0 st4 st9">J</text>
	<text transform="matrix(0 1 -1 0 2.0225 29.7283)" class="st0 st4 st6">A</text>
	<text transform="matrix(5.230164e-002 0.9986 -0.9986 5.230164e-002 2.5649 32.2913)" class="st0 st4 st9">L</text>
	<text transform="matrix(8.720000e-002 0.9962 -0.9962 8.720000e-002 2.8038 34.3849)" class="st0 st4 st6">E</text>
	<text transform="matrix(0.1219 0.9925 -0.9925 0.1219 3.1241 36.535)" class="st0 st4 st8"> </text>
	<text transform="matrix(0.1564 0.9877 -0.9877 0.1564 3.0372 37.7416)" class="st0 st4 st6">T</text>
	<text transform="matrix(0.1908 0.9816 -0.9816 0.1908 3.4336 40.0076)" class="st0 st4 st3">E</text>
	<text transform="matrix(0.2588 0.9659 -0.9659 0.2588 3.9024 42.1625)" class="st0 st4 st3">Z</text>
	<text transform="matrix(0.2924 0.9563 -0.9563 0.2924 4.7874 44.509)" class="st0 st4 st6">E</text>
	<text transform="matrix(0.3746 0.9272 -0.9272 0.3746 5.5177 46.5795)" class="st0 st4 st7">R</text>
	<text transform="matrix(0.4226 0.9063 -0.9063 0.4226 6.5338 48.8464)" class="st0 st4 st6"> </text>
	<text transform="matrix(0.4695 0.8829 -0.8829 0.4695 6.7749 50.1175)" class="st0 st4 st3">K</text>
	<text transform="matrix(0.5446 0.8387 -0.8387 0.5446 8.0362 52.1093)" class="st0 st4 st6">O</text>
	<text transform="matrix(0.5878 0.809 -0.809 0.5878 9.9759 54.8894)" class="st0 st4 st6">L</text>
	<text transform="matrix(0.6691 0.7431 -0.7431 0.6691 11.4363 56.7066)" class="st0 st4 st8">E</text>
	<text transform="matrix(0.7071 0.7071 -0.7071 0.7071 12.9544 58.3576)" class="st0 st4 st6">J</text>
	<text transform="matrix(0.7431 0.6691 -0.6691 0.7431 13.7404 59.276)" class="st0 st2 st8">İ</text>
	<path class="st10" d="M24,69.4C42.5,61,49.9,40,44.8,20.1c-4.2-1.9-8.8-3.2-13.9-4.4c-0.5-0.1,0.3-3.4-0.8-5.3
		C28.8,8.5,25.7,8,25.2,8c-1-0.1-2,6.7-3,6.6c-7.3-0.3-11.5,1.9-19.6,5.4C-1.2,39.6,4.4,61.6,24,69.4"/>
	<path class="st11" d="M3.1,20.3c-3.8,19.2,1.7,41,21.1,48.7c18.2-8.2,25.5-29,20.5-48.7c-4.4-2-9.1-3.4-14-4.1
		c0.4-0.9,0.7-1.8,1-2.6c5.3,0.8,10.3,2.4,15,4.5c5.6,21.6-2.5,44.5-22.5,53.5C2.9,63.2-3.1,39.2,1,18.1c5.1-2.3,10.2-3.7,15.1-4.4
		c-0.7,0.9-1.4,2-1.8,3.1C10.6,17.5,6.9,18.6,3.1,20.3"/>
	<path class="st11" d="M15.4,27.9c-2-10.1,7.2-18.1,9.8-19.9C18.2,9.1,9.1,18.2,15.4,27.9"/>
	<path class="st11" d="M30.6,16.4C34,9.1,32.3,4.6,27.5-0.1c0.3,1.1,1.2,4.9-1.9,5.7C27.8,6.8,30.6,13.2,30.6,16.4"/>
	<path class="st12" d="M23.2,4.3c2.2,7.3-8.4,8.6-8,19.5c1.6-6.7,12.1-8.6,10-15.9c1.5,0.1,3.7,2,4.5,4.4
		C30.3,9.1,26.9,5.3,23.2,4.3"/>
	<path class="st12" d="M6.6,33.4c-1.2,4.2,5.1,4,7.4,2.7C10.2,40.3,2.8,37.1,6.6,33.4"/>
	<path class="st12" d="M40.1,31.8c-0.9,0.9-2.7,1.3-4.2,0.9c0.5-0.2,0.9-0.6,1.1-1.1C37.9,31.9,38.9,32,40.1,31.8"/>
	<path class="st11" d="M11.5,30.8c-1.9,0.6-4,1.6-5.6,3.6C6.2,33.6,6.6,33,7,32.5c10.2-11,27.1,4.5,33.7-1.1
		c-1.7,3.9-13,1.4-18.4-0.1C18.9,30.2,15.1,30.1,11.5,30.8"/>
	<path class="st11" d="M29.8,47.7h-4.2c0-5.2,0-10.3,0-15.5c1.6,0.5,2.6,0.7,4.2,0.8V47.7z"/>
	<line class="st1" x1="29.5" y1="38.5" x2="29.5" y2="41.5"/>
	<path class="st11" d="M42.3,47.7l-10.1-8.5l6.2-5.9c-1.2,0.4-2.7,0.6-3.9,0.5l-4.9,4.6v3.2l0.3,0.3l7.3,5.9L42.3,47.7L42.3,47.7z"
		/>
	<rect x="20.3" y="30.8" class="st11" width="4.1" height="16.9"/>
	<path class="st11" d="M18.9,44.5c0.1-2,0-8.6,0.1-13.2c-1.3-0.1-2.4-0.2-4.1-0.4c0,4.6,0.1,11.5,0,13.6c-0.5,2.2-3.9,1.8-5.6,0.1
		c-0.4,0.5-0.8,1-1.2,1.5c1.7,1.5,3.7,2.2,5.9,2.2C16.6,48.1,18.8,46.5,18.9,44.5"/>
	<text transform="matrix(1 0 0 1 10.0614 53.9666)" class="st12 st13 st14">J</text>
	<text transform="matrix(1 0 0 1 11.7275 53.9666)" class="st12 st13 st14">ALE TEZER </text>
	<text transform="matrix(1 0 0 1 10.6191 57.242)" class="st11 st13 st15">E</text>
	<text transform="matrix(1 0 0 1 12.2919 57.242)" class="st11 st13 st15">ĞİTİM K</text>
	<text transform="matrix(1 0 0 1 23.2431 57.242)" class="st11 st13 st15">UR</text>
	<text transform="matrix(1 0 0 1 27.0956 57.242)" class="st11 st13 st15">UMLARI</text>
</g>
<g>
	<path class="st11" d="M62.6,32.3c0,0.8-0.1,1.4-0.2,1.9c-0.1,0.5-0.3,0.9-0.6,1.3c-0.3,0.5-0.8,0.9-1.3,1.2
		c-0.7,0.4-1.5,0.7-2.4,1.1l-0.5-1.3c0.5-0.2,0.7-0.4,1-0.5c0.2-0.2,0.3-0.3,0.5-0.5c0.1-0.2,0.1-0.5,0.2-0.7
		c0.1-0.3,0.1-0.7,0.1-1.3V21.6c0-0.3,0-0.6,0-0.9c0-0.2-0.1-0.4-0.1-0.5c-0.1-0.1-0.2-0.3-0.3-0.3c-0.1-0.1-0.3-0.2-0.7-0.3v-0.7
		h5.6v0.7c-0.3,0.1-0.5,0.1-0.7,0.3c-0.1,0.1-0.3,0.2-0.3,0.3c-0.1,0.1-0.1,0.3-0.1,0.5s-0.1,0.5-0.1,0.9L62.6,32.3L62.6,32.3z"/>
	<path class="st11" d="M72.7,29h-4.6l-0.3,1c-0.1,0.3-0.2,0.5-0.3,0.8c-0.1,0.3-0.1,0.5-0.1,0.9c0,0.7,0.4,1.1,1.1,1.1v0.7h-4.6
		v-0.7c0.3,0,0.5-0.1,0.7-0.3s0.4-0.4,0.5-0.7c0.1-0.3,0.3-0.7,0.5-1.2l4.5-12H73l3.5,12c0.1,0.5,0.3,0.9,0.4,1.1s0.3,0.4,0.4,0.5
		c0.2,0.1,0.4,0.3,0.7,0.3v0.7h-5.9v-0.7c0.4-0.1,0.7-0.1,0.8-0.3c0.2-0.1,0.3-0.4,0.3-0.7c0-0.2,0-0.5-0.1-0.7
		c-0.1-0.3-0.1-0.6-0.3-1L72.7,29z M68.5,27.7h3.9l-1.7-6L68.5,27.7z"/>
	<path class="st11" d="M85,18.9v0.7c-0.3,0.1-0.5,0.1-0.6,0.2s-0.3,0.2-0.3,0.3S84,20.4,84,20.6c0,0.2-0.1,0.5-0.1,0.9v10.7H86
		c0.4,0,0.7-0.1,1-0.2c0.3-0.1,0.5-0.3,0.7-0.6c0.2-0.3,0.3-0.6,0.5-1.1c0.1-0.4,0.3-0.9,0.3-1.2h1.5l-0.3,4.3H79.4v-0.7
		c0.3-0.1,0.5-0.1,0.6-0.3c0.1-0.1,0.3-0.2,0.3-0.3c0.1-0.1,0.1-0.3,0.1-0.5c0-0.2,0-0.5,0-0.9v-9.2c0-0.3,0-0.6,0-0.9
		c0-0.3-0.1-0.4-0.1-0.5s-0.2-0.3-0.3-0.3c-0.1-0.1-0.3-0.2-0.7-0.3v-0.7H85z"/>
	<path class="st11" d="M102.2,18.9v3.4h-1.5c-0.3-0.7-0.5-1.1-0.6-1.4c-0.1-0.3-0.3-0.4-0.6-0.6c-0.2-0.1-0.6-0.2-1.2-0.2h-2.3v5.1
		h1.4c0.3,0,0.5-0.1,0.7-0.1c0.2-0.1,0.3-0.3,0.5-0.5s0.2-0.5,0.3-0.9h1.2v4.3h-1.2c-0.1-0.4-0.2-0.7-0.3-0.9
		c-0.1-0.2-0.3-0.4-0.5-0.5c-0.2-0.1-0.4-0.1-0.7-0.1h-1.4v5.7h2.3c0.3,0,0.5,0,0.6-0.1c0.2,0,0.3-0.1,0.5-0.1
		c0.1-0.1,0.3-0.2,0.4-0.3c0.1-0.1,0.3-0.3,0.3-0.5c0.1-0.1,0.2-0.3,0.3-0.6c0.1-0.3,0.2-0.6,0.3-1.1h1.5l-0.2,3.9H91.5v-0.7
		c0.3-0.1,0.5-0.1,0.6-0.2c0.1-0.1,0.3-0.2,0.3-0.3c0.1-0.1,0.1-0.3,0.1-0.5c0-0.2,0-0.5,0-0.9v-9.3c0-0.3,0-0.6,0-0.9
		c0-0.2-0.1-0.4-0.1-0.5s-0.2-0.3-0.3-0.3c-0.1-0.1-0.3-0.2-0.7-0.3v-0.7H102.2z"/>
	<path class="st11" d="M112.1,33.5v-0.7c0.3-0.1,0.5-0.1,0.7-0.2c0.2-0.1,0.3-0.2,0.4-0.3c0.1-0.1,0.1-0.3,0.1-0.6
		c0-0.2,0-0.5,0-0.9V20.1h-0.9c-0.4,0-0.7,0.1-1,0.1c-0.2,0.1-0.4,0.3-0.6,0.5c-0.2,0.2-0.3,0.5-0.5,0.9c-0.1,0.3-0.2,0.7-0.3,1
		h-1.5v-3.7h12.6v3.7h-1.5c-0.1-0.5-0.3-0.9-0.3-1.1c-0.1-0.2-0.1-0.4-0.3-0.6c-0.1-0.2-0.2-0.3-0.3-0.4c-0.1-0.1-0.2-0.2-0.3-0.3
		c-0.1-0.1-0.3-0.1-0.5-0.1s-0.4-0.1-0.7-0.1h-0.8v10.7c0,0.4,0,0.7,0,0.9c0,0.2,0.1,0.3,0.1,0.5c0.1,0.1,0.1,0.2,0.2,0.3
		s0.2,0.1,0.3,0.2c0.1,0.1,0.3,0.1,0.6,0.1v0.7L112.1,33.5L112.1,33.5z"/>
	<path class="st11" d="M133.8,18.9v3.4h-1.5c-0.3-0.7-0.5-1.1-0.6-1.4c-0.1-0.3-0.3-0.4-0.6-0.6c-0.2-0.1-0.6-0.2-1.2-0.2h-2.3v5.1
		h1.4c0.3,0,0.5-0.1,0.7-0.1c0.2-0.1,0.3-0.3,0.5-0.5s0.2-0.5,0.3-0.9h1.2v4.3h-1.2c-0.1-0.4-0.2-0.7-0.3-0.9
		c-0.1-0.2-0.3-0.4-0.5-0.5c-0.2-0.1-0.4-0.1-0.7-0.1h-1.4v5.7h2.3c0.3,0,0.5,0,0.6-0.1c0.2,0,0.3-0.1,0.5-0.1
		c0.1-0.1,0.3-0.2,0.4-0.3c0.1-0.1,0.3-0.3,0.3-0.5c0.1-0.1,0.2-0.3,0.3-0.6s0.2-0.6,0.3-1.1h1.5l-0.2,3.9h-10.6v-0.7
		c0.3-0.1,0.5-0.1,0.6-0.2c0.1-0.1,0.3-0.2,0.3-0.3c0.1-0.1,0.1-0.3,0.1-0.5c0-0.2,0-0.5,0-0.9v-9.3c0-0.3,0-0.6,0-0.9
		c0-0.3-0.1-0.4-0.1-0.5c-0.1-0.1-0.2-0.3-0.3-0.3c-0.1-0.1-0.3-0.2-0.7-0.3v-0.7H133.8z"/>
	<path class="st11" d="M139.6,32.3h3.1c0.4,0,0.7-0.1,1-0.3c0.3-0.1,0.5-0.4,0.7-0.7c0.2-0.3,0.4-0.9,0.6-1.8h1.5v4.1h-10.8v-0.7
		l6.9-12.7h-2.9c-0.5,0-0.9,0.1-1.1,0.3c-0.3,0.2-0.5,0.5-0.7,0.8c-0.2,0.4-0.3,0.9-0.5,1.5h-1.5v-3.8h10.6v0.7L139.6,32.3z"/>
	<path class="st11" d="M159,18.9v3.4h-1.5c-0.3-0.7-0.5-1.1-0.6-1.4s-0.3-0.4-0.6-0.6c-0.2-0.1-0.6-0.2-1.2-0.2h-2.3v5.1h1.4
		c0.3,0,0.5-0.1,0.7-0.1c0.2-0.1,0.3-0.3,0.5-0.5s0.2-0.5,0.3-0.9h1.2v4.3h-1.2c-0.1-0.4-0.2-0.7-0.3-0.9c-0.1-0.2-0.3-0.4-0.5-0.5
		c-0.2-0.1-0.4-0.1-0.7-0.1h-1.4v5.7h2.3c0.3,0,0.5,0,0.6-0.1c0.2,0,0.3-0.1,0.5-0.1c0.1-0.1,0.3-0.2,0.4-0.3
		c0.1-0.1,0.3-0.3,0.3-0.5c0.1-0.1,0.2-0.3,0.3-0.6s0.2-0.6,0.3-1.1h1.5l-0.2,3.9h-10.6v-0.7c0.3-0.1,0.5-0.1,0.6-0.2
		c0.1-0.1,0.3-0.2,0.3-0.3c0.1-0.1,0.1-0.3,0.1-0.5c0-0.2,0-0.5,0-0.9v-9.3c0-0.3,0-0.6,0-0.9c0-0.3-0.1-0.4-0.1-0.5
		c-0.1-0.1-0.2-0.3-0.3-0.3c-0.1-0.1-0.3-0.2-0.7-0.3v-0.7H159z"/>
	<path class="st11" d="M166.7,33.5H161v-0.7c0.3-0.1,0.5-0.1,0.6-0.2c0.1-0.1,0.3-0.2,0.3-0.3c0.1-0.1,0.1-0.3,0.1-0.5
		c0-0.2,0-0.5,0-0.9v-9.3c0-0.3,0-0.6,0-0.9c0-0.2-0.1-0.4-0.1-0.5s-0.2-0.3-0.3-0.3s-0.3-0.2-0.7-0.3v-0.7h6.3
		c0.9,0,1.5,0.1,2.1,0.2c0.6,0.1,1.1,0.3,1.5,0.5c0.4,0.2,0.7,0.5,0.9,0.7c0.3,0.3,0.5,0.7,0.6,1.1c0.1,0.4,0.2,0.9,0.2,1.4
		c0,0.7-0.1,1.3-0.4,1.8c-0.3,0.5-0.6,0.9-1,1.3s-1,0.7-1.7,0.9v0.1c0.5,0.2,0.9,0.5,1.3,0.9c0.3,0.4,0.7,0.9,0.9,1.5l0.7,1.5
		c0.3,0.7,0.6,1.1,0.9,1.5c0.3,0.3,0.7,0.5,1.1,0.6v0.7h-4.1c-0.4-0.6-0.9-1.4-1.4-2.5l-0.9-1.8c-0.3-0.5-0.5-0.9-0.7-1.1
		c-0.2-0.2-0.3-0.4-0.5-0.5c-0.2-0.1-0.5-0.1-0.9-0.1h-0.6V31c0,0.5,0,0.9,0.1,1.1c0.1,0.2,0.1,0.4,0.3,0.5c0.1,0.1,0.4,0.3,0.8,0.3
		L166.7,33.5L166.7,33.5z M165.5,20.2v5.9h1.1c0.6,0,1.1-0.1,1.4-0.2c0.4-0.1,0.7-0.4,0.9-0.7s0.4-0.6,0.5-1
		c0.1-0.4,0.1-0.8,0.1-1.2c0-1-0.2-1.7-0.7-2.2c-0.5-0.5-1.1-0.7-2.1-0.7C166.1,20.1,165.7,20.2,165.5,20.2z"/>
</g>
<g>
	<path class="st12" d="M63.7,40.2v1.9h-0.9c-0.1-0.4-0.3-0.7-0.3-0.8c-0.1-0.1-0.2-0.3-0.3-0.3c-0.1-0.1-0.3-0.1-0.7-0.1h-1.3v2.9
		H61c0.2,0,0.3,0,0.4-0.1c0.1-0.1,0.2-0.1,0.3-0.3c0.1-0.1,0.1-0.3,0.2-0.5h0.7v2.5h-0.7c-0.1-0.3-0.1-0.4-0.2-0.5
		c-0.1-0.1-0.1-0.2-0.3-0.3c-0.1-0.1-0.3-0.1-0.5-0.1h-0.8v3.3h1.3c0.1,0,0.3,0,0.3,0c0.1,0,0.2-0.1,0.3-0.1
		c0.1-0.1,0.1-0.1,0.2-0.2c0.1-0.1,0.1-0.1,0.2-0.3c0.1-0.1,0.1-0.2,0.2-0.3c0.1-0.1,0.1-0.3,0.2-0.6h0.9l-0.1,2.3h-6.1v-0.4
		c0.1-0.1,0.3-0.1,0.3-0.1C57.9,48,58,48,58,47.9c0.1-0.1,0.1-0.2,0.1-0.3s0-0.3,0-0.5v-5.3c0-0.2,0-0.3,0-0.5
		c0-0.1-0.1-0.3-0.1-0.3c-0.1-0.1-0.1-0.1-0.2-0.2c-0.1-0.1-0.2-0.1-0.4-0.1v-0.4L63.7,40.2L63.7,40.2z"/>
	<path class="st12" d="M71.3,40.4v1.7h-0.9c-0.1-0.3-0.2-0.6-0.3-0.8c-0.1-0.2-0.3-0.3-0.5-0.4c-0.2-0.1-0.5-0.1-0.7-0.1
		c-0.4,0-0.8,0.1-1.1,0.4c-0.3,0.3-0.5,0.7-0.7,1.2c-0.2,0.5-0.3,1.2-0.3,2c0,0.7,0.1,1.3,0.2,1.9c0.1,0.5,0.3,0.9,0.5,1.2
		c0.3,0.3,0.5,0.5,0.9,0.5c0.3,0,0.6-0.1,0.8-0.3c0.2-0.2,0.3-0.5,0.3-1v-0.3c0-0.3,0-0.5,0-0.7c0-0.1-0.1-0.2-0.1-0.3
		c-0.1-0.1-0.1-0.1-0.2-0.1c-0.1-0.1-0.2-0.1-0.4-0.1v-0.4H72v0.4c-0.2,0.1-0.3,0.1-0.4,0.2c-0.1,0.1-0.1,0.2-0.1,0.3
		c0,0.1-0.1,0.3-0.1,0.5v2.3l-0.9,0.2l-0.4-0.5c-0.5,0.3-1.1,0.5-1.7,0.5c-1.2,0-2.1-0.3-2.7-1.1c-0.7-0.7-1-1.8-1-3.2
		c0-0.7,0.1-1.4,0.3-2c0.2-0.6,0.5-1,0.9-1.4c0.4-0.3,0.8-0.6,1.3-0.8c0.5-0.1,1-0.3,1.5-0.3C69.7,40.1,70.5,40.2,71.3,40.4z
		 M70.4,37.8c-0.1,0.6-0.4,1-0.7,1.3c-0.3,0.3-0.8,0.5-1.3,0.5c-0.5,0-0.9-0.1-1.3-0.5c-0.3-0.3-0.5-0.7-0.7-1.3l0.6-0.2
		c0.1,0.3,0.3,0.5,0.5,0.7c0.2,0.2,0.5,0.2,0.9,0.2c0.4,0,0.7-0.1,0.9-0.3c0.2-0.1,0.4-0.4,0.5-0.7L70.4,37.8z"/>
	<path class="st12" d="M75.5,47c0,0.1,0,0.3,0,0.4c0,0.1,0,0.2,0.1,0.3c0.1,0.1,0.1,0.1,0.1,0.2c0.1,0.1,0.1,0.1,0.2,0.1
		c0.1,0.1,0.2,0.1,0.3,0.1v0.4H73v-0.4c0.1-0.1,0.3-0.1,0.3-0.1c0.1-0.1,0.1-0.1,0.2-0.2c0.1-0.1,0.1-0.2,0.1-0.3c0-0.1,0-0.3,0-0.5
		v-5.3c0-0.2,0-0.3,0-0.5c0-0.1-0.1-0.2-0.1-0.3c-0.1-0.1-0.1-0.1-0.2-0.2c-0.1-0.1-0.2-0.1-0.4-0.1v-0.4h3.3v0.4
		c-0.2,0.1-0.3,0.1-0.4,0.1c-0.1,0.1-0.1,0.1-0.2,0.2c-0.1,0.1-0.1,0.2-0.1,0.3c0,0.1,0,0.3,0,0.5V47z M75.4,37.9v1.5h-1.7v-1.5
		H75.4z"/>
	<path class="st12" d="M79.2,48.6v-0.4c0.2,0,0.3-0.1,0.4-0.1s0.2-0.1,0.2-0.2c0.1-0.1,0.1-0.2,0.1-0.3c0-0.1,0-0.3,0-0.5V41h-0.5
		c-0.3,0-0.5,0-0.6,0.1c-0.1,0.1-0.3,0.1-0.3,0.3s-0.2,0.3-0.3,0.5C78.1,42,78,42.2,78,42.4h-0.9v-2.1h7.3v2.1h-0.9
		c-0.1-0.3-0.1-0.5-0.2-0.6c-0.1-0.1-0.1-0.3-0.1-0.3c-0.1-0.1-0.1-0.2-0.2-0.2c-0.1-0.1-0.1-0.1-0.2-0.1c0.1-0.1,0-0.1-0.1-0.1
		c-0.1,0-0.3,0-0.4,0h-0.5v6.1c0,0.2,0,0.4,0,0.5s0.1,0.2,0.1,0.3c0,0.1,0.1,0.1,0.1,0.2c0.1,0.1,0.1,0.1,0.2,0.1
		c0.1,0.1,0.2,0.1,0.3,0.1v0.4H79.2z"/>
	<path class="st12" d="M88,47c0,0.1,0,0.3,0,0.4c0,0.1,0,0.2,0.1,0.3c0.1,0.1,0.1,0.1,0.1,0.2s0.1,0.1,0.2,0.1
		c0.1,0.1,0.2,0.1,0.3,0.1v0.4h-3.3v-0.4c0.1-0.1,0.3-0.1,0.3-0.1C85.9,48,86,48,86,47.9c0.1-0.1,0.1-0.2,0.1-0.3c0-0.1,0-0.3,0-0.5
		v-5.3c0-0.2,0-0.3,0-0.5c0-0.1-0.1-0.2-0.1-0.3c-0.1-0.1-0.1-0.1-0.2-0.2c-0.1-0.1-0.2-0.1-0.4-0.1v-0.4h3.3v0.4
		c-0.2,0.1-0.3,0.1-0.4,0.1c-0.1,0.1-0.1,0.1-0.1,0.2c-0.1,0.1-0.1,0.2-0.1,0.3c0,0.1,0,0.3,0,0.5L88,47L88,47z M87.9,37.9v1.5h-1.7
		v-1.5H87.9z"/>
	<path class="st12" d="M99.4,40.6c-0.2,0.1-0.3,0.1-0.5,0.2c-0.1,0.1-0.1,0.2-0.1,0.3c0,0.1-0.1,0.3-0.1,0.7v5.3
		c0,0.3,0,0.5,0.1,0.6c0,0.1,0.1,0.3,0.1,0.3c0.1,0.1,0.2,0.1,0.5,0.2v0.4h-3.1v-0.4c0.2-0.1,0.3-0.1,0.4-0.1
		c0.1-0.1,0.1-0.1,0.1-0.1c0.1-0.1,0.1-0.1,0.1-0.3s0-0.3,0-0.6v-3c0-0.3,0-0.7,0-1.2c0-0.5,0-0.8,0.1-0.9h-0.1
		c-0.1,0.1-0.1,0.3-0.1,0.5c-0.1,0.1-0.1,0.5-0.3,0.9l-1.7,4.5h-1.1l-1.7-5c-0.1-0.3-0.2-0.5-0.3-0.9h-0.1c0.1,0.7,0.1,1.5,0.1,2.4
		v2.9c0,0.3,0,0.5,0.1,0.7c0,0.1,0.1,0.2,0.2,0.3s0.3,0.1,0.5,0.2v0.4H90v-0.4c0.1-0.1,0.3-0.1,0.3-0.1s0.1-0.1,0.2-0.2
		c0.1-0.1,0.1-0.2,0.1-0.3s0-0.3,0-0.5v-5.3c0-0.3,0-0.5-0.1-0.7c0-0.1-0.1-0.2-0.1-0.3c-0.1-0.1-0.2-0.1-0.5-0.2v-0.4H93l1.7,5.1
		l1.9-5.1h2.9L99.4,40.6L99.4,40.6z"/>
	<path class="st12" d="M110.3,47c0.1,0.3,0.3,0.5,0.4,0.6c0.1,0.1,0.2,0.3,0.3,0.3c0.1,0.1,0.1,0.1,0.3,0.2c0.1,0.1,0.2,0.1,0.3,0.1
		v0.4h-3.3v-0.4c0.1,0,0.3-0.1,0.3-0.1s0.1-0.1,0.1-0.2c0-0.1,0-0.1,0-0.2c0-0.1-0.1-0.1-0.1-0.3c-0.1-0.1-0.2-0.3-0.4-0.7l-0.9-1.5
		c-0.1-0.2-0.2-0.3-0.3-0.4c-0.1-0.1-0.2-0.2-0.3-0.2c-0.1-0.1-0.2-0.1-0.3-0.1h-0.1v2.5c0,0.1,0,0.3,0,0.4s0,0.2,0.1,0.3
		c0,0.1,0.1,0.1,0.1,0.2c0.1,0.1,0.1,0.1,0.2,0.1c0.1,0.1,0.2,0.1,0.3,0.1v0.4h-3.3v-0.4c0.1-0.1,0.3-0.1,0.3-0.1
		c0.1-0.1,0.1-0.1,0.2-0.2c0.1-0.1,0.1-0.2,0.1-0.3c0-0.1,0-0.3,0-0.5v-5.3c0-0.2,0-0.3,0-0.5s-0.1-0.3-0.1-0.3
		c-0.1-0.1-0.1-0.1-0.2-0.2c-0.1-0.1-0.2-0.1-0.4-0.1v-0.4h3.3v0.4c-0.2,0.1-0.3,0.1-0.4,0.1c-0.1,0.1-0.1,0.1-0.2,0.2
		s-0.1,0.2-0.1,0.3s0,0.3,0,0.5V44h0.1c0.2,0,0.3,0,0.5-0.1c0.1-0.1,0.2-0.1,0.3-0.2c0.1-0.1,0.3-0.3,0.7-0.7
		c0.3-0.4,0.6-0.7,0.7-0.9c0.1-0.2,0.3-0.4,0.3-0.5c0.1-0.1,0.1-0.3,0.1-0.4s-0.1-0.3-0.1-0.3c-0.1-0.1-0.2-0.1-0.4-0.1v-0.4h3.1
		v0.4c-0.1,0-0.3,0.1-0.4,0.1c-0.1,0.1-0.3,0.1-0.4,0.3c-0.1,0.1-0.3,0.3-0.5,0.6l-1.9,2.1L110.3,47z"/>
	<path class="st12" d="M117.3,41.8c0-0.3,0-0.5-0.1-0.7c0-0.1-0.1-0.2-0.1-0.3c-0.1-0.1-0.2-0.1-0.5-0.2v-0.4h2.7v0.4
		c-0.1,0.1-0.3,0.1-0.3,0.1s-0.1,0.1-0.2,0.2s-0.1,0.2-0.1,0.3s0,0.3,0,0.5v3.9c0,0.5-0.1,0.9-0.1,1.3c-0.1,0.3-0.2,0.6-0.4,0.9
		c-0.2,0.3-0.4,0.4-0.7,0.6c-0.3,0.1-0.5,0.3-0.9,0.3c-0.3,0.1-0.7,0.1-1.1,0.1c-0.6,0-1.1-0.1-1.5-0.2c-0.4-0.1-0.7-0.3-1-0.5
		c-0.3-0.3-0.5-0.5-0.5-0.9c-0.1-0.3-0.2-0.8-0.2-1.3v-4c0-0.2,0-0.3,0-0.5s-0.1-0.3-0.1-0.3c-0.1-0.1-0.1-0.1-0.2-0.2
		c-0.1-0.1-0.2-0.1-0.4-0.1v-0.4h3.3v0.4c-0.2,0.1-0.3,0.1-0.4,0.1c-0.1,0.1-0.1,0.1-0.2,0.2s-0.1,0.2-0.1,0.3c0,0.1,0,0.3,0,0.5
		v4.1c0,0.3,0,0.6,0.1,0.9c0.1,0.3,0.1,0.5,0.2,0.7c0.1,0.2,0.3,0.3,0.5,0.5c0.2,0.1,0.5,0.1,0.7,0.1c0.4,0,0.7-0.1,0.9-0.3
		c0.2-0.2,0.3-0.4,0.5-0.7c0.1-0.3,0.1-0.7,0.1-1.3L117.3,41.8L117.3,41.8z"/>
	<path class="st12" d="M123.7,48.6h-3.3v-0.4c0.1-0.1,0.3-0.1,0.3-0.1c0.1-0.1,0.1-0.1,0.2-0.2c0.1-0.1,0.1-0.2,0.1-0.3
		c0-0.1,0-0.3,0-0.5v-5.3c0-0.2,0-0.3,0-0.5s-0.1-0.3-0.1-0.3c-0.1-0.1-0.1-0.1-0.2-0.2c-0.1-0.1-0.2-0.1-0.4-0.1v-0.4h3.6
		c0.5,0,0.9,0.1,1.3,0.1c0.3,0.1,0.7,0.2,0.9,0.3c0.2,0.1,0.4,0.3,0.5,0.5c0.1,0.2,0.3,0.4,0.3,0.6s0.1,0.5,0.1,0.8
		c0,0.4-0.1,0.7-0.2,1.1c-0.1,0.3-0.3,0.5-0.6,0.7c-0.3,0.2-0.5,0.4-0.9,0.5V45c0.3,0.1,0.5,0.3,0.7,0.5s0.4,0.5,0.5,0.9l0.4,0.9
		c0.2,0.4,0.3,0.7,0.5,0.9c0.2,0.2,0.4,0.3,0.6,0.3v0.4h-2.4c-0.3-0.3-0.5-0.8-0.8-1.5l-0.5-1.1c-0.1-0.3-0.3-0.5-0.4-0.7
		c-0.1-0.1-0.2-0.2-0.3-0.3c-0.1-0.1-0.3-0.1-0.5-0.1h-0.3v2c0,0.3,0,0.5,0.1,0.7c0,0.1,0.1,0.2,0.1,0.3c0.1,0.1,0.3,0.1,0.5,0.2
		v0.2H123.7z M123,40.9v3.4h0.6c0.3,0,0.6-0.1,0.8-0.1c0.2-0.1,0.4-0.2,0.5-0.4c0.1-0.1,0.2-0.3,0.3-0.5c0.1-0.2,0.1-0.5,0.1-0.7
		c0-0.5-0.1-1-0.4-1.3c-0.3-0.3-0.7-0.4-1.2-0.4C123.3,40.9,123.1,40.9,123,40.9z"/>
	<path class="st12" d="M133.8,41.8c0-0.3,0-0.5-0.1-0.7c0-0.1-0.1-0.2-0.1-0.3s-0.2-0.1-0.5-0.2v-0.4h2.7v0.4
		c-0.1,0.1-0.3,0.1-0.3,0.1c-0.1,0.1-0.1,0.1-0.2,0.2s-0.1,0.2-0.1,0.3s0,0.3,0,0.5v3.9c0,0.5-0.1,0.9-0.1,1.3s-0.2,0.6-0.4,0.9
		s-0.4,0.4-0.7,0.6c-0.3,0.1-0.5,0.3-0.9,0.3s-0.7,0.1-1.1,0.1c-0.6,0-1.1-0.1-1.5-0.2c-0.4-0.1-0.7-0.3-1-0.5
		c-0.3-0.3-0.5-0.5-0.5-0.9c-0.1-0.3-0.2-0.8-0.2-1.3v-4c0-0.2,0-0.3,0-0.5s-0.1-0.3-0.1-0.3c-0.1-0.1-0.1-0.1-0.2-0.2
		c-0.1-0.1-0.2-0.1-0.4-0.1v-0.4h3.3v0.4c-0.2,0.1-0.3,0.1-0.4,0.1c-0.1,0.1-0.1,0.1-0.2,0.2s-0.1,0.2-0.1,0.3c0,0.1,0,0.3,0,0.5
		v4.1c0,0.3,0,0.6,0.1,0.9c0.1,0.3,0.1,0.5,0.2,0.7c0.1,0.2,0.3,0.3,0.5,0.5c0.2,0.1,0.5,0.1,0.7,0.1c0.4,0,0.7-0.1,0.9-0.3
		s0.3-0.4,0.5-0.7c0.1-0.3,0.1-0.7,0.1-1.3L133.8,41.8L133.8,41.8z"/>
	<path class="st12" d="M146.5,40.6c-0.2,0.1-0.3,0.1-0.5,0.2c-0.1,0.1-0.1,0.2-0.1,0.3c0,0.1-0.1,0.3-0.1,0.7v5.3
		c0,0.3,0,0.5,0.1,0.6c0,0.1,0.1,0.3,0.1,0.3c0.1,0.1,0.2,0.1,0.5,0.2v0.4h-3.1v-0.4c0.2-0.1,0.3-0.1,0.4-0.1
		c0.1-0.1,0.1-0.1,0.1-0.1c0.1-0.1,0.1-0.1,0.1-0.3s0-0.3,0-0.6v-3c0-0.3,0-0.7,0-1.2c0-0.5,0-0.8,0.1-0.9h-0.1
		c-0.1,0.1-0.1,0.3-0.1,0.5c-0.1,0.1-0.1,0.5-0.3,0.9l-1.7,4.5h-1.1l-1.7-5c-0.1-0.3-0.2-0.5-0.3-0.9h-0.1c0.1,0.7,0.1,1.5,0.1,2.4
		v2.9c0,0.3,0,0.5,0.1,0.7c0,0.1,0.1,0.2,0.2,0.3c0.1,0.1,0.3,0.1,0.5,0.2v0.4H137v-0.4c0.1-0.1,0.3-0.1,0.3-0.1s0.1-0.1,0.2-0.2
		s0.1-0.2,0.1-0.3s0-0.3,0-0.5v-5.3c0-0.3,0-0.5-0.1-0.7c0-0.1-0.1-0.2-0.1-0.3c-0.1-0.1-0.2-0.1-0.5-0.2v-0.4h3.1l1.7,5.1l1.9-5.1
		h2.9L146.5,40.6L146.5,40.6z"/>
	<path class="st12" d="M150.9,40.2v0.4c-0.1,0.1-0.3,0.1-0.3,0.1c-0.1,0.1-0.1,0.1-0.2,0.2s-0.1,0.2-0.1,0.3s0,0.3,0,0.5v6.1h1.2
		c0.3,0,0.4-0.1,0.6-0.1c0.1-0.1,0.3-0.2,0.4-0.3c0.1-0.1,0.2-0.3,0.3-0.6c0.1-0.3,0.1-0.5,0.2-0.7h0.9l-0.1,2.5h-6.1v-0.4
		c0.1-0.1,0.3-0.1,0.3-0.1c0.1-0.1,0.1-0.1,0.2-0.2c0.1-0.1,0.1-0.2,0.1-0.3c0-0.1,0-0.3,0-0.5v-5.3c0-0.2,0-0.3,0-0.5
		s-0.1-0.3-0.1-0.3c-0.1-0.1-0.1-0.1-0.2-0.2c-0.1-0.1-0.2-0.1-0.4-0.1v-0.4H150.9z"/>
	<path class="st12" d="M159,46h-2.6l-0.2,0.6c-0.1,0.1-0.1,0.3-0.1,0.5c-0.1,0.1-0.1,0.3-0.1,0.5c0,0.4,0.2,0.6,0.7,0.7v0.4h-2.6
		v-0.4c0.1,0,0.3-0.1,0.4-0.1c0.1-0.1,0.2-0.2,0.3-0.4c0.1-0.1,0.2-0.4,0.3-0.7l2.6-6.9h1.7l2.1,7c0.1,0.3,0.2,0.5,0.2,0.7
		c0.1,0.1,0.1,0.3,0.3,0.3c0.1,0.1,0.3,0.1,0.4,0.2v0.4H159v-0.4c0.2,0,0.4-0.1,0.5-0.2c0.1-0.1,0.1-0.2,0.1-0.4
		c0-0.1,0-0.3-0.1-0.4c0-0.1-0.1-0.3-0.1-0.6L159,46z M156.7,45.3h2.2l-1-3.5L156.7,45.3z"/>
	<path class="st12" d="M166.2,48.6h-3.3v-0.4c0.1-0.1,0.3-0.1,0.3-0.1c0.1-0.1,0.1-0.1,0.2-0.2c0.1-0.1,0.1-0.2,0.1-0.3
		c0-0.1,0-0.3,0-0.5v-5.3c0-0.2,0-0.3,0-0.5s-0.1-0.3-0.1-0.3c-0.1-0.1-0.1-0.1-0.2-0.2c-0.1-0.1-0.2-0.1-0.4-0.1v-0.4h3.6
		c0.5,0,0.9,0.1,1.3,0.1c0.3,0.1,0.7,0.2,0.9,0.3s0.4,0.3,0.5,0.5c0.1,0.2,0.3,0.4,0.3,0.6s0.1,0.5,0.1,0.8c0,0.4-0.1,0.7-0.2,1.1
		c-0.1,0.3-0.3,0.5-0.6,0.7c-0.3,0.2-0.5,0.4-0.9,0.5V45c0.3,0.1,0.5,0.3,0.7,0.5s0.4,0.5,0.5,0.9l0.4,0.9c0.2,0.4,0.3,0.7,0.5,0.9
		c0.2,0.2,0.4,0.3,0.6,0.3v0.4h-2.4c-0.3-0.3-0.5-0.8-0.8-1.5l-0.5-1.1c-0.1-0.3-0.3-0.5-0.4-0.7c-0.1-0.1-0.2-0.2-0.3-0.3
		c-0.1-0.1-0.3-0.1-0.5-0.1h-0.3v2c0,0.3,0,0.5,0.1,0.7c0,0.1,0.1,0.2,0.1,0.3c0.1,0.1,0.3,0.1,0.5,0.2v0.2H166.2z M165.5,40.9v3.4
		h0.6c0.3,0,0.6-0.1,0.8-0.1c0.2-0.1,0.4-0.2,0.5-0.4c0.1-0.1,0.2-0.3,0.3-0.5c0.1-0.2,0.1-0.5,0.1-0.7c0-0.5-0.1-1-0.4-1.3
		c-0.3-0.3-0.7-0.4-1.2-0.4C165.9,40.9,165.6,40.9,165.5,40.9z"/>
	<path class="st12" d="M173.9,47c0,0.1,0,0.3,0,0.4c0,0.1,0,0.2,0.1,0.3c0,0.1,0.1,0.1,0.1,0.2s0.1,0.1,0.2,0.1s0.2,0.1,0.3,0.1v0.4
		h-3.3v-0.4c0.1-0.1,0.3-0.1,0.3-0.1c0.1-0.1,0.1-0.1,0.2-0.2c0.1-0.1,0.1-0.2,0.1-0.3c0-0.1,0-0.3,0-0.5v-5.3c0-0.2,0-0.3,0-0.5
		c0-0.1-0.1-0.2-0.1-0.3c-0.1-0.1-0.1-0.1-0.2-0.2c-0.1-0.1-0.2-0.1-0.4-0.1v-0.4h3.3v0.4c-0.2,0.1-0.3,0.1-0.4,0.1
		s-0.1,0.1-0.2,0.2c-0.1,0.1-0.1,0.2-0.1,0.3c0,0.1,0,0.3,0,0.5L173.9,47L173.9,47z"/>
</g>
</svg>
