<?xml version="1.0" encoding="utf-8"?>
<!-- Generator: Adobe Illustrator 24.0.1, SVG Export Plug-In . SVG Version: 6.00 Build 0)  -->
<svg version="1.1" id="Layer_1" xmlns="http://www.w3.org/2000/svg" xmlns:xlink="http://www.w3.org/1999/xlink" x="0px" y="0px"
	 width="153.1px" height="71.5px" viewBox="0 0 153.1 71.5" style="enable-background:new 0 0 153.1 71.5;" xml:space="preserve">
<style type="text/css">
	.st0{fill:#FFFFFF;}
	.st1{fill:#312A6F;}
	.st2{fill:#BD1D1D;}
	.st3{fill:#302B6F;}
</style>
<g>
	<g transform="matrix( 1, 0, 0, 1, 0.4,0.1) ">
		<g>
			<g id="Layer0_0_FILL">
				<path class="st0" d="M31.2,13.3c1.6-5.1,0.3-9.6-4.1-13.4C27.5,1,27.5,2.1,27.3,3c-0.2,0.9-0.6,1.6-1.2,2
					c-0.3,0.2-0.7,0.3-1.1,0.3c-0.7-0.6-1.5-1-2.3-1.2c0.5,1.5,0.6,2.9,0.3,4.2l-0.1,0.1c-1.3,0.5-2.6,1.1-3.8,1.9
					c-1.5,1.1-2.7,2.2-3.6,3.4c-4.8,0.7-9.8,2.1-14.9,4.3c-4.2,26.6,3.5,44.5,23.2,53.5c20-10.7,27.5-28.5,22.5-53.5
					C41.3,15.6,36.3,14.1,31.2,13.3z"/>
			</g>
		</g>
	</g>
	<g transform="matrix( 1, 0, 0, 1, 0.4,0.1) ">
		<g>
			<g id="Layer0_1_FILL">
				<path class="st1" d="M25,5.2c0.7,0.6,1.4,1.3,2,2.1c1.8,2.4,2.6,5.2,2.6,8.6c2,0.2,3.9,0.6,5.6,1c3,0.7,6,1.8,9,3.1
					c4.7,22.5-2.1,38.7-20.3,48.5C6.3,61.2-0.8,45,2.7,20c3.8-1.6,7.5-2.8,11.1-3.5c-1.4,4.8-0.9,8.5,1.5,11.2c-0.9-2.7-1-5-0.2-6.8
					c0.6-1.4,2.2-2.7,4.6-4.2c2.5-1.4,4-2.8,4.6-4.4c0.7-1.4,0.8-3,0.5-4.7c-2.1,0.5-4,1.3-5.7,2.5c-1.5,1.1-2.7,2.2-3.6,3.4
					c-4.8,0.7-9.8,2.1-14.9,4.3c-4.2,26.6,3.5,44.5,23.2,53.5c20-10.7,27.5-28.5,22.5-53.5c-5.1-2.3-10.1-3.8-15.1-4.5
					c1.6-5.1,0.3-9.6-4.1-13.4C27.5,1,27.5,2.1,27.3,3c-0.2,0.9-0.6,1.6-1.2,2C25.9,5.1,25.5,5.2,25,5.2z"/>
			</g>
		</g>
	</g>
	<g transform="matrix( 1, 0, 0, 1, 0.4,0.1) ">
		<g>
			<g id="Layer0_2_FILL">
				<path class="st2" d="M22.7,4c0.5,1.5,0.6,2.9,0.3,4.2c-0.3,1.4-1.4,2.9-3.1,4.4c-2,1.8-3.4,3.3-4.1,4.5c-1.1,2-1.5,4.4-1.2,7.3
					c0.3-1.3,0.8-2.5,1.5-3.7c0.9-1.4,2.4-2.9,4.6-4.4c2-1.4,3.2-2.7,3.8-3.9c0.6-1.4,0.7-2.9,0.5-4.7c1.3,0.5,2.4,1.3,3.3,2.3
					c0.5,0.5,0.8,0.9,0.9,1.3c-0.5-1.4-1.1-2.7-2-4c-0.7-0.9-1.4-1.6-2-2.1C24.3,4.7,23.5,4.3,22.7,4z"/>
			</g>
		</g>
	</g>
	<g transform="matrix( 1, 0, 0, 1, 0.4,0.1) ">
		<g>
			<g id="Layer0_3_FILL">
				<path class="st1" d="M29.6,48.6V34.1l-4.4-1l0.1,15.5H29.6z"/>
			</g>
		</g>
	</g>
	<g transform="matrix( 1, 0, 0, 1, 0.4,0.1) ">
		<g>
			<g id="Layer0_4_FILL">
				<path class="st2" d="M38.7,31.3c-0.6,0-1.1-0.2-1.5-0.4l-0.9,1c0.6,0.1,1.3,0.1,2.1,0c0.9-0.2,1.6-0.4,2.1-0.8
					C40,31.3,39.4,31.3,38.7,31.3z"/>
			</g>
		</g>
	</g>
	<g transform="matrix( 1, 0, 0, 1, 0.4,0.1) ">
		<g>
			<g id="Layer0_5_FILL">
				<path class="st1" d="M5.4,34.4c0.9-1,1.9-1.8,3-2.4c1.4-0.8,3-1.2,4.8-1.2c1.7-0.1,3.6,0,5.7,0.4c1.2,0.2,3.1,0.6,5.8,1.2
					c4.6,1.1,7.7,1.7,9.2,1.9c2.1,0.2,3.7-0.1,4.9-0.9c0.5-0.4,1-0.9,1.5-1.5c-0.5,0.3-1.1,0.5-1.7,0.6c-0.7,0.1-1.5,0.2-2.2,0.1
					c-1.1-0.1-3.5-0.6-7.3-1.6c-4-1-6.4-1.6-7.2-1.8c-2.9-0.7-5-1.1-6.1-1.2c-1.7-0.1-3.3,0.1-4.7,0.6C8.7,29.7,6.9,31.6,5.4,34.4z"
					/>
			</g>
		</g>
	</g>
	<g transform="matrix( 1, 0, 0, 1, 0.4,0.1) ">
		<g>
			<g id="Layer0_6_FILL">
				<path class="st1" d="M29.4,42.3l7.8,6.4l5.2-0.1l-10.4-8.8l5.9-5.6c-0.4,0.3-1,0.5-1.9,0.6c-0.8,0.1-1.6,0.1-2.2-0.1L29.4,39
					V42.3z"/>
			</g>
		</g>
	</g>
	<g transform="matrix( 1, 0, 0, 1, 0.4,0.1) ">
		<g>
			<g id="Layer0_7_FILL">
				<path class="st1" d="M19.9,31.2v17.4h4.2V31.2H19.9z"/>
			</g>
		</g>
	</g>
	<g transform="matrix( 1, 0, 0, 1, 0.4,0.1) ">
		<g>
			<g id="Layer0_8_FILL">
				<path class="st1" d="M18.5,31.7l-4.2-0.3l-0.1,13.9c-0.2,1.1-1,1.6-2.4,1.6c-1.3,0-2.4-0.5-3.3-1.5l-1.2,1.6
					c1.6,1.5,3.7,2.2,6.1,2.2c1.1,0,2.2-0.4,3.3-1.2c1.1-0.8,1.6-1.7,1.7-2.7l0.1-0.1L18.5,31.7z"/>
			</g>
		</g>
	</g>
	<g transform="matrix( 1, 0, 0, 1, 0.4,0.1) ">
		<g>
			<g id="Layer0_9_FILL">
				<path class="st2" d="M6.4,36.2c-0.2-0.6-0.1-1.2,0.2-2.1c-0.7,0.6-1.1,1.2-1.4,1.9c-0.3,0.7-0.3,1.3,0,1.8
					c0.4,0.8,1.6,1.1,3.7,1c1.4-0.1,2.6-0.6,3.6-1.4c-0.4,0.1-1,0.2-1.9,0.2C8.3,37.6,6.9,37.1,6.4,36.2z"/>
			</g>
		</g>
	</g>
	<g transform="matrix( 1, 0, 0, 1, 0.4,0.1) ">
		<g>
			<g id="Layer0_10_FILL">
				<path class="st2" d="M11,50.4h0.3v-0.2H9.7v0.2H10l0.1,0.1l0.1,0.1v2.9l-0.1,0.4L10,54.1l-0.2,0.2l-0.2,0.1H9.5v0.3h0.2l0.6-0.1
					l0.3-0.2l0.2-0.2l0.1-0.3l0.1-0.4v-2.9l0.1-0.1L11,50.4z"/>
			</g>
		</g>
	</g>
	<g transform="matrix( 1, 0, 0, 1, 0.4,0.1) ">
		<g>
			<g id="Layer0_11_FILL">
				<path class="st2" d="M14.7,53.2l-0.2-0.1L14.5,53l-0.1-0.2l-0.9-2.6h-0.6l-1,2.6l-0.2,0.3l-0.1,0.1h-0.2v0.2h1.2v-0.2h-0.3
					l-0.1-0.1v-0.2l0.2-0.5h1.1l0.2,0.5v0.1l0.1,0.1l-0.1,0.1v0.1l-0.1,0.1h-0.3v0.2h1.6v-0.2H14.7 M13,50.9l0.1,0.2l0.3,0.9h-0.9
					l0.3-0.8l0.1-0.2l0.2-0.5l0.1,0.2V50.9z"/>
			</g>
		</g>
	</g>
	<g transform="matrix( 1, 0, 0, 1, 0.4,0.1) ">
		<g>
			<g id="Layer0_12_FILL">
				<path class="st2" d="M17.6,52.4h-0.3l-0.1,0.3L17.2,53L17,53.1h-0.9v-2.4l0.1-0.2l0.1-0.1l0.1-0.1h0.3v-0.2h-1.6v0.2h0.3
					l0.1,0.1l0.1,0.1V53l-0.1,0.1l-0.1,0.1h-0.3v0.2h2.7V52.4z"/>
			</g>
		</g>
	</g>
	<g transform="matrix( 1, 0, 0, 1, 0.4,0.1) ">
		<g>
			<g id="Layer0_13_FILL">
				<path class="st2" d="M20.1,50.5l0.1,0.5h0.3v-0.8h-2.5v0.2h0.3l0.1,0.1l0.1,0.1V53l-0.1,0.1l-0.1,0.1h-0.3v0.2h2.6l0.1-0.8h-0.3
					l-0.1,0.2v0.2L20.2,53l-0.1,0.1h-1v-1.3h1.1v-0.3h-1.1v-1.1h0.8C20,50.4,20,50.5,20.1,50.5z"/>
			</g>
		</g>
	</g>
	<g transform="matrix( 1, 0, 0, 1, 0.4,0.1) ">
		<g>
			<g id="Layer0_14_FILL">
				<path class="st2" d="M24.9,50.5l0.1,0.1v0.1L25,51h0.3v-0.9h-2.9L22.4,51h0.3l0.1-0.3v-0.1l0.2-0.2h0.5V53l-0.1,0.1l-0.1,0.1H23
					v0.2h1.6v-0.2h-0.3l-0.1-0.1L24.2,53v-2.6h0.5L24.9,50.5z"/>
			</g>
		</g>
	</g>
	<g transform="matrix( 1, 0, 0, 1, 0.4,0.1) ">
		<g>
			<g id="Layer0_15_FILL">
				<path class="st2" d="M27.3,50.4c0.1,0,0.2,0,0.2,0.1c0.1,0.1,0.1,0.2,0.1,0.3V51H28L28,50.2h-2.5v0.2h0.3l0.1,0.1l0.1,0.1
					l0.1,0.2v2.2l-0.1,0.2l-0.1,0.1h-0.3v0.2h2.7l0.1-0.8h-0.3l-0.1,0.4L27.7,53l-0.1,0.1h-1v-1.3h1v-0.3h-1v-1.1H27.3z"/>
			</g>
		</g>
	</g>
	<g transform="matrix( 1, 0, 0, 1, 0.4,0.1) ">
		<g>
			<g id="Layer0_16_FILL">
				<path class="st2" d="M30.8,52.9l-0.2,0.2l-0.3,0.1h-1l1.7-2.8v-0.2h-2.4v0.9h0.3l0.1-0.3v-0.2l0.1-0.2l0.1-0.1h1.1l-1.7,2.8v0.2
					h2.6v-0.9h-0.3l-0.1,0.2V52.9z"/>
			</g>
		</g>
	</g>
	<g transform="matrix( 1, 0, 0, 1, 0.4,0.1) ">
		<g>
			<g id="Layer0_17_FILL">
				<path class="st2" d="M34,51v-0.8h-2.5v0.2h0.3l0.1,0.1v0.1l0.1,0.2v2.2L31.9,53v0.1l-0.1,0.1h-0.3v0.2h2.6l0.1-0.8h-0.3
					l-0.1,0.4l-0.1,0.2h-1v-1.3h1.1v-0.3h-1.1v-1.1h0.8c0.1,0,0.2,0,0.2,0.1l0.1,0.5H34z"/>
			</g>
		</g>
	</g>
	<g transform="matrix( 1, 0, 0, 1, 0.4,0.1) ">
		<g>
			<g id="Layer0_18_FILL">
				<path class="st2" d="M37,51.6l0.2-0.3l0.1-0.3c0-0.3-0.1-0.5-0.3-0.6c-0.2-0.1-0.5-0.2-0.9-0.2h-1.5v0.2h0.3l0.1,0.1l0.1,0.1V53
					l-0.1,0.1l-0.1,0.1h-0.3v0.2h1.6v-0.2h-0.3l-0.1-0.1l-0.1-0.2V52h0.3l0.6,1l0.2,0.2l0.2,0.1l0.3,0.1h0.5v-0.2l-0.2-0.1L37.2,53
					l-0.1-0.2l-0.5-0.9L37,51.6 M36.4,51l-0.1,0.5l-0.2,0.1l-0.3,0.1h-0.3v-1.3h0.5l0.2,0.2l0.1,0.2L36.4,51z"/>
			</g>
		</g>
	</g>
	<g transform="matrix( 1, 0, 0, 1, 0.4,0.1) ">
		<g>
			<g id="Layer0_19_FILL">
				<path class="st3" d="M11,55L11,55l0.1,1.5H11l-0.1,0.1h-0.2v0.1h1.5l0.1-0.4h-0.2v0.2L12,56.5H12l-0.1,0.1h-0.5v-0.7H12v-0.2
					h-0.6V55h0.4l0.2,0.1v0.2l0.1,0.1h0.2v-0.5h-1.4V55H11z"/>
			</g>
		</g>
	</g>
	<g transform="matrix( 1, 0, 0, 1, 0.4,0.1) ">
		<g>
			<g id="Layer0_20_FILL">
				<path class="st3" d="M13.5,54.5h-0.3l-0.1-0.2H13l0.1,0.2l0.1,0.1l0.1,0.1l0.2,0.1l0.2-0.1l0.2-0.2v-0.2h-0.2L13.5,54.5
					 M14.2,56v-0.2h-0.8V56l0.2,0.1l0.1,0.1v0.4l-0.1,0.1h-0.1l-0.3-0.1L13,56.3l-0.1-0.3v-0.6l0.1-0.2l0.2-0.2l0.2-0.1h0.2l0.1,0.1
					l0.1,0.1v0.1h0.2l0.1-0.1l0.1-0.1l0.1-0.1L14,55l-0.1-0.1l-0.2-0.1h-0.3L13,54.9l-0.3,0.2l-0.2,0.3l-0.1,0.4l0.1,0.4l0.2,0.3
					l0.3,0.2l0.4,0.1l0.3-0.1l0.3-0.1v-0.5l0.1-0.1H14.2z"/>
			</g>
		</g>
	</g>
	<g transform="matrix( 1, 0, 0, 1, 0.4,0.1) ">
		<g>
			<g id="Layer0_21_FILL">
				<path class="st3" d="M15.2,54.9h-0.9V55h0.2v0.1l0.1,0.1v1.2l-0.1,0.1v0.1l-0.1,0.1h-0.2v0.1h0.9v-0.1H15l-0.1-0.1v-1.4L15,55
					h0.2V54.9 M14.8,54.4h-0.2l-0.1,0.1v0.1l-0.1,0.1l0.1,0.1v0.1h0.1l0.1,0.1l0.1-0.1h0.1l0.1-0.1v-0.2L14.8,54.4z"/>
			</g>
		</g>
	</g>
	<g transform="matrix( 1, 0, 0, 1, 0.4,0.1) ">
		<g>
			<g id="Layer0_22_FILL">
				<path class="st3" d="M15.5,55.4v-0.3l0.1-0.1h0.1l0.1-0.1h0.2v1.4l-0.1,0.1h-0.2v0.1h0.9v-0.1h-0.2l-0.1-0.1v-0.1l-0.1-0.1V55
					h0.2l0.1,0.1h0.1l0.1,0.1v0.1l0.1,0.2h0.2v-0.5h-1.6l-0.1,0.5H15.5z"/>
			</g>
		</g>
	</g>
	<g transform="matrix( 1, 0, 0, 1, 0.4,0.1) ">
		<g>
			<g id="Layer0_23_FILL">
				<path class="st3" d="M17.8,54.9H17V55h0.2l0.1,0.1v1.4l-0.1,0.1v0.1H17v0.1h0.8v-0.1h-0.2l-0.1-0.1V55h0.2V54.9 M17.3,54.4
					l-0.1,0.1v0.2l0.1,0.1h0.1l0.1,0.1l0.1-0.1h0.1v-0.1l0.1-0.1l-0.1-0.1v-0.1l-0.1-0.1H17.3z"/>
			</g>
		</g>
	</g>
	<g transform="matrix( 1, 0, 0, 1, 0.4,0.1) ">
		<g>
			<g id="Layer0_24_FILL">
				<path class="st3" d="M20.1,54.9h-0.7L19,56.1l-0.4-1.2h-0.7V55h0.2l0.1,0.1v1.4h-0.1v0.1h-0.2v0.1h0.6v-0.1h-0.1l-0.1-0.1v-1.3
					l0.5,1.5H19l0.5-1.5v1.2l-0.1,0.1l-0.1,0.1h-0.1v0.1h0.8v-0.1H20l-0.1-0.1v-1.4L20,55h0.2V54.9z"/>
			</g>
		</g>
	</g>
	<g transform="matrix( 1, 0, 0, 1, 0.4,0.1) ">
		<g>
			<g id="Layer0_25_FILL">
				<path class="st3" d="M21.8,54.9H21V55h0.2l0.1,0.1v1.4h-0.1v0.1H21v0.1h0.8v-0.1h-0.2l-0.1-0.1V56l0.1-0.1l0.3,0.6l0.1,0.1
					l0.1,0.1h0.1l0.1,0.1h0.4v-0.1h-0.1l-0.1-0.1l-0.1-0.1l-0.1-0.1l-0.5-0.7l0.5-0.5l0.1-0.1h0.1v-0.2h-0.7V55h0.1l0.1,0.1v0.1
					l-0.1,0.1L22,55.3l-0.4,0.5V55h0.2V54.9z"/>
			</g>
		</g>
	</g>
	<g transform="matrix( 1, 0, 0, 1, 0.4,0.1) ">
		<g>
			<g id="Layer0_26_FILL">
				<path class="st3" d="M24.5,54.9h-0.6V55H24l0.1,0.1v1.2L24,56.4l-0.1,0.1l-0.2,0.1l-0.2-0.1l-0.1-0.1l-0.1-0.1l-0.1-0.2v-1
					l0.1-0.1h0.2v-0.2h-0.8V55h0.2v0.1l0.1,0.1v1.2l0.2,0.2l0.2,0.1l0.3,0.1l0.3-0.1l0.2-0.1l0.1-0.2l0.1-0.2V55h0.2V54.9z"/>
			</g>
		</g>
	</g>
	<g transform="matrix( 1, 0, 0, 1, 0.4,0.1) ">
		<g>
			<g id="Layer0_27_FILL">
				<path class="st3" d="M24.8,55L24.8,55l0.1,1.5h-0.1l-0.1,0.1h-0.2v0.1h0.9v-0.1h-0.2l-0.1-0.1h-0.1v-0.6h0.2l0.3,0.5l0.2,0.2
					h0.4v-0.1h-0.1l-0.1-0.1l-0.1-0.1l-0.3-0.5l0.2-0.1l0.1-0.1l0.1-0.1l0.1-0.2c0-0.1-0.1-0.2-0.2-0.3c-0.1-0.1-0.3-0.2-0.5-0.2
					h-0.8V55H24.8 M25.4,55l0.2,0.1l0.1,0.1l0.1,0.1l0.1,0.2l-0.1,0.2l-0.1,0.1l-0.1,0.1l-0.2,0.1h-0.2V55H25.4z"/>
			</g>
		</g>
	</g>
	<g transform="matrix( 1, 0, 0, 1, 0.4,0.1) ">
		<g>
			<g id="Layer0_28_FILL">
				<path class="st3" d="M27.1,54.9h-0.8V55h0.2v1.1l0.1,0.3l0.2,0.2l0.2,0.1l0.3,0.1l0.3-0.1l0.2-0.1l0.1-0.2l0.1-0.2V55h0.2v-0.2
					h-0.6V55h0.2l0.1,0.1v1.2l-0.1,0.1l-0.1,0.1l-0.2,0.1l-0.2-0.1L27,56.4L27,56.3l-0.1-0.2v-1L27,55h0.2V54.9z"/>
			</g>
		</g>
	</g>
	<g transform="matrix( 1, 0, 0, 1, 0.4,0.1) ">
		<g>
			<g id="Layer0_29_FILL">
				<path class="st3" d="M30.2,56.5V55h0.2v-0.2h-0.7l-0.4,1.2l-0.4-1.2h-0.7V55h0.2l0.1,0.1v1.4h-0.1l-0.1,0.1h-0.2v0.1h0.6v-0.1
					h-0.1l-0.1-0.1v-0.1l-0.1-0.1v-1.2l0.5,1.5h0.2l0.5-1.5v1.4h-0.1v0.1h-0.1v0.1h0.8v-0.1L30.2,56.5L30.2,56.5z"/>
			</g>
		</g>
	</g>
	<g transform="matrix( 1, 0, 0, 1, 0.4,0.1) ">
		<g>
			<g id="Layer0_30_FILL">
				<path class="st3" d="M30.7,55L30.7,55l0.1,1.4l-0.1,0.1v0.1h-0.2v0.1H32v-0.5h-0.2v0.2l-0.1,0.2l-0.1,0.1h-0.5V55h0.2v-0.2h-0.8
					V55H30.7z"/>
			</g>
		</g>
	</g>
	<g transform="matrix( 1, 0, 0, 1, 0.4,0.1) ">
		<g>
			<g id="Layer0_31_FILL">
				<path class="st3" d="M32.5,56.5v-0.1l0.1-0.1l0.1-0.2h0.6l0.1,0.3l0.1,0.1v0.1h-0.1l-0.1,0.1h-0.1v0.1H34v-0.1h-0.1l-0.1-0.1
					l-0.1-0.1l-0.5-1.5h-0.3l-0.6,1.5l-0.1,0.1v0.1l-0.1,0.1h-0.1v0.1h0.6v-0.1L32.5,56.5L32.5,56.5L32.5,56.5 M32.9,55.5l0.1-0.2
					v-0.1l0.1,0.1v0.1l0.1,0.1v0.1l0.2,0.4h-0.5L32.9,55.5L32.9,55.5z"/>
			</g>
		</g>
	</g>
	<g transform="matrix( 1, 0, 0, 1, 0.4,0.1) ">
		<g>
			<g id="Layer0_32_FILL">
				<path class="st3" d="M35.3,55.8l0.2-0.2v-0.2c0-0.1-0.1-0.2-0.2-0.3c-0.1-0.1-0.3-0.2-0.5-0.2H34V55h0.2v1.5l-0.1,0.1H34v0.1
					h0.8v-0.1h-0.2v-0.1h-0.1v-0.6h0.2l0.3,0.5l0.1,0.1l0.1,0.1h0.5v-0.1h-0.1l-0.1-0.1l-0.1-0.1l-0.3-0.5L35.3,55.8 M35.1,55.3v0.3
					L35,55.7l-0.2,0.1h-0.2V55h0.1l0.2,0.1l0.1,0.1L35.1,55.3z"/>
			</g>
		</g>
	</g>
	<g transform="matrix( 1, 0, 0, 1, 0.4,0.1) ">
		<g>
			<g id="Layer0_33_FILL">
				<path class="st3" d="M36,55L36,55l0.1,1.4L36,56.5v0.1h-0.2v0.1h0.8v-0.1h-0.2l-0.1-0.1V55h0.2v-0.2h-0.8V55H36z"/>
			</g>
		</g>
	</g>
	<g transform="matrix( 1, 0, 0, 1, 0.4,0.1) ">
		<g>
			<g id="Layer0_34_FILL">
				<path class="st2" d="M57.6,26.4v-0.9h-5.7v0.9h0.7l0.4,0.1c0.1,0,0.2,0.1,0.3,0.2c0.1,0.1,0.2,0.2,0.2,0.3l0.1,0.5v10
					c0,0.6-0.1,1.1-0.2,1.4c-0.1,0.3-0.2,0.7-0.5,0.9c-0.3,0.3-0.5,0.4-0.7,0.5c-0.2,0.1-0.5,0.2-0.8,0.2h-0.3v1l1.7-0.1l1-0.3
					c0.3-0.1,0.6-0.3,0.9-0.5c0.3-0.2,0.6-0.5,0.7-0.8c0.2-0.2,0.4-0.6,0.5-1c0.1-0.4,0.2-0.9,0.2-1.4v-9.9l0.1-0.6l0.2-0.3
					c0.1-0.1,0.2-0.2,0.3-0.2l0.4-0.1H57.6z"/>
			</g>
		</g>
	</g>
	<g transform="matrix( 1, 0, 0, 1, 0.4,0.1) ">
		<g>
			<g id="Layer0_35_FILL">
				<path class="st2" d="M58.8,36.3l-0.3,0.2l-0.4,0.1h-0.2v0.9h4.3v-0.9h-0.7l-0.3-0.1L61,36.4l-0.2-0.2l-0.1-0.3l0.1-0.5l0.6-1.9
					h4.1l0.7,2l0.1,0.4l-0.1,0.3l-0.2,0.2l-0.2,0.2h-0.9v0.9h5.5v-0.9H70l-0.4-0.1l-0.3-0.2c-0.1-0.2-0.2-0.3-0.3-0.4l-3.7-10.4H63
					l-3.9,10.4L58.8,36.3 M65.1,32.5h-3.3l1.8-5.2L65.1,32.5z"/>
			</g>
		</g>
	</g>
	<g transform="matrix( 1, 0, 0, 1, 0.4,0.1) ">
		<g>
			<g id="Layer0_36_FILL">
				<path class="st2" d="M74.9,27.5L75,27c0-0.1,0.1-0.2,0.2-0.3c0.1-0.1,0.2-0.2,0.3-0.2l0.4-0.1h0.7v-0.9h-5.7v0.9h0.7l0.4,0.1
					c0.1,0,0.2,0.1,0.3,0.2l0.2,0.3l0.1,0.6v7.9L72.2,36l-0.2,0.4l-0.3,0.2h-1v0.9h9.7l0.1-3.7h-0.9l-0.3,1.2
					c-0.1,0.5-0.3,0.8-0.5,1.1c-0.2,0.2-0.5,0.4-0.9,0.4h-3.1V27.5z"/>
			</g>
		</g>
	</g>
	<g transform="matrix( 1, 0, 0, 1, 0.4,0.1) ">
		<g>
			<g id="Layer0_37_FILL">
				<path class="st2" d="M88.6,26.6c0.3,0,0.6,0.1,0.7,0.3c0.2,0.2,0.3,0.5,0.3,0.9l0.1,0.8h1.1l-0.1-3.1h-9.2v0.9h0.7l0.3,0.1
					c0.1,0,0.2,0.1,0.3,0.2c0.1,0,0.1,0.1,0.2,0.3l0.1,0.6v8L83.1,36c-0.1,0.2-0.1,0.3-0.2,0.3l-0.3,0.2h-1v0.9h9.7l0.2-3h-1.1
					L90,35.6L89.8,36l-0.3,0.3l-0.4,0.1h-3.3v-4.7h3.9v-1h-3.9v-4.2H88.6z"/>
			</g>
		</g>
	</g>
	<g transform="matrix( 1, 0, 0, 1, 0.4,0.1) ">
		<g>
			<g id="Layer0_38_FILL">
				<path class="st2" d="M99.6,26.6l1.9-0.1v8.9l-0.1,0.5l-0.2,0.4l-0.3,0.2h-1v0.9h5.8v-0.9h-1l-0.3-0.2l-0.2-0.4l-0.1-0.5v-8.9
					l1.9,0.1l0.4,0.3l0.3,0.4l0.2,1.5h1.1l-0.1-3.2H97.7l-0.1,3.2h1.1l0.2-1.5l0.3-0.4L99.6,26.6z"/>
			</g>
		</g>
	</g>
	<g transform="matrix( 1, 0, 0, 1, 0.4,0.1) ">
		<g>
			<g id="Layer0_39_FILL">
				<path class="st2" d="M115.7,26.6c0.3,0,0.6,0.1,0.7,0.3c0.2,0.2,0.3,0.5,0.3,0.9l0.1,0.8h1.1l-0.1-3.1h-9.2v0.9h0.7l0.4,0.1
					l0.3,0.2l0.2,0.3l0.1,0.6v8l-0.1,0.5l-0.2,0.3l-0.3,0.2h-1v0.9h9.7l0.1-3h-1.1l-0.3,1.2L117,36l-0.3,0.3l-0.4,0.1h-3.3v-4.7h3.9
					v-1h-3.9v-4.2H115.7z"/>
			</g>
		</g>
	</g>
	<g transform="matrix( 1, 0, 0, 1, 0.4,0.1) ">
		<g>
			<g id="Layer0_40_FILL">
				<path class="st2" d="M128.2,34l-0.2,1.4c-0.1,0.2-0.2,0.4-0.3,0.5c-0.1,0.1-0.3,0.3-0.5,0.4c-0.2,0.1-0.5,0.2-0.8,0.2h-3.5
					l6.2-10v-0.9h-8.9l-0.1,3.4h1.2l0.2-1.5c0.1-0.2,0.1-0.4,0.2-0.5c0.1-0.1,0.2-0.2,0.4-0.3l0.6-0.1h3.3l-6.2,10v0.8h9.6l0.1-3.4
					H128.2z"/>
			</g>
		</g>
	</g>
	<g transform="matrix( 1, 0, 0, 1, 0.4,0.1) ">
		<g>
			<g id="Layer0_41_FILL">
				<path class="st2" d="M137.6,26.6c0.3,0,0.6,0.1,0.7,0.3c0.2,0.2,0.3,0.5,0.3,0.9l0.1,0.8h1.1l-0.1-3.1h-9.2v0.9h0.7l0.3,0.1
					l0.3,0.2l0.2,0.3l0.1,0.6v8l-0.1,0.5c-0.1,0.2-0.1,0.3-0.2,0.3l-0.3,0.2h-1v0.9h9.7l0.2-3h-1.1l-0.3,1.2l-0.2,0.4l-0.3,0.3
					l-0.4,0.1h-3.3v-4.7h3.9v-1h-3.9v-4.2H137.6z"/>
			</g>
		</g>
	</g>
	<g transform="matrix( 1, 0, 0, 1, 0.4,0.1) ">
		<g>
			<g id="Layer0_42_FILL">
				<path class="st2" d="M141.4,25.6v0.9h0.7l0.3,0.1l0.3,0.2l0.2,0.3l0.1,0.5v8l-0.1,0.5l-0.2,0.3l-0.3,0.2h-1v0.9h5.7v-0.9h-1
					l-0.3-0.2c-0.1,0-0.1-0.1-0.2-0.3l-0.1-0.5v-3.3h1.1l2,3.7l0.6,0.7c0.2,0.2,0.5,0.4,0.7,0.5l0.9,0.2l1.9,0.1v-0.9h-0.1l-0.4-0.1
					l-0.4-0.3l-0.4-0.4l-2.4-4c0.3-0.1,0.6-0.3,0.8-0.5c0.2-0.1,0.5-0.3,0.7-0.6c0.2-0.3,0.4-0.6,0.5-0.9c0.1-0.3,0.2-0.7,0.2-1.1
					c0-1-0.4-1.8-1.1-2.3c-0.7-0.6-1.8-0.8-3.4-0.8H141.4 M145.6,31.3v-4.8h0.9c0.4,0,0.7,0.1,0.9,0.2c0.2,0,0.5,0.2,0.6,0.4
					c0.2,0.2,0.3,0.4,0.4,0.7c0.1,0.2,0.1,0.6,0.1,1.1c0,0.5,0,0.8-0.1,1c0,0.3-0.1,0.6-0.3,0.8c-0.1,0.2-0.3,0.4-0.6,0.5
					c-0.2,0.1-0.6,0.2-0.9,0.2H145.6z"/>
			</g>
		</g>
	</g>
	<g transform="matrix( 1, 0, 0, 1, 0.4,0.1) ">
		<g>
			<g id="Layer0_43_FILL">
				<path class="st3" d="M58,43.4h1.5c0.2,0,0.3,0.1,0.4,0.2l0.2,0.5l0.1,0.5h0.6l-0.1-1.7h-5v0.5h0.6l0.2,0.1l0.1,0.2v4.9l-0.1,0.2
					l-0.2,0.1h-0.6v0.5H61l0.1-1.7h-0.6l-0.2,0.7l-0.1,0.2l-0.2,0.2l-0.3,0.1H58v-2.5h2.1v-0.5H58V43.4z"/>
			</g>
		</g>
	</g>
	<g transform="matrix( 1, 0, 0, 1, 0.4,0.1) ">
		<g>
			<g id="Layer0_44_FILL">
				<path class="st3" d="M67.3,43.4L66.9,43l-0.7-0.2l-1-0.1c-0.5,0-1,0.1-1.5,0.3c-0.4,0.1-0.7,0.4-1,0.7c-0.2,0.2-0.5,0.6-0.6,1
					c-0.1,0.3-0.2,0.7-0.2,1.3c0,0.5,0.1,1,0.2,1.4c0.1,0.4,0.3,0.8,0.6,1c0.3,0.3,0.7,0.5,1,0.7c0.5,0.2,0.9,0.3,1.5,0.3l1.1-0.1
					l1.1-0.4V47l0.1-0.2l0.2-0.1l0.3-0.1H68v-0.5h-2.8v0.5h0.1c0.2,0,0.4,0.1,0.5,0.2c0.1,0.1,0.2,0.3,0.2,0.5v1.3l-0.4,0.1h-0.3
					c-0.4,0-0.7-0.1-0.9-0.2c-0.3-0.2-0.5-0.3-0.6-0.5c-0.2-0.3-0.3-0.6-0.3-0.9c-0.1-0.2-0.1-0.6-0.1-1.1c0-0.5,0-0.9,0.1-1.1
					c0.1-0.3,0.2-0.6,0.3-0.8c0.1-0.2,0.3-0.4,0.6-0.5c0.2-0.1,0.5-0.2,0.8-0.2l0.5,0.1c0.1,0,0.2,0.1,0.4,0.3l0.2,0.4l0.1,0.5
					l0.5-0.1l0.4-0.2l0.2-0.2l0.1-0.3C67.4,43.6,67.4,43.5,67.3,43.4 M63.6,40.9l0.1,0.5l0.3,0.4l0.5,0.4l0.6,0.1l0.6-0.1
					c0.2-0.1,0.3-0.3,0.4-0.4c0,0,0.1-0.2,0.3-0.4l0.1-0.5h-0.6c0,0.2-0.1,0.4-0.3,0.5c-0.1,0.1-0.3,0.2-0.5,0.2
					c-0.2,0-0.4-0.1-0.6-0.2c-0.1-0.1-0.2-0.2-0.3-0.5H63.6z"/>
			</g>
		</g>
	</g>
	<g transform="matrix( 1, 0, 0, 1, 0.4,0.1) ">
		<g>
			<g id="Layer0_45_FILL">
				<path class="st3" d="M69.3,41.5l0.1,0.3l0.2,0.2l0.3,0.2h0.6l0.3-0.2l0.2-0.2l0.1-0.3l-0.1-0.3L70.6,41l-0.3-0.2h-0.6L69.5,41
					l-0.2,0.2L69.3,41.5 M68.5,43.3h0.6l0.1,0.1l0.1,0.2l0.1,0.3v4.3l-0.1,0.3l-0.1,0.2l-0.1,0.1h-0.6v0.5h3.1v-0.5h-0.6l-0.2-0.1
					l-0.1-0.2l-0.1-0.3v-4.3l0.1-0.3l0.1-0.2l0.2-0.1h0.6v-0.5h-3.1V43.3z"/>
			</g>
		</g>
	</g>
	<g transform="matrix( 1, 0, 0, 1, 0.4,0.1) ">
		<g>
			<g id="Layer0_46_FILL">
				<path class="st3" d="M72,42.8L72,44.6h0.6l0.1-0.8l0.1-0.2l0.3-0.2l0.3-0.1h0.7v4.8L74,48.5L74,48.7l-0.2,0.1h-0.6v0.5h3.1v-0.5
					h-0.6l-0.2-0.1l-0.1-0.2l-0.1-0.3v-4.8h0.7l0.4,0.1l0.2,0.2l0.2,0.2l0.1,0.8h0.6v-1.7H72z"/>
			</g>
		</g>
	</g>
	<g transform="matrix( 1, 0, 0, 1, 0.4,0.1) ">
		<g>
			<g id="Layer0_47_FILL">
				<path class="st3" d="M78,43.3h0.6l0.2,0.1l0.1,0.2l0.1,0.3v4.3l-0.1,0.3l-0.1,0.2l-0.2,0.1H78v0.5h3.1v-0.5h-0.6l-0.2-0.1
					l-0.1-0.2v-4.9l0.1-0.2l0.2-0.1h0.6v-0.5H78V43.3 M79.8,40.9h-0.6L79,41l-0.2,0.2l-0.1,0.3l0.1,0.3L79,42l0.3,0.2h0.6l0.3-0.2
					l0.2-0.2l0.1-0.3l-0.1-0.3L80.1,41L79.8,40.9z"/>
			</g>
		</g>
	</g>
	<g transform="matrix( 1, 0, 0, 1, 0.4,0.1) ">
		<g>
			<g id="Layer0_48_FILL">
				<path class="st3" d="M89,43.3h0.6v-0.5h-2.5l-1.4,4.3l-1.5-4.3h-2.6v0.5h0.6l0.2,0.1l0.1,0.2v4.9l-0.1,0.2l-0.2,0.1h-0.6v0.5
					h2.2v-0.5h-0.3l-0.2-0.1l-0.2-0.2l-0.1-0.3v-4.5l1.9,5.5h0.6l1.8-5.5v4.8l-0.1,0.2l-0.2,0.1h-0.3v0.5h2.9v-0.5H89l-0.1-0.1
					l-0.1-0.2l-0.1-0.3v-4.3l0.1-0.3l0.1-0.2L89,43.3z"/>
			</g>
		</g>
	</g>
	<g transform="matrix( 1, 0, 0, 1, 0.4,0.1) ">
		<g>
			<g id="Layer0_49_FILL">
				<path class="st3" d="M93,48.8h-0.5v0.5h3.1v-0.5H95l-0.2-0.1l-0.1-0.2l-0.1-0.3v-1.5l0.4-0.3l1.4,2.3l0.2,0.2l0.3,0.2l0.8,0.2
					h1.1v-0.5h-0.1l-0.3-0.1l-0.3-0.1L98,48.4l-1.9-3l1.8-1.9l0.3-0.2l0.4-0.1v-0.5h-2.4v0.5l0.4,0.1l0.1,0.2l-0.1,0.4l-0.2,0.3
					L94.7,46v-2.1l0.1-0.3l0.1-0.2l0.2-0.1h0.5v-0.5h-3.1v0.5H93l0.2,0.1l0.1,0.2l0.1,0.3v4.4l-0.1,0.3l-0.1,0.2L93,48.8z"/>
			</g>
		</g>
	</g>
	<g transform="matrix( 1, 0, 0, 1, 0.4,0.1) ">
		<g>
			<g id="Layer0_50_FILL">
				<path class="st3" d="M98.9,43.3h0.6l0.2,0.1l0.1,0.2l0.1,0.3v3.5c0,0.4,0.1,0.7,0.2,0.9c0.1,0.3,0.3,0.5,0.5,0.6
					c0.2,0.1,0.4,0.3,0.8,0.4l1.1,0.1c0.4,0,0.7-0.1,1-0.2c0.2,0,0.5-0.2,0.7-0.4c0.2-0.2,0.3-0.4,0.4-0.6c0.1-0.2,0.2-0.5,0.2-0.8
					v-3.8l0.1-0.2l0.2-0.1h0.6v-0.5H103v0.5h0.5l0.2,0.1l0.1,0.2l0.1,0.3v3.5l-0.1,0.6l-0.3,0.4l-0.4,0.2l-0.5,0.1l-0.6-0.1
					l-0.4-0.2l-0.3-0.4l-0.1-0.6v-3.5l0.1-0.3l0.1-0.2l0.1-0.1h0.6v-0.5h-3.1V43.3z"/>
			</g>
		</g>
	</g>
	<g transform="matrix( 1, 0, 0, 1, 0.4,0.1) ">
		<g>
			<g id="Layer0_51_FILL">
				<path class="st3" d="M105.8,43.3h0.5l0.2,0.1l0.1,0.2l0.1,0.3v4.4l-0.1,0.3l-0.1,0.2l-0.2,0.1h-0.5v0.5h3.1v-0.5h-0.6l-0.1-0.1
					l-0.1-0.2l-0.1-0.3v-1.8h0.6l1.1,2l0.3,0.4c0.1,0.1,0.2,0.2,0.4,0.3l0.5,0.2h1v-0.5h-0.1l-0.3-0.1l-0.2-0.1l-0.4-0.6l-1.1-1.9
					l0.5-0.2l0.4-0.4l0.3-0.5l0.1-0.6c0-0.6-0.2-1-0.6-1.2c-0.4-0.3-1-0.4-1.9-0.4h-2.9V43.3 M109,43.4c0.1,0,0.2,0.1,0.4,0.3
					c0.1,0.1,0.2,0.2,0.2,0.4l0.1,0.6l-0.1,0.6l-0.2,0.4l-0.3,0.3l-0.5,0.1H108v-2.6L109,43.4z"/>
			</g>
		</g>
	</g>
	<g transform="matrix( 1, 0, 0, 1, 0.4,0.1) ">
		<g>
			<g id="Layer0_52_FILL">
				<path class="st3" d="M111.9,43.3h0.6l0.2,0.1l0.1,0.2v3.7c0,0.4,0.1,0.7,0.2,0.9c0.2,0.3,0.3,0.5,0.5,0.6
					c0.2,0.1,0.4,0.3,0.8,0.4l1,0.1c0.4,0,0.7-0.1,1-0.2c0.3,0,0.5-0.2,0.7-0.4c0.2-0.1,0.3-0.3,0.4-0.6c0.1-0.1,0.1-0.4,0.1-0.8
					v-3.5l0.1-0.3l0.1-0.2l0.2-0.1h0.6v-0.5h-2.4v0.5h0.6l0.2,0.1l0.1,0.2v3.8l-0.1,0.6l-0.3,0.4l-0.4,0.2l-0.6,0.1l-0.5-0.1
					l-0.4-0.2c0,0-0.1-0.2-0.3-0.4l-0.1-0.6v-3.8l0.1-0.2l0.2-0.1h0.6v-0.5h-3.1V43.3z"/>
			</g>
		</g>
	</g>
	<g transform="matrix( 1, 0, 0, 1, 0.4,0.1) ">
		<g>
			<g id="Layer0_53_FILL">
				<path class="st3" d="M126.2,43.3h0.6v-0.5h-2.5l-1.4,4.3l-1.5-4.3h-2.6v0.5h0.6l0.2,0.1l0.1,0.2v4.9l-0.1,0.2l-0.2,0.1h-0.6v0.5
					h2.2v-0.5h-0.3l-0.2-0.1l-0.2-0.2l-0.1-0.3v-4.5l1.9,5.5h0.6l1.8-5.5v4.8l-0.1,0.2l-0.2,0.1h-0.3v0.5h2.9v-0.5h-0.6l-0.2-0.1
					l-0.1-0.2l-0.1-0.3v-4.3l0.1-0.3l0.1-0.2L126.2,43.3z"/>
			</g>
		</g>
	</g>
	<g transform="matrix( 1, 0, 0, 1, 0.4,0.1) ">
		<g>
			<g id="Layer0_54_FILL">
				<path class="st3" d="M130.3,43.3v-0.5h-3.1v0.5h0.5l0.2,0.1l0.1,0.2l0.1,0.3v4.3l-0.1,0.3l-0.1,0.2l-0.2,0.1h-0.5v0.5h5.2l0.1-2
					H132l-0.1,0.7l-0.3,0.6c-0.1,0.1-0.3,0.2-0.5,0.2h-1.7v-4.9l0.1-0.3l0.1-0.2l0.2-0.1H130.3z"/>
			</g>
		</g>
	</g>
	<g transform="matrix( 1, 0, 0, 1, 0.4,0.1) ">
		<g>
			<g id="Layer0_55_FILL">
				<path class="st3" d="M134.6,47.9l0.2-0.7h2.2l0.4,1v0.2l-0.1,0.2l-0.1,0.1l-0.2,0.1h-0.5v0.5h3v-0.5h-0.2l-0.2-0.1l-0.2-0.1
					l-0.2-0.2l-2-5.6h-1.2l-2.1,5.6l-0.2,0.2l-0.4,0.1h-0.1v0.5h2.3v-0.5h-0.6l-0.2-0.2l-0.1-0.2l0.1-0.3L134.6,47.9 M136,43.8
					l0.1,0.3l0.8,2.5H135L136,43.8z"/>
			</g>
		</g>
	</g>
	<g transform="matrix( 1, 0, 0, 1, 0.4,0.1) ">
		<g>
			<g id="Layer0_56_FILL">
				<path class="st3" d="M144.6,43.3c-0.4-0.3-1-0.4-1.9-0.4h-2.9v0.5h0.5l0.2,0.1l0.1,0.2l0.1,0.3v4.4l-0.1,0.3l-0.1,0.2l-0.2,0.1
					h-0.5v0.5h3.1v-0.5h-0.5l-0.2-0.1l-0.1-0.2l-0.1-0.3v-1.8h0.6l1,2l0.3,0.4c0.1,0.1,0.2,0.2,0.4,0.3l0.6,0.2h1v-0.5h-0.1
					l-0.3-0.1l-0.2-0.1l-0.4-0.6l-1.1-1.9l0.5-0.2l0.4-0.4l0.3-0.5l0.1-0.6C145.2,43.9,145,43.5,144.6,43.3 M142.1,43.4l1,0.1
					l0.4,0.3c0.1,0,0.1,0.2,0.2,0.4l0.1,0.6l-0.1,0.6l-0.2,0.4c-0.1,0.1-0.2,0.2-0.3,0.3l-0.5,0.1h-0.5V43.4z"/>
			</g>
		</g>
	</g>
	<g transform="matrix( 1, 0, 0, 1, 0.4,0.1) ">
		<g>
			<g id="Layer0_57_FILL">
				<path class="st3" d="M146.2,43.3h0.6l0.2,0.1l0.1,0.2l0.1,0.3v4.3l-0.1,0.3l-0.1,0.2l-0.2,0.1h-0.6v0.5h3.1v-0.5h-0.6l-0.2-0.1
					l-0.1-0.2l-0.1-0.3v-4.3l0.1-0.3l0.1-0.2l0.2-0.1h0.6v-0.5h-3.1V43.3z"/>
			</g>
		</g>
	</g>
</g>
</svg>
