<?xml version="1.0" encoding="utf-8"?>
<!-- Generator: Adobe Illustrator 24.0.1, SVG Export Plug-In . SVG Version: 6.00 Build 0)  -->
<svg version="1.1" id="Layer_1" xmlns="http://www.w3.org/2000/svg" xmlns:xlink="http://www.w3.org/1999/xlink" x="0px" y="0px"
	 width="121.2px" height="134px" viewBox="0 0 121.2 134" style="enable-background:new 0 0 121.2 134;" xml:space="preserve">
<style type="text/css">
	.st0{fill:#FFFFFF;}
	.st1{fill:#312A6F;}
	.st2{fill:#BD1D1D;}
	.st3{fill:#302B6F;}
</style>
<g>
	<g>
		<g transform="matrix( 1, 0, 0, 1, 0.4,0.1) ">
			<g>
				<g id="Layer0_0_FILL">
					<path class="st0" d="M68.7,23.7C70.5,18,69,12.9,64.1,8.6c0.4,1.3,0.4,2.4,0.2,3.4c-0.2,1.1-0.6,1.8-1.3,2.2
						c-0.3,0.2-0.7,0.4-1.3,0.4C60.9,14,60,13.5,59,13.2c0.5,1.7,0.7,3.3,0.4,4.7L59.3,18c-1.5,0.5-2.9,1.2-4.3,2.2
						c-1.7,1.2-3,2.5-4,3.9c-5.4,0.8-11,2.4-16.7,4.8c-4.7,29.9,4,50,26,60.2c22.5-12,30.9-32.1,25.3-60.2
						C80,26.2,74.3,24.5,68.7,23.7z"/>
				</g>
			</g>
		</g>
		<g transform="matrix( 1, 0, 0, 1, 0.4,0.1) ">
			<g>
				<g id="Layer0_1_FILL">
					<path class="st1" d="M61.7,14.6c0.8,0.7,1.6,1.5,2.3,2.3c2,2.6,3,5.9,3,9.6c2.3,0.3,4.3,0.7,6.2,1.2c3.4,0.8,6.8,2,10.1,3.5
						c5.3,25.3-2.4,43.5-22.8,54.5c-19.8-8.3-27.8-26.5-23.8-54.5c4.3-1.8,8.4-3.2,12.4-4c-1.6,5.4-1,9.6,1.7,12.5
						c-1.1-3-1.1-5.6-0.2-7.6c0.7-1.5,2.4-3.1,5.2-4.7c2.8-1.6,4.5-3.2,5.2-4.9c0.7-1.6,0.9-3.4,0.5-5.3c-2.4,0.5-4.5,1.5-6.4,2.8
						c-1.7,1.2-3,2.5-4,3.9c-5.4,0.8-11,2.4-16.7,4.8c-4.7,29.9,4,50,26,60.2c22.5-12,30.9-32.1,25.3-60.2c-5.7-2.6-11.3-4.3-17-5.1
						C70.5,18,69,12.9,64.1,8.6c0.4,1.3,0.4,2.4,0.2,3.4c-0.2,1.1-0.6,1.8-1.3,2.2C62.6,14.5,62.2,14.6,61.7,14.6z"/>
				</g>
			</g>
		</g>
		<g transform="matrix( 1, 0, 0, 1, 0.4,0.1) ">
			<g>
				<g id="Layer0_2_FILL">
					<path class="st2" d="M59,13.2c0.5,1.7,0.7,3.3,0.4,4.7c-0.4,1.6-1.6,3.2-3.5,5c-2.3,2-3.8,3.7-4.6,5.1c-1.2,2.3-1.7,5-1.4,8.2
						c0.4-1.4,0.9-2.8,1.6-4.1c1-1.6,2.7-3.2,5.1-4.9c2.2-1.5,3.6-3,4.3-4.4c0.7-1.5,0.8-3.3,0.5-5.3c1.5,0.5,2.7,1.4,3.7,2.6
						c0.5,0.5,0.9,1,1.1,1.5c-0.5-1.5-1.3-3-2.3-4.5c-0.8-1-1.6-1.8-2.3-2.3C60.9,14,60,13.5,59,13.2z"/>
				</g>
			</g>
		</g>
		<g transform="matrix( 1, 0, 0, 1, 0.4,0.1) ">
			<g>
				<g id="Layer0_3_FILL">
					<path class="st1" d="M66.9,63.3V47.1L62,45.9L62,63.3H66.9z"/>
				</g>
			</g>
		</g>
		<g transform="matrix( 1, 0, 0, 1, 0.4,0.1) ">
			<g>
				<g id="Layer0_4_FILL">
					<path class="st2" d="M77,43.9c-0.6,0-1.2-0.2-1.7-0.4l-1,1.2c0.7,0.2,1.5,0.2,2.4,0c1-0.2,1.8-0.5,2.3-0.9
						C78.5,43.9,77.8,43.9,77,43.9z"/>
				</g>
			</g>
		</g>
		<g transform="matrix( 1, 0, 0, 1, 0.4,0.1) ">
			<g>
				<g id="Layer0_5_FILL">
					<path class="st1" d="M39.7,47.4c1.1-1.2,2.2-2.1,3.4-2.7c1.6-0.9,3.4-1.3,5.4-1.4c1.9-0.1,4.1,0,6.4,0.4
						c1.3,0.2,3.5,0.7,6.5,1.4c5.2,1.2,8.7,1.9,10.4,2.1c2.3,0.2,4.2-0.1,5.5-1.1c0.6-0.4,1.1-1,1.6-1.7c-0.6,0.3-1.2,0.5-1.9,0.7
						c-0.8,0.2-1.7,0.2-2.5,0.1c-1.2-0.1-3.9-0.7-8.2-1.8c-4.5-1.1-7.2-1.8-8.1-2c-3.3-0.8-5.6-1.2-6.9-1.3
						c-1.9-0.2-3.7,0.1-5.3,0.7C43.4,42.1,41.3,44.2,39.7,47.4z"/>
				</g>
			</g>
		</g>
		<g transform="matrix( 1, 0, 0, 1, 0.4,0.1) ">
			<g>
				<g id="Layer0_6_FILL">
					<path class="st1" d="M66.6,56.2l8.8,7.2l5.9-0.1l-11.7-9.9l6.7-6.2c-0.5,0.3-1.2,0.5-2.1,0.7c-0.9,0.1-1.8,0.1-2.5-0.1l-5,4.7
						V56.2z"/>
				</g>
			</g>
		</g>
		<g transform="matrix( 1, 0, 0, 1, 0.4,0.1) ">
			<g>
				<g id="Layer0_7_FILL">
					<path class="st1" d="M55.9,43.7v19.6h4.7V43.7H55.9z"/>
				</g>
			</g>
		</g>
		<g transform="matrix( 1, 0, 0, 1, 0.4,0.1) ">
			<g>
				<g id="Layer0_8_FILL">
					<path class="st1" d="M54.4,44.3L49.7,44l-0.1,15.6c-0.3,1.2-1.2,1.8-2.7,1.8c-1.5,0-2.7-0.6-3.7-1.6l-1.4,1.8
						c1.8,1.7,4.1,2.5,6.8,2.5c1.3,0,2.5-0.4,3.7-1.3c1.2-0.9,1.8-1.9,1.9-3l0.1-0.1L54.4,44.3z"/>
				</g>
			</g>
		</g>
		<g transform="matrix( 1, 0, 0, 1, 0.4,0.1) ">
			<g>
				<g id="Layer0_9_FILL">
					<path class="st2" d="M40.7,49.4c-0.2-0.6-0.2-1.4,0.2-2.3c-0.7,0.7-1.2,1.4-1.5,2.2c-0.3,0.8-0.3,1.4,0,2
						c0.5,0.9,1.8,1.2,4.1,1.1c1.6-0.2,2.9-0.7,4.1-1.5c-0.5,0.1-1.2,0.2-2.1,0.2C42.9,51,41.3,50.4,40.7,49.4z"/>
				</g>
			</g>
		</g>
		<g transform="matrix( 1, 0, 0, 1, 0.4,0.1) ">
			<g>
				<g id="Layer0_10_FILL">
					<path class="st2" d="M46,65.3h0.3v-0.2h-1.8v0.2h0.3l0.1,0.1l0.1,0.1v3.3l-0.1,0.4l-0.1,0.3l-0.2,0.2l-0.2,0.1h-0.1V70h0.2
						l0.7-0.1l0.3-0.2l0.2-0.2l0.1-0.3l0.1-0.4v-3.3l0.1-0.1L46,65.3z"/>
				</g>
			</g>
		</g>
		<g transform="matrix( 1, 0, 0, 1, 0.4,0.1) ">
			<g>
				<g id="Layer0_11_FILL">
					<path class="st2" d="M50.1,68.5l-0.2-0.1l-0.1-0.1l-0.1-0.2l-1.1-3H48l-1.1,3l-0.2,0.4l-0.1,0.1h-0.2v0.2h1.3v-0.2h-0.4
						l-0.1-0.1v-0.2l0.2-0.6h1.3l0.2,0.5v0.1l0.1,0.1l-0.1,0.1v0.1l-0.1,0.1h-0.3v0.2h1.8v-0.2H50.1 M48.2,66l0.1,0.2l0.4,1h-1.1
						l0.3-0.9l0.1-0.2l0.2-0.5l0.1,0.2V66z"/>
				</g>
			</g>
		</g>
		<g transform="matrix( 1, 0, 0, 1, 0.4,0.1) ">
			<g>
				<g id="Layer0_12_FILL">
					<path class="st2" d="M53.4,67.6h-0.3L53,68l-0.1,0.4l-0.3,0.1h-1v-2.7l0.1-0.2l0.1-0.1l0.1-0.1h0.4v-0.2h-1.8v0.2h0.4l0.1,0.1
						l0.1,0.1v2.8l-0.1,0.1l-0.1,0.1h-0.4v0.2h3V67.6z"/>
				</g>
			</g>
		</g>
		<g transform="matrix( 1, 0, 0, 1, 0.4,0.1) ">
			<g>
				<g id="Layer0_13_FILL">
					<path class="st2" d="M56.1,65.5l0.1,0.5h0.4v-0.9h-2.9v0.2H54l0.1,0.1l0.1,0.1v2.8l-0.1,0.1L54,68.5h-0.3v0.2h3l0.1-0.9h-0.4
						L56.4,68v0.2l-0.1,0.1l-0.1,0.1H55V67h1.2v-0.3H55v-1.3h0.9C56,65.4,56.1,65.4,56.1,65.5z"/>
				</g>
			</g>
		</g>
		<g transform="matrix( 1, 0, 0, 1, 0.4,0.1) ">
			<g>
				<g id="Layer0_14_FILL">
					<path class="st2" d="M61.5,65.5l0.1,0.1v0.1l0.1,0.4H62v-1h-3.2l-0.1,1H59l0.1-0.4v-0.1l0.2-0.2h0.6v2.9l-0.1,0.1l-0.1,0.1
						h-0.3v0.2h1.8v-0.2h-0.3l-0.1-0.1l-0.1-0.1v-2.9h0.6L61.5,65.5z"/>
				</g>
			</g>
		</g>
		<g transform="matrix( 1, 0, 0, 1, 0.4,0.1) ">
			<g>
				<g id="Layer0_15_FILL">
					<path class="st2" d="M64.3,65.4c0.2,0,0.2,0,0.2,0.1c0.1,0.1,0.1,0.2,0.1,0.3V66h0.4L65,65.1h-2.9v0.2h0.4l0.1,0.1l0.1,0.1
						l0.1,0.2v2.5l-0.1,0.2l-0.1,0.1h-0.4v0.2h3l0.1-0.9h-0.4l-0.1,0.4l-0.1,0.1l-0.1,0.1h-1.1V67h1.2v-0.3h-1.2v-1.3H64.3z"/>
				</g>
			</g>
		</g>
		<g transform="matrix( 1, 0, 0, 1, 0.4,0.1) ">
			<g>
				<g id="Layer0_16_FILL">
					<path class="st2" d="M68.2,68.1l-0.2,0.2l-0.3,0.1h-1.1l1.9-3.1v-0.2h-2.7v1.1h0.4l0.1-0.3v-0.2l0.1-0.2l0.1-0.1h1.2l-1.9,3.1
						v0.2h3v-1.1h-0.4l-0.1,0.2V68.1z"/>
				</g>
			</g>
		</g>
		<g transform="matrix( 1, 0, 0, 1, 0.4,0.1) ">
			<g>
				<g id="Layer0_17_FILL">
					<path class="st2" d="M71.8,66v-0.9H69v0.2h0.3l0.1,0.1v0.1l0.1,0.2v2.5l-0.1,0.1v0.1l-0.1,0.1H69v0.2h3l0.1-0.9h-0.4l-0.1,0.4
						l-0.1,0.2h-1.2V67h1.2v-0.3h-1.2v-1.3h0.9c0.1,0,0.2,0,0.2,0.1l0.1,0.5H71.8z"/>
				</g>
			</g>
		</g>
		<g transform="matrix( 1, 0, 0, 1, 0.4,0.1) ">
			<g>
				<g id="Layer0_18_FILL">
					<path class="st2" d="M75.2,66.7l0.2-0.3l0.1-0.4c0-0.4-0.1-0.6-0.4-0.7c-0.2-0.2-0.5-0.2-1.1-0.2h-1.7v0.2h0.4l0.1,0.1l0.1,0.1
						v2.8l-0.1,0.1l-0.1,0.1h-0.4v0.2h1.8v-0.2h-0.4l-0.1-0.1l-0.1-0.2v-1.1h0.4l0.6,1.2l0.2,0.2l0.2,0.1l0.4,0.1h0.5v-0.2l-0.2-0.1
						l-0.2-0.1l-0.1-0.2L74.7,67L75.2,66.7 M74.5,66.1l-0.1,0.6l-0.2,0.1l-0.3,0.1h-0.3v-1.5h0.6l0.2,0.2l0.1,0.2L74.5,66.1z"/>
				</g>
			</g>
		</g>
		<g transform="matrix( 1, 0, 0, 1, 0.4,0.1) ">
			<g>
				<g id="Layer0_19_FILL">
					<path class="st3" d="M45.9,70.6L45.9,70.6l0.1,1.6h-0.1l-0.1,0.1h-0.2v0.1h1.6l0.1-0.5h-0.2v0.2l-0.1,0.1H47L47,72.3h-0.6v-0.8
						h0.7v-0.2h-0.7v-0.7h0.5l0.2,0.1v0.2l0.1,0.1h0.2v-0.5h-1.6v0.2H45.9z"/>
				</g>
			</g>
		</g>
		<g transform="matrix( 1, 0, 0, 1, 0.4,0.1) ">
			<g>
				<g id="Layer0_20_FILL">
					<path class="st3" d="M48.8,70h-0.4l-0.1-0.2h-0.2l0.1,0.2l0.1,0.1l0.1,0.1l0.2,0.1l0.2-0.1L49,70v-0.2h-0.2L48.8,70 M49.5,71.6
						v-0.2h-0.9v0.2l0.2,0.1l0.1,0.1v0.4l-0.1,0.1h-0.1l-0.3-0.1L48.2,72l-0.1-0.3V71l0.1-0.2l0.2-0.2l0.2-0.1h0.2l0.1,0.1l0.1,0.1
						v0.1h0.2l0.1-0.1l0.1-0.1l0.1-0.1l-0.1-0.1l-0.1-0.1L49,70.4h-0.3l-0.5,0.1l-0.4,0.2L47.7,71l-0.1,0.4l0.1,0.5l0.2,0.3l0.4,0.2
						l0.4,0.1l0.4-0.1l0.4-0.1v-0.5l0.1-0.1H49.5z"/>
				</g>
			</g>
		</g>
		<g transform="matrix( 1, 0, 0, 1, 0.4,0.1) ">
			<g>
				<g id="Layer0_21_FILL">
					<path class="st3" d="M50.6,70.4h-1v0.2h0.2v0.1l0.1,0.1v1.3l-0.1,0.1v0.1l-0.1,0.1h-0.2v0.1h1v-0.1h-0.2l-0.1-0.1v-1.5l0.1-0.1
						h0.2V70.4 M50.2,69.8h-0.2l-0.1,0.1v0.1L49.9,70l0.1,0.1v0.1h0.1l0.1,0.1l0.1-0.1h0.1l0.1-0.1v-0.2L50.2,69.8z"/>
				</g>
			</g>
		</g>
		<g transform="matrix( 1, 0, 0, 1, 0.4,0.1) ">
			<g>
				<g id="Layer0_22_FILL">
					<path class="st3" d="M50.9,71v-0.3l0.1-0.1h0.1l0.1-0.1h0.2v1.6l-0.1,0.1h-0.2v0.1h1v-0.1h-0.2l-0.1-0.1v-0.1l-0.1-0.1v-1.5H52
						l0.1,0.1h0.1l0.1,0.1v0.1l0.1,0.2h0.2v-0.6h-1.8L50.7,71H50.9z"/>
				</g>
			</g>
		</g>
		<g transform="matrix( 1, 0, 0, 1, 0.4,0.1) ">
			<g>
				<g id="Layer0_23_FILL">
					<path class="st3" d="M53.6,70.4h-0.9v0.2h0.2l0.1,0.1v1.5l-0.1,0.1v0.1h-0.2v0.1h0.9v-0.1h-0.2l-0.1-0.1v-1.6h0.2V70.4
						 M53,69.8l-0.1,0.1v0.2l0.1,0.1H53l0.1,0.1l0.1-0.1h0.1v-0.1l0.1-0.1l-0.1-0.1v-0.1l-0.1-0.1H53z"/>
				</g>
			</g>
		</g>
		<g transform="matrix( 1, 0, 0, 1, 0.4,0.1) ">
			<g>
				<g id="Layer0_24_FILL">
					<path class="st3" d="M56.2,70.4h-0.8L55,71.7l-0.5-1.3h-0.8v0.2h0.2l0.1,0.1v1.6h-0.1v0.1h-0.2v0.1h0.7v-0.1h-0.1l-0.1-0.1
						v-1.5l0.6,1.7H55l0.6-1.7v1.4l-0.1,0.1l-0.1,0.1h-0.1v0.1h0.9v-0.1h-0.1L56,72.2v-1.5l0.1-0.1h0.2V70.4z"/>
				</g>
			</g>
		</g>
		<g transform="matrix( 1, 0, 0, 1, 0.4,0.1) ">
			<g>
				<g id="Layer0_25_FILL">
					<path class="st3" d="M58.1,70.4h-0.9v0.2h0.2l0.1,0.1v1.6h-0.1v0.1h-0.2v0.1h0.9v-0.1h-0.2l-0.1-0.1v-0.6l0.1-0.1l0.4,0.6
						l0.1,0.1l0.1,0.1h0.1l0.1,0.1H59v-0.1H59l-0.1-0.1l-0.1-0.1L58.8,72l-0.5-0.8l0.5-0.6l0.1-0.1H59v-0.2h-0.8v0.2h0.1l0.1,0.1
						v0.1l-0.1,0.1l-0.1,0.1l-0.5,0.5v-0.8h0.2V70.4z"/>
				</g>
			</g>
		</g>
		<g transform="matrix( 1, 0, 0, 1, 0.4,0.1) ">
			<g>
				<g id="Layer0_26_FILL">
					<path class="st3" d="M61.1,70.4h-0.7v0.2h0.2l0.1,0.1V72l-0.1,0.1l-0.1,0.1l-0.2,0.1L60,72.2l-0.1-0.1L59.9,72l-0.1-0.2v-1.2
						l0.1-0.1H60v-0.2h-0.9v0.2h0.2v0.1l0.1,0.1v1.3l0.2,0.2l0.2,0.1l0.4,0.1l0.3-0.1l0.2-0.1l0.1-0.2l0.1-0.2v-1.3h0.2V70.4z"/>
				</g>
			</g>
		</g>
		<g transform="matrix( 1, 0, 0, 1, 0.4,0.1) ">
			<g>
				<g id="Layer0_27_FILL">
					<path class="st3" d="M61.4,70.6L61.4,70.6l0.1,1.6h-0.1l-0.1,0.1h-0.2v0.1h1v-0.1H62L62,72.2h-0.1v-0.6h0.2l0.4,0.6l0.2,0.2
						h0.5v-0.1H63l-0.1-0.1L62.8,72l-0.4-0.6l0.2-0.1l0.1-0.1l0.1-0.1l0.1-0.2c0-0.2-0.1-0.3-0.2-0.4c-0.2-0.1-0.4-0.2-0.6-0.2h-0.9
						v0.2H61.4 M62.1,70.6l0.2,0.1l0.1,0.1l0.1,0.1l0.1,0.2l-0.1,0.2l-0.1,0.1l-0.1,0.1l-0.2,0.1h-0.2v-0.8H62.1z"/>
				</g>
			</g>
		</g>
		<g transform="matrix( 1, 0, 0, 1, 0.4,0.1) ">
			<g>
				<g id="Layer0_28_FILL">
					<path class="st3" d="M64.1,70.4h-0.9v0.2h0.2v1.2l0.1,0.3l0.2,0.2l0.2,0.1l0.4,0.1l0.3-0.1l0.2-0.1l0.1-0.2l0.1-0.2v-1.3h0.2
						v-0.2h-0.7v0.2h0.2l0.1,0.1V72l-0.1,0.1l-0.1,0.1l-0.2,0.1l-0.2-0.1L64,72.2L63.9,72l-0.1-0.2v-1.2l0.1-0.1h0.2V70.4z"/>
				</g>
			</g>
		</g>
		<g transform="matrix( 1, 0, 0, 1, 0.4,0.1) ">
			<g>
				<g id="Layer0_29_FILL">
					<path class="st3" d="M67.5,72.2v-1.6h0.2v-0.2H67l-0.5,1.3l-0.5-1.3h-0.8v0.2h0.2l0.1,0.1v1.6h-0.1l-0.1,0.1h-0.2v0.1h0.7v-0.1
						h-0.1l-0.1-0.1v-0.1l-0.1-0.1v-1.4l0.6,1.7h0.2l0.5-1.7v1.5H67v0.1h-0.1v0.1h0.9v-0.1L67.5,72.2L67.5,72.2z"/>
				</g>
			</g>
		</g>
		<g transform="matrix( 1, 0, 0, 1, 0.4,0.1) ">
			<g>
				<g id="Layer0_30_FILL">
					<path class="st3" d="M68.1,70.6L68.1,70.6l0.1,1.6l-0.1,0.1v0.1h-0.2v0.1h1.6v-0.6h-0.2V72l-0.1,0.2l-0.1,0.1h-0.5v-1.7h0.2
						v-0.2h-0.9v0.2H68.1z"/>
				</g>
			</g>
		</g>
		<g transform="matrix( 1, 0, 0, 1, 0.4,0.1) ">
			<g>
				<g id="Layer0_31_FILL">
					<path class="st3" d="M70.1,72.2v-0.1l0.1-0.1l0.1-0.2H71L71,72l0.1,0.1v0.1H71L71,72.3h-0.1v0.1h0.9v-0.1h-0.1l-0.1-0.1
						L71.5,72l-0.6-1.6h-0.4L69.9,72l-0.1,0.1v0.1l-0.1,0.1h-0.1v0.1h0.7v-0.1L70.1,72.2L70.1,72.2L70.1,72.2 M70.5,71l0.1-0.2v-0.1
						l0.1,0.1v0.1l0.1,0.1v0.1l0.2,0.5h-0.6L70.5,71L70.5,71z"/>
				</g>
			</g>
		</g>
		<g transform="matrix( 1, 0, 0, 1, 0.4,0.1) ">
			<g>
				<g id="Layer0_32_FILL">
					<path class="st3" d="M73.2,71.4l0.2-0.2v-0.2c0-0.2-0.1-0.3-0.2-0.4c-0.1-0.1-0.3-0.2-0.6-0.2h-0.9v0.2h0.2v1.6L72,72.3h-0.2
						v0.1h0.9v-0.1h-0.2v-0.1h-0.1v-0.6h0.2l0.4,0.6l0.1,0.1l0.1,0.1h0.5v-0.1h-0.1l-0.1-0.1L73.5,72l-0.4-0.6L73.2,71.4 M73,70.8
						v0.4l-0.1,0.1l-0.2,0.1h-0.2v-0.8h0.1l0.2,0.1l0.1,0.1L73,70.8z"/>
				</g>
			</g>
		</g>
		<g transform="matrix( 1, 0, 0, 1, 0.4,0.1) ">
			<g>
				<g id="Layer0_33_FILL">
					<path class="st3" d="M74,70.6L74,70.6l0.1,1.6L74,72.2v0.1h-0.2v0.1h0.9v-0.1h-0.2l-0.1-0.1v-1.6h0.2v-0.2h-0.9v0.2H74z"/>
				</g>
			</g>
		</g>
	</g>
	<g>
		<g transform="matrix( 1, 0, 0, 1, 0.4,0.1) ">
			<g>
				<g id="Layer0_34_FILL">
					<path class="st0" d="M10.4,99.5v-1H4v1h0.8l0.4,0.1c0.1,0,0.2,0.1,0.3,0.2c0.1,0.1,0.2,0.2,0.2,0.4l0.1,0.6v11.2
						c0,0.7-0.1,1.2-0.2,1.6c-0.1,0.4-0.3,0.7-0.5,1.1c-0.3,0.3-0.6,0.5-0.8,0.5c-0.2,0.1-0.5,0.2-0.9,0.2H3.1v1.1l1.9-0.1l1.2-0.3
						c0.4-0.1,0.7-0.3,1-0.5c0.4-0.3,0.6-0.6,0.8-0.9c0.2-0.3,0.4-0.6,0.5-1.1c0.1-0.5,0.2-1,0.2-1.5v-11.1l0.1-0.6L9,99.7
						c0.1-0.1,0.2-0.2,0.3-0.2l0.4-0.1H10.4z"/>
				</g>
			</g>
		</g>
		<g transform="matrix( 1, 0, 0, 1, 0.4,0.1) ">
			<g>
				<g id="Layer0_35_FILL">
					<path class="st0" d="M11.8,110.6l-0.4,0.2l-0.5,0.1h-0.2v1h4.8v-1h-0.8l-0.4-0.1l-0.2-0.1l-0.2-0.2l-0.1-0.3l0.1-0.5l0.7-2.2
						h4.6l0.8,2.2l0.1,0.5l-0.1,0.4l-0.2,0.2l-0.2,0.2h-1v1h6.1v-1h-0.4l-0.4-0.1l-0.4-0.2c-0.2-0.2-0.3-0.3-0.4-0.4L19,98.5h-2.5
						l-4.4,11.7L11.8,110.6 M18.8,106.3h-3.7l2-5.8L18.8,106.3z"/>
				</g>
			</g>
		</g>
		<g transform="matrix( 1, 0, 0, 1, 0.4,0.1) ">
			<g>
				<g id="Layer0_36_FILL">
					<path class="st0" d="M29.9,100.6L30,100c0-0.1,0.1-0.2,0.2-0.4c0.1-0.1,0.2-0.2,0.3-0.2l0.4-0.1h0.8v-1h-6.4v1h0.8l0.4,0.1
						c0.1,0,0.2,0.1,0.3,0.2l0.2,0.4l0.1,0.6v8.9l-0.1,0.6l-0.2,0.4l-0.3,0.2h-1.2v1h10.9l0.1-4.1h-1.1l-0.3,1.4
						c-0.1,0.5-0.3,1-0.5,1.2c-0.3,0.3-0.6,0.4-1,0.4h-3.5V100.6z"/>
				</g>
			</g>
		</g>
		<g transform="matrix( 1, 0, 0, 1, 0.4,0.1) ">
			<g>
				<g id="Layer0_37_FILL">
					<path class="st0" d="M45.2,99.6c0.4,0,0.7,0.1,0.8,0.4c0.2,0.2,0.3,0.6,0.4,1.1l0.1,0.9h1.3l-0.1-3.4H37.3v1h0.8l0.4,0.1
						c0.2,0,0.3,0.1,0.3,0.2c0.1,0,0.2,0.2,0.2,0.4l0.1,0.6v9l-0.1,0.6c-0.1,0.2-0.2,0.3-0.2,0.4l-0.3,0.2h-1.2v1h10.9l0.2-3.4h-1.3
						l-0.3,1.4l-0.2,0.5l-0.4,0.3l-0.5,0.1H42v-5.3h4.4v-1.1H42v-4.7H45.2z"/>
				</g>
			</g>
		</g>
		<g transform="matrix( 1, 0, 0, 1, 0.4,0.1) ">
			<g>
				<g id="Layer0_38_FILL">
					<path class="st0" d="M57.6,99.7l2.2-0.1v10l-0.1,0.6l-0.2,0.4l-0.4,0.2H58v1h6.5v-1h-1.2l-0.3-0.2l-0.2-0.4l-0.1-0.6v-10
						l2.2,0.1l0.5,0.3l0.3,0.4l0.2,1.7h1.3l-0.1-3.6H55.5l-0.1,3.6h1.3l0.2-1.7l0.3-0.4L57.6,99.7z"/>
				</g>
			</g>
		</g>
		<g transform="matrix( 1, 0, 0, 1, 0.4,0.1) ">
			<g>
				<g id="Layer0_39_FILL">
					<path class="st0" d="M75.7,99.6c0.4,0,0.7,0.1,0.8,0.4c0.2,0.2,0.3,0.6,0.4,1.1l0.1,0.9h1.3l-0.1-3.4H67.9v1h0.8l0.4,0.1
						l0.3,0.2l0.2,0.4l0.1,0.6v9l-0.1,0.6l-0.2,0.4l-0.4,0.2h-1.1v1h10.9l0.1-3.4h-1.3l-0.3,1.4l-0.2,0.5l-0.4,0.3l-0.5,0.1h-3.7
						v-5.3H77v-1.1h-4.4v-4.7H75.7z"/>
				</g>
			</g>
		</g>
		<g transform="matrix( 1, 0, 0, 1, 0.4,0.1) ">
			<g>
				<g id="Layer0_40_FILL">
					<path class="st0" d="M89.7,107.9l-0.2,1.6c-0.1,0.2-0.2,0.4-0.4,0.6c-0.1,0.2-0.3,0.3-0.6,0.4c-0.2,0.1-0.5,0.2-0.9,0.2h-4
						l7-11.2v-1h-10l-0.1,3.9H82l0.2-1.7c0.1-0.3,0.2-0.4,0.2-0.5c0.1-0.2,0.3-0.3,0.5-0.4l0.7-0.1h3.7l-7,11.2v0.9H91l0.1-3.9H89.7
						z"/>
				</g>
			</g>
		</g>
		<g transform="matrix( 1, 0, 0, 1, 0.4,0.1) ">
			<g>
				<g id="Layer0_41_FILL">
					<path class="st0" d="M100.3,99.6c0.4,0,0.7,0.1,0.8,0.4c0.2,0.2,0.3,0.6,0.4,1.1l0.1,0.9h1.3l-0.1-3.4H92.4v1h0.8l0.4,0.1
						l0.4,0.2l0.2,0.4l0.1,0.6v9l-0.1,0.6c-0.1,0.2-0.2,0.3-0.2,0.4l-0.3,0.2h-1.2v1h10.9l0.2-3.4h-1.3l-0.3,1.4l-0.2,0.5l-0.4,0.3
						l-0.5,0.1h-3.7v-5.3h4.4v-1.1h-4.4v-4.7H100.3z"/>
				</g>
			</g>
		</g>
		<g transform="matrix( 1, 0, 0, 1, 0.4,0.1) ">
			<g>
				<g id="Layer0_42_FILL">
					<path class="st0" d="M104.6,98.5v1h0.8l0.4,0.1l0.4,0.2l0.2,0.4l0.1,0.6v9l-0.1,0.6l-0.2,0.4l-0.4,0.2h-1.1v1h6.4v-1h-1.2
						l-0.3-0.2c-0.1,0-0.2-0.2-0.2-0.4l-0.1-0.6V106h1.2l2.2,4.1l0.6,0.8c0.3,0.3,0.5,0.4,0.8,0.5l1.1,0.2l2.1,0.1v-1h-0.1l-0.5-0.1
						l-0.5-0.3l-0.5-0.5l-2.7-4.5c0.3-0.1,0.6-0.3,0.9-0.5c0.3-0.2,0.5-0.4,0.8-0.7c0.3-0.4,0.5-0.7,0.6-1c0.2-0.4,0.2-0.8,0.2-1.3
						c0-1.1-0.4-2-1.2-2.6c-0.8-0.6-2.1-0.9-3.9-0.9H104.6 M109.3,105v-5.4h1c0.4,0,0.8,0.1,1.1,0.2c0.3,0,0.5,0.2,0.7,0.5
						c0.2,0.2,0.4,0.5,0.4,0.8c0.1,0.2,0.1,0.6,0.1,1.2c0,0.5,0,0.9-0.1,1.2c0,0.4-0.2,0.6-0.4,0.9c-0.2,0.2-0.4,0.4-0.7,0.5
						c-0.3,0.1-0.6,0.2-1.1,0.2H109.3z"/>
				</g>
			</g>
		</g>
		<g transform="matrix( 1, 0, 0, 1, 0.4,0.1) ">
			<g>
				<g id="Layer0_43_FILL">
					<path class="st0" d="M10.9,118.5h1.7c0.2,0,0.4,0.1,0.5,0.2l0.2,0.5l0.1,0.5H14l-0.1-1.9H8.3v0.5H9l0.2,0.1l0.1,0.2v5.5
						l-0.1,0.2L9,124.6H8.3v0.5h5.9l0.1-1.9h-0.7l-0.2,0.8l-0.1,0.2l-0.2,0.2l-0.3,0.1h-2v-2.9h2.4v-0.6h-2.4V118.5z"/>
				</g>
			</g>
		</g>
		<g transform="matrix( 1, 0, 0, 1, 0.4,0.1) ">
			<g>
				<g id="Layer0_44_FILL">
					<path class="st0" d="M21.3,118.5l-0.5-0.4l-0.8-0.2l-1.1-0.1c-0.6,0-1.1,0.1-1.6,0.3c-0.4,0.2-0.8,0.4-1.2,0.8
						c-0.3,0.3-0.5,0.7-0.7,1.2c-0.2,0.4-0.2,0.8-0.2,1.5c0,0.6,0.1,1.1,0.2,1.5c0.1,0.5,0.3,0.9,0.6,1.2c0.4,0.4,0.7,0.6,1.2,0.8
						c0.5,0.2,1.1,0.3,1.6,0.3l1.3-0.1l1.2-0.4v-2l0.1-0.2l0.2-0.1l0.3-0.1h0.1v-0.5h-3.2v0.5h0.1c0.2,0,0.4,0.1,0.5,0.2
						c0.2,0.1,0.2,0.3,0.2,0.6v1.5l-0.4,0.1h-0.4c-0.4,0-0.8-0.1-1-0.2c-0.3-0.2-0.5-0.4-0.7-0.6c-0.2-0.3-0.3-0.6-0.4-1
						c-0.1-0.2-0.1-0.7-0.1-1.3c0-0.6,0-1,0.1-1.3c0.1-0.4,0.2-0.7,0.4-0.9c0.2-0.3,0.4-0.5,0.6-0.6c0.2-0.2,0.5-0.2,0.9-0.2
						l0.5,0.1c0.1,0,0.3,0.1,0.4,0.3l0.2,0.4l0.1,0.6l0.6-0.1l0.4-0.2l0.2-0.2l0.1-0.4C21.4,118.8,21.4,118.6,21.3,118.5
						 M17.1,115.7l0.1,0.6l0.3,0.5l0.5,0.4l0.7,0.1l0.7-0.1c0.2-0.2,0.4-0.3,0.5-0.4c0,0,0.2-0.2,0.4-0.5l0.1-0.6h-0.7
						c0,0.2-0.2,0.4-0.4,0.5c-0.1,0.1-0.3,0.2-0.6,0.2c-0.2,0-0.4-0.1-0.6-0.2c-0.1-0.1-0.2-0.3-0.3-0.5H17.1z"/>
				</g>
			</g>
		</g>
		<g transform="matrix( 1, 0, 0, 1, 0.4,0.1) ">
			<g>
				<g id="Layer0_45_FILL">
					<path class="st0" d="M23.5,116.4l0.1,0.4l0.2,0.2l0.3,0.2h0.6l0.3-0.2l0.2-0.2l0.1-0.4l-0.1-0.4l-0.2-0.2l-0.3-0.2h-0.6
						l-0.3,0.2l-0.2,0.2L23.5,116.4 M22.7,118.4h0.6l0.1,0.1l0.1,0.2l0.1,0.4v4.8l-0.1,0.4l-0.1,0.2l-0.1,0.1h-0.6v0.5h3.5v-0.5
						h-0.6l-0.2-0.1l-0.1-0.2l-0.1-0.4v-4.8l0.1-0.4l0.1-0.2l0.2-0.1h0.6v-0.5h-3.5V118.4z"/>
				</g>
			</g>
		</g>
		<g transform="matrix( 1, 0, 0, 1, 0.4,0.1) ">
			<g>
				<g id="Layer0_46_FILL">
					<path class="st0" d="M26.6,117.9l-0.1,1.9h0.7l0.1-0.9l0.1-0.2l0.3-0.2l0.4-0.1h0.8v5.4l-0.1,0.4l-0.1,0.2l-0.2,0.1H28v0.5h3.5
						v-0.5h-0.6l-0.2-0.1l-0.1-0.2l-0.1-0.4v-5.4h0.8l0.4,0.1l0.2,0.2l0.2,0.2l0.1,0.9h0.6v-1.9H26.6z"/>
				</g>
			</g>
		</g>
		<g transform="matrix( 1, 0, 0, 1, 0.4,0.1) ">
			<g>
				<g id="Layer0_47_FILL">
					<path class="st0" d="M33.3,118.4h0.6l0.2,0.1l0.1,0.2l0.1,0.4v4.8l-0.1,0.4l-0.1,0.2l-0.2,0.1h-0.6v0.5h3.5v-0.5h-0.6l-0.2-0.1
						l-0.1-0.2v-5.5l0.1-0.2l0.2-0.1h0.6v-0.5h-3.5V118.4 M35.3,115.7h-0.6l-0.3,0.2l-0.2,0.2l-0.1,0.4l0.1,0.4l0.2,0.2l0.3,0.2h0.6
						l0.3-0.2l0.2-0.2l0.1-0.4l-0.1-0.4l-0.2-0.2L35.3,115.7z"/>
				</g>
			</g>
		</g>
		<g transform="matrix( 1, 0, 0, 1, 0.4,0.1) ">
			<g>
				<g id="Layer0_48_FILL">
					<path class="st0" d="M45.7,118.4h0.6v-0.5h-2.9l-1.6,4.8l-1.7-4.8h-2.9v0.5H38l0.2,0.1l0.1,0.2v5.5l-0.1,0.2l-0.2,0.1h-0.6v0.5
						h2.5v-0.5h-0.4l-0.2-0.1l-0.2-0.2l-0.1-0.4v-5l2.2,6.2h0.7l2-6.2v5.4l-0.1,0.2l-0.2,0.1h-0.4v0.5h3.2v-0.5h-0.6l-0.1-0.1
						l-0.1-0.2l-0.1-0.4v-4.8l0.1-0.4l0.1-0.2L45.7,118.4z"/>
				</g>
			</g>
		</g>
		<g transform="matrix( 1, 0, 0, 1, 0.4,0.1) ">
			<g>
				<g id="Layer0_49_FILL">
					<path class="st0" d="M50.2,124.6h-0.6v0.5H53v-0.5h-0.6l-0.2-0.1l-0.1-0.2l-0.1-0.4v-1.7l0.5-0.4l1.5,2.6l0.2,0.2l0.3,0.2
						l0.9,0.2h1.2v-0.5h-0.1l-0.3-0.1l-0.3-0.1l-0.3-0.2l-2.2-3.4l2-2.1l0.4-0.2l0.4-0.1v-0.5h-2.7v0.5l0.5,0.1l0.1,0.2l-0.1,0.4
						l-0.2,0.3l-1.9,2v-2.3l0.1-0.4l0.1-0.2l0.2-0.1H53v-0.5h-3.4v0.5h0.6l0.2,0.1l0.1,0.2l0.1,0.3v5l-0.1,0.3l-0.1,0.2L50.2,124.6z
						"/>
				</g>
			</g>
		</g>
		<g transform="matrix( 1, 0, 0, 1, 0.4,0.1) ">
			<g>
				<g id="Layer0_50_FILL">
					<path class="st0" d="M56.8,118.4h0.6l0.2,0.1l0.1,0.2l0.1,0.3v3.9c0,0.4,0.1,0.8,0.2,1.1c0.1,0.3,0.3,0.5,0.5,0.7
						c0.2,0.2,0.5,0.3,0.9,0.4l1.2,0.1c0.5,0,0.8-0.1,1.1-0.2c0.2,0,0.5-0.2,0.8-0.4c0.2-0.2,0.4-0.5,0.4-0.7
						c0.1-0.2,0.2-0.5,0.2-0.9v-4.3l0.1-0.2l0.2-0.1h0.6v-0.5h-2.6v0.5H62l0.2,0.1l0.1,0.2l0.1,0.3v4l-0.1,0.7l-0.3,0.5l-0.5,0.2
						l-0.6,0.1l-0.6-0.1l-0.5-0.2l-0.3-0.5l-0.1-0.7v-3.9l0.1-0.4l0.1-0.2l0.1-0.1h0.6v-0.5h-3.5V118.4z"/>
				</g>
			</g>
		</g>
		<g transform="matrix( 1, 0, 0, 1, 0.4,0.1) ">
			<g>
				<g id="Layer0_51_FILL">
					<path class="st0" d="M64.5,118.4h0.6l0.2,0.1l0.1,0.2l0.1,0.3v5l-0.1,0.3l-0.1,0.2l-0.2,0.1h-0.6v0.5H68v-0.5h-0.6l-0.1-0.1
						l-0.1-0.2L67,124v-2h0.6l1.2,2.2l0.4,0.4c0.1,0.1,0.2,0.2,0.4,0.3l0.6,0.2h1.2v-0.5h-0.1l-0.3-0.1l-0.2-0.1l-0.5-0.6l-1.2-2.1
						l0.5-0.2l0.4-0.4l0.4-0.5l0.1-0.7c0-0.6-0.2-1.1-0.7-1.4c-0.4-0.3-1.1-0.5-2.1-0.5h-3.2V118.4 M68.1,118.5
						c0.1,0,0.3,0.1,0.4,0.3c0.1,0.1,0.2,0.3,0.2,0.4l0.1,0.6l-0.1,0.6l-0.2,0.5l-0.4,0.3l-0.6,0.1H67v-2.9L68.1,118.5z"/>
				</g>
			</g>
		</g>
		<g transform="matrix( 1, 0, 0, 1, 0.4,0.1) ">
			<g>
				<g id="Layer0_52_FILL">
					<path class="st0" d="M71.4,118.4H72l0.2,0.1l0.1,0.2v4.2c0,0.4,0.1,0.8,0.2,1.1c0.2,0.3,0.4,0.5,0.6,0.7
						c0.2,0.2,0.5,0.3,0.9,0.4l1.2,0.1c0.4,0,0.8-0.1,1.2-0.2c0.3,0,0.6-0.2,0.8-0.4c0.2-0.1,0.4-0.4,0.5-0.7
						c0.1-0.2,0.1-0.4,0.1-0.9v-4l0.1-0.4l0.1-0.2l0.2-0.1h0.6v-0.5H76v0.5h0.6l0.2,0.1l0.1,0.2v4.3l-0.1,0.7l-0.3,0.5l-0.5,0.2
						l-0.6,0.1l-0.6-0.1l-0.5-0.2c0,0-0.2-0.2-0.4-0.5L74,123v-4.3l0.1-0.2l0.2-0.1h0.6v-0.5h-3.5V118.4z"/>
				</g>
			</g>
		</g>
		<g transform="matrix( 1, 0, 0, 1, 0.4,0.1) ">
			<g>
				<g id="Layer0_53_FILL">
					<path class="st0" d="M87.5,118.4h0.6v-0.5h-2.9l-1.6,4.8l-1.7-4.8h-2.9v0.5h0.6l0.2,0.1l0.1,0.2v5.5l-0.1,0.2l-0.2,0.1h-0.6
						v0.5h2.5v-0.5h-0.4l-0.2-0.1l-0.2-0.2l-0.1-0.4v-5l2.2,6.2h0.6l2-6.2v5.4l-0.1,0.2l-0.2,0.1h-0.4v0.5h3.2v-0.5h-0.6l-0.2-0.1
						l-0.1-0.2l-0.1-0.4v-4.8l0.1-0.4l0.1-0.2L87.5,118.4z"/>
				</g>
			</g>
		</g>
		<g transform="matrix( 1, 0, 0, 1, 0.4,0.1) ">
			<g>
				<g id="Layer0_54_FILL">
					<path class="st0" d="M92.1,118.4v-0.5h-3.4v0.5h0.6l0.2,0.1l0.1,0.2l0.1,0.4v4.8l-0.1,0.4l-0.1,0.2l-0.2,0.1h-0.6v0.5h5.9
						l0.1-2.2H94l-0.1,0.8l-0.3,0.6c-0.2,0.2-0.4,0.2-0.6,0.2h-1.9V119l0.1-0.3l0.1-0.2l0.2-0.1H92.1z"/>
				</g>
			</g>
		</g>
		<g transform="matrix( 1, 0, 0, 1, 0.4,0.1) ">
			<g>
				<g id="Layer0_55_FILL">
					<path class="st0" d="M96.9,123.6l0.2-0.8h2.5l0.4,1.2v0.2l-0.1,0.2l-0.1,0.1l-0.2,0.1h-0.5v0.5h3.3v-0.5h-0.2l-0.2-0.1
						l-0.2-0.1l-0.2-0.2l-2.2-6.3h-1.4l-2.4,6.3l-0.2,0.2l-0.4,0.1H95v0.5h2.6v-0.5H97l-0.2-0.2l-0.1-0.2l0.1-0.3L96.9,123.6
						 M98.5,119l0.1,0.4l0.9,2.8h-2L98.5,119z"/>
				</g>
			</g>
		</g>
		<g transform="matrix( 1, 0, 0, 1, 0.4,0.1) ">
			<g>
				<g id="Layer0_56_FILL">
					<path class="st0" d="M108.2,118.4c-0.4-0.3-1.1-0.5-2.1-0.5h-3.2v0.5h0.6l0.2,0.1l0.1,0.2l0.1,0.3v5l-0.1,0.3l-0.1,0.2
						l-0.2,0.1h-0.6v0.5h3.4v-0.5h-0.6l-0.2-0.1l-0.1-0.2l-0.1-0.3v-2h0.7l1.2,2.2l0.4,0.4c0.1,0.1,0.2,0.2,0.4,0.3l0.6,0.2h1.1
						v-0.5h-0.1l-0.3-0.1l-0.2-0.1l-0.5-0.6l-1.2-2.1l0.5-0.2l0.4-0.4l0.4-0.5l0.1-0.7C108.9,119.2,108.6,118.7,108.2,118.4
						 M105.4,118.5l1.1,0.1l0.4,0.3c0.1,0,0.2,0.2,0.2,0.4l0.1,0.6l-0.1,0.6l-0.2,0.5c-0.1,0.2-0.2,0.3-0.4,0.3l-0.6,0.1h-0.6V118.5
						z"/>
				</g>
			</g>
		</g>
		<g transform="matrix( 1, 0, 0, 1, 0.4,0.1) ">
			<g>
				<g id="Layer0_57_FILL">
					<path class="st0" d="M110,118.4h0.6l0.2,0.1l0.1,0.2l0.1,0.4v4.8l-0.1,0.4l-0.1,0.2l-0.2,0.1H110v0.5h3.5v-0.5h-0.6l-0.2-0.1
						l-0.1-0.2l-0.1-0.4v-4.8l0.1-0.4l0.1-0.2l0.2-0.1h0.6v-0.5H110V118.4z"/>
				</g>
			</g>
		</g>
	</g>
</g>
</svg>
