<?xml version="1.0" encoding="utf-8"?>
<!-- Generator: Adobe Illustrator 19.2.1, SVG Export Plug-In . SVG Version: 6.00 Build 0)  -->
<svg version="1.1" id="Layer_1" xmlns="http://www.w3.org/2000/svg" xmlns:xlink="http://www.w3.org/1999/xlink" x="0px" y="0px"
	 viewBox="0 0 300 37.4" style="enable-background:new 0 0 300 37.4;" xml:space="preserve">
<style type="text/css">
	.st0{fill:#23206F;}
</style>
<g>
	<path class="st0" d="M8.3,28.6c0,1.3-0.1,2.3-0.3,3.1c-0.2,0.8-0.5,1.5-1,2.1c-0.5,0.7-1.3,1.4-2.2,2c-1.1,0.7-2.4,1.2-3.9,1.7
		L0,35.3c0.7-0.3,1.2-0.6,1.6-0.9c0.3-0.3,0.6-0.6,0.8-0.9c0.2-0.3,0.3-0.7,0.3-1.2c0.1-0.5,0.1-1.2,0.1-2.1V10.9c0-0.6,0-1,0-1.4
		c0-0.4-0.1-0.7-0.2-0.9C2.4,8.4,2.2,8.2,2,8.1c-0.3-0.1-0.6-0.3-1-0.4V6.5h9.2v1.2C9.7,7.8,9.3,7.9,9.1,8.1
		C8.9,8.2,8.7,8.4,8.6,8.6C8.5,8.8,8.4,9.1,8.3,9.4c0,0.3-0.1,0.8-0.1,1.5V28.6z"/>
	<path class="st0" d="M25,23.1h-7.5l-0.6,1.7c-0.2,0.5-0.3,0.9-0.4,1.4c-0.1,0.4-0.2,0.9-0.2,1.4c0,1.2,0.6,1.8,1.8,1.8v1.2h-7.5
		v-1.2c0.4,0,0.8-0.2,1.1-0.5c0.3-0.3,0.6-0.6,0.9-1.1c0.3-0.4,0.6-1.1,0.9-1.9l7.3-19.6h4.7l5.8,19.7c0.3,0.9,0.5,1.5,0.7,1.9
		c0.2,0.4,0.4,0.7,0.7,0.9c0.3,0.2,0.7,0.4,1.2,0.5v1.2h-9.7v-1.2c0.6-0.1,1.1-0.2,1.4-0.5c0.3-0.3,0.4-0.7,0.4-1.1
		c0-0.4,0-0.8-0.1-1.2c-0.1-0.4-0.2-1-0.4-1.7L25,23.1z M18.1,21h6.3l-2.8-9.9L18.1,21z"/>
	<path class="st0" d="M44.3,6.5v1.2c-0.4,0.1-0.8,0.2-1,0.4c-0.2,0.1-0.4,0.3-0.6,0.6c-0.1,0.2-0.2,0.5-0.3,0.9
		c0,0.4-0.1,0.8-0.1,1.4v17.5h3.4c0.7,0,1.2-0.1,1.6-0.3c0.4-0.2,0.8-0.5,1.1-1c0.3-0.4,0.6-1,0.8-1.7c0.2-0.7,0.4-1.4,0.5-2h2.4
		l-0.4,7.1H35.1v-1.2c0.4-0.1,0.8-0.2,1-0.4s0.4-0.3,0.6-0.6c0.1-0.2,0.2-0.5,0.2-0.9c0-0.4,0.1-0.8,0.1-1.4V10.9c0-0.6,0-1,0-1.4
		c0-0.4-0.1-0.7-0.2-0.9c-0.1-0.2-0.3-0.4-0.6-0.6c-0.3-0.1-0.6-0.3-1-0.4V6.5H44.3z"/>
	<path class="st0" d="M71.5,6.5v5.6h-2.4c-0.4-1.1-0.7-1.9-1-2.3c-0.3-0.4-0.6-0.7-1-0.9c-0.4-0.2-1-0.3-1.9-0.3h-3.8V17h2.3
		c0.5,0,0.9-0.1,1.2-0.2c0.3-0.1,0.5-0.4,0.7-0.7c0.2-0.3,0.4-0.9,0.6-1.6h2v7.2h-2c-0.2-0.7-0.3-1.2-0.5-1.6
		c-0.2-0.4-0.4-0.6-0.7-0.8c-0.3-0.2-0.7-0.2-1.2-0.2h-2.3v9.4h3.8c0.4,0,0.8,0,1-0.1c0.3-0.1,0.5-0.1,0.8-0.3s0.4-0.3,0.6-0.5
		c0.2-0.2,0.4-0.5,0.5-0.7c0.2-0.3,0.3-0.6,0.5-1c0.2-0.4,0.4-1,0.6-1.7h2.4l-0.3,6.4H54v-1.2c0.4-0.1,0.8-0.2,1-0.4
		s0.4-0.3,0.6-0.6c0.1-0.2,0.2-0.5,0.2-0.9c0-0.4,0.1-0.8,0.1-1.4V10.9c0-0.6,0-1,0-1.4c0-0.4-0.1-0.7-0.2-0.9
		c-0.1-0.2-0.3-0.4-0.6-0.6c-0.3-0.1-0.6-0.3-1-0.4V6.5H71.5z"/>
	<path class="st0" d="M86,30.5v-1.2c0.5-0.1,0.9-0.2,1.2-0.3c0.3-0.1,0.5-0.3,0.6-0.6c0.1-0.2,0.2-0.6,0.3-0.9
		c0-0.4,0.1-0.9,0.1-1.4V8.6h-1.4c-0.7,0-1.2,0.1-1.6,0.2c-0.4,0.2-0.7,0.4-1,0.8c-0.3,0.4-0.5,0.8-0.7,1.4s-0.4,1.2-0.5,1.7h-2.4
		V6.5h20.7v6.2h-2.4c-0.2-0.8-0.4-1.4-0.5-1.8c-0.1-0.4-0.3-0.7-0.4-1c-0.2-0.3-0.3-0.5-0.5-0.7S97,9,96.8,8.9
		c-0.2-0.1-0.4-0.2-0.7-0.2c-0.3-0.1-0.7-0.1-1.2-0.1h-1.3v17.6c0,0.6,0,1.1,0.1,1.4c0,0.3,0.1,0.6,0.2,0.8c0.1,0.2,0.2,0.4,0.3,0.5
		c0.1,0.1,0.3,0.2,0.6,0.3c0.2,0.1,0.6,0.2,1,0.2v1.2H86z"/>
	<path class="st0" d="M120.7,6.5v5.6h-2.4c-0.4-1.1-0.7-1.9-1-2.3c-0.3-0.4-0.6-0.7-1-0.9c-0.4-0.2-1-0.3-1.9-0.3h-3.8V17h2.3
		c0.5,0,0.9-0.1,1.2-0.2c0.3-0.1,0.5-0.4,0.7-0.7c0.2-0.3,0.4-0.9,0.6-1.6h2v7.2h-2c-0.2-0.7-0.3-1.2-0.5-1.6
		c-0.2-0.4-0.4-0.6-0.7-0.8c-0.3-0.2-0.7-0.2-1.2-0.2h-2.3v9.4h3.8c0.4,0,0.8,0,1-0.1c0.3-0.1,0.5-0.1,0.8-0.3
		c0.2-0.1,0.4-0.3,0.6-0.5c0.2-0.2,0.4-0.5,0.5-0.7c0.2-0.3,0.3-0.6,0.5-1c0.2-0.4,0.4-1,0.6-1.7h2.4l-0.3,6.4h-17.3v-1.2
		c0.4-0.1,0.8-0.2,1-0.4s0.4-0.3,0.6-0.6c0.1-0.2,0.2-0.5,0.2-0.9c0-0.4,0.1-0.8,0.1-1.4V10.9c0-0.6,0-1,0-1.4
		c0-0.4-0.1-0.7-0.2-0.9c-0.1-0.2-0.3-0.4-0.6-0.6c-0.3-0.1-0.6-0.3-1-0.4V6.5H120.7z"/>
	<path class="st0" d="M129.3,28.4h5c0.6,0,1.2-0.1,1.6-0.4c0.4-0.3,0.8-0.7,1.1-1.3c0.3-0.6,0.6-1.6,1-3h2.4v6.7h-17.6v-1.2
		l11.3-20.8h-4.8c-0.8,0-1.4,0.1-1.8,0.4c-0.4,0.3-0.8,0.7-1.1,1.4c-0.3,0.6-0.6,1.5-0.8,2.5h-2.4V6.5h17.5v1.2L129.3,28.4z"/>
	<path class="st0" d="M160.1,6.5v5.6h-2.4c-0.4-1.1-0.7-1.9-1-2.3c-0.3-0.4-0.6-0.7-1-0.9c-0.4-0.2-1-0.3-1.9-0.3H150V17h2.3
		c0.5,0,0.9-0.1,1.2-0.2c0.3-0.1,0.5-0.4,0.7-0.7c0.2-0.3,0.4-0.9,0.6-1.6h2v7.2h-2c-0.2-0.7-0.3-1.2-0.5-1.6
		c-0.2-0.4-0.4-0.6-0.7-0.8c-0.3-0.2-0.7-0.2-1.2-0.2H150v9.4h3.8c0.4,0,0.8,0,1-0.1c0.3-0.1,0.5-0.1,0.8-0.3s0.4-0.3,0.6-0.5
		c0.2-0.2,0.4-0.5,0.5-0.7c0.2-0.3,0.3-0.6,0.5-1s0.4-1,0.6-1.7h2.4l-0.3,6.4h-17.3v-1.2c0.4-0.1,0.8-0.2,1-0.4
		c0.3-0.1,0.4-0.3,0.6-0.6c0.1-0.2,0.2-0.5,0.2-0.9c0-0.4,0.1-0.8,0.1-1.4V10.9c0-0.6,0-1,0-1.4c0-0.4-0.1-0.7-0.2-0.9
		c-0.1-0.2-0.3-0.4-0.6-0.6c-0.3-0.1-0.6-0.3-1-0.4V6.5H160.1z"/>
	<path class="st0" d="M171.8,30.5h-9.2v-1.2c0.4-0.1,0.8-0.2,1-0.4c0.3-0.1,0.4-0.3,0.6-0.6c0.1-0.2,0.2-0.5,0.2-0.9
		c0-0.4,0.1-0.8,0.1-1.4V10.9c0-0.6,0-1,0-1.4c0-0.4-0.1-0.7-0.2-0.9c-0.1-0.2-0.3-0.4-0.6-0.6c-0.3-0.1-0.6-0.3-1-0.4V6.5h10.3
		c1.4,0,2.6,0.1,3.5,0.3c1,0.2,1.8,0.5,2.5,0.9c0.6,0.3,1.1,0.7,1.5,1.2c0.4,0.5,0.7,1.1,1,1.7c0.2,0.7,0.3,1.4,0.3,2.3
		c0,1.2-0.2,2.1-0.6,3c-0.4,0.8-1,1.5-1.6,2.1c-0.7,0.5-1.6,1.1-2.8,1.5v0.2c0.9,0.4,1.6,0.9,2.2,1.5c0.6,0.6,1.1,1.4,1.5,2.4
		l1.1,2.4c0.5,1.1,1,1.9,1.5,2.4c0.5,0.5,1.1,0.9,1.7,1v1.2H178c-0.7-0.9-1.5-2.3-2.3-4.2l-1.4-3c-0.4-0.9-0.8-1.5-1.1-1.9
		c-0.3-0.4-0.6-0.6-0.9-0.8s-0.8-0.2-1.4-0.2h-1v5.7c0,0.9,0,1.5,0.1,1.8c0.1,0.4,0.2,0.6,0.5,0.8c0.2,0.2,0.7,0.4,1.3,0.6V30.5z
		 M169.9,8.6v9.8h1.7c0.9,0,1.7-0.1,2.3-0.4c0.6-0.3,1.1-0.6,1.5-1.1c0.4-0.5,0.6-1,0.7-1.6c0.1-0.6,0.2-1.3,0.2-2
		c0-1.6-0.4-2.8-1.1-3.6c-0.8-0.8-1.9-1.2-3.3-1.2C170.9,8.6,170.2,8.6,169.9,8.6z"/>
	<path class="st0" d="M212.2,25.9c0.5,0.7,0.8,1.3,1.2,1.7c0.3,0.4,0.6,0.7,0.8,1c0.2,0.2,0.5,0.4,0.7,0.5c0.2,0.1,0.5,0.2,0.9,0.3
		v1.1h-9.5v-1.2c0.4-0.1,0.7-0.2,0.8-0.3c0.1-0.1,0.2-0.3,0.2-0.5c0-0.2,0-0.4-0.1-0.6c-0.1-0.2-0.2-0.4-0.4-0.8
		c-0.2-0.4-0.6-1-1.2-1.9l-2.7-4.2c-0.3-0.5-0.6-0.9-0.9-1.2c-0.2-0.3-0.5-0.5-0.7-0.6c-0.2-0.1-0.6-0.2-1-0.2h-0.4v7
		c0,0.4,0,0.8,0,1.1c0,0.4,0.1,0.6,0.1,0.9c0.1,0.2,0.2,0.4,0.3,0.6c0.1,0.2,0.3,0.3,0.6,0.4c0.2,0.1,0.5,0.2,0.9,0.3v1.2h-9.2v-1.2
		c0.4-0.1,0.8-0.2,1-0.4c0.3-0.1,0.4-0.3,0.6-0.6c0.1-0.2,0.2-0.5,0.2-0.9c0-0.4,0.1-0.8,0.1-1.4V10.9c0-0.6,0-1,0-1.4
		c0-0.4-0.1-0.7-0.2-0.9c-0.1-0.2-0.3-0.4-0.6-0.6c-0.3-0.1-0.6-0.3-1-0.4V6.5h9.2v1.2c-0.5,0.1-0.9,0.3-1.1,0.4
		c-0.2,0.2-0.4,0.3-0.5,0.5c-0.1,0.2-0.2,0.5-0.2,0.8s-0.1,0.8-0.1,1.5v6.3h0.4c0.5,0,1-0.1,1.3-0.2c0.3-0.1,0.6-0.3,1-0.6
		c0.3-0.3,1-1,1.9-2.1c1-1.1,1.6-2,2.1-2.6c0.4-0.6,0.7-1.1,0.9-1.5c0.2-0.4,0.2-0.8,0.2-1.2c0-0.4-0.1-0.7-0.4-1
		c-0.3-0.2-0.7-0.4-1.2-0.4V6.5h9v1.2c-0.4,0.1-0.8,0.2-1.1,0.4c-0.3,0.2-0.7,0.4-1.1,0.8c-0.4,0.4-0.9,0.9-1.6,1.6l-5.3,5.9
		L212.2,25.9z"/>
	<path class="st0" d="M226.8,30.8c-3.5,0-6-1-7.8-3c-1.7-2-2.6-5-2.6-9.1c0-2.6,0.4-4.9,1.3-6.8c0.8-1.9,2.1-3.3,3.7-4.3
		c1.6-1,3.6-1.5,5.8-1.5c3.5,0,6.1,1,7.9,3c1.8,2,2.6,5,2.6,9c0,2.2-0.3,4.1-0.8,5.7c-0.5,1.6-1.3,2.9-2.2,3.9c-1,1-2.1,1.8-3.5,2.3
		C230,30.6,228.5,30.8,226.8,30.8z M222.1,18.2c0,3.5,0.4,6.2,1.3,7.9c0.9,1.7,2.2,2.6,3.9,2.6c0.9,0,1.7-0.2,2.3-0.7
		c0.6-0.5,1.1-1.2,1.5-2c0.4-0.9,0.7-1.9,0.8-3.1c0.2-1.2,0.3-2.5,0.3-3.9c0-2.3-0.2-4.3-0.6-5.9c-0.4-1.6-0.9-2.8-1.7-3.6
		c-0.7-0.8-1.7-1.2-2.9-1.2c-1.7,0-3,0.8-3.8,2.4C222.5,12.3,222.1,14.9,222.1,18.2z"/>
	<path class="st0" d="M249.7,6.5v1.2c-0.4,0.1-0.8,0.2-1,0.4c-0.2,0.1-0.4,0.3-0.6,0.6c-0.1,0.2-0.2,0.5-0.3,0.9
		c0,0.4-0.1,0.8-0.1,1.4v17.5h3.4c0.7,0,1.2-0.1,1.6-0.3c0.4-0.2,0.8-0.5,1.1-1c0.3-0.4,0.6-1,0.8-1.7c0.2-0.7,0.4-1.4,0.5-2h2.4
		l-0.4,7.1h-16.8v-1.2c0.4-0.1,0.8-0.2,1-0.4c0.3-0.1,0.4-0.3,0.6-0.6c0.1-0.2,0.2-0.5,0.2-0.9c0-0.4,0.1-0.8,0.1-1.4V10.9
		c0-0.6,0-1,0-1.4c0-0.4-0.1-0.7-0.2-0.9c-0.1-0.2-0.3-0.4-0.6-0.6c-0.3-0.1-0.6-0.3-1-0.4V6.5H249.7z"/>
	<path class="st0" d="M276.9,6.5v5.6h-2.4c-0.4-1.1-0.7-1.9-1-2.3c-0.3-0.4-0.6-0.7-1-0.9c-0.4-0.2-1-0.3-1.9-0.3h-3.8V17h2.3
		c0.5,0,0.9-0.1,1.2-0.2c0.3-0.1,0.5-0.4,0.7-0.7c0.2-0.3,0.4-0.9,0.6-1.6h2v7.2h-2c-0.2-0.7-0.3-1.2-0.5-1.6
		c-0.2-0.4-0.4-0.6-0.7-0.8c-0.3-0.2-0.7-0.2-1.2-0.2h-2.3v9.4h3.8c0.4,0,0.8,0,1-0.1c0.3-0.1,0.5-0.1,0.8-0.3
		c0.2-0.1,0.4-0.3,0.6-0.5c0.2-0.2,0.4-0.5,0.5-0.7c0.2-0.3,0.3-0.6,0.5-1s0.4-1,0.6-1.7h2.4l-0.3,6.4h-17.3v-1.2
		c0.4-0.1,0.8-0.2,1-0.4s0.4-0.3,0.6-0.6c0.1-0.2,0.2-0.5,0.2-0.9c0-0.4,0.1-0.8,0.1-1.4V10.9c0-0.6,0-1,0-1.4
		c0-0.4-0.1-0.7-0.2-0.9c-0.1-0.2-0.3-0.4-0.6-0.6c-0.3-0.1-0.6-0.3-1-0.4V6.5H276.9z"/>
	<path class="st0" d="M286.5,28.6c0,1.3-0.1,2.3-0.3,3.1c-0.2,0.8-0.5,1.5-1,2.1c-0.5,0.7-1.3,1.4-2.2,2c-1.1,0.7-2.4,1.2-3.9,1.7
		l-0.9-2.2c0.7-0.3,1.2-0.6,1.6-0.9c0.3-0.3,0.6-0.6,0.8-0.9c0.2-0.3,0.3-0.7,0.3-1.2c0.1-0.5,0.1-1.2,0.1-2.1V10.9c0-0.6,0-1,0-1.4
		c0-0.4-0.1-0.7-0.2-0.9c-0.1-0.2-0.3-0.4-0.6-0.6c-0.3-0.1-0.6-0.3-1-0.4V6.5h9.2v1.2c-0.5,0.1-0.9,0.3-1.1,0.4
		c-0.2,0.2-0.4,0.3-0.5,0.5c-0.1,0.2-0.2,0.5-0.2,0.8c0,0.3-0.1,0.8-0.1,1.5V28.6z"/>
	<path class="st0" d="M298.1,26.1c0,0.4,0,0.8,0,1.1c0,0.4,0.1,0.6,0.1,0.9c0.1,0.2,0.2,0.4,0.3,0.6c0.1,0.2,0.3,0.3,0.6,0.4
		c0.2,0.1,0.5,0.2,0.9,0.3v1.2h-9.2v-1.2c0.4-0.1,0.8-0.2,1-0.4c0.3-0.1,0.4-0.3,0.6-0.6c0.1-0.2,0.2-0.5,0.2-0.9
		c0-0.4,0.1-0.8,0.1-1.4V10.9c0-0.6,0-1,0-1.4c0-0.4-0.1-0.7-0.2-0.9c-0.1-0.2-0.3-0.4-0.6-0.6s-0.6-0.3-1-0.4V6.5h9.2v1.2
		c-0.5,0.1-0.8,0.3-1.1,0.4c-0.2,0.1-0.4,0.3-0.5,0.5c-0.1,0.2-0.2,0.5-0.2,0.8c0,0.3-0.1,0.8-0.1,1.5V26.1z M297.8,0v4.3H293V0
		H297.8z"/>
</g>
</svg>
