<?xml version="1.0" encoding="utf-8"?>
<!-- Generator: Adobe Illustrator 19.2.1, SVG Export Plug-In . SVG Version: 6.00 Build 0)  -->
<svg version="1.1" id="Layer_1" xmlns="http://www.w3.org/2000/svg" xmlns:xlink="http://www.w3.org/1999/xlink" x="0px" y="0px"
	 viewBox="0 0 231.6 71.5" style="enable-background:new 0 0 231.6 71.5;" xml:space="preserve">
<style type="text/css">
	.st0{fill-rule:evenodd;clip-rule:evenodd;fill:#BBBDBF;}
	.st1{fill:none;stroke:#231F20;stroke-width:0.216;stroke-miterlimit:22.9256;}
	.st2{fill:#BBBDBF;}
	.st3{font-family:'FuturaBT-Bold';}
	.st4{font-size:4.1239px;}
	.st5{font-family:'FrizQuadrataTT';}
	.st6{font-size:4.1242px;}
	.st7{font-size:4.1241px;}
	.st8{font-size:4.124px;}
	.st9{font-size:4.1238px;}
	.st10{fill-rule:evenodd;clip-rule:evenodd;fill:#FFFFFF;}
	.st11{fill-rule:evenodd;clip-rule:evenodd;fill:#231F6F;}
	.st12{fill-rule:evenodd;clip-rule:evenodd;fill:#EC1C24;}
	.st13{fill:#EC1C24;}
	.st14{font-family:'Cambria-Bold';}
	.st15{font-size:5.3708px;}
	.st16{fill:#231F6F;}
	.st17{font-size:2.9397px;}
</style>
<g>
	<g>
		<path class="st0" d="M22.8,69c18.5-8.3,25.8-29.4,20.7-49.3c-4.2-1.9-8.7-3.2-13.9-4.4c-0.5-0.1,0.3-3.4-0.8-5.3
			c-1.2-1.9-4.3-2.4-4.8-2.4c-1-0.1-2,6.7-3,6.6C13.8,14,9.6,16.2,1.5,19.7C-2.3,39.2,3.2,61.2,22.8,69"/>
		<path class="st0" d="M5.3,33c-1.2,4.2,5.1,4,7.4,2.7C8.9,39.8,1.5,36.7,5.3,33"/>
		<path class="st0" d="M38.7,31.3c-0.9,0.9-2.7,1.3-4.2,0.9c0.5-0.2,0.9-0.6,1.1-1.1C36.6,31.5,37.5,31.6,38.7,31.3"/>
		<path class="st0" d="M10.1,30.3c-1.9,0.6-4,1.6-5.6,3.6c0.3-0.8,0.7-1.4,1.1-1.9c10.2-11,27.1,4.5,33.6-1.1
			c-1.7,3.9-13,1.4-18.4-0.1C17.5,29.8,13.7,29.7,10.1,30.3"/>
		<path class="st0" d="M28.4,47.3h-4.2c0-5.2,0-10.3,0-15.5c1.6,0.5,2.6,0.7,4.2,0.8L28.4,47.3z"/>
		<line class="st1" x1="28.1" y1="38" x2="28.1" y2="41"/>
		<path class="st0" d="M40.9,47.2l-10.1-8.5l6.2-5.9c-1.2,0.4-2.7,0.6-3.9,0.5l-4.9,4.6V41l0.3,0.3l7.3,5.9H40.9z"/>
		<rect x="19" y="30.3" class="st0" width="4.1" height="16.9"/>
		<path class="st0" d="M17.6,44c0.1-2,0-8.6,0.1-13.1c-1.3-0.1-2.4-0.2-4.1-0.4c0,4.6,0.1,11.5,0,13.6c-0.5,2.2-3.9,1.8-5.6,0.1
			c-0.4,0.5-0.8,1-1.2,1.5c1.7,1.5,3.7,2.2,5.8,2.2C15.3,47.6,17.5,46,17.6,44"/>
		<text transform="matrix(-0.1045 -0.9945 0.9945 -0.1045 44.9258 28.4855)" class="st2 st3 st4">İ</text>
		<text transform="matrix(-6.980000e-002 -0.9976 0.9976 -6.980000e-002 45.1544 29.7471)" class="st2 st5 st6">J</text>
		<text transform="matrix(-3.490000e-002 -0.9994 0.9994 -3.490000e-002 45.1368 31.9147)" class="st2 st5 st7">E</text>
		<text transform="matrix(0 -1 1 0 45.014 34.075)" class="st2 st5 st8">L</text>
		<text transform="matrix(8.720000e-002 -0.9962 0.9962 8.720000e-002 44.5992 37.4494)" class="st2 st5 st7">O</text>
		<text transform="matrix(0.1736 -0.9848 0.9848 0.1736 44.1162 39.7173)" class="st2 st5 st8">K</text>
		<text transform="matrix(0.1908 -0.9816 0.9816 0.1908 43.9966 40.9603)" class="st2 st5 st4"> </text>
		<text transform="matrix(0.2419 -0.9703 0.9703 0.2419 43.2897 43.291)" class="st2 st5 st8">R</text>
		<text transform="matrix(0.2756 -0.9613 0.9613 0.2756 42.5372 45.3186)" class="st2 st5 st7">E</text>
		<text transform="matrix(0.3584 -0.9336 0.9336 0.3584 41.4372 47.623)" class="st2 st5 st7">Z</text>
		<text transform="matrix(0.3907 -0.9205 0.9205 0.3907 40.5052 49.7249)" class="st2 st5 st8">E</text>
		<text transform="matrix(0.4848 -0.8746 0.8746 0.4848 39.5234 51.6429)" class="st2 st5 st8">T</text>
		<text transform="matrix(0.515 -0.8572 0.8572 0.515 39.0072 52.7564)" class="st2 st5 st7"> </text>
		<text transform="matrix(0.5592 -0.829 0.829 0.5592 37.7385 54.5851)" class="st2 st5 st4">E</text>
		<text transform="matrix(0.5878 -0.809 0.809 0.5878 36.3207 56.1769)" class="st2 st5 st8">L</text>
		<text transform="matrix(0.6691 -0.7431 0.7431 0.6691 34.1269 58.2727)" class="st2 st5 st9">A</text>
		<text transform="matrix(0.7071 -0.7071 0.7071 0.7071 33.3983 59.103)" class="st2 st5 st8">J</text>
		<text transform="matrix(-5.230000e-002 0.9986 -0.9986 -5.230000e-002 2.3019 28.5492)" class="st2 st5 st4">J</text>
		<text transform="matrix(0 1 -1 0 2.2303 29.7391)" class="st2 st5 st8">A</text>
		<text transform="matrix(5.230000e-002 0.9986 -0.9986 5.230000e-002 2.7596 32.2854)" class="st2 st5 st4">L</text>
		<text transform="matrix(8.720000e-002 0.9962 -0.9962 8.720000e-002 3.0039 34.3812)" class="st2 st5 st7">E</text>
		<text transform="matrix(0.1219 0.9925 -0.9925 0.1219 3.3204 36.524)" class="st2 st5 st4"> </text>
		<text transform="matrix(0.1564 0.9877 -0.9877 0.1564 3.2127 37.7061)" class="st2 st5 st7">T</text>
		<text transform="matrix(0.1908 0.9816 -0.9816 0.1908 3.6623 40.0241)" class="st2 st5 st4">E</text>
		<text transform="matrix(0.2588 0.9659 -0.9659 0.2588 4.1196 42.1641)" class="st2 st5 st4">Z</text>
		<text transform="matrix(0.2924 0.9563 -0.9563 0.2924 5.0199 44.5239)" class="st2 st5 st7">E</text>
		<text transform="matrix(0.3746 0.9272 -0.9272 0.3746 5.7448 46.587)" class="st2 st5 st7">R</text>
		<text transform="matrix(0.4226 0.9063 -0.9063 0.4226 6.721 48.81)" class="st2 st5 st8"> </text>
		<text transform="matrix(0.4695 0.8829 -0.8829 0.4695 6.9937 50.1121)" class="st2 st5 st4">K</text>
		<text transform="matrix(0.5446 0.8387 -0.8387 0.5446 8.2606 52.1075)" class="st2 st5 st7">O</text>
		<text transform="matrix(0.5878 0.809 -0.809 0.5878 10.129 54.8129)" class="st2 st5 st8">L</text>
		<text transform="matrix(0.6691 0.7431 -0.7431 0.6691 11.6492 56.6909)" class="st2 st5 st9">E</text>
		<text transform="matrix(0.7071 0.7071 -0.7071 0.7071 13.1801 58.3552)" class="st2 st5 st8">J</text>
		<text transform="matrix(0.7431 0.6691 -0.6691 0.7431 13.9498 59.2566)" class="st2 st3 st9">İ</text>
		<path class="st10" d="M24.2,69.3C42.6,61,50,40,44.9,20.1c-4.2-1.9-8.7-3.2-13.9-4.4c-0.5-0.1,0.3-3.4-0.8-5.3
			C29,8.6,25.9,8.1,25.4,8c-1-0.1-2,6.7-3,6.6c-7.3-0.3-11.5,1.9-19.6,5.4C-1,39.5,4.6,61.6,24.2,69.3"/>
		<path class="st11" d="M3.3,20.3c-3.8,19.2,1.7,40.9,21,48.6c18.2-8.2,25.5-29,20.4-48.6c-4.4-2-9.1-3.4-14-4.1
			c0.4-0.9,0.7-1.7,1-2.6c5.3,0.8,10.3,2.3,15.1,4.4c5.5,21.6-2.5,44.4-22.5,53.4C3.1,63.1-2.9,39.2,1.2,18.1
			c5.1-2.2,10.2-3.7,15.1-4.4c-0.7,0.9-1.4,2-1.8,3C10.8,17.5,7.1,18.7,3.3,20.3"/>
		<path class="st11" d="M15.6,27.9c-2-10.1,7.2-18,9.8-19.9C18.4,9.2,9.3,18.2,15.6,27.9"/>
		<path class="st11" d="M30.7,16.4C34.1,9.2,32.4,4.7,27.7,0c0.3,1.1,1.2,4.9-1.9,5.7C28,6.9,30.8,13.3,30.7,16.4"/>
		<path class="st12" d="M23.4,4.4c2.2,7.2-8.4,8.6-8,19.5c1.6-6.7,12.1-8.6,10-15.8c1.5,0.1,3.7,2,4.5,4.4C30.5,9.1,27,5.4,23.4,4.4
			"/>
		<path class="st12" d="M6.8,33.4c-1.2,4.2,5.1,4,7.4,2.7C10.4,40.3,3,37.1,6.8,33.4"/>
		<path class="st12" d="M40.3,31.8c-0.9,0.9-2.7,1.3-4.2,0.9c0.5-0.2,0.9-0.6,1.1-1.1C38.1,31.9,39.1,32,40.3,31.8"/>
		<path class="st11" d="M11.7,30.8c-1.9,0.6-4,1.6-5.6,3.6c0.3-0.8,0.7-1.4,1.1-1.9c10.2-11,27.1,4.5,33.6-1.1
			c-1.7,3.9-13,1.4-18.4-0.1C19,30.2,15.2,30.1,11.7,30.8"/>
		<path class="st11" d="M30,47.7h-4.2c0-5.2,0-10.3,0-15.5c1.6,0.5,2.6,0.7,4.2,0.8L30,47.7z"/>
		<line class="st1" x1="29.7" y1="38.5" x2="29.7" y2="41.5"/>
		<path class="st11" d="M42.4,47.6l-10.1-8.5l6.2-5.9c-1.2,0.4-2.7,0.6-3.9,0.5l-4.9,4.6v3.2l0.3,0.3l7.3,5.9H42.4z"/>
		<rect x="20.5" y="30.8" class="st11" width="4.1" height="16.9"/>
		<path class="st11" d="M19.1,44.5c0.1-2,0-8.6,0.1-13.1c-1.3-0.1-2.4-0.2-4.1-0.4c0,4.6,0.1,11.5,0,13.6c-0.5,2.2-3.9,1.8-5.6,0.1
			c-0.4,0.5-0.8,1-1.2,1.5c1.7,1.5,3.7,2.2,5.8,2.2C16.8,48.1,19,46.5,19.1,44.5"/>
		<text transform="matrix(1 0 0 1 10.2547 53.9334)" class="st13 st14 st15">J</text>
		<text transform="matrix(1 0 0 1 11.9178 53.9334)" class="st13 st14 st15">ALE TEZER </text>
		<text transform="matrix(1 0 0 1 10.8113 57.203)" class="st16 st14 st17">E</text>
		<text transform="matrix(1 0 0 1 12.4812 57.203)" class="st16 st14 st17">ĞİTİM K</text>
		<text transform="matrix(1 0 0 1 23.4129 57.203)" class="st16 st14 st17">UR</text>
		<text transform="matrix(1 0 0 1 27.2581 57.203)" class="st16 st14 st17">UMLARI</text>
	</g>
	<g>
		<path class="st16" d="M67.8,19.5v0.6l-1.7,0.6c-0.3,0.1-0.4,0.3-0.4,0.7v12.8c0,1.5-0.2,2.8-0.5,4.1c-0.3,1.3-0.8,2.5-1.5,3.6
			c-0.7,1.1-1.6,2.1-2.7,2.8c-1.1,0.8-2.5,1.3-4,1.6l-0.4-0.7c3.3-1.6,4.9-5.2,4.9-10.6V21.4c0-0.4-0.2-0.6-0.5-0.7l-1.7-0.6v-0.6
			H67.8z"/>
		<path class="st16" d="M78.7,19.5l7.7,19.1c0.1,0.3,0.3,0.6,0.4,0.7c0.1,0.1,0.3,0.2,0.5,0.3l1.7,0.6v0.6h-9.4v-0.6l2-0.6
			c0.4-0.1,0.5-0.5,0.4-1l-2-5.1h-6.5l-2.1,5.1c-0.2,0.5-0.1,0.8,0.4,0.9l2,0.6v0.6h-6.8v-0.6l1.9-0.6c0.2-0.1,0.4-0.2,0.5-0.3
			c0.1-0.1,0.2-0.4,0.4-0.7l8-19H78.7z M77,25.5l-2.8,6.8h5.4L77,25.5z"/>
		<path class="st16" d="M100.2,19.5v0.6l-2.1,0.6c-0.3,0.1-0.5,0.3-0.5,0.7v17.9h5.2c0.4,0,0.7-0.1,0.9-0.2c0.2-0.1,0.4-0.4,0.6-0.9
			l1.5-3h1.2l-0.6,5.5H91.3v-0.6l1.7-0.6c0.3-0.1,0.4-0.4,0.4-0.7V21.4c0-0.4-0.2-0.6-0.5-0.7l-1.7-0.6v-0.6H100.2z"/>
		<path class="st16" d="M124.8,19.5v5h-1.1l-1.2-2.5c-0.2-0.4-0.4-0.7-0.6-0.9c-0.2-0.1-0.6-0.2-1-0.2h-5.5v8.6h3.9
			c0.6,0,1-0.3,1.3-0.9l0.9-2.1h0.8v7.3h-0.8l-0.9-2.1c-0.3-0.6-0.7-0.9-1.3-0.9h-3.9v8.6h5.9c0.4,0,0.7-0.1,1-0.2s0.4-0.4,0.6-0.8
			l1.5-3h1.2l-0.6,5.5h-15.9v-0.6l1.7-0.6c0.3-0.1,0.4-0.4,0.4-0.7V21.4c0-0.4-0.2-0.6-0.5-0.7l-1.7-0.6v-0.6H124.8z"/>
		<path class="st16" d="M152.3,19.5v5.3h-1.1L150,22c-0.2-0.4-0.4-0.7-0.6-0.9c-0.2-0.1-0.5-0.2-0.9-0.2h-3.2v17.9
			c0,0.4,0.1,0.6,0.4,0.7l1.8,0.6v0.6h-8.6l0-0.6l1.7-0.6c0.3-0.1,0.4-0.4,0.4-0.7V20.9h-3.2c-0.4,0-0.7,0.1-0.9,0.2
			c-0.2,0.1-0.4,0.4-0.6,0.9l-1.2,2.8H134v-5.3H152.3z"/>
		<path class="st16" d="M170.2,19.5v5h-1.1l-1.2-2.5c-0.2-0.4-0.4-0.7-0.6-0.9c-0.2-0.1-0.6-0.2-1-0.2h-5.5v8.6h3.9
			c0.6,0,1-0.3,1.3-0.9l0.9-2.1h0.8v7.3h-0.8l-0.9-2.1c-0.3-0.6-0.7-0.9-1.3-0.9h-3.9v8.6h5.9c0.4,0,0.7-0.1,1-0.2s0.4-0.4,0.6-0.8
			l1.5-3h1.2l-0.6,5.5h-15.9v-0.6l1.7-0.6c0.3-0.1,0.4-0.4,0.4-0.7V21.4c0-0.4-0.2-0.6-0.5-0.7l-1.7-0.6v-0.6H170.2z"/>
		<path class="st16" d="M188.9,19.5l0.3,1l-11.2,18.9h6.9c0.6,0,1.1-0.4,1.3-1.1l1.7-3.6h1.3l-0.8,6.1h-15.3l-0.2-1l11.2-18.9h-6.2
			c-0.3,0-0.6,0.1-0.8,0.2c-0.2,0.1-0.4,0.4-0.6,0.8l-1.6,3.6h-1.4l0.8-6.1H188.9z"/>
		<path class="st16" d="M207.7,19.5v5h-1.1l-1.2-2.5c-0.2-0.4-0.4-0.7-0.6-0.9c-0.2-0.1-0.6-0.2-1-0.2h-5.5v8.6h3.9
			c0.6,0,1-0.3,1.3-0.9l0.9-2.1h0.8v7.3h-0.8l-0.9-2.1c-0.3-0.6-0.7-0.9-1.3-0.9h-3.9v8.6h5.9c0.4,0,0.7-0.1,1-0.2s0.4-0.4,0.6-0.8
			l1.5-3h1.2l-0.6,5.5h-15.9v-0.6l1.7-0.6c0.3-0.1,0.4-0.4,0.4-0.7V21.4c0-0.4-0.2-0.6-0.5-0.7l-1.7-0.6v-0.6H207.7z"/>
		<path class="st16" d="M211,19.5h10.4c2.1,0,3.9,0.5,5.2,1.6c1.3,1.1,2,2.5,2,4.2c0,1.5-0.5,2.7-1.5,3.7c-1,1-2.3,1.6-3.8,1.8
			l5.4,7.2c0.7,0.9,1.3,1.5,2,1.8l0.9,0.3v0.6h-6.3c-0.2-0.8-0.5-1.5-1-2.3l-5.8-8v-0.6c0.4,0.1,0.8,0.2,1.3,0.2
			c1.2,0,2.3-0.4,3.1-1.3c0.8-0.9,1.3-2,1.3-3.4c0-1.4-0.4-2.5-1.1-3.3c-0.7-0.8-1.7-1.2-3-1.2h-2.7v17.9c0,0.4,0.2,0.6,0.5,0.7
			l1.8,0.6v0.6H211v-0.6l1.7-0.6c0.3-0.1,0.5-0.4,0.5-0.7V21.4c0-0.4-0.2-0.6-0.5-0.7l-1.7-0.6V19.5z"/>
	</g>
	<g>
		<path class="st13" d="M65.7,51.8v2.9H65l-0.7-1.5c-0.1-0.2-0.2-0.4-0.4-0.5c-0.1-0.1-0.3-0.1-0.6-0.1h-3.2v5h2.3
			c0.3,0,0.6-0.2,0.7-0.5l0.5-1.2h0.5V60h-0.5l-0.5-1.2c-0.2-0.4-0.4-0.5-0.7-0.5h-2.3v5h3.4c0.2,0,0.4,0,0.6-0.1
			c0.1-0.1,0.2-0.2,0.4-0.5l0.8-1.7H66L65.7,64h-9.1v-0.4l1-0.4c0.2-0.1,0.2-0.2,0.2-0.4v-10c0-0.2-0.1-0.4-0.3-0.4l-1-0.4v-0.4
			H65.7z"/>
		<path class="st13" d="M74,51.6c0.7,0,1.4,0.1,2.2,0.3s1.5,0.5,2.1,0.8v2.6h-0.8L76.8,54c-0.2-0.5-0.6-0.9-1.1-1.2
			c-0.5-0.3-1-0.4-1.6-0.4c-1.2,0-2.2,0.5-2.9,1.5c-0.7,1-1.1,2.4-1.1,4c0,1.7,0.4,3,1.1,4c0.7,1,1.7,1.5,2.9,1.5
			c0.8,0,1.5-0.2,2-0.6v-3.5c0-0.2-0.1-0.3-0.3-0.4l-1.2-0.4v-0.4h4.9v0.4l-0.8,0.3c-0.2,0.1-0.3,0.2-0.3,0.4v3.8
			c-0.7,0.4-1.4,0.7-2.3,0.9c-0.8,0.2-1.6,0.3-2.3,0.3c-1.9,0-3.5-0.6-4.6-1.8c-1.2-1.2-1.8-2.7-1.8-4.6c0-1.9,0.6-3.4,1.8-4.6
			C70.4,52.1,72,51.6,74,51.6z M75.5,48.3l0.6,0.2c0,0.8-0.3,1.4-0.7,1.8c-0.5,0.4-1.1,0.6-1.8,0.6c-0.8,0-1.4-0.2-1.8-0.6
			c-0.5-0.4-0.7-1-0.7-1.8l0.6-0.2c0.1,0.4,0.3,0.8,0.7,1c0.3,0.2,0.8,0.4,1.3,0.4c0.5,0,1-0.1,1.3-0.4C75.2,49,75.4,48.7,75.5,48.3
			z"/>
		<path class="st13" d="M85.7,51.8v0.4l-1,0.4c-0.2,0.1-0.2,0.2-0.2,0.4v10c0,0.2,0.1,0.4,0.2,0.4l1,0.4V64h-4.9v-0.4l1-0.4
			c0.2-0.1,0.3-0.2,0.3-0.4v-10c0-0.2-0.1-0.4-0.3-0.4l-1-0.4v-0.4H85.7z M82.4,48.7c0.2-0.2,0.5-0.3,0.8-0.3c0.3,0,0.6,0.1,0.8,0.3
			c0.2,0.2,0.3,0.5,0.3,0.8c0,0.3-0.1,0.6-0.3,0.8c-0.2,0.2-0.5,0.3-0.8,0.3c-0.3,0-0.6-0.1-0.8-0.3c-0.2-0.2-0.3-0.5-0.3-0.8
			C82.1,49.2,82.2,48.9,82.4,48.7z"/>
		<path class="st13" d="M97.4,51.8v3h-0.6L96,53.2c-0.1-0.2-0.2-0.4-0.3-0.5c-0.1-0.1-0.3-0.1-0.5-0.1h-1.9v10.3
			c0,0.2,0.1,0.4,0.2,0.4l1,0.4V64h-4.9l0-0.4l1-0.4c0.2-0.1,0.2-0.2,0.2-0.4V52.6H89c-0.2,0-0.4,0-0.5,0.1
			c-0.1,0.1-0.2,0.2-0.3,0.5l-0.7,1.6h-0.7v-3H97.4z"/>
		<path class="st13" d="M103.4,51.8v0.4l-1,0.4c-0.2,0.1-0.2,0.2-0.2,0.4v10c0,0.2,0.1,0.4,0.2,0.4l1,0.4V64h-4.9v-0.4l1-0.4
			c0.2-0.1,0.3-0.2,0.3-0.4v-10c0-0.2-0.1-0.4-0.3-0.4l-1-0.4v-0.4H103.4z M100.1,48.7c0.2-0.2,0.5-0.3,0.8-0.3
			c0.3,0,0.6,0.1,0.8,0.3c0.2,0.2,0.3,0.5,0.3,0.8c0,0.3-0.1,0.6-0.3,0.8c-0.2,0.2-0.5,0.3-0.8,0.3c-0.3,0-0.6-0.1-0.8-0.3
			c-0.2-0.2-0.3-0.5-0.3-0.8C99.8,49.2,99.9,48.9,100.1,48.7z"/>
		<path class="st13" d="M119.3,51.8v0.4l-1,0.4c-0.2,0.1-0.3,0.2-0.2,0.4l0.6,10c0,0.2,0.1,0.4,0.2,0.4l1,0.3V64h-5v-0.4l1-0.4
			c0.2-0.1,0.3-0.2,0.3-0.4l-0.6-9L111.9,64h-0.5l-3.9-10.4l-0.6,9.3c0,0.2,0.1,0.4,0.3,0.4l1,0.4V64h-3.4v-0.4l1-0.4
			c0.2-0.1,0.3-0.2,0.3-0.4l0.7-10c0-0.2-0.1-0.3-0.3-0.4l-1-0.4v-0.4h4l3.1,8.6l3.1-8.6H119.3z"/>
		<path class="st13" d="M130.6,51.8v0.4l-1,0.4c-0.2,0.1-0.2,0.2-0.2,0.4v10c0,0.2,0.1,0.4,0.2,0.4l1,0.4l0,0.4h-4.9v-0.4l1-0.4
			c0.2-0.1,0.2-0.2,0.2-0.4v-10c0-0.2-0.1-0.4-0.2-0.4l-1-0.4v-0.4H130.6z M136.9,51.8v0.4c-0.1,0-0.2,0-0.3,0.1
			c-0.2,0-0.3,0.1-0.3,0.1c0,0-0.1,0-0.2,0.1s-0.2,0-0.2,0.1c0,0-0.1,0-0.2,0.1c-0.1,0-0.2,0.1-0.2,0.1c0,0-0.1,0.1-0.2,0.1
			c-0.1,0-0.1,0.1-0.2,0.1c0,0-0.1,0.1-0.1,0.1c-0.1,0.1-0.1,0.1-0.2,0.2l-2.9,3.8l4.2,5.6c0.4,0.5,0.8,0.8,1.2,0.9l0.5,0.2V64h-3.9
			c-0.2-0.5-0.5-1.1-1.1-1.9l-2.9-3.8V58l3.7-4.9c0.3-0.4,0.2-0.6,0-0.7l-0.8-0.3v-0.4H136.9z"/>
		<path class="st13" d="M149.4,51.8v0.4l-1,0.4c-0.2,0.1-0.3,0.2-0.3,0.4v7.1c0,1.3-0.4,2.3-1.2,3.1c-0.8,0.8-1.9,1.2-3.3,1.2
			c-1.4,0-2.5-0.4-3.4-1.2c-0.8-0.8-1.3-1.8-1.3-3v-7.2c0-0.2-0.1-0.4-0.3-0.4l-1-0.4v-0.4h4.9v0.4l-1,0.4c-0.2,0.1-0.2,0.2-0.2,0.4
			v6.6c0,1.2,0.2,2.1,0.7,2.7c0.5,0.6,1.2,0.9,2.2,0.9c0.9,0,1.7-0.3,2.2-0.9c0.5-0.6,0.8-1.4,0.8-2.4v-6.9c0-0.2-0.1-0.4-0.3-0.4
			l-1-0.4v-0.4H149.4z"/>
		<path class="st13" d="M150.7,51.8h6c1.2,0,2.2,0.3,3,0.9c0.8,0.6,1.1,1.4,1.1,2.4c0,0.8-0.3,1.6-0.9,2.1c-0.6,0.6-1.3,0.9-2.2,1.1
			l3.1,4.2c0.4,0.5,0.8,0.9,1.2,1l0.5,0.2V64h-3.6c-0.1-0.4-0.3-0.9-0.6-1.3l-3.3-4.6v-0.4c0.2,0.1,0.5,0.1,0.7,0.1
			c0.7,0,1.3-0.3,1.8-0.8c0.5-0.5,0.7-1.1,0.7-1.9c0-0.8-0.2-1.4-0.6-1.9c-0.4-0.5-1-0.7-1.7-0.7h-1.5v10.3c0,0.2,0.1,0.4,0.3,0.4
			l1,0.4V64h-5v-0.4l1-0.4c0.2-0.1,0.3-0.2,0.3-0.4v-10c0-0.2-0.1-0.4-0.3-0.4l-1-0.4V51.8z"/>
		<path class="st13" d="M174.3,51.8v0.4l-1,0.4c-0.2,0.1-0.3,0.2-0.3,0.4v7.1c0,1.3-0.4,2.3-1.2,3.1c-0.8,0.8-1.9,1.2-3.3,1.2
			c-1.4,0-2.5-0.4-3.4-1.2c-0.8-0.8-1.3-1.8-1.3-3v-7.2c0-0.2-0.1-0.4-0.3-0.4l-1-0.4v-0.4h4.9v0.4l-1,0.4c-0.2,0.1-0.2,0.2-0.2,0.4
			v6.6c0,1.2,0.2,2.1,0.7,2.7c0.5,0.6,1.2,0.9,2.2,0.9c0.9,0,1.7-0.3,2.2-0.9c0.5-0.6,0.8-1.4,0.8-2.4v-6.9c0-0.2-0.1-0.4-0.3-0.4
			l-1-0.4v-0.4H174.3z"/>
		<path class="st13" d="M189.8,51.8v0.4l-1,0.4c-0.2,0.1-0.3,0.2-0.2,0.4l0.6,10c0,0.2,0.1,0.4,0.2,0.4l1,0.3V64h-5v-0.4l1-0.4
			c0.2-0.1,0.3-0.2,0.3-0.4l-0.6-9L182.4,64h-0.5L178,53.6l-0.6,9.3c0,0.2,0.1,0.4,0.3,0.4l1,0.4V64h-3.4v-0.4l1-0.4
			c0.2-0.1,0.3-0.2,0.3-0.4l0.7-10c0-0.2-0.1-0.3-0.3-0.4l-1-0.4v-0.4h4l3.1,8.6l3.1-8.6H189.8z"/>
		<path class="st13" d="M197,51.8v0.4l-1.2,0.4c-0.2,0-0.3,0.2-0.3,0.4v10.3h3c0.2,0,0.4,0,0.5-0.1c0.1-0.1,0.2-0.2,0.3-0.5l0.9-1.7
			h0.7l-0.4,3.1h-8.7v-0.4l1-0.4c0.2-0.1,0.2-0.2,0.2-0.4v-10c0-0.2-0.1-0.4-0.3-0.4l-1-0.4v-0.4H197z"/>
		<path class="st13" d="M207.5,51.8l4.4,11c0.1,0.2,0.2,0.3,0.2,0.4c0.1,0.1,0.2,0.1,0.3,0.2l1,0.4V64h-5.4v-0.4l1.2-0.3
			c0.2-0.1,0.3-0.3,0.2-0.5l-1.1-2.9h-3.7l-1.2,2.9c-0.1,0.3,0,0.5,0.2,0.5l1.2,0.3V64h-3.9v-0.4l1.1-0.4c0.1,0,0.2-0.1,0.3-0.2
			c0.1-0.1,0.1-0.2,0.2-0.4l4.6-10.9H207.5z M206.6,55.3l-1.6,3.9h3.1L206.6,55.3z"/>
		<path class="st13" d="M214.2,51.8h6c1.2,0,2.2,0.3,3,0.9c0.8,0.6,1.1,1.4,1.1,2.4c0,0.8-0.3,1.6-0.9,2.1c-0.6,0.6-1.3,0.9-2.2,1.1
			l3.1,4.2c0.4,0.5,0.8,0.9,1.2,1l0.5,0.2V64h-3.6c-0.1-0.4-0.3-0.9-0.6-1.3l-3.3-4.6v-0.4c0.2,0.1,0.5,0.1,0.7,0.1
			c0.7,0,1.3-0.3,1.8-0.8c0.5-0.5,0.7-1.1,0.7-1.9c0-0.8-0.2-1.4-0.6-1.9c-0.4-0.5-1-0.7-1.7-0.7h-1.5v10.3c0,0.2,0.1,0.4,0.3,0.4
			l1,0.4V64h-5v-0.4l1-0.4c0.2-0.1,0.3-0.2,0.3-0.4v-10c0-0.2-0.1-0.4-0.3-0.4l-1-0.4V51.8z"/>
		<path class="st13" d="M231.5,51.8v0.4l-1,0.4c-0.2,0.1-0.2,0.2-0.2,0.4v10c0,0.2,0.1,0.4,0.2,0.4l1,0.4V64h-4.9v-0.4l1-0.4
			c0.2-0.1,0.3-0.2,0.3-0.4v-10c0-0.2-0.1-0.4-0.3-0.4l-1-0.4v-0.4H231.5z"/>
	</g>
</g>
</svg>
