<?xml version="1.0" encoding="utf-8"?>
<!-- Generator: Adobe Illustrator 19.2.1, SVG Export Plug-In . SVG Version: 6.00 Build 0)  -->
<svg version="1.1" id="Layer_1" xmlns="http://www.w3.org/2000/svg" xmlns:xlink="http://www.w3.org/1999/xlink" x="0px" y="0px"
	 viewBox="0 0 625.1 114.5" style="enable-background:new 0 0 625.1 114.5;" xml:space="preserve">
<style type="text/css">
	.st0{fill:#BCBEC0;}
	.st1{fill:none;stroke:#000000;stroke-width:0.216;stroke-miterlimit:22.9256;}
	.st2{font-family:'FuturaBT-Bold';}
	.st3{font-size:6.5997px;}
	.st4{font-family:'FrizQuadrataTT';}
	.st5{font-size:6.6009px;}
	.st6{font-size:6.6003px;}
	.st7{font-size:6.6001px;}
	.st8{font-size:6.5998px;}
	.st9{font-size:6.5995px;}
	.st10{font-size:6.6007px;}
	.st11{font-size:6.5996px;}
	.st12{font-size:6.5991px;}
	.st13{font-size:6.6px;}
	.st14{font-size:6.5993px;}
	.st15{font-size:6.6002px;}
	.st16{font-size:6.6004px;}
	.st17{fill:#FFFFFF;}
	.st18{fill:#24206E;}
	.st19{fill:#B4161B;}
	.st20{fill:#ED1C24;}
	.st21{font-size:7.9795px;}
	.st22{font-family:'FuturaBT-Medium';}
	.st23{font-size:7.5503px;}
	.st24{font-size:7.5502px;}
	.st25{font-size:7.5505px;}
	.st26{font-size:7.5511px;}
	.st27{font-size:7.5499px;}
	.st28{font-size:7.551px;}
	.st29{font-size:7.5509px;}
	.st30{font-size:7.5512px;}
	.st31{font-size:7.5506px;}
	.st32{font-size:7.5508px;}
	.st33{font-size:7.5497px;}
	.st34{font-size:7.5517px;}
	.st35{font-size:7.5518px;}
	.st36{font-size:7.5515px;}
	.st37{font-size:7.5507px;}
	.st38{font-size:7.5513px;}
	.st39{font-size:7.5504px;}
	.st40{font-size:7.55px;}
	.st41{fill:#2C296C;}
</style>
<g>
	<g>
		<path class="st0" d="M36.5,110.4c29.6-13.3,41.3-47,33.2-78.8c-6.8-3-14-5.1-22.2-7c-0.7-0.2,0.5-5.5-1.3-8.4
			c-1.9-3.1-7-3.9-7.7-3.9C37,12.2,35.4,23,33.8,22.9C22.1,22.4,15.3,26,2.5,31.6C-3.7,62.7,5.2,97.9,36.5,110.4"/>
		<path class="st0" d="M11.2,54.6c-1.6,5.8,7,5.5,10.1,3.7C16.2,64.1,6,59.7,11.2,54.6"/>
		<path class="st0" d="M57.3,52.3c-1.2,1.2-3.7,1.8-5.8,1.2c0.7-0.3,1.2-0.8,1.6-1.6C54.3,52.5,55.6,52.6,57.3,52.3"/>
		<path class="st0" d="M17.9,51c-2.6,0.8-5.5,2.2-7.7,5c0.4-1.1,1-2,1.6-2.6c14-15,37.2,6.2,46.2-1.6c-2.3,5.4-17.8,1.9-25.3-0.1
			C28.1,50.2,22.8,50.1,17.9,51"/>
		<path class="st0" d="M43.1,74.2h-5.8c0-7.2,0-14.1,0-21.3c2.2,0.7,3.6,0.9,5.8,1.1V74.2z"/>
		<line class="st1" x1="42.6" y1="61.6" x2="42.6" y2="65.6"/>
		<path class="st0" d="M60.2,74.1L46.2,62.5l8.5-8.2C53,54.9,51,55.1,49.3,55l-6.7,6.4v4.3l0.4,0.3l10.1,8.2H60.2L60.2,74.1z"/>
		<rect x="30.1" y="50.9" class="st0" width="5.6" height="23.2"/>
		<path class="st0" d="M28.2,69.8c0.2-2.8,0-11.8,0.1-18c-1.8-0.1-3.3-0.3-5.7-0.6c0,6.3,0.1,15.8,0,18.7c-0.7,3-5.4,2.5-7.7,0.1
			c-0.6,0.7-1.1,1.3-1.7,2c2.3,2.1,5.2,3.1,8.1,3.1C25,74.7,28,72.5,28.2,69.8"/>
		<text transform="matrix(-0.1045 -0.9945 0.9945 -0.1045 72.0489 45.6926)" class="st0 st2 st3">İ</text>
		<text transform="matrix(-6.979456e-002 -0.9976 0.9976 -6.979456e-002 72.2446 47.6639)" class="st0 st4 st5">J</text>
		<text transform="matrix(-3.489935e-002 -0.9994 0.9994 -3.489935e-002 72.248 51.101)" class="st0 st4 st6">E</text>
		<text transform="matrix(0 -1 1 0 72.0369 54.5305)" class="st0 st4 st7">L</text>
		<text transform="matrix(8.719840e-002 -0.9962 0.9962 8.719840e-002 71.4053 59.9455)" class="st0 st4 st6">O</text>
		<text transform="matrix(0.1736 -0.9848 0.9848 0.1736 70.462 63.4976)" class="st0 st4 st8">K</text>
		<text transform="matrix(0.1908 -0.9816 0.9816 0.1908 70.3982 65.4247)" class="st0 st4 st9"> </text>
		<text transform="matrix(0.2419 -0.9703 0.9703 0.2419 69.3075 69.3152)" class="st0 st4 st7">R</text>
		<text transform="matrix(0.2756 -0.9613 0.9613 0.2756 68.1822 72.6844)" class="st0 st4 st10">E</text>
		<text transform="matrix(0.3584 -0.9336 0.9336 0.3584 66.3791 76.2475)" class="st0 st4 st10">Z</text>
		<text transform="matrix(0.3907 -0.9205 0.9205 0.3907 64.8749 79.4761)" class="st0 st4 st8">E</text>
		<text transform="matrix(0.4848 -0.8746 0.8746 0.4848 63.2247 82.6453)" class="st0 st4 st3">T</text>
		<text transform="matrix(0.515 -0.8572 0.8572 0.515 62.4974 84.3712)" class="st0 st4 st6"> </text>
		<text transform="matrix(0.5592 -0.829 0.829 0.5592 60.4504 87.2756)" class="st0 st4 st11">E</text>
		<text transform="matrix(0.5878 -0.809 0.809 0.5878 58.2484 90.0429)" class="st0 st4 st7">L</text>
		<text transform="matrix(0.6691 -0.7431 0.7431 0.6691 54.5857 93.146)" class="st0 st4 st12">A</text>
		<text transform="matrix(0.7071 -0.7071 0.7071 0.7071 53.3344 94.459)" class="st0 st4 st13">J</text>
		<text transform="matrix(-5.230328e-002 0.9986 -0.9986 -5.230328e-002 3.7012 45.7439)" class="st0 st4 st9">J</text>
		<text transform="matrix(0 1 -1 0 3.5652 47.5911)" class="st0 st4 st7">A</text>
		<text transform="matrix(5.230328e-002 0.9986 -0.9986 5.230328e-002 4.4695 51.6799)" class="st0 st4 st9">L</text>
		<text transform="matrix(8.719840e-002 0.9962 -0.9962 8.719840e-002 4.8161 55.0507)" class="st0 st4 st6">E</text>
		<text transform="matrix(0.1219 0.9925 -0.9925 0.1219 5.2807 58.5495)" class="st0 st4 st14"> </text>
		<text transform="matrix(0.1564 0.9877 -0.9877 0.1564 5.2208 60.4591)" class="st0 st4 st6">T</text>
		<text transform="matrix(0.1908 0.9816 -0.9816 0.1908 5.7323 64.0351)" class="st0 st4 st9">E</text>
		<text transform="matrix(0.2588 0.9659 -0.9659 0.2588 6.523 67.4626)" class="st0 st4 st9">Z</text>
		<text transform="matrix(0.2924 0.9563 -0.9563 0.2924 7.9309 71.1597)" class="st0 st4 st15">E</text>
		<text transform="matrix(0.3746 0.9272 -0.9272 0.3746 9.0585 74.5271)" class="st0 st4 st16">R</text>
		<text transform="matrix(0.4226 0.9063 -0.9063 0.4226 10.7349 78.216)" class="st0 st4 st8"> </text>
		<text transform="matrix(0.4695 0.8829 -0.8829 0.4695 11.1835 80.0672)" class="st0 st4 st9">K</text>
		<text transform="matrix(0.5446 0.8387 -0.8387 0.5446 13.1269 83.3053)" class="st0 st4 st15">O</text>
		<text transform="matrix(0.5878 0.809 -0.809 0.5878 16.3383 87.8439)" class="st0 st4 st7">L</text>
		<text transform="matrix(0.6691 0.7431 -0.7431 0.6691 18.5312 90.6945)" class="st0 st4 st12">E</text>
		<text transform="matrix(0.7071 0.7071 -0.7071 0.7071 20.9678 93.2725)" class="st0 st4 st13">J</text>
		<text transform="matrix(0.7431 0.6691 -0.6691 0.7431 22.2835 94.7211)" class="st0 st2 st12">İ</text>
		<path class="st17" d="M38.6,111c29.6-13.3,41.4-47,33.2-78.8c-6.8-3-14-5.1-22.2-7c-0.7-0.2,0.5-5.5-1.3-8.4
			c-1.9-3.1-7-3.9-7.7-3.9c-1.5-0.2-3.2,10.7-4.8,10.6C24.2,23,17.4,26.6,4.6,32.2C-1.6,63.3,7.3,98.5,38.6,111"/>
		<path class="st18" d="M5.4,32.5C-0.7,63.2,8.1,97.9,39,110.2C68.1,97,79.8,63.9,71.7,32.5c-7-3.1-14.5-5.4-22.4-6.5
			c0.7-1.4,1.2-2.8,1.6-4.1c8.5,1.2,16.5,3.7,24.1,7.1c8.9,34.6-4,71-36,85.5C5,101-4.7,62.8,2,29c8.3-3.6,16.2-5.9,24.1-7.1
			c-1.2,1.5-2.2,3.1-2.9,4.9C17.3,28,11.3,29.9,5.4,32.5"/>
		<path class="st18" d="M25,44.7c-3.3-16.1,11.6-28.9,15.6-31.9C29.4,14.6,14.9,29.2,25,44.7"/>
		<path class="st18" d="M49.2,26.3c5.4-11.7,2.6-18.8-5-26.3c0.5,1.7,1.9,7.8-3.1,9.1C44.7,11.1,49.2,21.2,49.2,26.3"/>
		<path class="st19" d="M37.4,7.1C41,18.6,23.9,20.8,24.6,38.2c2.5-10.8,19.3-13.7,16-25.3c2.5,0.2,6,3.2,7.3,7.1
			C48.8,14.6,43.3,8.6,37.4,7.1"/>
		<path class="st20" d="M13.3,55.2c-1.6,5.8,7,5.5,10.1,3.7C18.3,64.6,8.1,60.3,13.3,55.2"/>
		<path class="st20" d="M59.4,52.9c-1.2,1.2-3.7,1.8-5.8,1.2c0.7-0.3,1.2-0.8,1.6-1.6C56.4,53.1,57.7,53.2,59.4,52.9"/>
		<path class="st18" d="M20,51.5c-2.6,0.8-5.5,2.2-7.7,5c0.4-1.1,1-2,1.6-2.6c14-15,37.2,6.2,46.2-1.6c-2.3,5.4-17.8,1.9-25.3-0.1
			C30.2,50.8,24.9,50.7,20,51.5"/>
		<path class="st18" d="M45.2,74.8h-5.8c0-7.2,0-14.1,0-21.3c2.2,0.7,3.6,0.9,5.8,1.1V74.8z"/>
		<line class="st1" x1="44.7" y1="62.2" x2="44.7" y2="66.2"/>
		<path class="st18" d="M62.3,74.7L48.3,63.1l8.5-8.2c-1.7,0.6-3.7,0.8-5.4,0.7L44.7,62v4.3l0.4,0.3l10.2,8.2H62.3L62.3,74.7z"/>
		<rect x="32.2" y="51.5" class="st18" width="5.6" height="23.2"/>
		<path class="st18" d="M30.3,70.3c0.2-2.8,0-11.8,0.1-18c-1.8-0.1-3.3-0.3-5.7-0.6c0,6.3,0.1,15.8,0,18.7c-0.7,3-5.4,2.5-7.7,0.1
			c-0.6,0.7-1.1,1.3-1.7,2c2.3,2.1,5.2,3.1,8.1,3.1C27.1,75.3,30.2,73.1,30.3,70.3"/>
		<text transform="matrix(1 0 0 1 29.659 99.0647)" class="st20 st2 st21">19</text>
		<text transform="matrix(1 0 0 1 39.6336 99.0647)" class="st18 st2 st21">98</text>
		<text transform="matrix(-0.1045 0.9945 -0.9945 -0.1045 6.3597 39.4833)" class="st18 st22 st23">J</text>
		<text transform="matrix(-5.230328e-002 0.9986 -0.9986 -5.230328e-002 6.0085 42.4309)" class="st18 st22 st24">A</text>
		<text transform="matrix(-1.749989e-002 0.9998 -0.9998 -1.749989e-002 5.7141 47.4958)" class="st18 st22 st25">L</text>
		<text transform="matrix(1.749989e-002 0.9998 -0.9998 1.749989e-002 5.6399 51.042)" class="st18 st22 st25">E</text>
		<text transform="matrix(8.719840e-002 0.9962 -0.9962 8.719840e-002 5.7377 55.0415)" class="st18 st22 st26"> </text>
		<text transform="matrix(0.1219 0.9925 -0.9925 0.1219 5.8308 57.3082)" class="st18 st22 st27">T</text>
		<text transform="matrix(0.1564 0.9877 -0.9877 0.1564 6.276 61.1532)" class="st18 st22 st28">E</text>
		<text transform="matrix(0.1908 0.9816 -0.9816 0.1908 6.8924 65.0929)" class="st18 st22 st24">Z</text>
		<text transform="matrix(0.2588 0.9659 -0.9659 0.2588 7.6924 69.3897)" class="st18 st22 st24">E</text>
		<text transform="matrix(0.2924 0.9563 -0.9563 0.2924 8.7612 73.2423)" class="st18 st22 st29">R</text>
		<text transform="matrix(0.3746 0.9272 -0.9272 0.3746 10.0494 77.2454)" class="st18 st22 st30"> </text>
		<text transform="matrix(0.4226 0.9063 -0.9063 0.4226 10.8256 79.429)" class="st18 st22 st31">K</text>
		<text transform="matrix(0.5 0.866 -0.866 0.5 12.585 83.5064)" class="st18 st22 st23">O</text>
		<text transform="matrix(0.5878 0.809 -0.809 0.5878 15.8831 89.162)" class="st18 st22 st32">L</text>
		<text transform="matrix(0.6293 0.7771 -0.7771 0.6293 17.9158 92.0403)" class="st18 st22 st33">E</text>
		<text transform="matrix(0.6691 0.7431 -0.7431 0.6691 20.4346 95.216)" class="st18 st22 st33">J</text>
		<text transform="matrix(0.7071 0.7071 -0.7071 0.7071 22.4215 97.3334)" class="st18 st22 st31">İ</text>
		<text transform="matrix(-0.1392 -0.9903 0.9903 -0.1392 71.4533 40.4522)" class="st20 st22 st34">İ</text>
		<text transform="matrix(-0.1045 -0.9945 0.9945 -0.1045 71.8876 43.4059)" class="st20 st22 st23">J</text>
		<text transform="matrix(-6.979456e-002 -0.9976 0.9976 -6.979456e-002 72.2461 47.3975)" class="st20 st22 st35">E</text>
		<text transform="matrix(-3.489935e-002 -0.9994 0.9994 -3.489935e-002 72.3996 50.9511)" class="st20 st22 st26">L</text>
		<text transform="matrix(5.230328e-002 -0.9986 0.9986 5.230328e-002 72.1987 57.517)" class="st20 st22 st24">O</text>
		<text transform="matrix(0.1219 -0.9925 0.9925 0.1219 71.7926 61.9044)" class="st20 st22 st27">K</text>
		<text transform="matrix(0.1564 -0.9877 0.9877 0.1564 71.3969 64.1696)" class="st20 st22 st28"> </text>
		<text transform="matrix(0.1908 -0.9816 0.9816 0.1908 70.6555 68.3185)" class="st20 st22 st24">R</text>
		<text transform="matrix(0.2756 -0.9613 0.9613 0.2756 69.5631 72.1696)" class="st20 st22 st36">E</text>
		<text transform="matrix(0.3256 -0.9455 0.9455 0.3256 68.2415 76.3124)" class="st20 st22 st37">Z</text>
		<text transform="matrix(0.4067 -0.9136 0.9136 0.4067 66.633 80.0168)" class="st20 st22 st28">E</text>
		<text transform="matrix(0.4384 -0.8988 0.8988 0.4384 64.9785 83.4948)" class="st20 st22 st38">T</text>
		<text transform="matrix(0.4848 -0.8746 0.8746 0.4848 63.9139 85.4547)" class="st20 st22 st39"> </text>
		<text transform="matrix(0.515 -0.8572 0.8572 0.515 61.8655 88.9387)" class="st20 st22 st26">E</text>
		<text transform="matrix(0.6018 -0.7986 0.7986 0.6018 59.7417 91.7959)" class="st20 st22 st40">L</text>
		<text transform="matrix(0.6293 -0.7771 0.7771 0.6293 56.6319 95.6425)" class="st20 st22 st33">A</text>
		<text transform="matrix(0.7071 -0.7071 0.7071 0.7071 54.497 97.7628)" class="st20 st22 st31">J</text>
	</g>
	<g>
		<path class="st41" d="M107.6,69.5c0,2.8-0.3,5.1-1,6.8s-1.8,3.2-3.3,4.4c-1.6,1.2-3.7,2.2-6.5,3.1l-1-2.8c1.8-0.7,3.1-1.4,3.9-2.1
			c0.8-0.7,1.3-1.6,1.6-2.7c0.3-1.1,0.5-2.5,0.5-4.4V36.8c0-1.8-0.1-3.1-0.3-3.7c-0.2-0.7-0.5-1.2-0.9-1.5c-0.4-0.4-1.2-0.7-2.5-1
			V29h13.2v1.5c-0.9,0.2-1.6,0.5-2,0.7c-0.4,0.2-0.7,0.5-1,0.9c-0.2,0.3-0.4,0.9-0.5,1.5c-0.1,0.7-0.2,1.8-0.2,3.2V69.5z"/>
		<path class="st41" d="M138,71.6v-1.5c1-0.2,1.8-0.4,2.3-0.7c0.5-0.3,0.9-0.6,1.1-1c0.3-0.4,0.4-1,0.4-1.8c0-0.7-0.1-1.5-0.3-2.3
			c-0.2-0.8-0.4-1.7-0.7-2.8l-1.2-4h-14.6l-1.1,3.1c-0.5,1.5-0.9,2.7-1.1,3.5c-0.2,0.8-0.3,1.5-0.3,2.2c0,1.3,0.3,2.2,1,2.8
			c0.6,0.6,1.6,1,2.9,1.2v1.5h-13.3v-1.5c1.2-0.2,2.2-0.9,3-2c0.9-1.2,1.7-2.8,2.5-5l13-34.6h4.9l10.6,34.8c0.5,1.6,0.9,2.9,1.3,3.7
			c0.4,0.9,0.8,1.5,1.4,2c0.5,0.5,1.3,0.8,2.2,1.1v1.5H138z M126,54.8h13.1l-5.9-20.2L126,54.8z"/>
		<path class="st41" d="M166.3,68.8h8.2c0.9,0,1.6-0.1,2.3-0.2c0.6-0.1,1.1-0.3,1.5-0.5c0.4-0.2,0.8-0.5,1.2-0.9
			c0.3-0.4,0.7-0.9,1-1.5s0.6-1.4,0.9-2.4c0.3-0.9,0.6-2.4,1-4.3h3.2l-0.6,12.6h-28.1v-1.5c1.3-0.3,2.2-0.7,2.6-1.1s0.7-1,0.9-1.7
			c0.1-0.8,0.2-1.9,0.2-3.4v-27c0-1.4-0.1-2.5-0.2-3.1c-0.1-0.7-0.3-1.2-0.5-1.5c-0.2-0.4-0.6-0.7-1-0.9c-0.4-0.2-1.1-0.5-2-0.7V29
			H170v1.5c-0.9,0.3-1.6,0.5-2,0.7c-0.4,0.2-0.7,0.5-1,0.8c-0.3,0.3-0.4,0.8-0.6,1.5s-0.2,1.8-0.2,3.3V68.8z"/>
		<path class="st41" d="M220.4,29v9.4h-3.1c-0.3-1-0.6-1.9-1-2.7c-0.3-0.8-0.7-1.4-1-1.9c-0.4-0.5-0.7-0.9-1.2-1.3
			c-0.4-0.3-0.9-0.5-1.5-0.6c-0.6-0.1-1.3-0.2-2.1-0.2h-9.9v16.4h6.7c0.9,0,1.6-0.1,2.2-0.4c0.5-0.3,1-0.7,1.3-1.3s0.7-1.6,1-2.9
			h2.9v12h-2.9c-0.3-1.3-0.6-2.2-1-2.8c-0.4-0.6-0.8-1.1-1.3-1.4c-0.5-0.3-1.2-0.4-2.2-0.4h-6.7v18h9.7c1,0,1.8-0.1,2.5-0.3
			c0.6-0.2,1.2-0.5,1.6-0.9c0.5-0.4,0.9-1,1.2-1.7c0.4-0.7,0.7-1.4,0.9-2.1c0.2-0.7,0.6-1.8,1-3.2h3.1l-0.6,11h-28.9v-1.5
			c1.3-0.3,2.2-0.7,2.6-1.1s0.7-1,0.9-1.7c0.1-0.8,0.2-1.9,0.2-3.4v-27c0-1.4-0.1-2.5-0.2-3.1c-0.1-0.7-0.3-1.2-0.5-1.5
			c-0.2-0.4-0.6-0.7-1-0.9c-0.4-0.2-1.1-0.5-2-0.7V29H220.4z"/>
		<path class="st41" d="M240.3,29h33.8v10.9h-3.1c-0.5-1.8-0.9-3.2-1.4-4.3c-0.4-1-0.9-1.8-1.4-2.4c-0.5-0.5-1-0.9-1.6-1.2
			c-0.6-0.2-1.4-0.3-2.6-0.3h-4v32c0,1.2,0.1,2.2,0.2,2.9c0.1,0.7,0.3,1.3,0.6,1.7c0.3,0.4,0.7,0.8,1.1,1c0.5,0.2,1.2,0.5,2.3,0.7
			v1.5h-14.3v-1.5c0.6-0.1,1.2-0.3,1.7-0.5c0.5-0.2,0.9-0.4,1.2-0.6c0.3-0.2,0.6-0.5,0.8-0.9c0.2-0.4,0.4-0.9,0.5-1.5
			c0.1-0.6,0.2-1.6,0.2-2.8v-32h-3.9c-1,0-1.8,0.1-2.4,0.3c-0.6,0.2-1.2,0.6-1.8,1.2c-0.5,0.6-1,1.4-1.5,2.5
			c-0.4,1.1-0.9,2.5-1.3,4.1h-3.1V29z"/>
		<path class="st41" d="M309.2,29v9.4h-3.1c-0.3-1-0.6-1.9-1-2.7c-0.3-0.8-0.7-1.4-1-1.9c-0.4-0.5-0.7-0.9-1.2-1.3
			c-0.4-0.3-0.9-0.5-1.5-0.6c-0.6-0.1-1.3-0.2-2.1-0.2h-9.9v16.4h6.7c0.9,0,1.6-0.1,2.2-0.4c0.5-0.3,1-0.7,1.3-1.3s0.7-1.6,1-2.9
			h2.9v12h-2.9c-0.3-1.3-0.6-2.2-1-2.8c-0.4-0.6-0.8-1.1-1.3-1.4c-0.5-0.3-1.2-0.4-2.2-0.4h-6.7v18h9.7c1,0,1.8-0.1,2.5-0.3
			c0.6-0.2,1.2-0.5,1.6-0.9c0.5-0.4,0.9-1,1.2-1.7c0.4-0.7,0.7-1.4,0.9-2.1c0.2-0.7,0.6-1.8,1-3.2h3.1l-0.6,11H280v-1.5
			c1.3-0.3,2.2-0.7,2.6-1.1s0.7-1,0.9-1.7c0.1-0.8,0.2-1.9,0.2-3.4v-27c0-1.4-0.1-2.5-0.2-3.1c-0.1-0.7-0.3-1.2-0.5-1.5
			c-0.2-0.4-0.6-0.7-1-0.9c-0.4-0.2-1.1-0.5-2-0.7V29H309.2z"/>
		<path class="st41" d="M323.3,68.8h11.3c1.4,0,2.4-0.1,3.1-0.4c0.7-0.3,1.2-0.7,1.7-1.2c0.4-0.6,0.8-1.3,1.2-2.3
			c0.4-1,0.8-2.6,1.3-4.7h3.1v11.5H316v-1.5l21.4-38.2H326c-0.8,0-1.5,0.1-1.9,0.2c-0.5,0.1-0.9,0.3-1.3,0.6s-0.7,0.7-1.1,1.2
			c-0.4,0.5-0.7,1.3-1.1,2.2c-0.4,0.9-0.7,2.1-1.1,3.5h-3.1V29h28.2v1.5L323.3,68.8z"/>
		<path class="st41" d="M380.4,29v9.4h-3.1c-0.3-1-0.6-1.9-1-2.7c-0.3-0.8-0.7-1.4-1-1.9c-0.4-0.5-0.7-0.9-1.2-1.3
			c-0.4-0.3-0.9-0.5-1.5-0.6c-0.6-0.1-1.3-0.2-2.1-0.2h-9.9v16.4h6.7c0.9,0,1.6-0.1,2.2-0.4c0.5-0.3,1-0.7,1.3-1.3s0.7-1.6,1-2.9
			h2.9v12h-2.9c-0.3-1.3-0.6-2.2-1-2.8c-0.4-0.6-0.8-1.1-1.3-1.4c-0.5-0.3-1.2-0.4-2.2-0.4h-6.7v18h9.7c1,0,1.8-0.1,2.5-0.3
			c0.6-0.2,1.2-0.5,1.6-0.9c0.5-0.4,0.9-1,1.2-1.7c0.4-0.7,0.7-1.4,0.9-2.1c0.2-0.7,0.6-1.8,1-3.2h3.1l-0.6,11h-28.9v-1.5
			c1.3-0.3,2.2-0.7,2.6-1.1s0.7-1,0.9-1.7c0.1-0.8,0.2-1.9,0.2-3.4v-27c0-1.4-0.1-2.5-0.2-3.1c-0.1-0.7-0.3-1.2-0.5-1.5
			c-0.2-0.4-0.6-0.7-1-0.9c-0.4-0.2-1.1-0.5-2-0.7V29H380.4z"/>
		<path class="st41" d="M397.6,53.1v10.6c0,1.5,0.1,2.6,0.2,3.3c0.1,0.7,0.3,1.2,0.5,1.5c0.2,0.3,0.5,0.6,0.9,0.8
			c0.4,0.2,1.1,0.5,2,0.7v1.5H388v-1.5c1.3-0.3,2.2-0.7,2.6-1.1s0.7-1,0.9-1.7c0.1-0.8,0.2-1.9,0.2-3.4v-27c0-1.4-0.1-2.5-0.2-3.1
			c-0.1-0.7-0.3-1.2-0.5-1.5c-0.2-0.4-0.6-0.7-1-0.9c-0.4-0.2-1.1-0.5-2-0.7V29h15.5c4.9,0,8.5,0.9,10.9,2.7
			c2.4,1.8,3.6,4.5,3.6,8.3c0,2.9-0.8,5.3-2.4,7.3c-1.6,2-3.9,3.6-7.1,4.7v0.3c1.3,0.5,2.4,1.3,3.3,2.2s1.9,2.5,3,4.5l2.8,5.1
			c0.8,1.5,1.5,2.6,2.1,3.4c0.6,0.8,1.2,1.4,1.8,1.8c0.6,0.4,1.4,0.7,2.4,0.9v1.5h-8.7c-0.8-1.1-1.5-2.3-2.3-3.6
			c-0.7-1.3-1.4-2.6-2.1-3.9l-2.8-5.2c-0.8-1.6-1.5-2.8-2-3.5s-1-1.3-1.5-1.6c-0.4-0.3-0.9-0.5-1.4-0.6c-0.5-0.1-1.3-0.2-2.3-0.2
			H397.6z M397.6,31.8v18.6h3.5c1.8,0,3.3-0.1,4.4-0.4c1.1-0.3,2.2-0.8,3.1-1.5c1-0.7,1.7-1.7,2.3-3c0.6-1.3,0.9-2.9,0.9-4.8
			c0-2-0.3-3.6-1-4.9c-0.7-1.3-1.7-2.3-3.1-3s-3.2-1-5.6-1C400.3,31.7,398.7,31.8,397.6,31.8z"/>
		<path class="st41" d="M451.3,48.3h0.9c0.8,0,1.5-0.1,2.2-0.4s1.4-0.7,2.2-1.4s2.1-2,3.7-3.8c2-2.2,3.4-3.8,4.1-4.8
			c0.9-1.2,1.5-2.2,1.8-3c0.3-0.6,0.4-1.2,0.4-1.8c0-0.8-0.2-1.4-0.7-1.8c-0.5-0.4-1.1-0.6-2-0.7V29h13.6v1.5
			c-0.7,0.1-1.3,0.4-2,0.8c-0.6,0.4-1.3,0.9-2,1.5c-0.7,0.6-1.7,1.7-3,3.1l-10.5,11.8l11.4,16.5c1.2,1.8,2.2,3,2.8,3.7
			c0.7,0.7,1.3,1.2,2,1.5c0.6,0.3,1.3,0.5,2,0.6v1.5h-13.8v-1.5c0.8-0.1,1.3-0.2,1.7-0.4c0.4-0.2,0.5-0.6,0.5-1
			c0-0.4-0.1-0.8-0.4-1.4c-0.2-0.5-0.6-1.2-1.1-1.9L458,54.5c-0.9-1.3-1.5-2.1-1.9-2.6c-0.4-0.4-0.8-0.7-1.3-0.9
			c-0.5-0.2-1.1-0.3-1.8-0.3h-1.7v13.1c0,1.4,0,2.4,0.1,3.1c0.1,0.6,0.3,1.2,0.5,1.5s0.5,0.7,1,0.9c0.4,0.3,1.1,0.5,2.1,0.8v1.5
			h-13.2v-1.5c1.3-0.3,2.2-0.7,2.6-1.1s0.7-1,0.9-1.7c0.1-0.8,0.2-1.9,0.2-3.4v-27c0-1.4-0.1-2.5-0.2-3.1c-0.1-0.7-0.3-1.2-0.5-1.5
			c-0.2-0.4-0.6-0.7-1-0.9c-0.4-0.2-1.1-0.5-2-0.7V29H455v1.5c-0.9,0.2-1.6,0.5-2,0.7c-0.4,0.2-0.7,0.5-1,0.9
			c-0.2,0.3-0.4,0.9-0.5,1.5c-0.1,0.7-0.2,1.8-0.2,3.2L451.3,48.3z"/>
		<path class="st41" d="M496,72.1c-2.5,0-4.8-0.4-6.8-1.2c-2.1-0.8-3.8-2.1-5.3-3.8c-1.5-1.7-2.6-4-3.4-6.7
			c-0.8-2.7-1.2-5.9-1.2-9.7c0-4.6,0.7-8.6,2.1-12c1.4-3.3,3.4-5.9,6.1-7.6c2.6-1.7,5.7-2.6,9.2-2.6c3.7,0,6.8,0.8,9.4,2.5
			c2.5,1.6,4.4,4,5.7,7.2c1.3,3.2,1.9,7,1.9,11.6c0,4.9-0.7,9-2.2,12.3c-1.5,3.4-3.5,5.9-6.2,7.5C502.6,71.3,499.5,72.1,496,72.1z
			 M485.7,49.8c0,6.4,0.9,11.3,2.8,14.6c1.9,3.3,4.6,5,8.2,5c2.3,0,4.2-0.7,5.8-2.2c1.6-1.4,2.8-3.6,3.6-6.4
			c0.8-2.8,1.2-6.1,1.2-9.8c0-4.5-0.5-8.3-1.4-11.3c-0.9-3-2.2-5.2-3.8-6.5c-1.6-1.4-3.5-2-5.6-2c-1.9,0-3.5,0.4-4.8,1.3
			s-2.5,2.1-3.3,3.7c-0.9,1.6-1.5,3.6-1.9,5.9C485.9,44.4,485.7,47,485.7,49.8z"/>
		<path class="st41" d="M530.7,68.8h8.2c0.9,0,1.6-0.1,2.3-0.2c0.6-0.1,1.1-0.3,1.5-0.5c0.4-0.2,0.8-0.5,1.2-0.9
			c0.3-0.4,0.7-0.9,1-1.5s0.6-1.4,0.9-2.4c0.3-0.9,0.6-2.4,1-4.3h3.2l-0.6,12.6h-28.1v-1.5c1.3-0.3,2.2-0.7,2.6-1.1s0.7-1,0.9-1.7
			c0.1-0.8,0.2-1.9,0.2-3.4v-27c0-1.4-0.1-2.5-0.2-3.1c-0.1-0.7-0.3-1.2-0.5-1.5c-0.2-0.4-0.6-0.7-1-0.9c-0.4-0.2-1.1-0.5-2-0.7V29
			h13.2v1.5c-0.9,0.3-1.6,0.5-2,0.7c-0.4,0.2-0.7,0.5-1,0.8c-0.3,0.3-0.4,0.8-0.6,1.5s-0.2,1.8-0.2,3.3V68.8z"/>
		<path class="st41" d="M584.7,29v9.4h-3.1c-0.3-1-0.6-1.9-1-2.7c-0.3-0.8-0.7-1.4-1-1.9c-0.4-0.5-0.7-0.9-1.2-1.3s-0.9-0.5-1.5-0.6
			c-0.6-0.1-1.3-0.2-2.1-0.2H565v16.4h6.7c0.9,0,1.6-0.1,2.2-0.4c0.5-0.3,1-0.7,1.3-1.3s0.7-1.6,1-2.9h2.9v12h-2.9
			c-0.3-1.3-0.6-2.2-1-2.8c-0.4-0.6-0.8-1.1-1.3-1.4c-0.5-0.3-1.2-0.4-2.2-0.4H565v18h9.7c1,0,1.8-0.1,2.5-0.3
			c0.6-0.2,1.2-0.5,1.6-0.9c0.5-0.4,0.9-1,1.2-1.7s0.7-1.4,0.9-2.1c0.2-0.7,0.6-1.8,1-3.2h3.1l-0.6,11h-28.9v-1.5
			c1.3-0.3,2.2-0.7,2.6-1.1s0.7-1,0.9-1.7s0.2-1.9,0.2-3.4v-27c0-1.4-0.1-2.5-0.2-3.1s-0.3-1.2-0.5-1.5c-0.2-0.4-0.6-0.7-1-0.9
			s-1.1-0.5-2-0.7V29H584.7z"/>
		<path class="st41" d="M601.3,69.5c0,2.8-0.3,5.1-1,6.8s-1.8,3.2-3.3,4.4c-1.6,1.2-3.7,2.2-6.5,3.1l-1-2.8c1.8-0.7,3.1-1.4,3.9-2.1
			c0.8-0.7,1.3-1.6,1.6-2.7c0.3-1.1,0.5-2.5,0.5-4.4V36.8c0-1.8-0.1-3.1-0.3-3.7c-0.2-0.7-0.5-1.2-0.9-1.5c-0.4-0.4-1.2-0.7-2.5-1
			V29h13.2v1.5c-0.9,0.2-1.6,0.5-2,0.7c-0.4,0.2-0.7,0.5-1,0.9c-0.2,0.3-0.4,0.9-0.5,1.5c-0.1,0.7-0.2,1.8-0.2,3.2V69.5z"/>
		<path class="st41" d="M621.5,63.8c0,1.4,0,2.4,0.1,3.1c0.1,0.6,0.3,1.2,0.5,1.5s0.5,0.7,1,0.9c0.4,0.3,1.1,0.5,2.1,0.8v1.5h-13.2
			v-1.5c1.3-0.3,2.2-0.7,2.6-1.1s0.7-1,0.9-1.7c0.1-0.8,0.2-1.9,0.2-3.4v-27c0-1.4-0.1-2.5-0.2-3.1c-0.1-0.7-0.3-1.2-0.5-1.5
			c-0.2-0.4-0.6-0.7-1-0.9c-0.4-0.2-1.1-0.5-2-0.7V29h13.2v1.5c-0.9,0.2-1.6,0.5-2,0.7c-0.4,0.2-0.7,0.5-1,0.9
			c-0.2,0.3-0.4,0.9-0.5,1.5c-0.1,0.7-0.2,1.8-0.2,3.2V63.8z M621.4,18.5v6.1h-5.8v-6.1H621.4z"/>
	</g>
	<g>
		<path class="st19" d="M107,107.6h-5.9l-0.5,1.3c-0.1,0.4-0.2,0.7-0.3,1.1c-0.1,0.3-0.1,0.7-0.1,1.1c0,0.9,0.5,1.4,1.4,1.5v0.9
			h-5.9v-0.9c0.3,0,0.6-0.2,0.9-0.4c0.3-0.2,0.5-0.5,0.7-0.8c0.2-0.4,0.4-0.9,0.7-1.5l5.8-15.4h3.7L112,110c0.2,0.7,0.4,1.2,0.5,1.5
			c0.1,0.3,0.3,0.5,0.5,0.7c0.2,0.2,0.5,0.3,0.9,0.4v0.9h-7.6v-0.9c0.5-0.1,0.8-0.2,1.1-0.4c0.2-0.2,0.3-0.5,0.3-0.9
			c0-0.3,0-0.6-0.1-1c-0.1-0.4-0.2-0.8-0.3-1.3L107,107.6z M101.6,106h5l-2.2-7.8L101.6,106z"/>
		<path class="st19" d="M132.4,94.6v0.9c-0.4,0.1-0.6,0.2-0.8,0.3c-0.2,0.1-0.3,0.2-0.4,0.3c-0.1,0.1-0.2,0.3-0.2,0.6
			s-0.1,0.7-0.1,1.3v15.4h-3.5l-6.2-10.8c-0.8-1.5-1.5-2.6-1.9-3.4h-0.1c0.1,2,0.1,4.1,0.1,6.3v4.5c0,0.7,0,1.2,0.1,1.5
			c0.1,0.3,0.2,0.5,0.4,0.7c0.2,0.2,0.5,0.3,1,0.4v0.9h-5.2v-0.9c0.3-0.1,0.6-0.2,0.8-0.3c0.2-0.1,0.3-0.3,0.4-0.4
			c0.1-0.2,0.2-0.4,0.2-0.7c0-0.3,0-0.6,0-1.1V98c0-0.7,0-1.2-0.1-1.4c-0.1-0.3-0.2-0.5-0.4-0.7c-0.2-0.2-0.5-0.3-1-0.5v-0.9h5.6
			l4.9,8.5c0.3,0.5,0.7,1.3,1.2,2.2c0.5,0.9,0.9,1.8,1.3,2.6h0.2c-0.1-2.2-0.2-4.6-0.2-7.2v-2.6c0-0.6,0-1-0.1-1.3
			c0-0.3-0.1-0.5-0.2-0.6c-0.1-0.1-0.2-0.3-0.4-0.3c-0.2-0.1-0.4-0.2-0.8-0.3v-0.9H132.4z"/>
		<path class="st19" d="M144.1,107.6h-5.9l-0.5,1.3c-0.1,0.4-0.2,0.7-0.3,1.1c-0.1,0.3-0.1,0.7-0.1,1.1c0,0.9,0.5,1.4,1.4,1.5v0.9
			h-5.9v-0.9c0.3,0,0.6-0.2,0.9-0.4c0.3-0.2,0.5-0.5,0.7-0.8c0.2-0.4,0.4-0.9,0.7-1.5l5.8-15.4h3.7l4.6,15.5
			c0.2,0.7,0.4,1.2,0.5,1.5c0.1,0.3,0.3,0.5,0.5,0.7c0.2,0.2,0.5,0.3,0.9,0.4v0.9h-7.6v-0.9c0.5-0.1,0.8-0.2,1.1-0.4
			c0.2-0.2,0.3-0.5,0.3-0.9c0-0.3,0-0.6-0.1-1c-0.1-0.4-0.2-0.8-0.3-1.3L144.1,107.6z M138.8,106h5l-2.2-7.8L138.8,106z"/>
		<path class="st19" d="M160.5,113.7c-2.7,0-4.7-0.8-6.1-2.4c-1.4-1.6-2-4-2-7.1c0-2.1,0.3-3.8,1-5.3s1.6-2.6,2.9-3.4
			c1.3-0.8,2.8-1.1,4.6-1.1c2.8,0,4.8,0.8,6.2,2.4c1.4,1.6,2.1,3.9,2.1,7.1c0,1.7-0.2,3.2-0.6,4.5c-0.4,1.3-1,2.3-1.8,3.1
			c-0.8,0.8-1.7,1.4-2.7,1.8C163,113.5,161.8,113.7,160.5,113.7z M156.7,103.8c0,2.8,0.3,4.9,1,6.2c0.7,1.4,1.7,2,3.1,2
			c0.7,0,1.3-0.2,1.8-0.6c0.5-0.4,0.9-0.9,1.2-1.6c0.3-0.7,0.5-1.5,0.7-2.4c0.1-0.9,0.2-2,0.2-3.1c0-1.8-0.1-3.4-0.4-4.6
			c-0.3-1.2-0.7-2.2-1.3-2.8c-0.6-0.6-1.3-0.9-2.2-0.9c-1.3,0-2.3,0.6-3,1.9C157.1,99.2,156.7,101.1,156.7,103.8z"/>
		<path class="st19" d="M187.3,109.8c0.4,0.6,0.7,1,0.9,1.3c0.2,0.3,0.5,0.6,0.6,0.8c0.2,0.2,0.4,0.3,0.5,0.4
			c0.2,0.1,0.4,0.2,0.7,0.3v0.9h-7.5v-0.9c0.3,0,0.5-0.1,0.6-0.2c0.1-0.1,0.2-0.2,0.2-0.4c0-0.1,0-0.3-0.1-0.4
			c0-0.1-0.1-0.4-0.3-0.6c-0.2-0.3-0.5-0.8-1-1.5l-2.1-3.3c-0.3-0.4-0.5-0.7-0.7-0.9c-0.2-0.2-0.4-0.4-0.6-0.5
			c-0.2-0.1-0.4-0.1-0.8-0.1h-0.3v5.5c0,0.3,0,0.6,0,0.9c0,0.3,0.1,0.5,0.1,0.7c0.1,0.2,0.1,0.3,0.2,0.4c0.1,0.1,0.3,0.2,0.4,0.3
			c0.2,0.1,0.4,0.2,0.7,0.2v0.9h-7.3v-0.9c0.3-0.1,0.6-0.2,0.8-0.3c0.2-0.1,0.3-0.3,0.4-0.4c0.1-0.2,0.2-0.4,0.2-0.7
			c0-0.3,0-0.7,0-1.1V98.1c0-0.4,0-0.8,0-1.1c0-0.3-0.1-0.5-0.2-0.7c-0.1-0.2-0.2-0.3-0.4-0.5c-0.2-0.1-0.5-0.2-0.8-0.3v-0.9h7.3
			v0.9c-0.4,0.1-0.7,0.2-0.9,0.3c-0.2,0.1-0.3,0.3-0.4,0.4c-0.1,0.2-0.2,0.4-0.2,0.6c0,0.3-0.1,0.7-0.1,1.2v4.9h0.3
			c0.4,0,0.8,0,1-0.1c0.2-0.1,0.5-0.3,0.8-0.5c0.3-0.2,0.8-0.8,1.5-1.7c0.8-0.9,1.3-1.6,1.6-2c0.3-0.5,0.6-0.9,0.7-1.2
			c0.1-0.3,0.2-0.6,0.2-0.9c0-0.3-0.1-0.6-0.3-0.8c-0.2-0.2-0.5-0.3-0.9-0.3v-0.9h7.1v0.9c-0.4,0.1-0.7,0.2-0.9,0.3
			s-0.5,0.3-0.9,0.6c-0.3,0.3-0.7,0.7-1.2,1.3l-4.2,4.7L187.3,109.8z"/>
		<path class="st19" d="M203,98.1c0-0.7,0-1.2-0.1-1.4c-0.1-0.3-0.2-0.5-0.4-0.7c-0.2-0.2-0.5-0.3-1-0.5v-0.9h6.1v0.9
			c-0.3,0.1-0.6,0.2-0.8,0.3c-0.2,0.1-0.3,0.3-0.4,0.4c-0.1,0.2-0.2,0.4-0.2,0.7c0,0.3,0,0.7,0,1.1v8.6c0,1.1-0.1,2.1-0.3,2.9
			s-0.5,1.4-0.9,1.9c-0.4,0.5-0.9,1-1.4,1.3c-0.6,0.3-1.2,0.6-1.9,0.7c-0.7,0.1-1.5,0.2-2.4,0.2c-1.3,0-2.4-0.1-3.3-0.4
			c-0.9-0.3-1.6-0.7-2.2-1.2c-0.6-0.5-1-1.2-1.3-2c-0.3-0.8-0.4-1.8-0.4-3v-9c0-0.4,0-0.8,0-1.1c0-0.3-0.1-0.5-0.2-0.7
			c-0.1-0.2-0.2-0.3-0.4-0.5c-0.2-0.1-0.5-0.2-0.8-0.3v-0.9h7.3v0.9c-0.4,0.1-0.7,0.2-0.8,0.3c-0.2,0.1-0.3,0.3-0.4,0.4
			c-0.1,0.2-0.2,0.4-0.2,0.7c0,0.3-0.1,0.7-0.1,1.2v9.1c0,0.7,0,1.4,0.1,2c0.1,0.6,0.3,1.1,0.5,1.5c0.2,0.4,0.6,0.8,1,1
			c0.4,0.2,1,0.3,1.7,0.3c0.9,0,1.6-0.2,2.1-0.6c0.5-0.4,0.8-0.9,1-1.6c0.2-0.7,0.3-1.7,0.3-3V98.1z"/>
		<path class="st19" d="M217.2,94.6v0.9c-0.3,0.1-0.6,0.2-0.8,0.3c-0.2,0.1-0.3,0.3-0.4,0.4c-0.1,0.2-0.2,0.4-0.2,0.7
			c0,0.3,0,0.7,0,1.1v13.8h2.7c0.5,0,1-0.1,1.3-0.2c0.3-0.2,0.6-0.4,0.8-0.8c0.2-0.3,0.4-0.8,0.6-1.4c0.2-0.6,0.3-1.1,0.4-1.6h1.9
			l-0.3,5.6H210v-0.9c0.3-0.1,0.6-0.2,0.8-0.3c0.2-0.1,0.3-0.3,0.4-0.4c0.1-0.2,0.2-0.4,0.2-0.7c0-0.3,0-0.7,0-1.1V98.1
			c0-0.4,0-0.8,0-1.1c0-0.3-0.1-0.5-0.2-0.7c-0.1-0.2-0.2-0.3-0.4-0.5c-0.2-0.1-0.5-0.2-0.8-0.3v-0.9H217.2z"/>
		<path class="st19" d="M237,98.1c0-0.7,0-1.2-0.1-1.4c-0.1-0.3-0.2-0.5-0.4-0.7c-0.2-0.2-0.5-0.3-1-0.5v-0.9h6.1v0.9
			c-0.3,0.1-0.6,0.2-0.8,0.3c-0.2,0.1-0.3,0.3-0.4,0.4c-0.1,0.2-0.2,0.4-0.2,0.7c0,0.3,0,0.7,0,1.1v8.6c0,1.1-0.1,2.1-0.3,2.9
			s-0.5,1.4-0.9,1.9c-0.4,0.5-0.9,1-1.4,1.3c-0.6,0.3-1.2,0.6-1.9,0.7c-0.7,0.1-1.5,0.2-2.4,0.2c-1.3,0-2.4-0.1-3.3-0.4
			c-0.9-0.3-1.6-0.7-2.2-1.2c-0.6-0.5-1-1.2-1.3-2c-0.3-0.8-0.4-1.8-0.4-3v-9c0-0.4,0-0.8,0-1.1c0-0.3-0.1-0.5-0.2-0.7
			c-0.1-0.2-0.2-0.3-0.4-0.5c-0.2-0.1-0.5-0.2-0.8-0.3v-0.9h7.3v0.9c-0.4,0.1-0.7,0.2-0.8,0.3c-0.2,0.1-0.3,0.3-0.4,0.4
			c-0.1,0.2-0.2,0.4-0.2,0.7c0,0.3-0.1,0.7-0.1,1.2v9.1c0,0.7,0,1.4,0.1,2c0.1,0.6,0.3,1.1,0.5,1.5c0.2,0.4,0.6,0.8,1,1
			c0.4,0.2,1,0.3,1.7,0.3c0.9,0,1.6-0.2,2.1-0.6c0.5-0.4,0.8-0.9,1-1.6c0.2-0.7,0.3-1.7,0.3-3V98.1z"/>
		<path class="st19" d="M257,107.4h-6.6v-2.9h6.6V107.4z"/>
		<path class="st19" d="M271.8,110c0,0.3,0,0.6,0,0.9c0,0.3,0.1,0.5,0.1,0.7c0.1,0.2,0.1,0.3,0.2,0.4c0.1,0.1,0.3,0.2,0.4,0.3
			c0.2,0.1,0.4,0.2,0.7,0.2v0.9H266v-0.9c0.3-0.1,0.6-0.2,0.8-0.3c0.2-0.1,0.3-0.3,0.4-0.4c0.1-0.2,0.2-0.4,0.2-0.7
			c0-0.3,0-0.7,0-1.1V98.1c0-0.4,0-0.8,0-1.1c0-0.3-0.1-0.5-0.2-0.7c-0.1-0.2-0.2-0.3-0.4-0.4c-0.2-0.1-0.5-0.2-0.8-0.3v-0.9h7.3
			v0.9c-0.4,0.1-0.7,0.2-0.8,0.3c-0.2,0.1-0.3,0.3-0.4,0.4c-0.1,0.2-0.2,0.4-0.2,0.7c0,0.3-0.1,0.7-0.1,1.2V110z M271.5,89.5v3.4
			h-3.8v-3.4H271.5z"/>
		<path class="st19" d="M283.2,94.6v0.9c-0.3,0.1-0.6,0.2-0.8,0.3c-0.2,0.1-0.3,0.3-0.4,0.4c-0.1,0.2-0.2,0.4-0.2,0.7
			c0,0.3,0,0.7,0,1.1v13.8h2.7c0.5,0,1-0.1,1.3-0.2c0.3-0.2,0.6-0.4,0.8-0.8c0.2-0.3,0.4-0.8,0.6-1.4c0.2-0.6,0.3-1.1,0.4-1.6h1.9
			l-0.3,5.6h-13.2v-0.9c0.3-0.1,0.6-0.2,0.8-0.3c0.2-0.1,0.3-0.3,0.4-0.4c0.1-0.2,0.2-0.4,0.2-0.7c0-0.3,0-0.7,0-1.1V98.1
			c0-0.4,0-0.8,0-1.1c0-0.3-0.1-0.5-0.2-0.7c-0.1-0.2-0.2-0.3-0.4-0.5c-0.2-0.1-0.5-0.2-0.8-0.3v-0.9H283.2z"/>
		<path class="st19" d="M306.9,109.8c0.4,0.6,0.7,1,0.9,1.3c0.2,0.3,0.5,0.6,0.6,0.8c0.2,0.2,0.4,0.3,0.5,0.4
			c0.2,0.1,0.4,0.2,0.7,0.3v0.9h-7.5v-0.9c0.3,0,0.5-0.1,0.6-0.2c0.1-0.1,0.2-0.2,0.2-0.4c0-0.1,0-0.3-0.1-0.4
			c0-0.1-0.1-0.4-0.3-0.6c-0.2-0.3-0.5-0.8-1-1.5l-2.1-3.3c-0.3-0.4-0.5-0.7-0.7-0.9c-0.2-0.2-0.4-0.4-0.6-0.5
			c-0.2-0.1-0.4-0.1-0.8-0.1h-0.3v5.5c0,0.3,0,0.6,0,0.9c0,0.3,0.1,0.5,0.1,0.7c0.1,0.2,0.1,0.3,0.2,0.4c0.1,0.1,0.3,0.2,0.4,0.3
			c0.2,0.1,0.4,0.2,0.7,0.2v0.9h-7.3v-0.9c0.3-0.1,0.6-0.2,0.8-0.3c0.2-0.1,0.3-0.3,0.4-0.4c0.1-0.2,0.2-0.4,0.2-0.7
			c0-0.3,0-0.7,0-1.1V98.1c0-0.4,0-0.8,0-1.1c0-0.3-0.1-0.5-0.2-0.7c-0.1-0.2-0.2-0.3-0.4-0.5c-0.2-0.1-0.5-0.2-0.8-0.3v-0.9h7.3
			v0.9c-0.4,0.1-0.7,0.2-0.9,0.3c-0.2,0.1-0.3,0.3-0.4,0.4c-0.1,0.2-0.2,0.4-0.2,0.6c0,0.3-0.1,0.7-0.1,1.2v4.9h0.3
			c0.4,0,0.8,0,1-0.1c0.2-0.1,0.5-0.3,0.8-0.5c0.3-0.2,0.8-0.8,1.5-1.7c0.8-0.9,1.3-1.6,1.6-2s0.6-0.9,0.7-1.2
			c0.1-0.3,0.2-0.6,0.2-0.9c0-0.3-0.1-0.6-0.3-0.8c-0.2-0.2-0.5-0.3-0.9-0.3v-0.9h7.1v0.9c-0.4,0.1-0.7,0.2-0.9,0.3
			s-0.5,0.3-0.9,0.6c-0.3,0.3-0.7,0.7-1.2,1.3l-4.2,4.7L306.9,109.8z"/>
		<path class="st19" d="M318.3,113.7c-2.7,0-4.7-0.8-6.1-2.4c-1.4-1.6-2-4-2-7.1c0-2.1,0.3-3.8,1-5.3c0.7-1.5,1.6-2.6,2.9-3.4
			c1.3-0.8,2.8-1.1,4.6-1.1c2.8,0,4.8,0.8,6.2,2.4c1.4,1.6,2.1,3.9,2.1,7.1c0,1.7-0.2,3.2-0.6,4.5c-0.4,1.3-1,2.3-1.8,3.1
			c-0.8,0.8-1.7,1.4-2.7,1.8C320.8,113.5,319.6,113.7,318.3,113.7z M314.6,103.8c0,2.8,0.3,4.9,1,6.2c0.7,1.4,1.7,2,3.1,2
			c0.7,0,1.3-0.2,1.8-0.6c0.5-0.4,0.9-0.9,1.2-1.6c0.3-0.7,0.5-1.5,0.7-2.4c0.1-0.9,0.2-2,0.2-3.1c0-1.8-0.1-3.4-0.4-4.6
			c-0.3-1.2-0.7-2.2-1.3-2.8c-0.6-0.6-1.3-0.9-2.2-0.9c-1.3,0-2.3,0.6-3,1.9C314.9,99.2,314.6,101.1,314.6,103.8z"/>
		<path class="st19" d="M345.1,109.8c0.4,0.6,0.7,1,0.9,1.3c0.2,0.3,0.5,0.6,0.6,0.8c0.2,0.2,0.4,0.3,0.5,0.4
			c0.2,0.1,0.4,0.2,0.7,0.3v0.9h-7.5v-0.9c0.3,0,0.5-0.1,0.6-0.2c0.1-0.1,0.2-0.2,0.2-0.4c0-0.1,0-0.3-0.1-0.4
			c0-0.1-0.1-0.4-0.3-0.6c-0.2-0.3-0.5-0.8-1-1.5l-2.1-3.3c-0.3-0.4-0.5-0.7-0.7-0.9c-0.2-0.2-0.4-0.4-0.6-0.5
			c-0.2-0.1-0.4-0.1-0.8-0.1h-0.3v5.5c0,0.3,0,0.6,0,0.9c0,0.3,0.1,0.5,0.1,0.7c0.1,0.2,0.1,0.3,0.2,0.4c0.1,0.1,0.3,0.2,0.4,0.3
			c0.2,0.1,0.4,0.2,0.7,0.2v0.9h-7.3v-0.9c0.3-0.1,0.6-0.2,0.8-0.3c0.2-0.1,0.3-0.3,0.4-0.4c0.1-0.2,0.2-0.4,0.2-0.7
			c0-0.3,0-0.7,0-1.1V98.1c0-0.4,0-0.8,0-1.1c0-0.3-0.1-0.5-0.2-0.7c-0.1-0.2-0.2-0.3-0.4-0.5c-0.2-0.1-0.5-0.2-0.8-0.3v-0.9h7.3
			v0.9c-0.4,0.1-0.7,0.2-0.9,0.3c-0.2,0.1-0.3,0.3-0.4,0.4c-0.1,0.2-0.2,0.4-0.2,0.6c0,0.3-0.1,0.7-0.1,1.2v4.9h0.3
			c0.4,0,0.8,0,1-0.1c0.2-0.1,0.5-0.3,0.8-0.5c0.3-0.2,0.8-0.8,1.5-1.7c0.8-0.9,1.3-1.6,1.6-2c0.3-0.5,0.6-0.9,0.7-1.2
			c0.1-0.3,0.2-0.6,0.2-0.9c0-0.3-0.1-0.6-0.3-0.8c-0.2-0.2-0.5-0.3-0.9-0.3v-0.9h7.1v0.9c-0.4,0.1-0.7,0.2-0.9,0.3
			s-0.5,0.3-0.9,0.6c-0.3,0.3-0.7,0.7-1.2,1.3l-4.2,4.7L345.1,109.8z"/>
		<path class="st19" d="M360.8,98.1c0-0.7,0-1.2-0.1-1.4c-0.1-0.3-0.2-0.5-0.4-0.7c-0.2-0.2-0.5-0.3-1-0.5v-0.9h6.1v0.9
			c-0.3,0.1-0.6,0.2-0.8,0.3c-0.2,0.1-0.3,0.3-0.4,0.4c-0.1,0.2-0.2,0.4-0.2,0.7c0,0.3,0,0.7,0,1.1v8.6c0,1.1-0.1,2.1-0.3,2.9
			c-0.2,0.8-0.5,1.4-0.9,1.9c-0.4,0.5-0.9,1-1.4,1.3c-0.6,0.3-1.2,0.6-1.9,0.7c-0.7,0.1-1.5,0.2-2.4,0.2c-1.3,0-2.4-0.1-3.3-0.4
			c-0.9-0.3-1.6-0.7-2.2-1.2c-0.6-0.5-1-1.2-1.3-2c-0.3-0.8-0.4-1.8-0.4-3v-9c0-0.4,0-0.8,0-1.1c0-0.3-0.1-0.5-0.2-0.7
			c-0.1-0.2-0.2-0.3-0.4-0.5c-0.2-0.1-0.5-0.2-0.8-0.3v-0.9h7.3v0.9c-0.4,0.1-0.7,0.2-0.8,0.3c-0.2,0.1-0.3,0.3-0.4,0.4
			c-0.1,0.2-0.2,0.4-0.2,0.7c0,0.3-0.1,0.7-0.1,1.2v9.1c0,0.7,0,1.4,0.1,2c0.1,0.6,0.3,1.1,0.5,1.5c0.2,0.4,0.6,0.8,1,1
			c0.4,0.2,1,0.3,1.7,0.3c0.9,0,1.6-0.2,2.1-0.6c0.5-0.4,0.8-0.9,1-1.6c0.2-0.7,0.3-1.7,0.3-3V98.1z"/>
		<path class="st19" d="M375.1,94.6v0.9c-0.3,0.1-0.6,0.2-0.8,0.3c-0.2,0.1-0.3,0.3-0.4,0.4c-0.1,0.2-0.2,0.4-0.2,0.7
			c0,0.3,0,0.7,0,1.1v13.8h2.7c0.5,0,1-0.1,1.3-0.2c0.3-0.2,0.6-0.4,0.8-0.8c0.2-0.3,0.4-0.8,0.6-1.4c0.2-0.6,0.3-1.1,0.4-1.6h1.9
			l-0.3,5.6h-13.2v-0.9c0.3-0.1,0.6-0.2,0.8-0.3c0.2-0.1,0.3-0.3,0.4-0.4c0.1-0.2,0.2-0.4,0.2-0.7c0-0.3,0-0.7,0-1.1V98.1
			c0-0.4,0-0.8,0-1.1c0-0.3-0.1-0.5-0.2-0.7c-0.1-0.2-0.2-0.3-0.4-0.5c-0.2-0.1-0.5-0.2-0.8-0.3v-0.9H375.1z"/>
		<path class="st19" d="M396.4,107.4h-6.6v-2.9h6.6V107.4z"/>
		<path class="st19" d="M413.7,113.7c-2.7,0-4.7-0.8-6.1-2.4c-1.4-1.6-2-4-2-7.1c0-2.1,0.3-3.8,1-5.3c0.7-1.5,1.6-2.6,2.9-3.4
			c1.3-0.8,2.8-1.1,4.6-1.1c2.8,0,4.8,0.8,6.2,2.4c1.4,1.6,2.1,3.9,2.1,7.1c0,1.7-0.2,3.2-0.6,4.5c-0.4,1.3-1,2.3-1.8,3.1
			c-0.8,0.8-1.7,1.4-2.7,1.8C416.2,113.5,415,113.7,413.7,113.7z M410,103.8c0,2.8,0.3,4.9,1,6.2c0.7,1.4,1.7,2,3.1,2
			c0.7,0,1.3-0.2,1.8-0.6c0.5-0.4,0.9-0.9,1.2-1.6c0.3-0.7,0.5-1.5,0.7-2.4c0.1-0.9,0.2-2,0.2-3.1c0-1.8-0.1-3.4-0.4-4.6
			c-0.3-1.2-0.7-2.2-1.3-2.8c-0.6-0.6-1.3-0.9-2.2-0.9c-1.3,0-2.3,0.6-3,1.9C410.3,99.2,410,101.1,410,103.8z"/>
		<path class="st19" d="M432.4,113.5h-7.3v-0.9c0.3-0.1,0.6-0.2,0.8-0.3c0.2-0.1,0.3-0.3,0.4-0.4c0.1-0.2,0.2-0.4,0.2-0.7
			c0-0.3,0-0.7,0-1.1V98.1c0-0.4,0-0.8,0-1.1c0-0.3-0.1-0.5-0.2-0.7c-0.1-0.2-0.2-0.3-0.4-0.5c-0.2-0.1-0.5-0.2-0.8-0.3v-0.9h8.1
			c1.1,0,2,0.1,2.8,0.2s1.4,0.4,2,0.7c0.5,0.3,0.9,0.6,1.2,1c0.3,0.4,0.6,0.8,0.8,1.4c0.2,0.5,0.3,1.1,0.3,1.8
			c0,0.9-0.2,1.7-0.5,2.3c-0.3,0.6-0.7,1.2-1.3,1.6c-0.5,0.4-1.3,0.8-2.2,1.2v0.1c0.7,0.3,1.2,0.7,1.7,1.2c0.4,0.5,0.9,1.1,1.2,1.9
			l0.9,1.9c0.4,0.8,0.8,1.5,1.2,1.9c0.4,0.4,0.8,0.7,1.4,0.8v0.9h-5.3c-0.5-0.7-1.1-1.8-1.8-3.3l-1.1-2.4c-0.3-0.7-0.6-1.2-0.8-1.5
			c-0.2-0.3-0.5-0.5-0.7-0.6c-0.2-0.1-0.6-0.2-1.1-0.2h-0.8v4.5c0,0.7,0,1.2,0.1,1.5c0.1,0.3,0.2,0.5,0.4,0.7c0.2,0.2,0.5,0.3,1,0.4
			V113.5z M430.9,96.2v7.7h1.4c0.7,0,1.3-0.1,1.8-0.3c0.5-0.2,0.9-0.5,1.1-0.8c0.3-0.4,0.5-0.8,0.6-1.3c0.1-0.5,0.2-1,0.2-1.6
			c0-1.3-0.3-2.2-0.9-2.8c-0.6-0.6-1.5-0.9-2.6-0.9C431.7,96.2,431.2,96.2,430.9,96.2z"/>
		<path class="st19" d="M446.7,113.5v-0.9c0.4-0.1,0.7-0.2,0.9-0.3c0.2-0.1,0.4-0.3,0.5-0.4c0.1-0.2,0.2-0.4,0.2-0.7
			c0-0.3,0-0.7,0-1.1V96.2h-1.1c-0.6,0-1,0.1-1.3,0.2c-0.3,0.1-0.6,0.3-0.8,0.6c-0.2,0.3-0.4,0.6-0.6,1.1c-0.2,0.5-0.3,0.9-0.4,1.3
			h-1.9v-4.9h16.3v4.9h-1.9c-0.2-0.6-0.3-1.1-0.4-1.4c-0.1-0.3-0.2-0.5-0.3-0.8c-0.1-0.2-0.3-0.4-0.4-0.5c-0.1-0.1-0.3-0.2-0.4-0.3
			c-0.2-0.1-0.4-0.1-0.6-0.2c-0.2,0-0.5-0.1-0.9-0.1h-1V110c0,0.5,0,0.9,0,1.1c0,0.3,0.1,0.5,0.2,0.6c0.1,0.2,0.2,0.3,0.3,0.4
			c0.1,0.1,0.3,0.2,0.4,0.3c0.2,0.1,0.4,0.1,0.8,0.2v0.9H446.7z"/>
		<path class="st19" d="M467.5,107.6h-5.9l-0.5,1.3c-0.1,0.4-0.2,0.7-0.3,1.1c-0.1,0.3-0.1,0.7-0.1,1.1c0,0.9,0.5,1.4,1.4,1.5v0.9
			h-5.9v-0.9c0.3,0,0.6-0.2,0.9-0.4c0.3-0.2,0.5-0.5,0.7-0.8c0.2-0.4,0.4-0.9,0.7-1.5l5.8-15.4h3.7l4.6,15.5
			c0.2,0.7,0.4,1.2,0.5,1.5c0.1,0.3,0.3,0.5,0.5,0.7c0.2,0.2,0.5,0.3,0.9,0.4v0.9h-7.6v-0.9c0.5-0.1,0.8-0.2,1.1-0.4
			c0.2-0.2,0.3-0.5,0.3-0.9c0-0.3,0-0.6-0.1-1c-0.1-0.4-0.2-0.8-0.3-1.3L467.5,107.6z M462.2,106h5l-2.2-7.8L462.2,106z"/>
		<path class="st19" d="M483.9,113.7c-2.7,0-4.7-0.8-6.1-2.4c-1.4-1.6-2-4-2-7.1c0-2.1,0.3-3.8,1-5.3c0.7-1.5,1.6-2.6,2.9-3.4
			c1.3-0.8,2.8-1.1,4.6-1.1c2.8,0,4.8,0.8,6.2,2.4c1.4,1.6,2.1,3.9,2.1,7.1c0,1.7-0.2,3.2-0.6,4.5c-0.4,1.3-1,2.3-1.8,3.1
			c-0.8,0.8-1.7,1.4-2.7,1.8C486.4,113.5,485.2,113.7,483.9,113.7z M480.1,103.8c0,2.8,0.3,4.9,1,6.2c0.7,1.4,1.7,2,3.1,2
			c0.7,0,1.3-0.2,1.8-0.6c0.5-0.4,0.9-0.9,1.2-1.6c0.3-0.7,0.5-1.5,0.7-2.4c0.1-0.9,0.2-2,0.2-3.1c0-1.8-0.1-3.4-0.4-4.6
			c-0.3-1.2-0.7-2.2-1.3-2.8c-0.6-0.6-1.3-0.9-2.2-0.9c-1.3,0-2.3,0.6-3,1.9C480.5,99.2,480.1,101.1,480.1,103.8z"/>
		<path class="st19" d="M510.7,109.8c0.4,0.6,0.7,1,0.9,1.3c0.2,0.3,0.5,0.6,0.6,0.8c0.2,0.2,0.4,0.3,0.5,0.4
			c0.2,0.1,0.4,0.2,0.7,0.3v0.9H506v-0.9c0.3,0,0.5-0.1,0.6-0.2c0.1-0.1,0.2-0.2,0.2-0.4c0-0.1,0-0.3-0.1-0.4c0-0.1-0.1-0.4-0.3-0.6
			c-0.2-0.3-0.5-0.8-1-1.5l-2.1-3.3c-0.3-0.4-0.5-0.7-0.7-0.9c-0.2-0.2-0.4-0.4-0.6-0.5c-0.2-0.1-0.4-0.1-0.8-0.1h-0.3v5.5
			c0,0.3,0,0.6,0,0.9c0,0.3,0.1,0.5,0.1,0.7c0.1,0.2,0.1,0.3,0.2,0.4c0.1,0.1,0.3,0.2,0.4,0.3c0.2,0.1,0.4,0.2,0.7,0.2v0.9h-7.3
			v-0.9c0.3-0.1,0.6-0.2,0.8-0.3c0.2-0.1,0.3-0.3,0.4-0.4c0.1-0.2,0.2-0.4,0.2-0.7c0-0.3,0-0.7,0-1.1V98.1c0-0.4,0-0.8,0-1.1
			c0-0.3-0.1-0.5-0.2-0.7c-0.1-0.2-0.2-0.3-0.4-0.5c-0.2-0.1-0.5-0.2-0.8-0.3v-0.9h7.3v0.9c-0.4,0.1-0.7,0.2-0.9,0.3
			c-0.2,0.1-0.3,0.3-0.4,0.4c-0.1,0.2-0.2,0.4-0.2,0.6c0,0.3-0.1,0.7-0.1,1.2v4.9h0.3c0.4,0,0.8,0,1-0.1c0.2-0.1,0.5-0.3,0.8-0.5
			c0.3-0.2,0.8-0.8,1.5-1.7c0.8-0.9,1.3-1.6,1.6-2c0.3-0.5,0.6-0.9,0.7-1.2c0.1-0.3,0.2-0.6,0.2-0.9c0-0.3-0.1-0.6-0.3-0.8
			c-0.2-0.2-0.5-0.3-0.9-0.3v-0.9h7.1v0.9c-0.4,0.1-0.7,0.2-0.9,0.3c-0.2,0.1-0.5,0.3-0.9,0.6c-0.3,0.3-0.7,0.7-1.2,1.3l-4.2,4.7
			L510.7,109.8z"/>
		<path class="st19" d="M526.4,98.1c0-0.7,0-1.2-0.1-1.4c-0.1-0.3-0.2-0.5-0.4-0.7c-0.2-0.2-0.5-0.3-1-0.5v-0.9h6.1v0.9
			c-0.3,0.1-0.6,0.2-0.8,0.3c-0.2,0.1-0.3,0.3-0.4,0.4c-0.1,0.2-0.2,0.4-0.2,0.7c0,0.3,0,0.7,0,1.1v8.6c0,1.1-0.1,2.1-0.3,2.9
			c-0.2,0.8-0.5,1.4-0.9,1.9c-0.4,0.5-0.9,1-1.4,1.3c-0.6,0.3-1.2,0.6-1.9,0.7c-0.7,0.1-1.5,0.2-2.4,0.2c-1.3,0-2.4-0.1-3.3-0.4
			c-0.9-0.3-1.6-0.7-2.2-1.2c-0.6-0.5-1-1.2-1.3-2c-0.3-0.8-0.4-1.8-0.4-3v-9c0-0.4,0-0.8,0-1.1c0-0.3-0.1-0.5-0.2-0.7
			c-0.1-0.2-0.2-0.3-0.4-0.5c-0.2-0.1-0.5-0.2-0.8-0.3v-0.9h7.3v0.9c-0.4,0.1-0.7,0.2-0.8,0.3c-0.2,0.1-0.3,0.3-0.4,0.4
			c-0.1,0.2-0.2,0.4-0.2,0.7c0,0.3-0.1,0.7-0.1,1.2v9.1c0,0.7,0,1.4,0.1,2c0.1,0.6,0.3,1.1,0.5,1.5c0.2,0.4,0.6,0.8,1,1
			c0.4,0.2,1,0.3,1.7,0.3c0.9,0,1.6-0.2,2.1-0.6c0.5-0.4,0.8-0.9,1-1.6c0.2-0.7,0.3-1.7,0.3-3V98.1z"/>
		<path class="st19" d="M540.6,94.6v0.9c-0.3,0.1-0.6,0.2-0.8,0.3c-0.2,0.1-0.3,0.3-0.4,0.4c-0.1,0.2-0.2,0.4-0.2,0.7
			c0,0.3,0,0.7,0,1.1v13.8h2.7c0.5,0,1-0.1,1.3-0.2c0.3-0.2,0.6-0.4,0.8-0.8c0.2-0.3,0.4-0.8,0.6-1.4c0.2-0.6,0.3-1.1,0.4-1.6h1.9
			l-0.3,5.6h-13.2v-0.9c0.3-0.1,0.6-0.2,0.8-0.3c0.2-0.1,0.3-0.3,0.4-0.4c0.1-0.2,0.2-0.4,0.2-0.7c0-0.3,0-0.7,0-1.1V98.1
			c0-0.4,0-0.8,0-1.1c0-0.3-0.1-0.5-0.2-0.7c-0.1-0.2-0.2-0.3-0.4-0.5c-0.2-0.1-0.5-0.2-0.8-0.3v-0.9H540.6z"/>
		<path class="st19" d="M561.9,107.4h-6.6v-2.9h6.6V107.4z"/>
		<path class="st19" d="M578.3,94.6v0.9c-0.3,0.1-0.6,0.2-0.8,0.3c-0.2,0.1-0.3,0.3-0.5,0.4c-0.1,0.2-0.2,0.4-0.2,0.7
			c0,0.3,0,0.7,0,1.1v13.8h2.7c0.5,0,1-0.1,1.3-0.2c0.3-0.2,0.6-0.4,0.8-0.8c0.2-0.3,0.4-0.8,0.6-1.4c0.2-0.6,0.3-1.1,0.4-1.6h1.9
			l-0.3,5.6H571v-0.9c0.3-0.1,0.6-0.2,0.8-0.3c0.2-0.1,0.3-0.3,0.4-0.4c0.1-0.2,0.2-0.4,0.2-0.7c0-0.3,0-0.7,0-1.1V98.1
			c0-0.4,0-0.8,0-1.1c0-0.3-0.1-0.5-0.2-0.7c-0.1-0.2-0.2-0.3-0.4-0.5c-0.2-0.1-0.5-0.2-0.8-0.3v-0.9H578.3z"/>
		<path class="st19" d="M592.4,110c0,0.3,0,0.6,0,0.9c0,0.3,0.1,0.5,0.1,0.7c0.1,0.2,0.1,0.3,0.2,0.4c0.1,0.1,0.3,0.2,0.4,0.3
			c0.2,0.1,0.4,0.2,0.7,0.2v0.9h-7.3v-0.9c0.3-0.1,0.6-0.2,0.8-0.3c0.2-0.1,0.3-0.3,0.4-0.4c0.1-0.2,0.2-0.4,0.2-0.7
			c0-0.3,0-0.7,0-1.1V98.1c0-0.4,0-0.8,0-1.1c0-0.3-0.1-0.5-0.2-0.7c-0.1-0.2-0.2-0.3-0.4-0.4c-0.2-0.1-0.5-0.2-0.8-0.3v-0.9h7.3
			v0.9c-0.4,0.1-0.7,0.2-0.8,0.3c-0.2,0.1-0.3,0.3-0.4,0.4c-0.1,0.2-0.2,0.4-0.2,0.7c0,0.3-0.1,0.7-0.1,1.2V110z M592.1,89.5v3.4
			h-3.8v-3.4H592.1z"/>
		<path class="st19" d="M598.3,108.8c0.2,1.1,0.6,1.9,1.2,2.5c0.5,0.5,1.3,0.8,2.4,0.8c0.5,0,1-0.1,1.5-0.3c0.4-0.2,0.8-0.5,1-0.9
			c0.3-0.4,0.4-0.9,0.4-1.5c0-0.6-0.1-1.1-0.3-1.5c-0.2-0.4-0.6-0.8-1-1.2c-0.5-0.4-1.1-0.8-2-1.2c-0.7-0.4-1.4-0.7-2-1.1
			c-0.6-0.4-1.1-0.8-1.5-1.3c-0.4-0.5-0.7-1-1-1.5s-0.3-1.2-0.3-1.9c0-1.1,0.3-2.1,0.8-2.9c0.6-0.8,1.4-1.4,2.4-1.8
			c1.1-0.4,2.3-0.6,3.7-0.6c0.8,0,1.6,0,2.4,0.1c0.7,0.1,1.6,0.2,2.6,0.5v4h-1.9c-0.2-0.7-0.4-1.3-0.7-1.7c-0.3-0.4-0.6-0.7-1-0.9
			c-0.4-0.2-0.9-0.3-1.5-0.3c-0.5,0-1,0.1-1.4,0.3c-0.4,0.2-0.7,0.5-1,0.8c-0.2,0.4-0.4,0.8-0.4,1.3c0,0.5,0.1,1,0.3,1.4
			c0.2,0.4,0.6,0.8,1,1.1c0.5,0.4,1.2,0.8,2.1,1.3c1.1,0.6,2,1.2,2.7,1.7c0.7,0.6,1.1,1.2,1.4,1.9c0.3,0.7,0.5,1.4,0.5,2.3
			c0,1.1-0.3,2.1-0.8,3c-0.5,0.8-1.3,1.5-2.3,1.9c-1,0.4-2.2,0.7-3.5,0.7c-0.9,0-1.9-0.1-2.9-0.2c-1-0.1-2-0.3-2.9-0.5v-4.3H598.3z"
			/>
		<path class="st19" d="M624.8,94.6V99h-1.9c-0.3-0.9-0.6-1.5-0.8-1.8c-0.2-0.3-0.5-0.6-0.8-0.7c-0.3-0.2-0.8-0.3-1.5-0.3h-3v6.6
			h1.8c0.4,0,0.7-0.1,1-0.2c0.2-0.1,0.4-0.3,0.6-0.6c0.2-0.3,0.3-0.7,0.4-1.2h1.6v5.6h-1.6c-0.1-0.5-0.3-0.9-0.4-1.2
			c-0.2-0.3-0.3-0.5-0.6-0.6c-0.2-0.1-0.5-0.2-1-0.2h-1.8v7.4h3c0.3,0,0.6,0,0.8-0.1c0.2,0,0.4-0.1,0.6-0.2c0.2-0.1,0.3-0.2,0.5-0.4
			c0.2-0.2,0.3-0.4,0.4-0.6c0.1-0.2,0.3-0.5,0.4-0.8c0.1-0.3,0.3-0.8,0.5-1.4h1.9l-0.3,5.1h-13.6v-0.9c0.3-0.1,0.6-0.2,0.8-0.3
			c0.2-0.1,0.3-0.3,0.4-0.4c0.1-0.2,0.2-0.4,0.2-0.7c0-0.3,0-0.7,0-1.1V98.1c0-0.4,0-0.8,0-1.1c0-0.3-0.1-0.5-0.2-0.7
			c-0.1-0.2-0.2-0.3-0.4-0.5c-0.2-0.1-0.5-0.2-0.8-0.3v-0.9H624.8z"/>
	</g>
</g>
</svg>
