<?xml version="1.0" encoding="utf-8"?>
<!-- Generator: Adobe Illustrator 19.2.1, SVG Export Plug-In . SVG Version: 6.00 Build 0)  -->
<svg version="1.1" id="Layer_1" xmlns="http://www.w3.org/2000/svg" xmlns:xlink="http://www.w3.org/1999/xlink" x="0px" y="0px"
	 viewBox="0 0 315.8 109" style="enable-background:new 0 0 315.8 109;" xml:space="preserve">
<style type="text/css">
	.st0{fill:#BCBEC0;}
	.st1{fill:none;stroke:#000000;stroke-width:0.216;stroke-miterlimit:22.9256;}
	.st2{font-family:'FuturaBT-Bold';}
	.st3{font-size:6.1232px;}
	.st4{font-family:'FrizQuadrataTT';}
	.st5{font-size:6.1244px;}
	.st6{font-size:6.1238px;}
	.st7{font-size:6.1237px;}
	.st8{font-size:6.1234px;}
	.st9{font-size:6.1231px;}
	.st10{font-size:6.1242px;}
	.st11{font-size:6.1233px;}
	.st12{font-size:6.1236px;}
	.st13{font-size:6.1227px;}
	.st14{font-size:6.1235px;}
	.st15{font-size:6.1229px;}
	.st16{font-size:6.1239px;}
	.st17{fill:#FFFFFF;}
	.st18{fill:#24206E;}
	.st19{fill:#B4161B;}
	.st20{fill:#ED1C24;}
	.st21{font-size:7.4034px;}
	.st22{font-family:'FuturaBT-Medium';}
	.st23{font-size:7.0053px;}
	.st24{font-size:7.0051px;}
	.st25{font-size:7.0055px;}
	.st26{font-size:7.006px;}
	.st27{font-size:7.0049px;}
	.st28{font-size:7.0059px;}
	.st29{font-size:7.0058px;}
	.st30{font-size:7.0061px;}
	.st31{font-size:7.0057px;}
	.st32{font-size:7.0047px;}
	.st33{font-size:7.0065px;}
	.st34{font-size:7.0066px;}
	.st35{font-size:7.0064px;}
	.st36{font-size:7.0062px;}
	.st37{font-size:7.0054px;}
	.st38{font-size:7.005px;}
	.st39{fill:#2C296C;}
</style>
<g>
	<g>
		<path class="st0" d="M33.9,102.4C61.4,90,72.3,58.8,64.7,29.3c-6.3-2.8-13-4.7-20.6-6.5c-0.6-0.2,0.5-5.1-1.2-7.8
			c-1.8-2.9-6.5-3.6-7.1-3.6c-1.4-0.2-3,9.9-4.4,9.8c-10.8-0.5-17.1,2.9-29,8C-3.4,58.1,4.8,90.9,33.9,102.4"/>
		<path class="st0" d="M10.4,50.7c-1.5,5.4,6.5,5.1,9.3,3.4C15.1,59.4,5.5,55.4,10.4,50.7"/>
		<path class="st0" d="M53.1,48.5c-1.1,1.1-3.4,1.7-5.4,1.1c0.6-0.3,1.1-0.7,1.5-1.5C50.4,48.7,51.6,48.8,53.1,48.5"/>
		<path class="st0" d="M16.6,47.3c-2.4,0.7-5.1,2-7.1,4.6c0.4-1,0.9-1.8,1.5-2.4c13-14,34.5,5.7,42.9-1.5c-2.1,5-16.5,1.8-23.5-0.1
			C26.1,46.6,21.2,46.5,16.6,47.3"/>
		<path class="st0" d="M40,68.9h-5.4c0-6.7,0-13.1,0-19.8c2,0.6,3.3,0.8,5.4,1V68.9z"/>
		<line class="st1" x1="39.5" y1="57.1" x2="39.5" y2="60.9"/>
		<path class="st0" d="M55.8,68.8L42.9,58l7.9-7.6c-1.6,0.6-3.4,0.7-5,0.6l-6.2,5.9v4l0.4,0.3l9.3,7.6H55.8L55.8,68.8z"/>
		<rect x="27.9" y="47.2" class="st0" width="5.2" height="21.5"/>
		<path class="st0" d="M26.1,64.8c0.2-2.6,0-10.9,0.1-16.7c-1.7-0.1-3.1-0.3-5.3-0.6c0,5.8,0.1,14.7,0,17.4c-0.6,2.8-5,2.3-7.1,0.1
			c-0.6,0.6-1,1.2-1.6,1.8c2.1,1.9,4.8,2.9,7.5,2.9C23.2,69.3,26,67.3,26.1,64.8"/>
		<text transform="matrix(-0.1045 -0.9945 0.9945 -0.1045 66.8469 42.3974)" class="st0 st2 st3">İ</text>
		<text transform="matrix(-6.979456e-002 -0.9976 0.9976 -6.979456e-002 67.0294 44.2275)" class="st0 st4 st5">J</text>
		<text transform="matrix(-3.489935e-002 -0.9994 0.9994 -3.489935e-002 67.0316 47.4151)" class="st0 st4 st6">E</text>
		<text transform="matrix(0 -1 1 0 66.8372 50.5985)" class="st0 st4 st7">L</text>
		<text transform="matrix(8.719841e-002 -0.9962 0.9962 8.719841e-002 66.2502 55.6214)" class="st0 st4 st6">O</text>
		<text transform="matrix(0.1736 -0.9848 0.9848 0.1736 65.376 58.918)" class="st0 st4 st8">K</text>
		<text transform="matrix(0.1908 -0.9816 0.9816 0.1908 65.316 60.7053)" class="st0 st4 st9"> </text>
		<text transform="matrix(0.2419 -0.9703 0.9703 0.2419 64.3044 64.3157)" class="st0 st4 st7">R</text>
		<text transform="matrix(0.2756 -0.9613 0.9613 0.2756 63.2595 67.4409)" class="st0 st4 st10">E</text>
		<text transform="matrix(0.3584 -0.9336 0.9336 0.3584 61.5878 70.7476)" class="st0 st4 st10">Z</text>
		<text transform="matrix(0.3907 -0.9205 0.9205 0.3907 60.1921 73.7433)" class="st0 st4 st8">E</text>
		<text transform="matrix(0.4848 -0.8746 0.8746 0.4848 58.6605 76.6834)" class="st0 st4 st11">T</text>
		<text transform="matrix(0.515 -0.8572 0.8572 0.515 57.9846 78.2845)" class="st0 st4 st6"> </text>
		<text transform="matrix(0.5592 -0.829 0.829 0.5592 56.0864 80.9794)" class="st0 st4 st3">E</text>
		<text transform="matrix(0.5878 -0.809 0.809 0.5878 54.0424 83.546)" class="st0 st4 st12">L</text>
		<text transform="matrix(0.6691 -0.7431 0.7431 0.6691 50.6453 86.4261)" class="st0 st4 st13">A</text>
		<text transform="matrix(0.7071 -0.7071 0.7071 0.7071 49.4845 87.6445)" class="st0 st4 st14">J</text>
		<text transform="matrix(-5.230328e-002 0.9986 -0.9986 -5.230328e-002 3.4339 42.4458)" class="st0 st4 st9">J</text>
		<text transform="matrix(0 1 -1 0 3.3079 44.1601)" class="st0 st4 st7">A</text>
		<text transform="matrix(5.230328e-002 0.9986 -0.9986 5.230328e-002 4.1468 47.954)" class="st0 st4 st9">L</text>
		<text transform="matrix(8.719841e-002 0.9962 -0.9962 8.719841e-002 4.4675 51.0795)" class="st0 st4 st6">E</text>
		<text transform="matrix(0.1219 0.9925 -0.9925 0.1219 4.8996 54.3268)" class="st0 st4 st15"> </text>
		<text transform="matrix(0.1564 0.9877 -0.9877 0.1564 4.8431 56.0976)" class="st0 st4 st6">T</text>
		<text transform="matrix(0.1908 0.9816 -0.9816 0.1908 5.3177 59.4165)" class="st0 st4 st9">E</text>
		<text transform="matrix(0.2588 0.9659 -0.9659 0.2588 6.0523 62.596)" class="st0 st4 st9">Z</text>
		<text transform="matrix(0.2924 0.9563 -0.9563 0.2924 7.3581 66.0272)" class="st0 st4 st6">E</text>
		<text transform="matrix(0.3746 0.9272 -0.9272 0.3746 8.4044 69.1512)" class="st0 st4 st16">R</text>
		<text transform="matrix(0.4226 0.9063 -0.9063 0.4226 9.9591 72.5727)" class="st0 st4 st8"> </text>
		<text transform="matrix(0.4695 0.8829 -0.8829 0.4695 10.3754 74.2901)" class="st0 st4 st9">K</text>
		<text transform="matrix(0.5446 0.8387 -0.8387 0.5446 12.1795 77.2959)" class="st0 st4 st6">O</text>
		<text transform="matrix(0.5878 0.809 -0.809 0.5878 15.1581 81.506)" class="st0 st4 st12">L</text>
		<text transform="matrix(0.6691 0.7431 -0.7431 0.6691 17.1936 84.1516)" class="st0 st4 st13">E</text>
		<text transform="matrix(0.7071 0.7071 -0.7071 0.7071 19.4545 86.5438)" class="st0 st4 st14">J</text>
		<text transform="matrix(0.7431 0.6691 -0.6691 0.7431 20.6752 87.8877)" class="st0 st2 st13">İ</text>
		<path class="st17" d="M35.9,103c27.5-12.4,38.5-43.6,30.8-73.1c-6.3-2.8-13-4.7-20.6-6.5c-0.6-0.2,0.5-5.1-1.2-7.8
			c-1.8-2.9-6.5-3.6-7.1-3.6c-1.4-0.2-3,9.9-4.4,9.8c-10.8-0.5-17.1,2.9-29,8C-1.5,58.7,6.7,91.4,35.9,103"/>
		<path class="st18" d="M5,30.1c-5.6,28.5,2.5,60.7,31.2,72.1c27-12.2,37.8-43,30.3-72.1c-6.5-2.9-13.5-5-20.8-6
			c0.6-1.3,1.1-2.6,1.5-3.8c7.9,1.1,15.3,3.4,22.4,6.6c8.2,32.1-3.7,65.9-33.4,79.3C4.6,93.7-4.4,58.2,1.8,26.9
			c7.7-3.3,15.1-5.5,22.4-6.6c-1.1,1.4-2,2.9-2.7,4.5C16.1,26,10.5,27.7,5,30.1"/>
		<path class="st18" d="M23.2,41.5c-3.1-15,10.7-26.8,14.5-29.6C27.3,13.6,13.9,27.1,23.2,41.5"/>
		<path class="st18" d="M45.6,24.4C50.6,13.6,48.1,6.9,41,0c0.5,1.6,1.8,7.2-2.9,8.4C41.5,10.3,45.6,19.7,45.6,24.4"/>
		<path class="st19" d="M34.7,6.6c3.3,10.7-12.6,12.8-11.9,28.8c2.3-10,17.9-12.8,14.9-23.5c2.3,0.2,5.5,3,6.7,6.6
			C45.3,13.6,40.2,8,34.7,6.6"/>
		<path class="st20" d="M12.4,51.2c-1.5,5.4,6.5,5.1,9.3,3.4C17,59.9,7.5,55.9,12.4,51.2"/>
		<path class="st20" d="M55.1,49.1c-1.1,1.1-3.4,1.7-5.4,1.1c0.6-0.3,1.1-0.7,1.5-1.5C52.3,49.3,53.5,49.4,55.1,49.1"/>
		<path class="st18" d="M18.6,47.8c-2.4,0.7-5.1,2-7.1,4.6c0.4-1,0.9-1.8,1.5-2.4c13-14,34.5,5.7,42.9-1.5c-2.1,5-16.5,1.8-23.5-0.1
			C28,47.1,23.1,47,18.6,47.8"/>
		<path class="st18" d="M42,69.4h-5.4c0-6.7,0-13.1,0-19.8c2,0.6,3.3,0.8,5.4,1V69.4z"/>
		<line class="st1" x1="41.5" y1="57.7" x2="41.5" y2="61.5"/>
		<path class="st18" d="M57.8,69.3L44.8,58.5l7.9-7.6c-1.6,0.6-3.4,0.7-5,0.6l-6.2,5.9v4l0.4,0.3l9.4,7.6H57.8L57.8,69.3z"/>
		<rect x="29.8" y="47.8" class="st18" width="5.2" height="21.5"/>
		<path class="st18" d="M28.1,65.3c0.2-2.6,0-10.9,0.1-16.7c-1.7-0.1-3.1-0.3-5.3-0.6c0,5.8,0.1,14.7,0,17.4c-0.6,2.8-5,2.3-7.1,0.1
			c-0.6,0.6-1,1.2-1.6,1.8c2.1,1.9,4.8,2.9,7.5,2.9C25.1,69.9,28,67.8,28.1,65.3"/>
		<text transform="matrix(1 0 0 1 27.5183 91.9174)" class="st20 st2 st21">19</text>
		<text transform="matrix(1 0 0 1 36.7722 91.9174)" class="st18 st2 st21">98</text>
		<text transform="matrix(-0.1045 0.9945 -0.9945 -0.1045 5.8997 36.6361)" class="st18 st22 st23">J</text>
		<text transform="matrix(-5.230328e-002 0.9986 -0.9986 -5.230328e-002 5.5747 39.372)" class="st18 st22 st24">A</text>
		<text transform="matrix(-1.749989e-002 0.9998 -0.9998 -1.749989e-002 5.3012 44.0702)" class="st18 st22 st25">L</text>
		<text transform="matrix(1.749989e-002 0.9998 -0.9998 1.749989e-002 5.2319 47.3606)" class="st18 st22 st25">E</text>
		<text transform="matrix(8.719841e-002 0.9962 -0.9962 8.719841e-002 5.3226 51.0713)" class="st18 st22 st26"> </text>
		<text transform="matrix(0.1219 0.9925 -0.9925 0.1219 5.4099 53.1749)" class="st18 st22 st27">T</text>
		<text transform="matrix(0.1564 0.9877 -0.9877 0.1564 5.8221 56.7414)" class="st18 st22 st28">E</text>
		<text transform="matrix(0.1908 0.9816 -0.9816 0.1908 6.3938 60.3972)" class="st18 st22 st24">Z</text>
		<text transform="matrix(0.2588 0.9659 -0.9659 0.2588 7.1372 64.3849)" class="st18 st22 st24">E</text>
		<text transform="matrix(0.2924 0.9563 -0.9563 0.2924 8.1287 67.9595)" class="st18 st22 st29">R</text>
		<text transform="matrix(0.3746 0.9272 -0.9272 0.3746 9.3236 71.6741)" class="st18 st22 st30"> </text>
		<text transform="matrix(0.4226 0.9063 -0.9063 0.4226 10.0433 73.6983)" class="st18 st22 st25">K</text>
		<text transform="matrix(0.5 0.866 -0.866 0.5 11.6768 77.4825)" class="st18 st22 st23">O</text>
		<text transform="matrix(0.5878 0.809 -0.809 0.5878 14.7358 82.729)" class="st18 st22 st31">L</text>
		<text transform="matrix(0.6293 0.7771 -0.7771 0.6293 16.6225 85.4001)" class="st18 st22 st32">E</text>
		<text transform="matrix(0.6691 0.7431 -0.7431 0.6691 18.9593 88.3464)" class="st18 st22 st32">J</text>
		<text transform="matrix(0.7071 0.7071 -0.7071 0.7071 20.8028 90.311)" class="st18 st22 st25">İ</text>
		<text transform="matrix(-0.1392 -0.9903 0.9903 -0.1392 66.2951 37.5356)" class="st20 st22 st33">İ</text>
		<text transform="matrix(-0.1045 -0.9945 0.9945 -0.1045 66.6972 40.2765)" class="st20 st22 st23">J</text>
		<text transform="matrix(-6.979456e-002 -0.9976 0.9976 -6.979456e-002 67.0306 43.9797)" class="st20 st22 st34">E</text>
		<text transform="matrix(-3.489935e-002 -0.9994 0.9994 -3.489935e-002 67.1723 47.2763)" class="st20 st22 st26">L</text>
		<text transform="matrix(5.230328e-002 -0.9986 0.9986 5.230328e-002 66.9872 53.3693)" class="st20 st22 st24">O</text>
		<text transform="matrix(0.1219 -0.9925 0.9925 0.1219 66.6101 57.4396)" class="st20 st22 st27">K</text>
		<text transform="matrix(0.1564 -0.9877 0.9877 0.1564 66.2423 59.5407)" class="st20 st22 st28"> </text>
		<text transform="matrix(0.1908 -0.9816 0.9816 0.1908 65.5542 63.39)" class="st20 st22 st24">R</text>
		<text transform="matrix(0.2756 -0.9613 0.9613 0.2756 64.5404 66.963)" class="st20 st22 st35">E</text>
		<text transform="matrix(0.3256 -0.9455 0.9455 0.3256 63.3155 70.8081)" class="st20 st22 st31">Z</text>
		<text transform="matrix(0.4067 -0.9136 0.9136 0.4067 61.8229 74.2446)" class="st20 st22 st28">E</text>
		<text transform="matrix(0.4384 -0.8988 0.8988 0.4384 60.2882 77.4717)" class="st20 st22 st36">T</text>
		<text transform="matrix(0.4848 -0.8746 0.8746 0.4848 59.3002 79.2901)" class="st20 st22 st37"> </text>
		<text transform="matrix(0.515 -0.8572 0.8572 0.515 57.3982 82.5222)" class="st20 st22 st26">E</text>
		<text transform="matrix(0.6018 -0.7986 0.7986 0.6018 55.4282 85.1726)" class="st20 st22 st38">L</text>
		<text transform="matrix(0.6293 -0.7771 0.7771 0.6293 52.544 88.7426)" class="st20 st22 st32">A</text>
		<text transform="matrix(0.7071 -0.7071 0.7071 0.7071 50.5627 90.7094)" class="st20 st22 st25">J</text>
	</g>
	<g>
		<path class="st19" d="M240.7,71.8h-1.8l-0.1,0.4c0,0.1-0.1,0.2-0.1,0.3c0,0.1,0,0.2,0,0.3c0,0.3,0.1,0.4,0.4,0.4v0.3h-1.8v-0.3
			c0.1,0,0.2,0,0.3-0.1c0.1-0.1,0.2-0.1,0.2-0.3c0.1-0.1,0.1-0.3,0.2-0.5l1.8-4.7h1.1l1.4,4.8c0.1,0.2,0.1,0.4,0.2,0.5
			c0,0.1,0.1,0.2,0.2,0.2c0.1,0.1,0.2,0.1,0.3,0.1v0.3h-2.4v-0.3c0.1,0,0.3-0.1,0.3-0.1c0.1-0.1,0.1-0.2,0.1-0.3c0-0.1,0-0.2,0-0.3
			c0-0.1-0.1-0.2-0.1-0.4L240.7,71.8z M239,71.3h1.5l-0.7-2.4L239,71.3z"/>
		<path class="st19" d="M248.9,67.8v0.3c-0.1,0-0.2,0.1-0.2,0.1s-0.1,0.1-0.1,0.1c0,0-0.1,0.1-0.1,0.2c0,0.1,0,0.2,0,0.4v4.8h-1.1
			l-1.9-3.3c-0.3-0.4-0.4-0.8-0.6-1.1h0c0,0.6,0,1.3,0,1.9v1.4c0,0.2,0,0.4,0,0.4c0,0.1,0.1,0.2,0.1,0.2c0.1,0,0.2,0.1,0.3,0.1v0.3
			h-1.6v-0.3c0.1,0,0.2-0.1,0.2-0.1c0.1,0,0.1-0.1,0.1-0.1c0-0.1,0-0.1,0.1-0.2c0-0.1,0-0.2,0-0.3v-3.7c0-0.2,0-0.4,0-0.4
			c0-0.1-0.1-0.1-0.1-0.2c-0.1-0.1-0.2-0.1-0.3-0.1v-0.3h1.7l1.5,2.6c0.1,0.2,0.2,0.4,0.4,0.7c0.2,0.3,0.3,0.5,0.4,0.8h0.1
			c0-0.7,0-1.4,0-2.2v-0.8c0-0.2,0-0.3,0-0.4c0-0.1,0-0.1-0.1-0.2c0,0-0.1-0.1-0.1-0.1c0,0-0.1-0.1-0.2-0.1v-0.3H248.9z"/>
		<path class="st19" d="M253,71.8h-1.8l-0.1,0.4c0,0.1-0.1,0.2-0.1,0.3c0,0.1,0,0.2,0,0.3c0,0.3,0.1,0.4,0.4,0.4v0.3h-1.8v-0.3
			c0.1,0,0.2,0,0.3-0.1c0.1-0.1,0.2-0.1,0.2-0.3c0.1-0.1,0.1-0.3,0.2-0.5l1.8-4.7h1.1l1.4,4.8c0.1,0.2,0.1,0.4,0.2,0.5
			c0,0.1,0.1,0.2,0.2,0.2c0.1,0.1,0.2,0.1,0.3,0.1v0.3h-2.4v-0.3c0.1,0,0.3-0.1,0.3-0.1c0.1-0.1,0.1-0.2,0.1-0.3c0-0.1,0-0.2,0-0.3
			c0-0.1-0.1-0.2-0.1-0.4L253,71.8z M251.4,71.3h1.5l-0.7-2.4L251.4,71.3z"/>
		<path class="st19" d="M258.5,73.7c-0.8,0-1.5-0.2-1.9-0.7c-0.4-0.5-0.6-1.2-0.6-2.2c0-0.6,0.1-1.2,0.3-1.6c0.2-0.5,0.5-0.8,0.9-1
			c0.4-0.2,0.9-0.4,1.4-0.4c0.9,0,1.5,0.2,1.9,0.7c0.4,0.5,0.6,1.2,0.6,2.2c0,0.5-0.1,1-0.2,1.4c-0.1,0.4-0.3,0.7-0.5,0.9
			c-0.2,0.2-0.5,0.4-0.8,0.5C259.3,73.6,258.9,73.7,258.5,73.7z M257.3,70.6c0,0.9,0.1,1.5,0.3,1.9c0.2,0.4,0.5,0.6,0.9,0.6
			c0.2,0,0.4-0.1,0.6-0.2c0.2-0.1,0.3-0.3,0.4-0.5c0.1-0.2,0.2-0.5,0.2-0.8c0-0.3,0.1-0.6,0.1-1c0-0.6,0-1-0.1-1.4
			c-0.1-0.4-0.2-0.7-0.4-0.9c-0.2-0.2-0.4-0.3-0.7-0.3c-0.4,0-0.7,0.2-0.9,0.6C257.4,69.2,257.3,69.8,257.3,70.6z"/>
		<path class="st19" d="M267.2,72.5c0.1,0.2,0.2,0.3,0.3,0.4c0.1,0.1,0.1,0.2,0.2,0.2c0.1,0.1,0.1,0.1,0.2,0.1
			c0.1,0,0.1,0.1,0.2,0.1v0.3h-2.3v-0.3c0.1,0,0.2,0,0.2-0.1c0,0,0.1-0.1,0.1-0.1c0,0,0-0.1,0-0.1c0,0,0-0.1-0.1-0.2
			c0-0.1-0.1-0.2-0.3-0.5l-0.7-1c-0.1-0.1-0.1-0.2-0.2-0.3c-0.1-0.1-0.1-0.1-0.2-0.1c-0.1,0-0.1,0-0.2,0h-0.1v1.7c0,0.1,0,0.2,0,0.3
			c0,0.1,0,0.2,0,0.2c0,0.1,0,0.1,0.1,0.1c0,0,0.1,0.1,0.1,0.1c0.1,0,0.1,0.1,0.2,0.1v0.3h-2.2v-0.3c0.1,0,0.2-0.1,0.2-0.1
			c0.1,0,0.1-0.1,0.1-0.1c0-0.1,0-0.1,0.1-0.2c0-0.1,0-0.2,0-0.3v-3.7c0-0.1,0-0.2,0-0.3c0-0.1,0-0.2-0.1-0.2c0-0.1-0.1-0.1-0.1-0.1
			c-0.1,0-0.1-0.1-0.3-0.1v-0.3h2.2v0.3c-0.1,0-0.2,0.1-0.3,0.1c-0.1,0-0.1,0.1-0.1,0.1c0,0.1,0,0.1-0.1,0.2c0,0.1,0,0.2,0,0.4v1.5
			h0.1c0.1,0,0.2,0,0.3,0c0.1,0,0.2-0.1,0.2-0.2c0.1-0.1,0.2-0.2,0.5-0.5c0.2-0.3,0.4-0.5,0.5-0.6c0.1-0.1,0.2-0.3,0.2-0.4
			c0-0.1,0.1-0.2,0.1-0.3c0-0.1,0-0.2-0.1-0.2c-0.1-0.1-0.2-0.1-0.3-0.1v-0.3h2.2v0.3c-0.1,0-0.2,0-0.3,0.1c-0.1,0-0.2,0.1-0.3,0.2
			c-0.1,0.1-0.2,0.2-0.4,0.4l-1.3,1.4L267.2,72.5z"/>
		<path class="st19" d="M272.5,68.9c0-0.2,0-0.4,0-0.4c0-0.1-0.1-0.2-0.1-0.2c-0.1-0.1-0.2-0.1-0.3-0.1v-0.3h1.9v0.3
			c-0.1,0-0.2,0.1-0.2,0.1c-0.1,0-0.1,0.1-0.1,0.1c0,0.1-0.1,0.1-0.1,0.2c0,0.1,0,0.2,0,0.3v2.7c0,0.4,0,0.6-0.1,0.9
			c-0.1,0.2-0.1,0.4-0.3,0.6c-0.1,0.2-0.3,0.3-0.4,0.4s-0.4,0.2-0.6,0.2c-0.2,0-0.5,0.1-0.7,0.1c-0.4,0-0.7,0-1-0.1
			c-0.3-0.1-0.5-0.2-0.7-0.4c-0.2-0.2-0.3-0.4-0.4-0.6c-0.1-0.2-0.1-0.6-0.1-0.9v-2.8c0-0.1,0-0.2,0-0.3c0-0.1,0-0.2-0.1-0.2
			c0-0.1-0.1-0.1-0.1-0.1c-0.1,0-0.1-0.1-0.3-0.1v-0.3h2.2v0.3c-0.1,0-0.2,0.1-0.3,0.1c-0.1,0-0.1,0.1-0.1,0.1c0,0.1,0,0.1-0.1,0.2
			c0,0.1,0,0.2,0,0.4v2.8c0,0.2,0,0.4,0,0.6c0,0.2,0.1,0.3,0.2,0.5c0.1,0.1,0.2,0.2,0.3,0.3c0.1,0.1,0.3,0.1,0.5,0.1
			c0.3,0,0.5-0.1,0.6-0.2c0.1-0.1,0.2-0.3,0.3-0.5c0.1-0.2,0.1-0.5,0.1-0.9V68.9z"/>
		<path class="st19" d="M277.3,67.8v0.3c-0.1,0-0.2,0.1-0.2,0.1c-0.1,0-0.1,0.1-0.1,0.1c0,0.1-0.1,0.1-0.1,0.2c0,0.1,0,0.2,0,0.3
			v4.3h0.8c0.2,0,0.3,0,0.4-0.1c0.1-0.1,0.2-0.1,0.3-0.2c0.1-0.1,0.1-0.2,0.2-0.4c0.1-0.2,0.1-0.3,0.1-0.5h0.6l-0.1,1.7h-4.1v-0.3
			c0.1,0,0.2-0.1,0.2-0.1c0.1,0,0.1-0.1,0.1-0.1c0-0.1,0-0.1,0.1-0.2c0-0.1,0-0.2,0-0.3v-3.7c0-0.1,0-0.2,0-0.3c0-0.1,0-0.2-0.1-0.2
			c0-0.1-0.1-0.1-0.1-0.1c-0.1,0-0.1-0.1-0.3-0.1v-0.3H277.3z"/>
		<path class="st19" d="M283.8,68.9c0-0.2,0-0.4,0-0.4c0-0.1-0.1-0.2-0.1-0.2c-0.1-0.1-0.2-0.1-0.3-0.1v-0.3h1.9v0.3
			c-0.1,0-0.2,0.1-0.2,0.1c-0.1,0-0.1,0.1-0.1,0.1c0,0.1-0.1,0.1-0.1,0.2c0,0.1,0,0.2,0,0.3v2.7c0,0.4,0,0.6-0.1,0.9
			c-0.1,0.2-0.1,0.4-0.3,0.6c-0.1,0.2-0.3,0.3-0.4,0.4s-0.4,0.2-0.6,0.2c-0.2,0-0.5,0.1-0.7,0.1c-0.4,0-0.7,0-1-0.1
			c-0.3-0.1-0.5-0.2-0.7-0.4c-0.2-0.2-0.3-0.4-0.4-0.6c-0.1-0.2-0.1-0.6-0.1-0.9v-2.8c0-0.1,0-0.2,0-0.3c0-0.1,0-0.2-0.1-0.2
			c0-0.1-0.1-0.1-0.1-0.1c-0.1,0-0.1-0.1-0.3-0.1v-0.3h2.2v0.3c-0.1,0-0.2,0.1-0.3,0.1c-0.1,0-0.1,0.1-0.1,0.1c0,0.1,0,0.1-0.1,0.2
			c0,0.1,0,0.2,0,0.4v2.8c0,0.2,0,0.4,0,0.6c0,0.2,0.1,0.3,0.2,0.5c0.1,0.1,0.2,0.2,0.3,0.3c0.1,0.1,0.3,0.1,0.5,0.1
			c0.3,0,0.5-0.1,0.6-0.2c0.1-0.1,0.2-0.3,0.3-0.5c0.1-0.2,0.1-0.5,0.1-0.9V68.9z"/>
	</g>
	<g>
		<path class="st19" d="M239,81.4c0,0.1,0,0.2,0,0.3c0,0.1,0,0.2,0,0.2c0,0.1,0,0.1,0.1,0.1c0,0,0.1,0.1,0.1,0.1
			c0.1,0,0.1,0.1,0.2,0.1v0.3h-2.2v-0.3c0.1,0,0.2-0.1,0.2-0.1c0.1,0,0.1-0.1,0.1-0.1c0-0.1,0-0.1,0.1-0.2c0-0.1,0-0.2,0-0.3v-3.7
			c0-0.1,0-0.2,0-0.3c0-0.1,0-0.2-0.1-0.2c0-0.1-0.1-0.1-0.1-0.1c-0.1,0-0.1-0.1-0.3-0.1v-0.3h2.2v0.3c-0.1,0-0.2,0.1-0.3,0.1
			c-0.1,0-0.1,0.1-0.1,0.1c0,0.1,0,0.1-0.1,0.2c0,0.1,0,0.2,0,0.4V81.4z M238.9,75.1v1h-1.2v-1H238.9z"/>
		<path class="st19" d="M242.9,76.6v0.3c-0.1,0-0.2,0.1-0.2,0.1c-0.1,0-0.1,0.1-0.1,0.1c0,0.1-0.1,0.1-0.1,0.2c0,0.1,0,0.2,0,0.3V82
			h0.8c0.2,0,0.3,0,0.4-0.1c0.1-0.1,0.2-0.1,0.3-0.2c0.1-0.1,0.1-0.2,0.2-0.4c0.1-0.2,0.1-0.3,0.1-0.5h0.6l-0.1,1.7h-4.1v-0.3
			c0.1,0,0.2-0.1,0.2-0.1s0.1-0.1,0.1-0.1c0-0.1,0-0.1,0.1-0.2c0-0.1,0-0.2,0-0.3v-3.7c0-0.1,0-0.2,0-0.3c0-0.1,0-0.2-0.1-0.2
			c0-0.1-0.1-0.1-0.1-0.1c-0.1,0-0.1-0.1-0.3-0.1v-0.3H242.9z"/>
		<path class="st19" d="M250.7,81.3c0.1,0.2,0.2,0.3,0.3,0.4c0.1,0.1,0.1,0.2,0.2,0.2c0.1,0.1,0.1,0.1,0.2,0.1
			c0.1,0,0.1,0.1,0.2,0.1v0.3h-2.3v-0.3c0.1,0,0.2,0,0.2-0.1c0,0,0.1-0.1,0.1-0.1c0,0,0-0.1,0-0.1c0,0,0-0.1-0.1-0.2
			c0-0.1-0.1-0.2-0.3-0.5l-0.7-1c-0.1-0.1-0.1-0.2-0.2-0.3c-0.1-0.1-0.1-0.1-0.2-0.1c-0.1,0-0.1,0-0.2,0h-0.1v1.7c0,0.1,0,0.2,0,0.3
			c0,0.1,0,0.2,0,0.2c0,0.1,0,0.1,0.1,0.1c0,0,0.1,0.1,0.1,0.1c0.1,0,0.1,0.1,0.2,0.1v0.3h-2.2v-0.3c0.1,0,0.2-0.1,0.2-0.1
			c0.1,0,0.1-0.1,0.1-0.1c0-0.1,0-0.1,0.1-0.2c0-0.1,0-0.2,0-0.3v-3.7c0-0.1,0-0.2,0-0.3c0-0.1,0-0.2-0.1-0.2c0-0.1-0.1-0.1-0.1-0.1
			c-0.1,0-0.1-0.1-0.3-0.1v-0.3h2.2v0.3c-0.1,0-0.2,0.1-0.3,0.1c-0.1,0-0.1,0.1-0.1,0.1c0,0.1,0,0.1-0.1,0.2c0,0.1,0,0.2,0,0.4v1.5
			h0.1c0.1,0,0.2,0,0.3,0c0.1,0,0.2-0.1,0.2-0.2c0.1-0.1,0.2-0.2,0.5-0.5c0.2-0.3,0.4-0.5,0.5-0.6c0.1-0.1,0.2-0.3,0.2-0.4
			c0-0.1,0.1-0.2,0.1-0.3c0-0.1,0-0.2-0.1-0.2c-0.1-0.1-0.2-0.1-0.3-0.1v-0.3h2.2v0.3c-0.1,0-0.2,0-0.3,0.1s-0.2,0.1-0.3,0.2
			c-0.1,0.1-0.2,0.2-0.4,0.4l-1.3,1.4L250.7,81.3z"/>
		<path class="st19" d="M254.6,82.5c-0.8,0-1.5-0.2-1.9-0.7c-0.4-0.5-0.6-1.2-0.6-2.2c0-0.6,0.1-1.2,0.3-1.6c0.2-0.5,0.5-0.8,0.9-1
			c0.4-0.2,0.9-0.4,1.4-0.4c0.9,0,1.5,0.2,1.9,0.7c0.4,0.5,0.6,1.2,0.6,2.2c0,0.5-0.1,1-0.2,1.4c-0.1,0.4-0.3,0.7-0.5,0.9
			c-0.2,0.2-0.5,0.4-0.8,0.5C255.4,82.5,255,82.5,254.6,82.5z M253.5,79.5c0,0.9,0.1,1.5,0.3,1.9c0.2,0.4,0.5,0.6,0.9,0.6
			c0.2,0,0.4-0.1,0.6-0.2c0.2-0.1,0.3-0.3,0.4-0.5c0.1-0.2,0.2-0.5,0.2-0.8c0-0.3,0.1-0.6,0.1-1c0-0.6,0-1-0.1-1.4
			c-0.1-0.4-0.2-0.7-0.4-0.9c-0.2-0.2-0.4-0.3-0.7-0.3c-0.4,0-0.7,0.2-0.9,0.6C253.6,78.1,253.5,78.7,253.5,79.5z"/>
		<path class="st19" d="M263.3,81.3c0.1,0.2,0.2,0.3,0.3,0.4c0.1,0.1,0.1,0.2,0.2,0.2c0.1,0.1,0.1,0.1,0.2,0.1
			c0.1,0,0.1,0.1,0.2,0.1v0.3h-2.3v-0.3c0.1,0,0.2,0,0.2-0.1c0,0,0.1-0.1,0.1-0.1c0,0,0-0.1,0-0.1c0,0,0-0.1-0.1-0.2
			c0-0.1-0.1-0.2-0.3-0.5l-0.7-1c-0.1-0.1-0.1-0.2-0.2-0.3c-0.1-0.1-0.1-0.1-0.2-0.1c-0.1,0-0.1,0-0.2,0h-0.1v1.7c0,0.1,0,0.2,0,0.3
			c0,0.1,0,0.2,0,0.2c0,0.1,0,0.1,0.1,0.1c0,0,0.1,0.1,0.1,0.1c0.1,0,0.1,0.1,0.2,0.1v0.3h-2.2v-0.3c0.1,0,0.2-0.1,0.2-0.1
			c0.1,0,0.1-0.1,0.1-0.1c0-0.1,0-0.1,0.1-0.2c0-0.1,0-0.2,0-0.3v-3.7c0-0.1,0-0.2,0-0.3c0-0.1,0-0.2-0.1-0.2c0-0.1-0.1-0.1-0.1-0.1
			c-0.1,0-0.1-0.1-0.3-0.1v-0.3h2.2v0.3c-0.1,0-0.2,0.1-0.3,0.1c-0.1,0-0.1,0.1-0.1,0.1c0,0.1,0,0.1-0.1,0.2c0,0.1,0,0.2,0,0.4v1.5
			h0.1c0.1,0,0.2,0,0.3,0c0.1,0,0.2-0.1,0.2-0.2c0.1-0.1,0.2-0.2,0.5-0.5c0.2-0.3,0.4-0.5,0.5-0.6c0.1-0.1,0.2-0.3,0.2-0.4
			c0-0.1,0.1-0.2,0.1-0.3c0-0.1,0-0.2-0.1-0.2c-0.1-0.1-0.2-0.1-0.3-0.1v-0.3h2.2v0.3c-0.1,0-0.2,0-0.3,0.1c-0.1,0-0.2,0.1-0.3,0.2
			c-0.1,0.1-0.2,0.2-0.4,0.4l-1.3,1.4L263.3,81.3z"/>
		<path class="st19" d="M268.6,77.7c0-0.2,0-0.4,0-0.4c0-0.1-0.1-0.2-0.1-0.2c-0.1-0.1-0.2-0.1-0.3-0.1v-0.3h1.9v0.3
			c-0.1,0-0.2,0.1-0.2,0.1c-0.1,0-0.1,0.1-0.1,0.1c0,0.1-0.1,0.1-0.1,0.2c0,0.1,0,0.2,0,0.3v2.7c0,0.4,0,0.6-0.1,0.9
			c-0.1,0.2-0.1,0.4-0.3,0.6c-0.1,0.2-0.3,0.3-0.4,0.4c-0.2,0.1-0.4,0.2-0.6,0.2c-0.2,0-0.5,0.1-0.7,0.1c-0.4,0-0.7,0-1-0.1
			c-0.3-0.1-0.5-0.2-0.7-0.4c-0.2-0.2-0.3-0.4-0.4-0.6c-0.1-0.2-0.1-0.6-0.1-0.9v-2.8c0-0.1,0-0.2,0-0.3c0-0.1,0-0.2-0.1-0.2
			c0-0.1-0.1-0.1-0.1-0.1c-0.1,0-0.1-0.1-0.3-0.1v-0.3h2.2v0.3c-0.1,0-0.2,0.1-0.3,0.1c-0.1,0-0.1,0.1-0.1,0.1c0,0.1,0,0.1-0.1,0.2
			c0,0.1,0,0.2,0,0.4v2.8c0,0.2,0,0.4,0,0.6c0,0.2,0.1,0.3,0.2,0.5c0.1,0.1,0.2,0.2,0.3,0.3c0.1,0.1,0.3,0.1,0.5,0.1
			c0.3,0,0.5-0.1,0.6-0.2c0.1-0.1,0.2-0.3,0.3-0.5c0.1-0.2,0.1-0.5,0.1-0.9V77.7z"/>
		<path class="st19" d="M273.4,76.6v0.3c-0.1,0-0.2,0.1-0.2,0.1c-0.1,0-0.1,0.1-0.1,0.1c0,0.1-0.1,0.1-0.1,0.2c0,0.1,0,0.2,0,0.3V82
			h0.8c0.2,0,0.3,0,0.4-0.1c0.1-0.1,0.2-0.1,0.3-0.2c0.1-0.1,0.1-0.2,0.2-0.4c0.1-0.2,0.1-0.3,0.1-0.5h0.6l-0.1,1.7h-4.1v-0.3
			c0.1,0,0.2-0.1,0.2-0.1c0.1,0,0.1-0.1,0.1-0.1c0-0.1,0-0.1,0.1-0.2c0-0.1,0-0.2,0-0.3v-3.7c0-0.1,0-0.2,0-0.3c0-0.1,0-0.2-0.1-0.2
			c0-0.1-0.1-0.1-0.1-0.1c-0.1,0-0.1-0.1-0.3-0.1v-0.3H273.4z"/>
	</g>
	<g>
		<path class="st19" d="M239.7,91.1c-0.8,0-1.5-0.2-1.9-0.7c-0.4-0.5-0.6-1.2-0.6-2.2c0-0.6,0.1-1.2,0.3-1.6c0.2-0.5,0.5-0.8,0.9-1
			c0.4-0.2,0.9-0.4,1.4-0.4c0.9,0,1.5,0.2,1.9,0.7c0.4,0.5,0.6,1.2,0.6,2.2c0,0.5-0.1,1-0.2,1.4c-0.1,0.4-0.3,0.7-0.5,0.9
			c-0.2,0.2-0.5,0.4-0.8,0.5C240.5,91.1,240.1,91.1,239.7,91.1z M238.6,88.1c0,0.9,0.1,1.5,0.3,1.9c0.2,0.4,0.5,0.6,0.9,0.6
			c0.2,0,0.4-0.1,0.6-0.2c0.2-0.1,0.3-0.3,0.4-0.5c0.1-0.2,0.2-0.5,0.2-0.8c0-0.3,0.1-0.6,0.1-1c0-0.6,0-1-0.1-1.4
			c-0.1-0.4-0.2-0.7-0.4-0.9c-0.2-0.2-0.4-0.3-0.7-0.3c-0.4,0-0.7,0.2-0.9,0.6C238.7,86.6,238.6,87.3,238.6,88.1z"/>
		<path class="st19" d="M245.9,91.1h-2.2v-0.3c0.1,0,0.2-0.1,0.2-0.1c0.1,0,0.1-0.1,0.1-0.1c0-0.1,0-0.1,0.1-0.2c0-0.1,0-0.2,0-0.3
			v-3.7c0-0.1,0-0.2,0-0.3c0-0.1,0-0.2-0.1-0.2c0-0.1-0.1-0.1-0.1-0.1c-0.1,0-0.1-0.1-0.3-0.1v-0.3h2.5c0.3,0,0.6,0,0.9,0.1
			c0.2,0,0.4,0.1,0.6,0.2c0.1,0.1,0.3,0.2,0.4,0.3c0.1,0.1,0.2,0.3,0.2,0.4s0.1,0.3,0.1,0.6c0,0.3,0,0.5-0.1,0.7
			c-0.1,0.2-0.2,0.4-0.4,0.5c-0.2,0.1-0.4,0.3-0.7,0.4v0c0.2,0.1,0.4,0.2,0.5,0.4c0.1,0.2,0.3,0.3,0.4,0.6l0.3,0.6
			c0.1,0.3,0.2,0.5,0.4,0.6c0.1,0.1,0.3,0.2,0.4,0.2v0.3h-1.6c-0.2-0.2-0.4-0.6-0.6-1l-0.3-0.7c-0.1-0.2-0.2-0.4-0.3-0.5
			c-0.1-0.1-0.1-0.2-0.2-0.2c-0.1,0-0.2-0.1-0.3-0.1h-0.2V90c0,0.2,0,0.4,0,0.4c0,0.1,0.1,0.2,0.1,0.2c0.1,0.1,0.2,0.1,0.3,0.1V91.1
			z M245.4,85.7v2.4h0.4c0.2,0,0.4,0,0.6-0.1c0.1-0.1,0.3-0.1,0.4-0.3c0.1-0.1,0.1-0.2,0.2-0.4c0-0.1,0-0.3,0-0.5
			c0-0.4-0.1-0.7-0.3-0.9c-0.2-0.2-0.5-0.3-0.8-0.3C245.7,85.7,245.5,85.7,245.4,85.7z"/>
		<path class="st19" d="M250.7,91.1v-0.3c0.1,0,0.2,0,0.3-0.1c0.1,0,0.1-0.1,0.2-0.1c0-0.1,0.1-0.1,0.1-0.2c0-0.1,0-0.2,0-0.3v-4.3
			h-0.3c-0.2,0-0.3,0-0.4,0.1c-0.1,0-0.2,0.1-0.2,0.2c-0.1,0.1-0.1,0.2-0.2,0.3c0,0.1-0.1,0.3-0.1,0.4h-0.6v-1.5h5v1.5h-0.6
			c-0.1-0.2-0.1-0.3-0.1-0.4c0-0.1-0.1-0.2-0.1-0.2c0-0.1-0.1-0.1-0.1-0.2c0,0-0.1-0.1-0.1-0.1c0,0-0.1,0-0.2-0.1
			c-0.1,0-0.2,0-0.3,0h-0.3V90c0,0.2,0,0.3,0,0.3c0,0.1,0,0.1,0,0.2c0,0,0.1,0.1,0.1,0.1c0,0,0.1,0.1,0.1,0.1c0.1,0,0.1,0,0.2,0.1
			v0.3H250.7z"/>
		<path class="st19" d="M257.6,89.2h-1.8l-0.1,0.4c0,0.1-0.1,0.2-0.1,0.3c0,0.1,0,0.2,0,0.3c0,0.3,0.1,0.4,0.4,0.4v0.3h-1.8v-0.3
			c0.1,0,0.2,0,0.3-0.1c0.1-0.1,0.2-0.1,0.2-0.3c0.1-0.1,0.1-0.3,0.2-0.5l1.8-4.7h1.1l1.4,4.8c0.1,0.2,0.1,0.4,0.2,0.5
			c0,0.1,0.1,0.2,0.2,0.2c0.1,0.1,0.2,0.1,0.3,0.1v0.3h-2.4v-0.3c0.1,0,0.3-0.1,0.3-0.1s0.1-0.2,0.1-0.3c0-0.1,0-0.2,0-0.3
			c0-0.1-0.1-0.2-0.1-0.4L257.6,89.2z M256,88.7h1.5l-0.7-2.4L256,88.7z"/>
		<path class="st19" d="M263.1,91.1c-0.8,0-1.5-0.2-1.9-0.7c-0.4-0.5-0.6-1.2-0.6-2.2c0-0.6,0.1-1.2,0.3-1.6c0.2-0.5,0.5-0.8,0.9-1
			c0.4-0.2,0.9-0.4,1.4-0.4c0.9,0,1.5,0.2,1.9,0.7c0.4,0.5,0.6,1.2,0.6,2.2c0,0.5-0.1,1-0.2,1.4c-0.1,0.4-0.3,0.7-0.5,0.9
			c-0.2,0.2-0.5,0.4-0.8,0.5C263.8,91.1,263.5,91.1,263.1,91.1z M261.9,88.1c0,0.9,0.1,1.5,0.3,1.9c0.2,0.4,0.5,0.6,0.9,0.6
			c0.2,0,0.4-0.1,0.6-0.2c0.2-0.1,0.3-0.3,0.4-0.5c0.1-0.2,0.2-0.5,0.2-0.8c0-0.3,0.1-0.6,0.1-1c0-0.6,0-1-0.1-1.4
			c-0.1-0.4-0.2-0.7-0.4-0.9c-0.2-0.2-0.4-0.3-0.7-0.3c-0.4,0-0.7,0.2-0.9,0.6C262,86.6,261.9,87.3,261.9,88.1z"/>
		<path class="st19" d="M271.8,89.9c0.1,0.2,0.2,0.3,0.3,0.4c0.1,0.1,0.1,0.2,0.2,0.2c0.1,0.1,0.1,0.1,0.2,0.1
			c0.1,0,0.1,0.1,0.2,0.1v0.3h-2.3v-0.3c0.1,0,0.2,0,0.2-0.1c0,0,0.1-0.1,0.1-0.1c0,0,0-0.1,0-0.1c0,0,0-0.1-0.1-0.2
			c0-0.1-0.1-0.2-0.3-0.5l-0.7-1c-0.1-0.1-0.1-0.2-0.2-0.3c-0.1-0.1-0.1-0.1-0.2-0.1c-0.1,0-0.1,0-0.2,0h-0.1V90c0,0.1,0,0.2,0,0.3
			c0,0.1,0,0.2,0,0.2c0,0.1,0,0.1,0.1,0.1c0,0,0.1,0.1,0.1,0.1c0.1,0,0.1,0.1,0.2,0.1v0.3H267v-0.3c0.1,0,0.2-0.1,0.2-0.1
			c0.1,0,0.1-0.1,0.1-0.1c0-0.1,0-0.1,0.1-0.2c0-0.1,0-0.2,0-0.3v-3.7c0-0.1,0-0.2,0-0.3c0-0.1,0-0.2-0.1-0.2c0-0.1-0.1-0.1-0.1-0.1
			c-0.1,0-0.1-0.1-0.3-0.1v-0.3h2.2v0.3c-0.1,0-0.2,0.1-0.3,0.1c-0.1,0-0.1,0.1-0.1,0.1c0,0.1,0,0.1-0.1,0.2c0,0.1,0,0.2,0,0.4v1.5
			h0.1c0.1,0,0.2,0,0.3,0c0.1,0,0.2-0.1,0.2-0.2c0.1-0.1,0.2-0.2,0.5-0.5c0.2-0.3,0.4-0.5,0.5-0.6c0.1-0.1,0.2-0.3,0.2-0.4
			c0-0.1,0.1-0.2,0.1-0.3c0-0.1,0-0.2-0.1-0.2c-0.1-0.1-0.2-0.1-0.3-0.1v-0.3h2.2v0.3c-0.1,0-0.2,0-0.3,0.1c-0.1,0-0.2,0.1-0.3,0.2
			c-0.1,0.1-0.2,0.2-0.4,0.4l-1.3,1.4L271.8,89.9z"/>
		<path class="st19" d="M277.1,86.3c0-0.2,0-0.4,0-0.4c0-0.1-0.1-0.2-0.1-0.2c-0.1-0.1-0.2-0.1-0.3-0.1v-0.3h1.9v0.3
			c-0.1,0-0.2,0.1-0.2,0.1c-0.1,0-0.1,0.1-0.1,0.1c0,0.1-0.1,0.1-0.1,0.2c0,0.1,0,0.2,0,0.3V89c0,0.4,0,0.6-0.1,0.9
			c-0.1,0.2-0.1,0.4-0.3,0.6c-0.1,0.2-0.3,0.3-0.4,0.4c-0.2,0.1-0.4,0.2-0.6,0.2c-0.2,0-0.5,0.1-0.7,0.1c-0.4,0-0.7,0-1-0.1
			c-0.3-0.1-0.5-0.2-0.7-0.4c-0.2-0.2-0.3-0.4-0.4-0.6c-0.1-0.2-0.1-0.6-0.1-0.9v-2.8c0-0.1,0-0.2,0-0.3c0-0.1,0-0.2-0.1-0.2
			c0-0.1-0.1-0.1-0.1-0.1c-0.1,0-0.1-0.1-0.3-0.1v-0.3h2.2v0.3c-0.1,0-0.2,0.1-0.3,0.1c-0.1,0-0.1,0.1-0.1,0.1c0,0.1,0,0.1-0.1,0.2
			c0,0.1,0,0.2,0,0.4v2.8c0,0.2,0,0.4,0,0.6c0,0.2,0.1,0.3,0.2,0.5c0.1,0.1,0.2,0.2,0.3,0.3c0.1,0.1,0.3,0.1,0.5,0.1
			c0.3,0,0.5-0.1,0.6-0.2c0.1-0.1,0.2-0.3,0.3-0.5c0.1-0.2,0.1-0.5,0.1-0.9V86.3z"/>
		<path class="st19" d="M281.9,85.2v0.3c-0.1,0-0.2,0.1-0.2,0.1c-0.1,0-0.1,0.1-0.1,0.1c0,0.1-0.1,0.1-0.1,0.2c0,0.1,0,0.2,0,0.3
			v4.3h0.8c0.2,0,0.3,0,0.4-0.1c0.1-0.1,0.2-0.1,0.3-0.2c0.1-0.1,0.1-0.2,0.2-0.4c0.1-0.2,0.1-0.3,0.1-0.5h0.6l-0.1,1.7h-4.1v-0.3
			c0.1,0,0.2-0.1,0.2-0.1c0.1,0,0.1-0.1,0.1-0.1c0-0.1,0-0.1,0.1-0.2c0-0.1,0-0.2,0-0.3v-3.7c0-0.1,0-0.2,0-0.3c0-0.1,0-0.2-0.1-0.2
			c0-0.1-0.1-0.1-0.1-0.1c-0.1,0-0.1-0.1-0.3-0.1v-0.3H281.9z"/>
	</g>
	<g>
		<path class="st19" d="M239.4,93.6v0.3c-0.1,0-0.2,0.1-0.2,0.1c-0.1,0-0.1,0.1-0.1,0.1c0,0.1-0.1,0.1-0.1,0.2c0,0.1,0,0.2,0,0.3V99
			h0.8c0.2,0,0.3,0,0.4-0.1c0.1-0.1,0.2-0.1,0.3-0.2c0.1-0.1,0.1-0.2,0.2-0.4c0.1-0.2,0.1-0.3,0.1-0.5h0.6l-0.1,1.7h-4.1v-0.3
			c0.1,0,0.2-0.1,0.2-0.1c0.1,0,0.1-0.1,0.1-0.1c0-0.1,0-0.1,0.1-0.2c0-0.1,0-0.2,0-0.3v-3.7c0-0.1,0-0.2,0-0.3c0-0.1,0-0.2-0.1-0.2
			c0-0.1-0.1-0.1-0.1-0.1c-0.1,0-0.1-0.1-0.3-0.1v-0.3H239.4z"/>
		<path class="st19" d="M244.2,98.4c0,0.1,0,0.2,0,0.3c0,0.1,0,0.2,0,0.2c0,0.1,0,0.1,0.1,0.1c0,0,0.1,0.1,0.1,0.1
			c0.1,0,0.1,0.1,0.2,0.1v0.3h-2.2v-0.3c0.1,0,0.2-0.1,0.2-0.1c0.1,0,0.1-0.1,0.1-0.1c0-0.1,0-0.1,0.1-0.2c0-0.1,0-0.2,0-0.3v-3.7
			c0-0.1,0-0.2,0-0.3c0-0.1,0-0.2-0.1-0.2c0-0.1-0.1-0.1-0.1-0.1s-0.1-0.1-0.3-0.1v-0.3h2.2v0.3c-0.1,0-0.2,0.1-0.3,0.1
			c-0.1,0-0.1,0.1-0.1,0.1c0,0.1,0,0.1-0.1,0.2c0,0.1,0,0.2,0,0.4V98.4z M244.1,92.1v1H243v-1H244.1z"/>
		<path class="st19" d="M246.5,98c0.1,0.3,0.2,0.6,0.4,0.8c0.2,0.2,0.4,0.2,0.7,0.2c0.2,0,0.3,0,0.5-0.1c0.1-0.1,0.2-0.1,0.3-0.3
			c0.1-0.1,0.1-0.3,0.1-0.5c0-0.2,0-0.3-0.1-0.5c-0.1-0.1-0.2-0.3-0.3-0.4c-0.1-0.1-0.3-0.2-0.6-0.4c-0.2-0.1-0.4-0.2-0.6-0.3
			c-0.2-0.1-0.3-0.3-0.5-0.4c-0.1-0.1-0.2-0.3-0.3-0.5c-0.1-0.2-0.1-0.4-0.1-0.6c0-0.3,0.1-0.6,0.3-0.9c0.2-0.2,0.4-0.4,0.8-0.6
			c0.3-0.1,0.7-0.2,1.1-0.2c0.3,0,0.5,0,0.7,0c0.2,0,0.5,0.1,0.8,0.1V95h-0.6c-0.1-0.2-0.1-0.4-0.2-0.5c-0.1-0.1-0.2-0.2-0.3-0.3
			c-0.1-0.1-0.3-0.1-0.5-0.1c-0.2,0-0.3,0-0.4,0.1c-0.1,0.1-0.2,0.1-0.3,0.3c-0.1,0.1-0.1,0.2-0.1,0.4c0,0.2,0,0.3,0.1,0.4
			c0.1,0.1,0.2,0.2,0.3,0.4s0.4,0.2,0.7,0.4c0.3,0.2,0.6,0.4,0.8,0.5c0.2,0.2,0.3,0.4,0.4,0.6c0.1,0.2,0.1,0.4,0.1,0.7
			c0,0.3-0.1,0.7-0.2,0.9c-0.2,0.3-0.4,0.5-0.7,0.6c-0.3,0.1-0.7,0.2-1.1,0.2c-0.3,0-0.6,0-0.9,0c-0.3,0-0.6-0.1-0.9-0.1V98H246.5z"
			/>
		<path class="st19" d="M255.1,93.6V95h-0.6c-0.1-0.3-0.2-0.5-0.2-0.5c-0.1-0.1-0.1-0.2-0.2-0.2c-0.1-0.1-0.2-0.1-0.5-0.1h-0.9v2
			h0.6c0.1,0,0.2,0,0.3-0.1c0.1,0,0.1-0.1,0.2-0.2c0-0.1,0.1-0.2,0.1-0.4h0.5v1.7h-0.5c0-0.2-0.1-0.3-0.1-0.4c0-0.1-0.1-0.1-0.2-0.2
			c-0.1,0-0.2-0.1-0.3-0.1h-0.6V99h0.9c0.1,0,0.2,0,0.3,0c0.1,0,0.1,0,0.2-0.1c0.1,0,0.1-0.1,0.2-0.1c0.1-0.1,0.1-0.1,0.1-0.2
			c0-0.1,0.1-0.1,0.1-0.2c0-0.1,0.1-0.2,0.1-0.4h0.6l-0.1,1.6h-4.2v-0.3c0.1,0,0.2-0.1,0.2-0.1c0.1,0,0.1-0.1,0.1-0.1
			c0-0.1,0-0.1,0.1-0.2c0-0.1,0-0.2,0-0.3v-3.7c0-0.1,0-0.2,0-0.3c0-0.1,0-0.2-0.1-0.2c0-0.1-0.1-0.1-0.1-0.1
			c-0.1,0-0.1-0.1-0.3-0.1v-0.3H255.1z"/>
	</g>
	<g>
		<g>
			<path class="st39" d="M93.1,53.8c0,1.5-0.1,2.8-0.4,3.7c-0.2,1-0.6,1.8-1.2,2.5c-0.7,0.9-1.5,1.7-2.6,2.4
				c-1.3,0.8-2.9,1.5-4.8,2.1L83.1,62c0.9-0.4,1.5-0.7,1.9-1.1c0.4-0.3,0.7-0.7,0.9-1.1c0.2-0.4,0.3-0.9,0.4-1.5
				c0.1-0.6,0.1-1.4,0.1-2.6V32.4c0-0.7,0-1.2-0.1-1.7c0-0.5-0.1-0.8-0.3-1.1c-0.1-0.3-0.4-0.5-0.7-0.7c-0.3-0.2-0.7-0.3-1.3-0.5V27
				h11.2v1.4c-0.6,0.2-1,0.3-1.3,0.5c-0.3,0.2-0.5,0.4-0.6,0.7c-0.1,0.3-0.2,0.6-0.3,1c-0.1,0.4-0.1,1-0.1,1.8V53.8z"/>
			<path class="st39" d="M113.1,47.2H104l-0.7,2c-0.2,0.6-0.4,1.1-0.5,1.7c-0.1,0.5-0.2,1.1-0.2,1.7c0,1.4,0.7,2.1,2.2,2.2v1.4h-9.1
				v-1.4c0.5-0.1,1-0.2,1.4-0.6c0.4-0.3,0.8-0.7,1.1-1.3c0.3-0.5,0.7-1.3,1-2.3l8.9-23.7h5.7l7.1,23.9c0.3,1.1,0.6,1.8,0.8,2.3
				c0.2,0.4,0.5,0.8,0.8,1.1c0.3,0.3,0.8,0.5,1.4,0.6v1.4h-11.8v-1.4c0.7-0.1,1.3-0.3,1.6-0.6c0.4-0.3,0.5-0.8,0.5-1.4
				c0-0.4-0.1-0.9-0.1-1.5c-0.1-0.5-0.3-1.2-0.5-2.1L113.1,47.2z M104.8,44.7h7.7l-3.4-12L104.8,44.7z"/>
			<path class="st39" d="M137.7,27v1.4c-0.5,0.1-0.9,0.3-1.2,0.5c-0.3,0.2-0.5,0.4-0.7,0.7c-0.2,0.3-0.3,0.7-0.3,1.1
				c-0.1,0.4-0.1,1-0.1,1.7v21.3h4.1c0.8,0,1.5-0.1,2-0.4c0.5-0.3,0.9-0.7,1.3-1.2s0.7-1.2,0.9-2.1c0.3-0.9,0.5-1.7,0.6-2.4h2.9
				l-0.5,8.6h-20.4v-1.4c0.5-0.1,0.9-0.3,1.3-0.5c0.3-0.2,0.5-0.4,0.7-0.7c0.1-0.3,0.2-0.7,0.3-1.1c0-0.4,0.1-1,0.1-1.7V32.4
				c0-0.7,0-1.2-0.1-1.7c0-0.5-0.1-0.8-0.3-1.1c-0.1-0.3-0.4-0.5-0.7-0.7c-0.3-0.2-0.7-0.3-1.3-0.5V27H137.7z"/>
			<path class="st39" d="M171.8,27v6.8h-2.9c-0.5-1.4-0.9-2.3-1.2-2.7c-0.3-0.5-0.7-0.9-1.2-1.1c-0.5-0.3-1.2-0.4-2.3-0.4h-4.7v10.3
				h2.8c0.6,0,1.1-0.1,1.5-0.3c0.4-0.2,0.7-0.5,0.9-0.9c0.2-0.4,0.5-1.1,0.7-1.9h2.4v8.7h-2.4c-0.2-0.8-0.4-1.5-0.7-1.9
				c-0.2-0.4-0.5-0.7-0.9-0.9c-0.3-0.2-0.8-0.3-1.5-0.3h-2.8v11.4h4.6c0.5,0,0.9,0,1.3-0.1c0.3-0.1,0.6-0.2,0.9-0.3
				c0.3-0.2,0.5-0.4,0.8-0.6c0.2-0.3,0.5-0.6,0.7-0.9c0.2-0.3,0.4-0.7,0.6-1.2c0.2-0.5,0.4-1.2,0.7-2.1h2.9l-0.4,7.8h-21v-1.4
				c0.5-0.1,0.9-0.3,1.3-0.5c0.3-0.2,0.5-0.4,0.7-0.7c0.1-0.3,0.2-0.7,0.3-1.1c0-0.4,0.1-1,0.1-1.7V32.4c0-0.7,0-1.2-0.1-1.7
				c0-0.5-0.1-0.8-0.3-1.1c-0.1-0.3-0.4-0.5-0.7-0.7c-0.3-0.2-0.7-0.3-1.3-0.5V27H171.8z"/>
		</g>
		<g>
			<path class="st39" d="M191.5,56.2v-1.4c0.6-0.1,1.1-0.2,1.4-0.4c0.3-0.2,0.6-0.4,0.8-0.7c0.2-0.3,0.3-0.7,0.3-1.1
				c0-0.5,0.1-1,0.1-1.7V29.5h-1.7c-0.9,0-1.5,0.1-2,0.3c-0.5,0.2-0.9,0.5-1.2,0.9s-0.6,1-0.9,1.7c-0.2,0.7-0.4,1.4-0.6,2h-2.9V27
				H210v7.5h-2.9c-0.3-1-0.5-1.7-0.6-2.1c-0.2-0.5-0.3-0.8-0.5-1.2c-0.2-0.3-0.4-0.6-0.6-0.8c-0.2-0.2-0.4-0.4-0.7-0.5
				c-0.2-0.1-0.5-0.2-0.9-0.3c-0.4-0.1-0.8-0.1-1.4-0.1h-1.5v21.3c0,0.8,0,1.3,0.1,1.7c0,0.4,0.1,0.7,0.2,1c0.1,0.2,0.3,0.4,0.4,0.6
				c0.2,0.1,0.4,0.3,0.7,0.4c0.3,0.1,0.7,0.2,1.2,0.3v1.4H191.5z"/>
			<path class="st39" d="M234.7,27v6.8h-2.9c-0.5-1.4-0.9-2.3-1.2-2.7c-0.3-0.5-0.7-0.9-1.2-1.1c-0.5-0.3-1.2-0.4-2.3-0.4h-4.7v10.3
				h2.8c0.6,0,1.1-0.1,1.5-0.3c0.4-0.2,0.7-0.5,0.9-0.9c0.2-0.4,0.5-1.1,0.7-1.9h2.4v8.7h-2.4c-0.2-0.8-0.4-1.5-0.7-1.9
				c-0.2-0.4-0.5-0.7-0.9-0.9c-0.3-0.2-0.8-0.3-1.5-0.3h-2.8v11.4h4.6c0.5,0,0.9,0,1.3-0.1c0.3-0.1,0.6-0.2,0.9-0.3
				c0.3-0.2,0.5-0.4,0.8-0.6c0.2-0.3,0.5-0.6,0.7-0.9c0.2-0.3,0.4-0.7,0.6-1.2c0.2-0.5,0.4-1.2,0.7-2.1h2.9l-0.4,7.8h-21v-1.4
				c0.5-0.1,0.9-0.3,1.3-0.5c0.3-0.2,0.5-0.4,0.7-0.7c0.1-0.3,0.2-0.7,0.3-1.1c0-0.4,0.1-1,0.1-1.7V32.4c0-0.7,0-1.2-0.1-1.7
				c0-0.5-0.1-0.8-0.3-1.1c-0.1-0.3-0.4-0.5-0.7-0.7c-0.3-0.2-0.7-0.3-1.3-0.5V27H234.7z"/>
			<path class="st39" d="M246.3,53.7h6.1c0.8,0,1.4-0.2,2-0.5s1-0.8,1.4-1.5c0.4-0.7,0.8-1.9,1.2-3.6h2.9v8.1h-21.4v-1.4l13.7-25.2
				h-5.8c-0.9,0-1.7,0.2-2.2,0.5c-0.5,0.3-1,0.9-1.4,1.6c-0.4,0.8-0.7,1.8-1,3h-2.9V27h21.2v1.4L246.3,53.7z"/>
			<path class="st39" d="M284.7,27v6.8h-2.9c-0.5-1.4-0.9-2.3-1.2-2.7c-0.3-0.5-0.7-0.9-1.2-1.1c-0.5-0.3-1.2-0.4-2.3-0.4h-4.7v10.3
				h2.8c0.6,0,1.1-0.1,1.5-0.3c0.4-0.2,0.7-0.5,0.9-0.9c0.2-0.4,0.5-1.1,0.7-1.9h2.4v8.7h-2.4c-0.2-0.8-0.4-1.5-0.7-1.9
				c-0.2-0.4-0.5-0.7-0.9-0.9c-0.3-0.2-0.8-0.3-1.5-0.3h-2.8v11.4h4.6c0.5,0,0.9,0,1.3-0.1c0.3-0.1,0.6-0.2,0.9-0.3
				c0.3-0.2,0.5-0.4,0.8-0.6c0.2-0.3,0.5-0.6,0.7-0.9c0.2-0.3,0.4-0.7,0.6-1.2c0.2-0.5,0.4-1.2,0.7-2.1h2.9l-0.4,7.8h-21v-1.4
				c0.5-0.1,0.9-0.3,1.3-0.5c0.3-0.2,0.5-0.4,0.7-0.7c0.1-0.3,0.2-0.7,0.3-1.1c0-0.4,0.1-1,0.1-1.7V32.4c0-0.7,0-1.2-0.1-1.7
				c0-0.5-0.1-0.8-0.3-1.1c-0.1-0.3-0.4-0.5-0.7-0.7c-0.3-0.2-0.7-0.3-1.3-0.5V27H284.7z"/>
			<path class="st39" d="M300,56.2h-11.2v-1.4c0.5-0.1,0.9-0.3,1.3-0.5c0.3-0.2,0.5-0.4,0.7-0.7c0.1-0.3,0.2-0.7,0.3-1.1
				c0-0.4,0.1-1,0.1-1.7V32.4c0-0.7,0-1.2-0.1-1.7c0-0.5-0.1-0.8-0.3-1.1c-0.1-0.3-0.4-0.5-0.7-0.7c-0.3-0.2-0.7-0.3-1.3-0.5V27
				h12.5c1.7,0,3.1,0.1,4.3,0.4c1.2,0.2,2.2,0.6,3.1,1.1c0.7,0.4,1.4,0.9,1.9,1.5c0.5,0.6,0.9,1.3,1.2,2.1c0.3,0.8,0.4,1.7,0.4,2.8
				c0,1.4-0.2,2.6-0.7,3.6c-0.5,1-1.2,1.8-2,2.5c-0.8,0.7-1.9,1.3-3.3,1.9v0.2c1.1,0.5,1.9,1.1,2.6,1.8c0.7,0.8,1.3,1.7,1.9,2.9
				l1.3,2.9c0.6,1.3,1.2,2.3,1.8,2.9c0.6,0.6,1.3,1,2.1,1.2v1.4h-8.2c-0.8-1.1-1.8-2.8-2.8-5.1l-1.7-3.7c-0.5-1.1-0.9-1.9-1.3-2.3
				c-0.4-0.5-0.7-0.8-1.1-0.9c-0.4-0.2-1-0.3-1.7-0.3h-1.2v6.9c0,1.1,0,1.8,0.1,2.2c0.1,0.4,0.3,0.8,0.6,1c0.3,0.3,0.8,0.5,1.6,0.7
				V56.2z M297.7,29.6v11.9h2.1c1.1,0,2.1-0.2,2.8-0.5c0.7-0.3,1.3-0.7,1.8-1.3c0.4-0.5,0.7-1.2,0.9-1.9c0.2-0.7,0.2-1.6,0.2-2.4
				c0-1.9-0.5-3.4-1.4-4.4c-0.9-1-2.3-1.5-4.1-1.5C298.9,29.5,298.1,29.6,297.7,29.6z"/>
		</g>
	</g>
	<g>
		<path class="st39" d="M109.1,93.6c0.6,0.9,1.1,1.7,1.5,2.2c0.4,0.6,0.8,1,1.1,1.3c0.3,0.3,0.6,0.6,0.9,0.7
			c0.3,0.2,0.7,0.3,1.2,0.5v1.5h-12.7v-1.5c0.5-0.1,0.9-0.2,1.1-0.4c0.2-0.2,0.3-0.4,0.3-0.7c0-0.2,0-0.5-0.1-0.7
			c-0.1-0.2-0.2-0.6-0.5-1.1c-0.3-0.5-0.8-1.3-1.6-2.6l-3.6-5.5c-0.4-0.7-0.8-1.2-1.1-1.6c-0.3-0.4-0.6-0.6-1-0.8
			c-0.3-0.2-0.8-0.2-1.3-0.2h-0.5v9.3c0,0.5,0,1.1,0,1.5c0,0.5,0.1,0.9,0.2,1.1s0.2,0.5,0.4,0.7c0.2,0.2,0.4,0.4,0.7,0.5
			c0.3,0.1,0.7,0.3,1.1,0.4v1.5H83.1v-1.5c0.6-0.2,1-0.3,1.4-0.5c0.3-0.2,0.6-0.4,0.7-0.7c0.2-0.3,0.3-0.7,0.3-1.2
			c0-0.5,0.1-1.1,0.1-1.9V73.7c0-0.7,0-1.4-0.1-1.8c0-0.5-0.1-0.9-0.3-1.2c-0.2-0.3-0.4-0.6-0.7-0.8c-0.3-0.2-0.8-0.4-1.4-0.5v-1.5
			h12.3v1.5c-0.7,0.2-1.1,0.4-1.4,0.6c-0.3,0.2-0.5,0.4-0.7,0.7c-0.1,0.3-0.3,0.6-0.3,1.1c-0.1,0.4-0.1,1.1-0.1,2v8.3h0.5
			c0.7,0,1.3-0.1,1.7-0.2c0.4-0.2,0.9-0.4,1.3-0.8c0.4-0.4,1.3-1.4,2.6-2.8c1.3-1.5,2.2-2.6,2.8-3.4c0.6-0.8,1-1.5,1.2-2
			c0.2-0.5,0.3-1,0.3-1.6c0-0.5-0.2-1-0.5-1.3c-0.4-0.3-0.9-0.5-1.6-0.5v-1.5h12v1.6c-0.6,0.1-1.1,0.3-1.5,0.5
			c-0.4,0.2-0.9,0.6-1.5,1.1c-0.5,0.5-1.2,1.2-2.1,2.2l-7,7.9L109.1,93.6z"/>
		<path class="st39" d="M128.4,100.2c-4.6,0-8-1.3-10.3-4c-2.3-2.7-3.5-6.7-3.5-12.1c0-3.5,0.6-6.5,1.7-9c1.1-2.5,2.8-4.4,4.9-5.7
			c2.2-1.3,4.8-1.9,7.7-1.9c4.7,0,8.2,1.3,10.5,4c2.3,2.7,3.5,6.7,3.5,11.9c0,2.9-0.3,5.5-1,7.6c-0.7,2.1-1.7,3.9-3,5.2
			c-1.3,1.4-2.8,2.4-4.6,3C132.6,99.8,130.6,100.2,128.4,100.2z M122,83.5c0,4.7,0.6,8.2,1.7,10.5c1.1,2.3,2.9,3.5,5.2,3.5
			c1.2,0,2.2-0.3,3.1-1c0.8-0.6,1.5-1.6,2-2.7c0.5-1.2,0.9-2.5,1.1-4.1c0.2-1.6,0.3-3.3,0.3-5.2c0-3.1-0.2-5.7-0.7-7.8
			c-0.5-2.1-1.2-3.7-2.2-4.8c-1-1.1-2.3-1.6-3.8-1.6c-2.3,0-3.9,1.1-5,3.2C122.6,75.6,122,78.9,122,83.5z"/>
		<path class="st39" d="M160,67.8v1.5c-0.6,0.2-1,0.3-1.3,0.5c-0.3,0.2-0.6,0.4-0.8,0.7c-0.2,0.3-0.3,0.7-0.4,1.2
			c-0.1,0.5-0.1,1.1-0.1,1.9V97h4.5c0.9,0,1.6-0.1,2.2-0.4c0.5-0.3,1-0.7,1.4-1.3c0.4-0.6,0.7-1.3,1-2.3c0.3-0.9,0.5-1.8,0.7-2.7
			h3.2l-0.5,9.5h-22.3v-1.5c0.6-0.2,1-0.3,1.4-0.5c0.3-0.2,0.6-0.4,0.7-0.8c0.2-0.3,0.3-0.7,0.3-1.2c0-0.5,0.1-1.1,0.1-1.9V73.7
			c0-0.7,0-1.4-0.1-1.8c0-0.5-0.1-0.9-0.3-1.2c-0.2-0.3-0.4-0.6-0.7-0.8c-0.3-0.2-0.8-0.4-1.4-0.5v-1.5H160z"/>
		<path class="st39" d="M197.3,67.8v7.4h-3.2c-0.5-1.5-1-2.5-1.3-3c-0.4-0.5-0.8-0.9-1.3-1.2c-0.5-0.3-1.4-0.5-2.6-0.5h-5.1v11.2
			h3.1c0.7,0,1.2-0.1,1.6-0.3c0.4-0.2,0.7-0.5,1-1c0.3-0.5,0.5-1.2,0.7-2.1h2.6v9.5h-2.6c-0.2-0.9-0.5-1.6-0.7-2.1
			c-0.3-0.5-0.6-0.8-0.9-1c-0.4-0.2-0.9-0.3-1.7-0.3h-3.1v12.5h5.1c0.5,0,1,0,1.4-0.1c0.4-0.1,0.7-0.2,1-0.4
			c0.3-0.2,0.6-0.4,0.9-0.7c0.3-0.3,0.5-0.6,0.7-1c0.2-0.3,0.4-0.8,0.7-1.4c0.2-0.6,0.5-1.3,0.8-2.3h3.2l-0.4,8.5h-23v-1.5
			c0.6-0.2,1-0.3,1.4-0.5c0.3-0.2,0.6-0.4,0.7-0.7c0.2-0.3,0.3-0.7,0.3-1.2c0-0.5,0.1-1.1,0.1-1.9V73.7c0-0.7,0-1.4-0.1-1.8
			c0-0.5-0.1-0.9-0.3-1.2c-0.2-0.3-0.4-0.6-0.7-0.8c-0.3-0.2-0.8-0.4-1.4-0.5v-1.5H197.3z"/>
		<path class="st39" d="M211.3,97.2c0,1.7-0.1,3.1-0.4,4.1c-0.3,1-0.7,2-1.3,2.8c-0.7,1-1.7,1.8-2.9,2.6c-1.4,0.9-3.2,1.7-5.2,2.3
			l-1.2-2.9c1-0.4,1.7-0.8,2.1-1.2c0.5-0.4,0.8-0.8,1-1.2c0.2-0.4,0.4-1,0.5-1.6c0.1-0.6,0.1-1.6,0.1-2.8V73.7c0-0.7,0-1.4-0.1-1.8
			c0-0.5-0.1-0.9-0.3-1.2c-0.2-0.3-0.4-0.6-0.7-0.8c-0.3-0.2-0.8-0.4-1.4-0.5v-1.5h12.3v1.5c-0.7,0.2-1.1,0.4-1.4,0.6
			c-0.3,0.2-0.5,0.4-0.7,0.7c-0.1,0.3-0.3,0.6-0.3,1.1c-0.1,0.4-0.1,1.1-0.1,2V97.2z"/>
		<path class="st39" d="M227.9,93.9c0,0.5,0,1.1,0,1.5c0,0.5,0.1,0.9,0.2,1.1s0.2,0.5,0.4,0.7c0.2,0.2,0.4,0.4,0.7,0.5
			c0.3,0.1,0.7,0.3,1.1,0.4v1.5h-12.3v-1.5c0.6-0.2,1-0.3,1.4-0.5c0.3-0.2,0.6-0.4,0.7-0.7c0.2-0.3,0.3-0.7,0.3-1.2
			c0-0.5,0.1-1.1,0.1-1.9V73.7c0-0.7,0-1.4-0.1-1.8c0-0.5-0.1-0.9-0.3-1.2c-0.2-0.3-0.4-0.6-0.7-0.8c-0.3-0.2-0.8-0.4-1.4-0.5v-1.5
			h12.3v1.5c-0.6,0.2-1.1,0.4-1.4,0.5c-0.3,0.2-0.5,0.4-0.7,0.7c-0.2,0.3-0.3,0.6-0.3,1.1c-0.1,0.5-0.1,1.1-0.1,2V93.9z M227.5,59.2
			v5.7H221v-5.7H227.5z"/>
	</g>
</g>
</svg>
