<?xml version="1.0" encoding="utf-8"?>
<!-- Generator: Adobe Illustrator 19.2.1, SVG Export Plug-In . SVG Version: 6.00 Build 0)  -->
<svg version="1.1" id="Layer_1" xmlns="http://www.w3.org/2000/svg" xmlns:xlink="http://www.w3.org/1999/xlink" x="0px" y="0px"
	 viewBox="0 0 132.6 135.8" style="enable-background:new 0 0 132.6 135.8;" xml:space="preserve">
<style type="text/css">
	.st0{fill:#BCBEC0;}
	.st1{fill:none;stroke:#000000;stroke-width:0.216;stroke-miterlimit:22.9256;}
	.st2{font-family:'FuturaBT-Bold';}
	.st3{font-size:6.625px;}
	.st4{font-family:'FrizQuadrataTT';}
	.st5{font-size:6.6258px;}
	.st6{font-size:6.6254px;}
	.st7{font-size:6.6253px;}
	.st8{font-size:6.6251px;}
	.st9{font-size:6.6249px;}
	.st10{font-size:6.6257px;}
	.st11{font-size:6.6246px;}
	.st12{font-size:6.6252px;}
	.st13{font-size:6.6248px;}
	.st14{font-size:6.6255px;}
	.st15{fill:#FFFFFF;}
	.st16{fill:#24206E;}
	.st17{fill:#B4161B;}
	.st18{fill:#ED1C24;}
	.st19{font-size:8.0099px;}
	.st20{font-family:'FuturaBT-Medium';}
	.st21{font-size:7.5793px;}
	.st22{font-size:7.5792px;}
	.st23{font-size:7.5797px;}
	.st24{font-size:7.5798px;}
	.st25{font-size:7.579px;}
	.st26{font-size:7.5799px;}
	.st27{font-size:7.5795px;}
	.st28{font-size:7.5796px;}
	.st29{font-size:7.5789px;}
	.st30{font-size:7.5802px;}
	.st31{font-size:7.5803px;}
	.st32{font-size:7.5801px;}
	.st33{font-size:7.58px;}
	.st34{font-size:7.5794px;}
	.st35{font-size:7.5791px;}
	.st36{fill:#2C296C;}
</style>
<g>
	<path class="st0" d="M64,110.8c29.7-13.4,41.5-47.2,33.3-79.1c-6.8-3-14.1-5.1-22.3-7c-0.7-0.2,0.5-5.5-1.3-8.4
		c-1.9-3.1-7-3.9-7.7-3.9c-1.5-0.2-3.2,10.7-4.8,10.6c-11.7-0.5-18.5,3.1-31.4,8.7C23.6,62.9,32.5,98.3,64,110.8"/>
	<path class="st0" d="M38.6,54.8c-1.6,5.8,7,5.5,10.1,3.7C43.6,64.3,33.3,59.9,38.6,54.8"/>
	<path class="st0" d="M84.8,52.5c-1.2,1.2-3.7,1.8-5.8,1.2c0.7-0.3,1.2-0.8,1.6-1.6C81.8,52.7,83.1,52.8,84.8,52.5"/>
	<path class="st0" d="M45.3,51.2c-2.6,0.8-5.5,2.2-7.7,5c0.4-1.1,1-2,1.6-2.6c14.1-15.1,37.3,6.2,46.4-1.6
		c-2.3,5.4-17.9,1.9-25.4-0.1C55.5,50.4,50.2,50.3,45.3,51.2"/>
	<path class="st0" d="M70.6,74.5h-5.8c0-7.2,0-14.2,0-21.4c2.2,0.7,3.6,0.9,5.8,1.1L70.6,74.5z"/>
	<line class="st1" x1="70.1" y1="61.8" x2="70.1" y2="65.9"/>
	<path class="st0" d="M87.7,74.4l-14-11.7l8.5-8.2c-1.7,0.6-3.7,0.8-5.4,0.7l-6.7,6.4v4.3l0.4,0.3l10.1,8.2L87.7,74.4L87.7,74.4z"/>
	<rect x="57.5" y="51.1" class="st0" width="5.6" height="23.3"/>
	<path class="st0" d="M55.6,70.1c0.2-2.8,0-11.8,0.1-18.1c-1.8-0.1-3.3-0.3-5.7-0.6c0,6.3,0.1,15.9,0,18.8c-0.7,3-5.4,2.5-7.7,0.1
		c-0.6,0.7-1.1,1.3-1.7,2c2.3,2.1,5.2,3.1,8.1,3.1C52.4,75,55.4,72.8,55.6,70.1"/>
	<text transform="matrix(-0.1045 -0.9945 0.9945 -0.1045 99.6346 45.8703)" class="st0 st2 st3">İ</text>
	<text transform="matrix(-6.979726e-002 -0.9976 0.9976 -6.979726e-002 99.8312 47.8483)" class="st0 st4 st5">J</text>
	<text transform="matrix(-3.489967e-002 -0.9994 0.9994 -3.489967e-002 99.8344 51.2959)" class="st0 st4 st6">E</text>
	<text transform="matrix(0 -1 1 0 99.6235 54.7397)" class="st0 st4 st7">L</text>
	<text transform="matrix(8.719920e-002 -0.9962 0.9962 8.719920e-002 98.9887 60.1745)" class="st0 st4 st6">O</text>
	<text transform="matrix(0.1736 -0.9848 0.9848 0.1736 98.0425 63.7408)" class="st0 st4 st8">K</text>
	<text transform="matrix(0.1908 -0.9816 0.9816 0.1908 97.9779 65.6744)" class="st0 st4 st9"> </text>
	<text transform="matrix(0.2419 -0.9703 0.9703 0.2419 96.8842 69.5813)" class="st0 st4 st7">R</text>
	<text transform="matrix(0.2756 -0.9613 0.9613 0.2756 95.7521 72.9615)" class="st0 st4 st10">E</text>
	<text transform="matrix(0.3584 -0.9336 0.9336 0.3584 93.9438 76.5405)" class="st0 st4 st10">Z</text>
	<text transform="matrix(0.3907 -0.9205 0.9205 0.3907 92.4339 79.7819)" class="st0 st4 st8">E</text>
	<text transform="matrix(0.4848 -0.8746 0.8746 0.4848 90.7783 82.9618)" class="st0 st4 st3">T</text>
	<text transform="matrix(0.515 -0.8572 0.8572 0.515 90.046 84.6949)" class="st0 st4 st6"> </text>
	<text transform="matrix(0.5592 -0.829 0.829 0.5592 87.9927 87.6104)" class="st0 st4 st3">E</text>
	<text transform="matrix(0.5878 -0.809 0.809 0.5878 85.7801 90.3856)" class="st0 st4 st7">L</text>
	<text transform="matrix(0.6691 -0.7431 0.7431 0.6691 82.1055 93.5035)" class="st0 st4 st11">A</text>
	<text transform="matrix(0.7071 -0.7071 0.7071 0.7071 80.8491 94.8222)" class="st0 st4 st12">J</text>
	<text transform="matrix(-5.230164e-002 0.9986 -0.9986 -5.230164e-002 31.0263 45.9207)" class="st0 st4 st9">J</text>
	<text transform="matrix(0 1 -1 0 30.8896 47.7753)" class="st0 st4 st7">A</text>
	<text transform="matrix(5.230164e-002 0.9986 -0.9986 5.230164e-002 31.7977 51.8792)" class="st0 st4 st9">L</text>
	<text transform="matrix(8.719920e-002 0.9962 -0.9962 8.719920e-002 32.1443 55.2619)" class="st0 st4 st6">E</text>
	<text transform="matrix(0.1219 0.9925 -0.9925 0.1219 32.6125 58.7761)" class="st0 st4 st13"> </text>
	<text transform="matrix(0.1564 0.9877 -0.9877 0.1564 32.5513 60.6906)" class="st0 st4 st6">T</text>
	<text transform="matrix(0.1908 0.9816 -0.9816 0.1908 33.0654 64.2813)" class="st0 st4 st9">E</text>
	<text transform="matrix(0.2588 0.9659 -0.9659 0.2588 33.8592 67.7215)" class="st0 st4 st9">Z</text>
	<text transform="matrix(0.2924 0.9563 -0.9563 0.2924 35.2724 71.4331)" class="st0 st4 st6">E</text>
	<text transform="matrix(0.3746 0.9272 -0.9272 0.3746 36.4047 74.8133)" class="st0 st4 st14">R</text>
	<text transform="matrix(0.4226 0.9063 -0.9063 0.4226 38.0867 78.5152)" class="st0 st4 st8"> </text>
	<text transform="matrix(0.4695 0.8829 -0.8829 0.4695 38.538 80.3727)" class="st0 st4 st9">K</text>
	<text transform="matrix(0.5446 0.8387 -0.8387 0.5446 40.4886 83.6251)" class="st0 st4 st6">O</text>
	<text transform="matrix(0.5878 0.809 -0.809 0.5878 43.711 88.1797)" class="st0 st4 st7">L</text>
	<text transform="matrix(0.6691 0.7431 -0.7431 0.6691 45.9143 91.0438)" class="st0 st4 st11">E</text>
	<text transform="matrix(0.7071 0.7071 -0.7071 0.7071 48.3596 93.6302)" class="st0 st4 st12">J</text>
	<text transform="matrix(0.7431 0.6691 -0.6691 0.7431 49.6803 95.0851)" class="st0 st2 st11">İ</text>
	<path class="st15" d="M66.1,111.4C95.8,98,107.7,64.2,99.4,32.3c-6.8-3-14.1-5.1-22.3-7c-0.7-0.2,0.5-5.5-1.3-8.4
		c-1.9-3.1-7-3.9-7.7-3.9c-1.5-0.2-3.2,10.7-4.8,10.6c-11.7-0.5-18.5,3.1-31.4,8.7C25.7,63.5,34.6,98.9,66.1,111.4"/>
	<path class="st16" d="M32.7,32.6c-6.1,30.8,2.7,65.7,33.8,78c29.2-13.2,40.9-46.5,32.8-78c-7-3.1-14.6-5.4-22.5-6.5
		c0.7-1.4,1.2-2.8,1.6-4.1c8.5,1.2,16.6,3.7,24.2,7.1c8.9,34.7-4,71.3-36.1,85.8C32.3,101.4,22.6,63,29.3,29.1
		c8.3-3.6,16.3-5.9,24.2-7.1c-1.2,1.5-2.2,3.1-2.9,4.9C44.7,28.1,38.7,30,32.7,32.6"/>
	<path class="st16" d="M52.4,44.9c-3.3-16.2,11.6-29,15.7-32C56.8,14.7,42.3,29.3,52.4,44.9"/>
	<path class="st16" d="M76.7,26.4C82.1,14.7,79.3,7.5,71.7,0c0.5,1.7,1.9,7.8-3.1,9.1C72.2,11.1,76.7,21.3,76.7,26.4"/>
	<path class="st17" d="M64.9,7.1C68.5,18.7,51.3,20.9,52,38.3c2.5-10.8,19.4-13.8,16.1-25.4c2.5,0.2,6,3.2,7.3,7.1
		C76.3,14.7,70.8,8.6,64.9,7.1"/>
	<path class="st18" d="M40.7,55.4c-1.6,5.8,7,5.5,10.1,3.7C45.7,64.8,35.4,60.5,40.7,55.4"/>
	<path class="st18" d="M86.9,53.1c-1.2,1.2-3.7,1.8-5.8,1.2c0.7-0.3,1.2-0.8,1.6-1.6C83.9,53.3,85.2,53.4,86.9,53.1"/>
	<path class="st16" d="M47.4,51.7c-2.6,0.8-5.5,2.2-7.7,5c0.4-1.1,1-2,1.6-2.6c14.1-15.1,37.3,6.2,46.4-1.6
		c-2.3,5.4-17.9,1.9-25.4-0.1C57.6,51,52.3,50.9,47.4,51.7"/>
	<path class="st16" d="M72.7,75.1h-5.8c0-7.2,0-14.2,0-21.4c2.2,0.7,3.6,0.9,5.8,1.1L72.7,75.1z"/>
	<line class="st1" x1="72.2" y1="62.4" x2="72.2" y2="66.5"/>
	<path class="st16" d="M89.8,75l-14-11.7l8.5-8.2c-1.7,0.6-3.7,0.8-5.4,0.7l-6.7,6.4v4.3l0.4,0.3L82.8,75L89.8,75L89.8,75z"/>
	<rect x="59.6" y="51.7" class="st16" width="5.6" height="23.3"/>
	<path class="st16" d="M57.7,70.6c0.2-2.8,0-11.8,0.1-18.1c-1.8-0.1-3.3-0.3-5.7-0.6c0,6.3,0.1,15.9,0,18.8c-0.7,3-5.4,2.5-7.7,0.1
		c-0.6,0.7-1.1,1.3-1.7,2c2.3,2.1,5.2,3.1,8.1,3.1C54.5,75.6,57.6,73.4,57.7,70.6"/>
	<text transform="matrix(1 0 0 1 57.0844 99.4447)" class="st18 st2 st19">19</text>
	<text transform="matrix(1 0 0 1 67.0966 99.4447)" class="st16 st2 st19">98</text>
	<text transform="matrix(-0.1045 0.9945 -0.9945 -0.1045 33.6949 39.6352)" class="st16 st20 st21">J</text>
	<text transform="matrix(-5.230164e-002 0.9986 -0.9986 -5.230164e-002 33.3431 42.5949)" class="st16 st20 st22">A</text>
	<text transform="matrix(-1.749907e-002 0.9998 -0.9998 -1.749907e-002 33.047 47.6775)" class="st16 st20 st23">L</text>
	<text transform="matrix(1.749907e-002 0.9998 -0.9998 1.749907e-002 32.9712 51.2377)" class="st16 st20 st23">E</text>
	<text transform="matrix(8.719920e-002 0.9962 -0.9962 8.719920e-002 33.0708 55.2523)" class="st16 st20 st24"> </text>
	<text transform="matrix(0.1219 0.9925 -0.9925 0.1219 33.1653 57.5295)" class="st16 st20 st25">T</text>
	<text transform="matrix(0.1564 0.9877 -0.9877 0.1564 33.6103 61.387)" class="st16 st20 st24">E</text>
	<text transform="matrix(0.1908 0.9816 -0.9816 0.1908 34.2301 65.3422)" class="st16 st20 st22">Z</text>
	<text transform="matrix(0.2588 0.9659 -0.9659 0.2588 35.0335 69.6574)" class="st16 st20 st22">E</text>
	<text transform="matrix(0.2924 0.9563 -0.9563 0.2924 36.1057 73.524)" class="st16 st20 st23">R</text>
	<text transform="matrix(0.3746 0.9272 -0.9272 0.3746 37.4008 77.5433)" class="st16 st20 st26"> </text>
	<text transform="matrix(0.4226 0.9063 -0.9063 0.4226 38.1783 79.7331)" class="st16 st20 st27">K</text>
	<text transform="matrix(0.5 0.866 -0.866 0.5 39.9445 83.8271)" class="st16 st20 st21">O</text>
	<text transform="matrix(0.5878 0.809 -0.809 0.5878 43.2547 89.5023)" class="st16 st20 st28">L</text>
	<text transform="matrix(0.6293 0.7771 -0.7771 0.6293 45.2961 92.3937)" class="st16 st20 st29">E</text>
	<text transform="matrix(0.6691 0.7431 -0.7431 0.6691 47.8242 95.5818)" class="st16 st20 st29">J</text>
	<text transform="matrix(0.7071 0.7071 -0.7071 0.7071 49.8191 97.706)" class="st16 st20 st27">İ</text>
	<text transform="matrix(-0.1392 -0.9903 0.9903 -0.1392 99.0372 40.609)" class="st18 st20 st30">İ</text>
	<text transform="matrix(-0.1045 -0.9945 0.9945 -0.1045 99.4725 43.5748)" class="st18 st20 st21">J</text>
	<text transform="matrix(-6.979726e-002 -0.9976 0.9976 -6.979726e-002 99.8325 47.5809)" class="st18 st20 st31">E</text>
	<text transform="matrix(-3.489967e-002 -0.9994 0.9994 -3.489967e-002 99.9865 51.1455)" class="st18 st20 st24">L</text>
	<text transform="matrix(5.230164e-002 -0.9986 0.9986 5.230164e-002 99.7865 57.7387)" class="st18 st20 st22">O</text>
	<text transform="matrix(0.1219 -0.9925 0.9925 0.1219 99.3795 62.1434)" class="st18 st20 st25">K</text>
	<text transform="matrix(0.1564 -0.9877 0.9877 0.1564 98.9795 64.4152)" class="st18 st20 st24"> </text>
	<text transform="matrix(0.1908 -0.9816 0.9816 0.1908 98.2356 68.5812)" class="st18 st20 st22">R</text>
	<text transform="matrix(0.2756 -0.9613 0.9613 0.2756 97.1384 72.4456)" class="st18 st20 st32">E</text>
	<text transform="matrix(0.3256 -0.9455 0.9455 0.3256 95.8137 76.6047)" class="st18 st20 st28">Z</text>
	<text transform="matrix(0.4067 -0.9136 0.9136 0.4067 94.1993 80.3244)" class="st18 st20 st27">E</text>
	<text transform="matrix(0.4384 -0.8988 0.8988 0.4384 92.5386 83.8149)" class="st18 st20 st33">T</text>
	<text transform="matrix(0.4848 -0.8746 0.8746 0.4848 91.4705 85.7821)" class="st18 st20 st34"> </text>
	<text transform="matrix(0.515 -0.8572 0.8572 0.515 89.4108 89.2793)" class="st18 st20 st24">E</text>
	<text transform="matrix(0.6018 -0.7986 0.7986 0.6018 87.2803 92.1467)" class="st18 st20 st35">L</text>
	<text transform="matrix(0.6293 -0.7771 0.7771 0.6293 84.1606 96.0106)" class="st18 st20 st29">A</text>
	<text transform="matrix(0.7071 -0.7071 0.7071 0.7071 82.0161 98.1382)" class="st18 st20 st27">J</text>
</g>
<g>
	<path class="st36" d="M3.6,131.9c0,0.6-0.1,1-0.1,1.4c-0.1,0.4-0.2,0.6-0.4,0.9c-0.2,0.3-0.6,0.6-1,0.9c-0.5,0.3-1.1,0.5-1.8,0.8
		L0,134.9c0.3-0.1,0.5-0.3,0.7-0.4s0.3-0.3,0.3-0.4c0.1-0.1,0.1-0.3,0.2-0.5c0-0.2,0.1-0.5,0.1-0.9v-8.5c0-0.2,0-0.5,0-0.6
		c0-0.2-0.1-0.3-0.1-0.4c-0.1-0.1-0.1-0.2-0.2-0.2s-0.3-0.1-0.5-0.2v-0.5h4.1v0.5c-0.2,0.1-0.4,0.1-0.5,0.2
		c-0.1,0.1-0.2,0.1-0.2,0.2c-0.1,0.1-0.1,0.2-0.1,0.4c0,0.1,0,0.4,0,0.7L3.6,131.9L3.6,131.9z"/>
	<path class="st36" d="M11.1,129.5H7.7l-0.3,0.7c-0.1,0.2-0.1,0.4-0.2,0.6c-0.1,0.2-0.1,0.4-0.1,0.6c0,0.5,0.3,0.8,0.8,0.8v0.5H4.7
		v-0.5c0.2,0,0.4-0.1,0.5-0.2c0.1-0.1,0.3-0.3,0.4-0.5c0.1-0.2,0.2-0.5,0.4-0.8l3.2-8.7h2.1l2.6,8.7c0.1,0.4,0.2,0.7,0.3,0.8
		c0.1,0.2,0.2,0.3,0.3,0.4c0.1,0.1,0.3,0.2,0.5,0.2v0.5h-4.3v-0.5c0.3,0,0.5-0.1,0.6-0.2c0.1-0.1,0.2-0.3,0.2-0.5
		c0-0.2,0-0.4-0.1-0.5c0-0.2-0.1-0.5-0.2-0.8L11.1,129.5z M8,128.6h2.8l-1.2-4.4L8,128.6z"/>
	<path class="st36" d="M19.6,122.1v0.5c-0.2,0.1-0.3,0.1-0.4,0.2c-0.1,0.1-0.2,0.1-0.2,0.2c-0.1,0.1-0.1,0.2-0.1,0.4
		c0,0.2,0,0.4,0,0.6v7.8h1.5c0.3,0,0.5-0.1,0.7-0.1c0.2-0.1,0.4-0.2,0.5-0.4c0.1-0.2,0.2-0.5,0.4-0.8c0.1-0.3,0.2-0.6,0.2-0.9h1.1
		l-0.2,3.1h-7.4v-0.5c0.2-0.1,0.4-0.1,0.5-0.2c0.1-0.1,0.2-0.1,0.2-0.2s0.1-0.2,0.1-0.4c0-0.2,0-0.4,0-0.6v-6.7c0-0.2,0-0.5,0-0.6
		c0-0.2-0.1-0.3-0.1-0.4s-0.1-0.2-0.2-0.2s-0.3-0.1-0.5-0.2v-0.5L19.6,122.1L19.6,122.1z"/>
	<path class="st36" d="M31.6,122.1v2.5h-1.1c-0.2-0.5-0.3-0.8-0.4-1c-0.1-0.2-0.3-0.3-0.4-0.4c-0.2-0.1-0.5-0.2-0.8-0.2h-1.7v3.7h1
		c0.2,0,0.4,0,0.5-0.1c0.1-0.1,0.2-0.2,0.3-0.3c0.1-0.2,0.2-0.4,0.2-0.7h0.9v3.2h-0.9c-0.1-0.3-0.2-0.5-0.2-0.7
		c-0.1-0.2-0.2-0.3-0.3-0.4c-0.1-0.1-0.3-0.1-0.5-0.1h-1v4.2h1.7c0.2,0,0.3,0,0.5,0s0.2-0.1,0.3-0.1c0.1-0.1,0.2-0.1,0.3-0.2
		c0.1-0.1,0.2-0.2,0.2-0.3c0.1-0.1,0.1-0.3,0.2-0.5c0.1-0.2,0.2-0.4,0.3-0.8h1.1l-0.1,2.8h-7.7v-0.5c0.2-0.1,0.4-0.1,0.5-0.2
		c0.1-0.1,0.2-0.1,0.2-0.2c0.1-0.1,0.1-0.2,0.1-0.4c0-0.2,0-0.4,0-0.6V124c0-0.2,0-0.5,0-0.6c0-0.2-0.1-0.3-0.1-0.4
		c-0.1-0.1-0.1-0.2-0.2-0.2c-0.1-0.1-0.3-0.1-0.5-0.2v-0.5L31.6,122.1L31.6,122.1z"/>
	<path class="st36" d="M38,132.8v-0.5c0.2,0,0.4-0.1,0.5-0.1s0.2-0.1,0.3-0.2c0.1-0.1,0.1-0.2,0.1-0.4c0-0.2,0-0.4,0-0.6v-7.8h-0.6
		c-0.3,0-0.5,0-0.7,0.1c-0.2,0.1-0.3,0.2-0.4,0.4c-0.1,0.2-0.2,0.4-0.3,0.6c-0.1,0.3-0.2,0.5-0.2,0.8h-1.1v-2.7h9.2v2.7h-1.1
		c-0.1-0.4-0.2-0.6-0.2-0.8c-0.1-0.2-0.1-0.3-0.2-0.4c-0.1-0.1-0.1-0.2-0.2-0.3c-0.1-0.1-0.2-0.1-0.2-0.2c-0.1-0.1-0.2-0.1-0.3-0.1
		c-0.1,0-0.3,0-0.5,0h-0.6v7.7c0,0.3,0,0.5,0,0.6s0.1,0.3,0.1,0.4c0.1,0.1,0.1,0.2,0.2,0.2c0.1,0.1,0.1,0.1,0.2,0.1
		c0.1,0.1,0.2,0.1,0.4,0.1v0.5H38z"/>
	<path class="st36" d="M53.3,122.1v2.5h-1.1c-0.2-0.5-0.3-0.8-0.4-1c-0.1-0.2-0.3-0.3-0.4-0.4c-0.2-0.1-0.5-0.2-0.8-0.2h-1.7v3.7h1
		c0.2,0,0.4,0,0.5-0.1c0.1-0.1,0.2-0.2,0.3-0.3c0.1-0.2,0.2-0.4,0.2-0.7h0.9v3.2H51c-0.1-0.3-0.2-0.5-0.2-0.7
		c-0.1-0.2-0.2-0.3-0.3-0.4c-0.1-0.1-0.3-0.1-0.5-0.1h-1v4.2h1.7c0.2,0,0.3,0,0.5,0c0.1,0,0.2-0.1,0.3-0.1c0.1-0.1,0.2-0.1,0.3-0.2
		c0.1-0.1,0.2-0.2,0.2-0.3c0.1-0.1,0.1-0.3,0.2-0.5c0.1-0.2,0.2-0.4,0.3-0.8h1.1l-0.1,2.8h-7.7v-0.5c0.2-0.1,0.4-0.1,0.5-0.2
		c0.1-0.1,0.2-0.1,0.2-0.2s0.1-0.2,0.1-0.4c0-0.2,0-0.4,0-0.6V124c0-0.2,0-0.5,0-0.6c0-0.2-0.1-0.3-0.1-0.4
		c-0.1-0.1-0.1-0.2-0.2-0.2c-0.1-0.1-0.3-0.1-0.5-0.2v-0.5L53.3,122.1L53.3,122.1z"/>
	<path class="st36" d="M57.2,131.8h2.2c0.3,0,0.5-0.1,0.7-0.2c0.2-0.1,0.4-0.3,0.5-0.6c0.1-0.2,0.3-0.7,0.4-1.3h1.1v3h-7.8v-0.5
		l5-9.2h-2.1c-0.4,0-0.6,0.1-0.8,0.2c-0.2,0.1-0.4,0.3-0.5,0.6c-0.1,0.3-0.3,0.6-0.4,1.1h-1.1v-2.8h7.7v0.5L57.2,131.8z"/>
	<path class="st36" d="M70.8,122.1v2.5h-1.1c-0.2-0.5-0.3-0.8-0.4-1c-0.1-0.2-0.3-0.3-0.4-0.4c-0.2-0.1-0.5-0.2-0.8-0.2h-1.7v3.7h1
		c0.2,0,0.4,0,0.5-0.1c0.1-0.1,0.2-0.2,0.3-0.3c0.1-0.2,0.2-0.4,0.2-0.7h0.9v3.2h-0.9c-0.1-0.3-0.2-0.5-0.2-0.7
		c-0.1-0.2-0.2-0.3-0.3-0.4c-0.1-0.1-0.3-0.1-0.5-0.1h-1v4.2H68c0.2,0,0.3,0,0.5,0c0.1,0,0.2-0.1,0.3-0.1c0.1-0.1,0.2-0.1,0.3-0.2
		c0.1-0.1,0.2-0.2,0.2-0.3c0.1-0.1,0.1-0.3,0.2-0.5c0.1-0.2,0.2-0.4,0.3-0.8h1.1l-0.1,2.8h-7.7v-0.5c0.2-0.1,0.4-0.1,0.5-0.2
		c0.1-0.1,0.2-0.1,0.2-0.2s0.1-0.2,0.1-0.4c0-0.2,0-0.4,0-0.6V124c0-0.2,0-0.5,0-0.6c0-0.2-0.1-0.3-0.1-0.4
		c-0.1-0.1-0.1-0.2-0.2-0.2c-0.1-0.1-0.3-0.1-0.5-0.2v-0.5L70.8,122.1L70.8,122.1z"/>
	<path class="st36" d="M76,132.8h-4.1v-0.5c0.2-0.1,0.4-0.1,0.5-0.2s0.2-0.1,0.2-0.2c0.1-0.1,0.1-0.2,0.1-0.4c0-0.2,0-0.4,0-0.6
		v-6.7c0-0.2,0-0.5,0-0.6c0-0.2-0.1-0.3-0.1-0.4c-0.1-0.1-0.1-0.2-0.2-0.2c-0.1-0.1-0.3-0.1-0.5-0.2v-0.5h4.5c0.6,0,1.1,0.1,1.6,0.1
		c0.4,0.1,0.8,0.2,1.1,0.4c0.3,0.1,0.5,0.3,0.7,0.5c0.2,0.2,0.3,0.5,0.4,0.8c0.1,0.3,0.2,0.6,0.2,1c0,0.5-0.1,0.9-0.3,1.3
		c-0.2,0.4-0.4,0.7-0.7,0.9s-0.7,0.5-1.2,0.7v0.1c0.4,0.2,0.7,0.4,0.9,0.7c0.2,0.3,0.5,0.6,0.7,1.1l0.5,1.1c0.2,0.5,0.4,0.8,0.6,1.1
		c0.2,0.2,0.5,0.4,0.8,0.4v0.5h-3c-0.3-0.4-0.6-1-1-1.9l-0.6-1.3c-0.2-0.4-0.4-0.7-0.5-0.8c-0.1-0.2-0.3-0.3-0.4-0.4
		s-0.4-0.1-0.6-0.1h-0.5v2.5c0,0.4,0,0.7,0.1,0.8c0,0.2,0.1,0.3,0.2,0.4c0.1,0.1,0.3,0.2,0.6,0.2L76,132.8L76,132.8z M75.1,123.1
		v4.3h0.8c0.4,0,0.8-0.1,1-0.2c0.3-0.1,0.5-0.3,0.6-0.5c0.2-0.2,0.3-0.4,0.3-0.7c0.1-0.3,0.1-0.6,0.1-0.9c0-0.7-0.2-1.2-0.5-1.6
		c-0.3-0.4-0.8-0.5-1.5-0.5C75.6,123.1,75.3,123.1,75.1,123.1z"/>
	<path class="st36" d="M93.8,130.7c0.2,0.3,0.4,0.6,0.5,0.8c0.1,0.2,0.3,0.3,0.4,0.4c0.1,0.1,0.2,0.2,0.3,0.2
		c0.1,0.1,0.2,0.1,0.4,0.2v0.5h-4.2v-0.5c0.2,0,0.3-0.1,0.4-0.1c0.1-0.1,0.1-0.1,0.1-0.2c0-0.1,0-0.2,0-0.2c0-0.1-0.1-0.2-0.2-0.4
		c-0.1-0.2-0.3-0.4-0.5-0.9l-1.2-1.8c-0.1-0.2-0.3-0.4-0.4-0.5c-0.1-0.1-0.2-0.2-0.3-0.3c-0.1-0.1-0.2-0.1-0.4-0.1h-0.2v3.1
		c0,0.2,0,0.4,0,0.5c0,0.2,0,0.3,0.1,0.4c0,0.1,0.1,0.2,0.1,0.2c0.1,0.1,0.1,0.1,0.2,0.2c0.1,0.1,0.2,0.1,0.4,0.1v0.5h-4.1v-0.5
		c0.2-0.1,0.4-0.1,0.5-0.2c0.1-0.1,0.2-0.1,0.2-0.2c0.1-0.1,0.1-0.2,0.1-0.4c0-0.2,0-0.4,0-0.6v-6.7c0-0.2,0-0.5,0-0.6
		c0-0.2-0.1-0.3-0.1-0.4c-0.1-0.1-0.1-0.2-0.2-0.2s-0.3-0.1-0.5-0.2v-0.5h4.2v0.5c-0.2,0.1-0.4,0.1-0.5,0.2s-0.2,0.1-0.2,0.2
		c-0.1,0.1-0.1,0.2-0.1,0.4c0,0.1,0,0.4,0,0.7v2.8h0.2c0.2,0,0.4,0,0.6-0.1c0.1-0.1,0.3-0.1,0.4-0.3c0.1-0.1,0.4-0.5,0.9-0.9
		c0.4-0.5,0.7-0.9,0.9-1.1c0.2-0.3,0.3-0.5,0.4-0.7c0.1-0.2,0.1-0.4,0.1-0.5c0-0.2-0.1-0.3-0.2-0.4c-0.1-0.1-0.3-0.2-0.5-0.2v-0.5h4
		v0.5c-0.2,0-0.4,0.1-0.5,0.2c-0.1,0.1-0.3,0.2-0.5,0.4c-0.2,0.2-0.4,0.4-0.7,0.7l-2.3,2.6L93.8,130.7z"/>
	<path class="st36" d="M100.3,132.9c-1.5,0-2.7-0.5-3.5-1.3c-0.8-0.9-1.2-2.2-1.2-4c0-1.2,0.2-2.2,0.6-3c0.4-0.8,0.9-1.5,1.6-1.9
		c0.7-0.4,1.6-0.6,2.6-0.6c1.6,0,2.7,0.5,3.5,1.3c0.8,0.9,1.2,2.2,1.2,4c0,1-0.1,1.8-0.4,2.5c-0.2,0.7-0.6,1.3-1,1.7
		c-0.4,0.5-0.9,0.8-1.5,1C101.7,132.8,101,132.9,100.3,132.9z M98.2,127.3c0,1.6,0.2,2.7,0.6,3.5c0.4,0.8,0.9,1.2,1.7,1.2
		c0.4,0,0.7-0.1,1-0.3s0.5-0.5,0.7-0.9c0.2-0.4,0.3-0.8,0.4-1.4c0.1-0.5,0.1-1.1,0.1-1.8c0-1-0.1-1.9-0.2-2.6s-0.4-1.2-0.7-1.6
		c-0.3-0.4-0.8-0.5-1.3-0.5c-0.8,0-1.3,0.4-1.7,1.1C98.4,124.7,98.2,125.8,98.2,127.3z"/>
	<path class="st36" d="M110.4,122.1v0.5c-0.2,0.1-0.3,0.1-0.4,0.2c-0.1,0.1-0.2,0.1-0.2,0.2c-0.1,0.1-0.1,0.2-0.1,0.4
		c0,0.2,0,0.4,0,0.6v7.8h1.5c0.3,0,0.5-0.1,0.7-0.1c0.2-0.1,0.4-0.2,0.5-0.4c0.1-0.2,0.2-0.5,0.4-0.8c0.1-0.3,0.2-0.6,0.2-0.9h1.1
		l-0.2,3.2h-7.4v-0.5c0.2-0.1,0.4-0.1,0.5-0.2c0.1-0.1,0.2-0.1,0.2-0.2c0.1-0.1,0.1-0.2,0.1-0.4c0-0.2,0-0.4,0-0.6v-6.7
		c0-0.2,0-0.5,0-0.6c0-0.2-0.1-0.3-0.1-0.4c-0.1-0.1-0.1-0.2-0.2-0.2s-0.3-0.1-0.5-0.2v-0.5L110.4,122.1L110.4,122.1z"/>
	<path class="st36" d="M122.4,122.1v2.5h-1.1c-0.2-0.5-0.3-0.8-0.4-1c-0.1-0.2-0.3-0.3-0.4-0.4c-0.2-0.1-0.5-0.2-0.8-0.2H118v3.7h1
		c0.2,0,0.4,0,0.5-0.1c0.1-0.1,0.2-0.2,0.3-0.3c0.1-0.2,0.2-0.4,0.2-0.7h0.9v3.2h-0.9c-0.1-0.3-0.2-0.5-0.2-0.7
		c-0.1-0.2-0.2-0.3-0.3-0.4c-0.1-0.1-0.3-0.1-0.5-0.1h-1v4.2h1.7c0.2,0,0.3,0,0.5,0c0.1,0,0.2-0.1,0.3-0.1c0.1-0.1,0.2-0.1,0.3-0.2
		c0.1-0.1,0.2-0.2,0.2-0.3c0.1-0.1,0.1-0.3,0.2-0.5c0.1-0.2,0.2-0.4,0.3-0.8h1.1l-0.1,2.8h-7.7v-0.5c0.2-0.1,0.4-0.1,0.5-0.2
		c0.1-0.1,0.2-0.1,0.2-0.2c0.1-0.1,0.1-0.2,0.1-0.4c0-0.2,0-0.4,0-0.6V124c0-0.2,0-0.5,0-0.6c0-0.2-0.1-0.3-0.1-0.4
		c-0.1-0.1-0.1-0.2-0.2-0.2c-0.1-0.1-0.3-0.1-0.5-0.2v-0.5L122.4,122.1L122.4,122.1z"/>
	<path class="st36" d="M126.7,131.9c0,0.6-0.1,1-0.1,1.4c-0.1,0.4-0.2,0.6-0.4,0.9c-0.2,0.3-0.6,0.6-1,0.9c-0.5,0.3-1.1,0.5-1.8,0.8
		l-0.4-1c0.3-0.1,0.5-0.3,0.7-0.4s0.3-0.3,0.3-0.4c0.1-0.1,0.1-0.3,0.2-0.5c0-0.2,0.1-0.5,0.1-0.9v-8.5c0-0.2,0-0.5,0-0.6
		c0-0.2-0.1-0.3-0.1-0.4c-0.1-0.1-0.1-0.2-0.2-0.2s-0.3-0.1-0.5-0.2v-0.5h4.1v0.5c-0.2,0.1-0.4,0.1-0.5,0.2
		c-0.1,0.1-0.2,0.1-0.2,0.2c-0.1,0.1-0.1,0.2-0.1,0.4c0,0.1,0,0.4,0,0.7L126.7,131.9L126.7,131.9z"/>
	<path class="st36" d="M131.8,130.8c0,0.2,0,0.4,0,0.5c0,0.2,0,0.3,0.1,0.4c0,0.1,0.1,0.2,0.1,0.2c0.1,0.1,0.1,0.1,0.2,0.2
		c0.1,0.1,0.2,0.1,0.4,0.1v0.5h-4.1v-0.5c0.2-0.1,0.4-0.1,0.5-0.2c0.1-0.1,0.2-0.1,0.2-0.2s0.1-0.2,0.1-0.4c0-0.2,0-0.4,0-0.6v-6.7
		c0-0.2,0-0.5,0-0.6c0-0.2-0.1-0.3-0.1-0.4c-0.1-0.1-0.1-0.2-0.2-0.2c-0.1-0.1-0.3-0.1-0.5-0.2v-0.5h4.1v0.5
		c-0.2,0.1-0.4,0.1-0.5,0.2c-0.1,0.1-0.2,0.1-0.2,0.2c-0.1,0.1-0.1,0.2-0.1,0.4c0,0.2,0,0.4,0,0.7V130.8z M131.7,119.3v1.9h-2.1
		v-1.9H131.7z"/>
</g>
</svg>
